<?xml version="1.0" encoding="UTF-8"?>
<!DOCTYPE svg PUBLIC "-//W3C//DTD SVG 1.1//EN" "http://www.w3.org/Graphics/SVG/1.1/DTD/svg11.dtd">
<svg xmlns="http://www.w3.org/2000/svg" version="1.1" width="512px" height="512px" style="shape-rendering:geometricPrecision; text-rendering:geometricPrecision; image-rendering:optimizeQuality; fill-rule:evenodd; clip-rule:evenodd" xmlns:xlink="http://www.w3.org/1999/xlink">
<g><path style="opacity:0.985" fill="#322e3e" d="M 112.5,-0.5 C 236.5,-0.5 360.5,-0.5 484.5,-0.5C 490.88,2.05332 495.046,6.71998 497,13.5C 497.667,40.1667 497.667,66.8333 497,93.5C 496.152,96.6978 494.652,99.5311 492.5,102C 494.652,104.469 496.152,107.302 497,110.5C 497.667,233.5 497.667,356.5 497,479.5C 495.237,486.262 491.07,490.762 484.5,493C 368.833,493.333 253.167,493.667 137.5,494C 126.646,503.095 114.313,508.928 100.5,511.5C 92.5,511.5 84.5,511.5 76.5,511.5C 44.5855,504.423 24.0855,485.089 15,453.5C 9.0912,414.818 23.2579,386.318 57.5,368C 71.3543,362.378 85.6876,360.545 100.5,362.5C 100.333,278.166 100.5,193.833 101,109.5C 102.123,106.751 103.623,104.251 105.5,102C 103.383,100.269 101.883,98.1024 101,95.5C 100.333,67.8333 100.333,40.1667 101,12.5C 103.273,6.73035 107.106,2.39702 112.5,-0.5 Z M 215.5,38.5 C 271.168,38.3333 326.834,38.5 382.5,39C 380.332,44.0032 378.666,49.1698 377.5,54.5C 325.162,54.8333 272.829,54.4999 220.5,53.5C 218.628,48.5504 216.961,43.5504 215.5,38.5 Z"/></g>
<g><path style="opacity:1" fill="#e87246" d="M 210.5,10.5 C 209.943,14.8884 211.61,18.0551 215.5,20C 271.167,20.6667 326.833,20.6667 382.5,20C 385.963,17.8504 387.296,14.6838 386.5,10.5C 418.168,10.3334 449.835,10.5 481.5,11C 482.931,11.4652 484.097,12.2986 485,13.5C 486.648,39.4129 486.981,65.4129 486,91.5C 485.215,93.286 484.049,94.786 482.5,96C 474.841,96.4997 467.174,96.6664 459.5,96.5C 459.662,94.4727 459.495,92.4727 459,90.5C 457.624,89.2949 456.458,87.9616 455.5,86.5C 461.434,87.1113 467.1,86.278 472.5,84C 473.701,83.0975 474.535,81.9308 475,80.5C 475.667,62.5 475.667,44.5 475,26.5C 473.749,23.6193 471.583,21.786 468.5,21C 448.833,20.3333 429.167,20.3333 409.5,21C 407,22.1667 405.167,24 404,26.5C 404.691,39.4026 402.358,51.7359 397,63.5C 394.438,69.0611 390.272,72.8945 384.5,75C 355.893,76.1548 327.226,76.6548 298.5,76.5C 269.453,76.6507 240.453,76.1507 211.5,75C 205.469,71.306 201.303,66.1393 199,59.5C 197.33,54.4891 195.663,49.4891 194,44.5C 193.434,39.8166 193.601,35.1499 194.5,30.5C 194.241,25.8183 191.907,22.6516 187.5,21C 167.833,20.3333 148.167,20.3333 128.5,21C 126,22.1667 124.167,24 123,26.5C 122.333,44.5 122.333,62.5 123,80.5C 124.167,83 126,84.8333 128.5,86C 133.155,86.4992 137.821,86.6658 142.5,86.5C 139.277,88.9464 137.61,92.2798 137.5,96.5C 130.159,96.6663 122.826,96.4997 115.5,96C 113.951,94.786 112.785,93.286 112,91.5C 111.019,65.4129 111.352,39.4129 113,13.5C 113.833,12.6667 114.667,11.8333 115.5,11C 147.165,10.5 178.832,10.3334 210.5,10.5 Z M 215.5,38.5 C 216.961,43.5504 218.628,48.5504 220.5,53.5C 272.829,54.4999 325.162,54.8333 377.5,54.5C 378.666,49.1698 380.332,44.0032 382.5,39C 326.834,38.5 271.168,38.3333 215.5,38.5 Z"/></g>
<g><path style="opacity:1" fill="#fedf72" d="M 210.5,10.5 C 269.167,10.5 327.833,10.5 386.5,10.5C 387.296,14.6838 385.963,17.8504 382.5,20C 326.833,20.6667 271.167,20.6667 215.5,20C 211.61,18.0551 209.943,14.8884 210.5,10.5 Z"/></g>
<g><path style="opacity:1" fill="#fea846" d="M 455.5,86.5 C 443.833,86.5 432.167,86.5 420.5,86.5C 416.884,79.446 411.051,76.446 403,77.5C 395.269,76.9479 389.436,79.9479 385.5,86.5C 362.5,86.5 339.5,86.5 316.5,86.5C 312.315,79.6586 306.149,76.6586 298,77.5C 290.438,76.9278 284.938,79.9278 281.5,86.5C 258.167,86.5 234.833,86.5 211.5,86.5C 207.884,79.446 202.051,76.446 194,77.5C 186.362,76.733 180.862,79.733 177.5,86.5C 165.833,86.5 154.167,86.5 142.5,86.5C 137.821,86.6658 133.155,86.4992 128.5,86C 126,84.8333 124.167,83 123,80.5C 122.333,62.5 122.333,44.5 123,26.5C 124.167,24 126,22.1667 128.5,21C 148.167,20.3333 167.833,20.3333 187.5,21C 191.907,22.6516 194.241,25.8183 194.5,30.5C 193.601,35.1499 193.434,39.8166 194,44.5C 195.663,49.4891 197.33,54.4891 199,59.5C 201.303,66.1393 205.469,71.306 211.5,75C 240.453,76.1507 269.453,76.6507 298.5,76.5C 327.226,76.6548 355.893,76.1548 384.5,75C 390.272,72.8945 394.438,69.0611 397,63.5C 402.358,51.7359 404.691,39.4026 404,26.5C 405.167,24 407,22.1667 409.5,21C 429.167,20.3333 448.833,20.3333 468.5,21C 471.583,21.786 473.749,23.6193 475,26.5C 475.667,44.5 475.667,62.5 475,80.5C 474.535,81.9308 473.701,83.0975 472.5,84C 467.1,86.278 461.434,87.1113 455.5,86.5 Z M 215.5,38.5 C 216.961,43.5504 218.628,48.5504 220.5,53.5C 272.829,54.4999 325.162,54.8333 377.5,54.5C 378.666,49.1698 380.332,44.0032 382.5,39C 326.834,38.5 271.168,38.3333 215.5,38.5 Z"/></g>
<g><path style="opacity:0.955" fill="#302d3d" d="M 210.5,27.5 C 269.168,27.3333 327.834,27.5 386.5,28C 390.819,29.9794 393.152,33.3127 393.5,38C 391.676,46.8081 388.676,55.1415 384.5,63C 382.913,63.8624 381.246,64.5291 379.5,65C 325.167,65.6667 270.833,65.6667 216.5,65C 214.376,63.8783 212.543,62.3783 211,60.5C 209,54.5 207,48.5 205,42.5C 204.333,39.5 204.333,36.5 205,33.5C 206.36,30.9774 208.193,28.9774 210.5,27.5 Z M 215.5,38.5 C 216.961,43.5504 218.628,48.5504 220.5,53.5C 272.829,54.4999 325.162,54.8333 377.5,54.5C 378.666,49.1698 380.332,44.0032 382.5,39C 326.834,38.5 271.168,38.3333 215.5,38.5 Z"/></g>
<g><path style="opacity:1" fill="#ffde71" d="M 144.5,36.5 C 154.273,36.0525 163.939,36.5525 173.5,38C 174.667,39.1667 175.833,40.3333 177,41.5C 178.469,46.9052 180.135,52.2385 182,57.5C 183.119,63.4291 180.953,67.5958 175.5,70C 164.402,70.9537 153.402,70.6204 142.5,69C 140.951,67.786 139.785,66.286 139,64.5C 138.333,57.1667 138.333,49.8333 139,42.5C 140.36,39.9774 142.193,37.9774 144.5,36.5 Z"/></g>
<g><path style="opacity:1" fill="#ffdf72" d="M 425.5,36.5 C 434.506,36.3336 443.506,36.5002 452.5,37C 455.583,37.786 457.749,39.6193 459,42.5C 459.934,50.6047 459.601,58.6047 458,66.5C 456.681,68.4875 454.848,69.6541 452.5,70C 441.402,70.9537 430.402,70.6204 419.5,69C 415.797,65.604 414.631,61.4374 416,56.5C 417.642,51.9343 418.975,47.2677 420,42.5C 421.36,39.9774 423.193,37.9774 425.5,36.5 Z"/></g>
<g><path style="opacity:1" fill="#ea3b45" d="M 142.5,86.5 C 154.167,86.5 165.833,86.5 177.5,86.5C 176.586,89.728 176.253,93.0613 176.5,96.5C 163.5,96.5 150.5,96.5 137.5,96.5C 137.61,92.2798 139.277,88.9464 142.5,86.5 Z"/></g>
<g><path style="opacity:1" fill="#ea3a45" d="M 211.5,86.5 C 234.833,86.5 258.167,86.5 281.5,86.5C 280.676,89.7644 280.342,93.0977 280.5,96.5C 257.833,96.5 235.167,96.5 212.5,96.5C 212.747,93.0613 212.414,89.728 211.5,86.5 Z"/></g>
<g><path style="opacity:1" fill="#ea3a45" d="M 316.5,86.5 C 339.5,86.5 362.5,86.5 385.5,86.5C 385.5,87.5 385.5,88.5 385.5,89.5C 384.532,91.6074 384.198,93.9407 384.5,96.5C 362.167,96.5 339.833,96.5 317.5,96.5C 317.802,93.9407 317.468,91.6074 316.5,89.5C 316.5,88.5 316.5,87.5 316.5,86.5 Z"/></g>
<g><path style="opacity:1" fill="#ea3b45" d="M 420.5,86.5 C 432.167,86.5 443.833,86.5 455.5,86.5C 456.458,87.9616 457.624,89.2949 459,90.5C 459.495,92.4727 459.662,94.4727 459.5,96.5C 446.833,96.5 434.167,96.5 421.5,96.5C 421.658,93.0977 421.324,89.7644 420.5,86.5 Z"/></g>
<g><path style="opacity:1" fill="#505078" d="M 189.5,87.5 C 192.85,87.335 196.183,87.5017 199.5,88C 200,88.5 200.5,89 201,89.5C 201.667,97.8333 201.667,106.167 201,114.5C 200.5,115 200,115.5 199.5,116C 196.167,116.667 192.833,116.667 189.5,116C 188.333,115.5 187.5,114.667 187,113.5C 186.333,105.833 186.333,98.1667 187,90.5C 188.045,89.6266 188.878,88.6266 189.5,87.5 Z"/></g>
<g><path style="opacity:1" fill="#515179" d="M 293.5,88.5 C 297.182,88.3347 300.848,88.5014 304.5,89C 305,89.5 305.5,90 306,90.5C 306.667,98.5 306.667,106.5 306,114.5C 305.5,115 305,115.5 304.5,116C 300.833,116.667 297.167,116.667 293.5,116C 293,115.5 292.5,115 292,114.5C 291.333,106.5 291.333,98.5 292,90.5C 292.717,89.9558 293.217,89.2891 293.5,88.5 Z"/></g>
<g><path style="opacity:1" fill="#515079" d="M 397.5,88.5 C 401.767,88.203 405.934,88.5363 410,89.5C 410.667,97.8333 410.667,106.167 410,114.5C 409.5,115 409,115.5 408.5,116C 404.833,116.667 401.167,116.667 397.5,116C 397,115.5 396.5,115 396,114.5C 395.333,106.5 395.333,98.5 396,90.5C 396.717,89.9558 397.217,89.2891 397.5,88.5 Z"/></g>
<g><path style="opacity:1" fill="#8c3442" d="M 316.5,89.5 C 317.468,91.6074 317.802,93.9407 317.5,96.5C 339.833,96.5 362.167,96.5 384.5,96.5C 384.198,93.9407 384.532,91.6074 385.5,89.5C 385.5,92.1667 385.5,94.8333 385.5,97.5C 362.5,97.5 339.5,97.5 316.5,97.5C 316.5,94.8333 316.5,92.1667 316.5,89.5 Z"/></g>
<g><path style="opacity:1" fill="#96a6bd" d="M 116.5,108.5 C 136.326,107.503 156.326,107.17 176.5,107.5C 176.5,109.833 176.5,112.167 176.5,114.5C 175.539,112.735 175.205,110.735 175.5,108.5C 155.833,108.5 136.167,108.5 116.5,108.5 Z"/></g>
<g><path style="opacity:1" fill="#b8cde7" d="M 316.5,115.5 C 317.468,113.393 317.802,111.059 317.5,108.5C 339.833,108.5 362.167,108.5 384.5,108.5C 384.216,110.415 384.549,112.081 385.5,113.5C 385.951,120.119 389.284,124.619 395.5,127C 400.5,127.667 405.5,127.667 410.5,127C 418.933,123.31 422.6,116.81 421.5,107.5C 441.503,107.333 461.503,107.5 481.5,108C 483.333,109.167 484.833,110.667 486,112.5C 486.667,234.167 486.667,355.833 486,477.5C 485.167,479.667 483.667,481.167 481.5,482C 477.848,482.499 474.182,482.665 470.5,482.5C 471.09,481.234 471.59,479.901 472,478.5C 472.667,367.167 472.667,255.833 472,144.5C 470.01,140.51 466.843,138.01 462.5,137C 353.167,136.333 243.833,136.333 134.5,137C 130,138.833 126.833,142 125,146.5C 124.5,221.499 124.333,296.499 124.5,371.5C 120.493,368.997 116.16,367.33 111.5,366.5C 111.333,281.833 111.5,197.166 112,112.5C 112.748,110.249 114.248,108.916 116.5,108.5C 136.167,108.5 155.833,108.5 175.5,108.5C 175.205,110.735 175.539,112.735 176.5,114.5C 177.409,120.579 180.743,124.746 186.5,127C 191.5,127.667 196.5,127.667 201.5,127C 210.366,123.594 214.033,117.094 212.5,107.5C 235.167,107.5 257.833,107.5 280.5,107.5C 279.383,116.771 283.049,123.271 291.5,127C 296.5,127.667 301.5,127.667 306.5,127C 311.816,124.853 315.149,121.02 316.5,115.5 Z"/></g>
<g><path style="opacity:1" fill="#93a2b9" d="M 385.5,113.5 C 384.549,112.081 384.216,110.415 384.5,108.5C 362.167,108.5 339.833,108.5 317.5,108.5C 317.802,111.059 317.468,113.393 316.5,115.5C 316.5,112.833 316.5,110.167 316.5,107.5C 339.5,107.5 362.5,107.5 385.5,107.5C 385.5,109.5 385.5,111.5 385.5,113.5 Z"/></g>
<g><path style="opacity:1" fill="#e5e7e8" d="M 470.5,482.5 C 362.833,482.667 255.166,482.5 147.5,482C 151.752,476.986 155.085,471.486 157.5,465.5C 252.999,466.666 348.666,466.832 444.5,466C 450.553,464.947 454.387,461.447 456,455.5C 456.667,356.833 456.667,258.167 456,159.5C 454.373,154.938 451.206,152.105 446.5,151C 347.833,150.333 249.167,150.333 150.5,151C 145.6,152.902 142.433,156.402 141,161.5C 140.5,235.166 140.333,308.833 140.5,382.5C 135.196,378.843 129.862,375.177 124.5,371.5C 124.333,296.499 124.5,221.499 125,146.5C 126.833,142 130,138.833 134.5,137C 243.833,136.333 353.167,136.333 462.5,137C 466.843,138.01 470.01,140.51 472,144.5C 472.667,255.833 472.667,367.167 472,478.5C 471.59,479.901 471.09,481.234 470.5,482.5 Z"/></g>
<g><path style="opacity:1" fill="#fdfdfd" d="M 157.5,465.5 C 168.595,434.307 162.929,406.641 140.5,382.5C 140.333,308.833 140.5,235.166 141,161.5C 142.433,156.402 145.6,152.902 150.5,151C 249.167,150.333 347.833,150.333 446.5,151C 451.206,152.105 454.373,154.938 456,159.5C 456.667,258.167 456.667,356.833 456,455.5C 454.387,461.447 450.553,464.947 444.5,466C 348.666,466.832 252.999,466.666 157.5,465.5 Z"/></g>
<g><path style="opacity:1" fill="#322f3f" d="M 166.5,187.5 C 175.839,187.334 185.173,187.5 194.5,188C 196.96,189.458 199.127,191.291 201,193.5C 201.667,203.5 201.667,213.5 201,223.5C 199.878,225.624 198.378,227.457 196.5,229C 164.225,238.724 152.058,227.224 160,194.5C 161.694,191.642 163.861,189.309 166.5,187.5 Z"/></g>
<g><path style="opacity:1" fill="#322f3f" d="M 225.5,187.5 C 234.839,187.334 244.173,187.5 253.5,188C 255.624,189.122 257.457,190.622 259,192.5C 260.617,202.734 260.95,213.067 260,223.5C 258.878,225.624 257.378,227.457 255.5,229C 223.225,238.724 211.058,227.224 219,194.5C 220.694,191.642 222.861,189.309 225.5,187.5 Z"/></g>
<g><path style="opacity:1" fill="#343141" d="M 285.5,187.5 C 294.506,187.334 303.506,187.5 312.5,188C 316.333,189.167 318.833,191.667 320,195.5C 320.667,204.5 320.667,213.5 320,222.5C 318.833,226.333 316.333,228.833 312.5,230C 303.5,230.667 294.5,230.667 285.5,230C 281.23,228.73 278.73,225.896 278,221.5C 277.333,212.833 277.333,204.167 278,195.5C 279.353,191.65 281.853,188.983 285.5,187.5 Z"/></g>
<g><path style="opacity:1" fill="#343141" d="M 344.5,187.5 C 353.506,187.334 362.506,187.5 371.5,188C 374.102,188.883 376.269,190.383 378,192.5C 379.613,202.066 379.947,211.733 379,221.5C 378.27,225.896 375.77,228.73 371.5,230C 362.5,230.667 353.5,230.667 344.5,230C 341,228.5 338.5,226 337,222.5C 336.333,213.5 336.333,204.5 337,195.5C 338.353,191.65 340.853,188.983 344.5,187.5 Z"/></g>
<g><path style="opacity:1" fill="#322f3f" d="M 403.5,187.5 C 412.506,187.334 421.506,187.5 430.5,188C 433.196,188.69 435.363,190.19 437,192.5C 438.615,202.4 438.949,212.4 438,222.5C 437.31,225.196 435.81,227.363 433.5,229C 423.574,230.59 413.574,230.923 403.5,230C 401.376,228.878 399.543,227.378 398,225.5C 396.381,214.932 396.048,204.265 397,193.5C 399.063,191.266 401.229,189.266 403.5,187.5 Z"/></g>
<g><path style="opacity:1" fill="#505079" d="M 169.5,198.5 C 176.833,198.5 184.167,198.5 191.5,198.5C 191.5,205.5 191.5,212.5 191.5,219.5C 184.167,219.5 176.833,219.5 169.5,219.5C 169.5,212.5 169.5,205.5 169.5,198.5 Z"/></g>
<g><path style="opacity:1" fill="#515079" d="M 228.5,198.5 C 235.833,198.5 243.167,198.5 250.5,198.5C 250.5,205.5 250.5,212.5 250.5,219.5C 243.167,219.5 235.833,219.5 228.5,219.5C 228.5,212.5 228.5,205.5 228.5,198.5 Z"/></g>
<g><path style="opacity:1" fill="#51527b" d="M 288.5,198.5 C 295.5,198.5 302.5,198.5 309.5,198.5C 309.5,205.5 309.5,212.5 309.5,219.5C 302.5,219.5 295.5,219.5 288.5,219.5C 288.5,212.5 288.5,205.5 288.5,198.5 Z"/></g>
<g><path style="opacity:1" fill="#51527b" d="M 347.5,198.5 C 354.5,198.5 361.5,198.5 368.5,198.5C 368.5,205.5 368.5,212.5 368.5,219.5C 361.5,219.5 354.5,219.5 347.5,219.5C 347.5,212.5 347.5,205.5 347.5,198.5 Z"/></g>
<g><path style="opacity:1" fill="#505079" d="M 406.5,198.5 C 413.833,198.5 421.167,198.5 428.5,198.5C 428.5,205.5 428.5,212.5 428.5,219.5C 421.167,219.5 413.833,219.5 406.5,219.5C 406.5,212.5 406.5,205.5 406.5,198.5 Z"/></g>
<g><path style="opacity:1" fill="#322f3e" d="M 167.5,244.5 C 176.173,244.334 184.84,244.5 193.5,245C 196.102,245.883 198.269,247.383 200,249.5C 201.617,259.734 201.95,270.067 201,280.5C 200.167,284 198,286.167 194.5,287C 184.833,287.667 175.167,287.667 165.5,287C 162.619,285.749 160.786,283.583 160,280.5C 159.333,270.833 159.333,261.167 160,251.5C 161.742,248.254 164.242,245.921 167.5,244.5 Z"/></g>
<g><path style="opacity:1" fill="#322f3e" d="M 226.5,244.5 C 235.173,244.334 243.84,244.5 252.5,245C 255.102,245.883 257.269,247.383 259,249.5C 260.617,259.734 260.95,270.067 260,280.5C 259.167,284 257,286.167 253.5,287C 243.833,287.667 234.167,287.667 224.5,287C 221.619,285.749 219.786,283.583 219,280.5C 218.333,270.833 218.333,261.167 219,251.5C 220.742,248.254 223.242,245.921 226.5,244.5 Z"/></g>
<g><path style="opacity:1" fill="#333040" d="M 285.5,244.5 C 294.173,244.334 302.84,244.5 311.5,245C 314.625,245.979 317.125,247.813 319,250.5C 320.613,260.066 320.947,269.733 320,279.5C 319.117,282.102 317.617,284.269 315.5,286C 305.241,287.592 294.907,287.926 284.5,287C 282.376,285.878 280.543,284.378 279,282.5C 277.41,272.574 277.077,262.574 278,252.5C 279.353,248.65 281.853,245.983 285.5,244.5 Z"/></g>
<g><path style="opacity:1" fill="#333040" d="M 344.5,244.5 C 353.506,244.334 362.506,244.5 371.5,245C 374.937,246.105 377.437,248.272 379,251.5C 379.667,260.833 379.667,270.167 379,279.5C 378.31,282.196 376.81,284.363 374.5,286C 364.266,287.617 353.933,287.95 343.5,287C 340.272,285.437 338.105,282.937 337,279.5C 336.333,270.5 336.333,261.5 337,252.5C 338.69,248.979 341.19,246.312 344.5,244.5 Z"/></g>
<g><path style="opacity:1" fill="#322f3f" d="M 403.5,244.5 C 412.506,244.334 421.506,244.5 430.5,245C 433.102,245.883 435.269,247.383 437,249.5C 438.617,259.734 438.95,270.067 438,280.5C 437.167,284 435,286.167 431.5,287C 421.833,287.667 412.167,287.667 402.5,287C 400.714,286.215 399.214,285.049 398,283.5C 396.381,272.932 396.048,262.265 397,251.5C 398.694,248.642 400.861,246.309 403.5,244.5 Z"/></g>
<g><path style="opacity:1" fill="#505077" d="M 169.5,255.5 C 176.833,255.5 184.167,255.5 191.5,255.5C 191.5,262.833 191.5,270.167 191.5,277.5C 184.167,277.5 176.833,277.5 169.5,277.5C 169.5,270.167 169.5,262.833 169.5,255.5 Z"/></g>
<g><path style="opacity:1" fill="#505077" d="M 228.5,255.5 C 235.833,255.5 243.167,255.5 250.5,255.5C 250.5,262.833 250.5,270.167 250.5,277.5C 243.167,277.5 235.833,277.5 228.5,277.5C 228.5,270.167 228.5,262.833 228.5,255.5 Z"/></g>
<g><path style="opacity:1" fill="#505079" d="M 288.5,255.5 C 295.5,255.5 302.5,255.5 309.5,255.5C 309.5,262.833 309.5,270.167 309.5,277.5C 302.5,277.5 295.5,277.5 288.5,277.5C 288.5,270.167 288.5,262.833 288.5,255.5 Z"/></g>
<g><path style="opacity:1" fill="#505077" d="M 347.5,255.5 C 354.833,255.5 362.167,255.5 369.5,255.5C 369.5,262.833 369.5,270.167 369.5,277.5C 362.167,277.5 354.833,277.5 347.5,277.5C 347.5,270.167 347.5,262.833 347.5,255.5 Z"/></g>
<g><path style="opacity:1" fill="#504f77" d="M 406.5,255.5 C 413.833,255.5 421.167,255.5 428.5,255.5C 428.5,262.833 428.5,270.167 428.5,277.5C 421.167,277.5 413.833,277.5 406.5,277.5C 406.5,270.167 406.5,262.833 406.5,255.5 Z"/></g>
<g><path style="opacity:1" fill="#322f3f" d="M 166.5,302.5 C 175.506,302.334 184.506,302.5 193.5,303C 196.539,304.031 199.039,305.865 201,308.5C 201.667,318.5 201.667,328.5 201,338.5C 199.437,341.728 196.937,343.895 193.5,345C 184.5,345.667 175.5,345.667 166.5,345C 164.391,343.859 162.558,342.359 161,340.5C 159.381,329.932 159.048,319.265 160,308.5C 162.063,306.266 164.229,304.266 166.5,302.5 Z"/></g>
<g><path style="opacity:1" fill="#322f3f" d="M 225.5,302.5 C 234.506,302.334 243.506,302.5 252.5,303C 255.539,304.031 258.039,305.865 260,308.5C 260.667,318.5 260.667,328.5 260,338.5C 258.437,341.728 255.937,343.895 252.5,345C 243.5,345.667 234.5,345.667 225.5,345C 223.376,343.878 221.543,342.378 220,340.5C 218.381,329.932 218.048,319.265 219,308.5C 221.063,306.266 223.229,304.266 225.5,302.5 Z"/></g>
<g><path style="opacity:1" fill="#343141" d="M 284.5,302.5 C 293.839,302.334 303.173,302.5 312.5,303C 316.333,304.167 318.833,306.667 320,310.5C 320.667,319.167 320.667,327.833 320,336.5C 319.27,340.896 316.77,343.73 312.5,345C 303.5,345.667 294.5,345.667 285.5,345C 281.23,343.73 278.73,340.896 278,336.5C 277.333,327.5 277.333,318.5 278,309.5C 279.694,306.642 281.861,304.309 284.5,302.5 Z"/></g>
<g><path style="opacity:1" fill="#343141" d="M 343.5,302.5 C 352.839,302.334 362.173,302.5 371.5,303C 374.196,303.69 376.363,305.19 378,307.5C 379.615,317.4 379.949,327.4 379,337.5C 377.833,341.333 375.333,343.833 371.5,345C 362.5,345.667 353.5,345.667 344.5,345C 340.572,343.407 338.072,340.573 337,336.5C 336.333,327.833 336.333,319.167 337,310.5C 338.305,307.039 340.471,304.372 343.5,302.5 Z"/></g>
<g><path style="opacity:1" fill="#322f3f" d="M 403.5,302.5 C 412.506,302.334 421.506,302.5 430.5,303C 433.196,303.69 435.363,305.19 437,307.5C 438.615,317.4 438.949,327.4 438,337.5C 436.86,341.307 434.36,343.807 430.5,345C 421.5,345.667 412.5,345.667 403.5,345C 401.376,343.878 399.543,342.378 398,340.5C 396.381,329.932 396.048,319.265 397,308.5C 398.914,306.144 401.081,304.144 403.5,302.5 Z"/></g>
<g><path style="opacity:1" fill="#505079" d="M 169.5,313.5 C 176.833,313.5 184.167,313.5 191.5,313.5C 191.5,320.5 191.5,327.5 191.5,334.5C 184.167,334.5 176.833,334.5 169.5,334.5C 169.5,327.5 169.5,320.5 169.5,313.5 Z"/></g>
<g><path style="opacity:1" fill="#515079" d="M 228.5,313.5 C 235.833,313.5 243.167,313.5 250.5,313.5C 250.5,320.5 250.5,327.5 250.5,334.5C 243.167,334.5 235.833,334.5 228.5,334.5C 228.5,327.5 228.5,320.5 228.5,313.5 Z"/></g>
<g><path style="opacity:1" fill="#51527b" d="M 288.5,313.5 C 295.5,313.5 302.5,313.5 309.5,313.5C 309.5,320.5 309.5,327.5 309.5,334.5C 302.5,334.5 295.5,334.5 288.5,334.5C 288.5,327.5 288.5,320.5 288.5,313.5 Z"/></g>
<g><path style="opacity:1" fill="#51527b" d="M 347.5,313.5 C 354.5,313.5 361.5,313.5 368.5,313.5C 368.5,320.5 368.5,327.5 368.5,334.5C 361.5,334.5 354.5,334.5 347.5,334.5C 347.5,327.5 347.5,320.5 347.5,313.5 Z"/></g>
<g><path style="opacity:1" fill="#505079" d="M 406.5,313.5 C 413.833,313.5 421.167,313.5 428.5,313.5C 428.5,320.5 428.5,327.5 428.5,334.5C 421.167,334.5 413.833,334.5 406.5,334.5C 406.5,327.5 406.5,320.5 406.5,313.5 Z"/></g>
<g><path style="opacity:1" fill="#302d3d" d="M 165.5,360.5 C 175.506,360.334 185.506,360.5 195.5,361C 197.286,361.785 198.786,362.951 200,364.5C 201.617,374.734 201.95,385.067 201,395.5C 200.167,399 198,401.167 194.5,402C 184.833,402.667 175.167,402.667 165.5,402C 162.619,400.749 160.786,398.583 160,395.5C 159.333,385.833 159.333,376.167 160,366.5C 161.36,363.977 163.193,361.977 165.5,360.5 Z"/></g>
<g><path style="opacity:1" fill="#302d3d" d="M 224.5,360.5 C 234.506,360.334 244.506,360.5 254.5,361C 256.286,361.785 257.786,362.951 259,364.5C 260.617,374.734 260.95,385.067 260,395.5C 259.167,399 257,401.167 253.5,402C 243.833,402.667 234.167,402.667 224.5,402C 221.619,400.749 219.786,398.583 219,395.5C 218.333,385.833 218.333,376.167 219,366.5C 220.36,363.977 222.193,361.977 224.5,360.5 Z"/></g>
<g><path style="opacity:1" fill="#322f3f" d="M 283.5,360.5 C 293.506,360.334 303.506,360.5 313.5,361C 315.624,362.122 317.457,363.622 319,365.5C 320.613,375.066 320.947,384.733 320,394.5C 319.117,397.102 317.617,399.269 315.5,401C 305.241,402.592 294.907,402.926 284.5,402C 282.376,400.878 280.543,399.378 279,397.5C 277.41,387.574 277.077,377.574 278,367.5C 279.371,364.734 281.204,362.401 283.5,360.5 Z"/></g>
<g><path style="opacity:1" fill="#505077" d="M 169.5,370.5 C 176.833,370.5 184.167,370.5 191.5,370.5C 191.5,377.833 191.5,385.167 191.5,392.5C 184.167,392.5 176.833,392.5 169.5,392.5C 169.5,385.167 169.5,377.833 169.5,370.5 Z"/></g>
<g><path style="opacity:1" fill="#505077" d="M 228.5,370.5 C 235.833,370.5 243.167,370.5 250.5,370.5C 250.5,377.833 250.5,385.167 250.5,392.5C 243.167,392.5 235.833,392.5 228.5,392.5C 228.5,385.167 228.5,377.833 228.5,370.5 Z"/></g>
<g><path style="opacity:1" fill="#515079" d="M 288.5,370.5 C 295.5,370.5 302.5,370.5 309.5,370.5C 309.5,377.833 309.5,385.167 309.5,392.5C 302.5,392.5 295.5,392.5 288.5,392.5C 288.5,385.167 288.5,377.833 288.5,370.5 Z"/></g>
<g><path style="opacity:1" fill="#48d092" d="M 76.5,373.5 C 116.639,370.832 141.805,388.832 152,427.5C 154.397,461.558 139.897,485.058 108.5,498C 72.2748,506.802 45.7748,494.635 29,461.5C 17.4715,424.073 28.9715,396.24 63.5,378C 67.9797,376.564 72.313,375.064 76.5,373.5 Z"/></g>
<g><path style="opacity:1" fill="#312f3f" d="M 55.5,422.5 C 61.5,422.5 67.5,422.5 73.5,422.5C 73.5,416.5 73.5,410.5 73.5,404.5C 73.5743,402.589 74.5743,401.422 76.5,401C 84.5,400.333 92.5,400.333 100.5,401C 101.333,401.833 102.167,402.667 103,403.5C 103.499,409.491 103.666,415.491 103.5,421.5C 109.509,421.334 115.509,421.501 121.5,422C 122.333,422.833 123.167,423.667 124,424.5C 124.667,432.833 124.667,441.167 124,449.5C 123.167,450.333 122.333,451.167 121.5,452C 115.509,452.499 109.509,452.666 103.5,452.5C 103.793,458.893 103.46,465.227 102.5,471.5C 101.975,472.192 101.308,472.692 100.5,473C 92.1667,473.667 83.8333,473.667 75.5,473C 75,472.5 74.5,472 74,471.5C 73.5005,465.175 73.3338,458.842 73.5,452.5C 67.1579,452.666 60.8246,452.5 54.5,452C 54,451.5 53.5,451 53,450.5C 51.396,442.27 51.0627,433.937 52,425.5C 52.4224,423.574 53.5891,422.574 55.5,422.5 Z"/></g>
<g><path style="opacity:1" fill="#b6b4ba" d="M 92.5,411.5 C 89.8333,411.5 87.1667,411.5 84.5,411.5C 84.8222,417.358 84.4889,423.025 83.5,428.5C 83.5,422.5 83.5,416.5 83.5,410.5C 86.7131,410.19 89.7131,410.523 92.5,411.5 Z"/></g>
<g><path style="opacity:1" fill="#fcfcfc" d="M 92.5,411.5 C 92.3339,417.176 92.5006,422.843 93,428.5C 93.4652,429.931 94.2986,431.097 95.5,432C 101.825,432.5 108.158,432.666 114.5,432.5C 114.5,435.5 114.5,438.5 114.5,441.5C 108.491,441.334 102.491,441.501 96.5,442C 94.5743,442.422 93.5743,443.589 93.5,445.5C 92.5111,450.975 92.1778,456.642 92.5,462.5C 89.5,462.5 86.5,462.5 83.5,462.5C 83.6662,456.491 83.4995,450.491 83,444.5C 82.1667,443.667 81.3333,442.833 80.5,442C 74.5092,441.501 68.5092,441.334 62.5,441.5C 62.5,438.5 62.5,435.5 62.5,432.5C 68.5092,432.666 74.5092,432.499 80.5,432C 82.0557,431.28 83.0557,430.113 83.5,428.5C 84.4889,423.025 84.8222,417.358 84.5,411.5C 87.1667,411.5 89.8333,411.5 92.5,411.5 Z"/></g>
<g><path style="opacity:1" fill="#396a5d" d="M 73.5,404.5 C 73.5,410.5 73.5,416.5 73.5,422.5C 67.5,422.5 61.5,422.5 55.5,422.5C 60.9753,421.511 66.642,421.178 72.5,421.5C 72.1778,415.642 72.5111,409.975 73.5,404.5 Z"/></g>
<g><path style="opacity:1" fill="#353242" d="M 237.5,444.5 C 278.168,444.333 318.835,444.5 359.5,445C 364.395,447.823 364.729,451.157 360.5,455C 319.167,455.667 277.833,455.667 236.5,455C 233.711,451.225 234.045,447.725 237.5,444.5 Z"/></g>
<g><path style="opacity:1" fill="#929099" d="M 93.5,445.5 C 93.5,451.5 93.5,457.5 93.5,463.5C 89.9581,463.813 86.6248,463.479 83.5,462.5C 86.5,462.5 89.5,462.5 92.5,462.5C 92.1778,456.642 92.5111,450.975 93.5,445.5 Z"/></g>
</svg>
