<?xml version="1.0" encoding="UTF-8"?>
<!DOCTYPE svg PUBLIC "-//W3C//DTD SVG 1.1//EN" "http://www.w3.org/Graphics/SVG/1.1/DTD/svg11.dtd">
<svg xmlns="http://www.w3.org/2000/svg" version="1.1" width="512px" height="512px" style="shape-rendering:geometricPrecision; text-rendering:geometricPrecision; image-rendering:optimizeQuality; fill-rule:evenodd; clip-rule:evenodd" xmlns:xlink="http://www.w3.org/1999/xlink">
<g><path style="opacity:0.994" fill="#241f20" d="M 198.5,-0.5 C 237.167,-0.5 275.833,-0.5 314.5,-0.5C 368.591,25.4674 398.758,68.4674 405,128.5C 405.167,204.169 405.667,279.836 406.5,355.5C 423.032,361.51 439.365,368.01 455.5,375C 456.701,375.903 457.535,377.069 458,378.5C 465.436,419.18 472.936,459.846 480.5,500.5C 480.153,505.499 477.819,509.165 473.5,511.5C 470.5,511.5 467.5,511.5 464.5,511.5C 461.354,508.561 459.187,504.895 458,500.5C 456.924,493.276 455.424,486.276 453.5,479.5C 449.186,449.778 443.852,420.278 437.5,391C 421.904,385.025 406.404,378.858 391,372.5C 392.93,380.322 394.43,388.322 395.5,396.5C 414.943,407.329 420.109,422.995 411,443.5C 401.555,456.001 389.055,460.501 373.5,457C 356.676,450.198 349.509,437.698 352,419.5C 354.755,408.655 361.255,400.988 371.5,396.5C 373.933,381.196 368.599,369.363 355.5,361C 344.017,354.894 332.017,350.061 319.5,346.5C 319.5,390.833 319.5,435.167 319.5,479.5C 319.914,488.582 319.414,497.582 318,506.5C 316.195,508.826 314.028,510.492 311.5,511.5C 309.5,511.5 307.5,511.5 305.5,511.5C 302.861,509.691 300.694,507.358 299,504.5C 298.832,479.663 298.332,454.997 297.5,430.5C 289.167,421.5 280.5,412.833 271.5,404.5C 266.521,398.854 261.188,393.521 255.5,388.5C 249.479,393.854 243.812,399.521 238.5,405.5C 233.833,409.5 229.5,413.833 225.5,418.5C 221.202,422.296 217.036,426.296 213,430.5C 212.667,455.167 212.333,479.833 212,504.5C 210.233,507.772 207.733,510.105 204.5,511.5C 202.5,511.5 200.5,511.5 198.5,511.5C 195.443,509.605 193.277,506.938 192,503.5C 191.667,450.833 191.333,398.167 191,345.5C 187.124,347.284 183.291,348.951 179.5,350.5C 165.917,353.733 154.417,360.4 145,370.5C 138.898,381.766 136.898,393.766 139,406.5C 163.217,416.243 173.551,434.243 170,460.5C 168.895,463.937 166.728,466.437 163.5,468C 157.167,468.667 150.833,468.667 144.5,468C 139.15,464.629 137.317,459.796 139,453.5C 141.297,450.02 144.464,448.02 148.5,447.5C 147.723,433.724 140.39,426.724 126.5,426.5C 113.377,427.614 107.043,434.614 107.5,447.5C 117.519,451.769 119.186,458.269 112.5,467C 110.846,467.608 109.179,468.108 107.5,468.5C 101.379,468.91 95.3792,468.41 89.5,467C 85.4515,463.4 83.7849,458.9 84.5,453.5C 84.0682,430.33 94.5682,414.663 116,406.5C 115.934,394.894 117.268,383.561 120,372.5C 104.596,378.858 89.0964,385.025 73.5,391C 70.5898,401.289 68.5898,411.789 67.5,422.5C 62.6973,446.97 58.1973,471.636 54,496.5C 52.8982,502.373 50.3982,507.373 46.5,511.5C 43.5,511.5 40.5,511.5 37.5,511.5C 33.1807,509.165 30.8474,505.499 30.5,500.5C 37.6889,459.365 45.5222,418.365 54,377.5C 55.1094,375.185 56.9427,373.685 59.5,373C 74.5,367.167 89.5,361.333 104.5,355.5C 105.333,279.502 105.833,203.502 106,127.5C 112.154,66.8132 142.987,24.1465 198.5,-0.5 Z"/></g>
<g><path style="opacity:1" fill="#fddd75" d="M 138.5,128.5 C 142.602,87.2904 160.602,53.6237 192.5,27.5C 211.487,15.5423 232.32,9.87563 255,10.5C 318.878,13.6033 360.545,45.6033 380,106.5C 382.424,115.366 383.424,124.366 383,133.5C 373.808,128.753 363.975,126.586 353.5,127C 334.652,116.82 317.486,104.32 302,89.5C 295.139,81.6067 288.639,73.44 282.5,65C 277.416,62.6786 272.75,63.3453 268.5,67C 253.125,82.8549 235.459,95.5215 215.5,105C 196.735,112.922 177.735,120.255 158.5,127C 151.8,127.286 145.133,127.786 138.5,128.5 Z"/></g>
<g><path style="opacity:1" fill="#f8c764" d="M 192.5,27.5 C 160.602,53.6237 142.602,87.2904 138.5,128.5C 134.829,129.752 131.329,131.418 128,133.5C 129.64,94.5484 145.473,62.715 175.5,38C 180.888,33.9766 186.554,30.4766 192.5,27.5 Z"/></g>
<g><path style="opacity:1" fill="#efc6aa" d="M 287.5,104.5 C 278.339,101.003 269.006,100.669 259.5,103.5C 264.769,99.4074 269.935,95.074 275,90.5C 279.003,95.3354 283.17,100.002 287.5,104.5 Z"/></g>
<g><path style="opacity:1" fill="#fddcc6" d="M 287.5,104.5 C 302.657,120.411 319.99,133.411 339.5,143.5C 340.667,170.16 340.833,196.827 340,223.5C 339.798,225.256 339.298,226.922 338.5,228.5C 304.048,215.138 268.381,210.305 231.5,214C 221.436,215.184 211.436,216.684 201.5,218.5C 190.384,216.887 183.55,210.553 181,199.5C 180.18,180.093 180.347,160.76 181.5,141.5C 209.336,132.582 235.336,119.915 259.5,103.5C 269.006,100.669 278.339,101.003 287.5,104.5 Z"/></g>
<g><path style="opacity:1" fill="#f4cbae" d="M 181.5,141.5 C 180.347,160.76 180.18,180.093 181,199.5C 183.55,210.553 190.384,216.887 201.5,218.5C 191.641,221.432 181.808,224.765 172,228.5C 170.377,200.874 170.043,173.207 171,145.5C 174.312,143.674 177.812,142.34 181.5,141.5 Z"/></g>
<g><path style="opacity:1" fill="#f3c9ad" d="M 144.5,149.5 C 145.833,149.5 147.167,149.5 148.5,149.5C 148.5,163.5 148.5,177.5 148.5,191.5C 132.993,189.172 126.16,180.172 128,164.5C 130.501,156.165 136.001,151.165 144.5,149.5 Z"/></g>
<g><path style="opacity:1" fill="#6b5b51" d="M 144.5,149.5 C 145.919,148.549 147.585,148.216 149.5,148.5C 149.829,163.01 149.496,177.343 148.5,191.5C 148.5,177.5 148.5,163.5 148.5,149.5C 147.167,149.5 145.833,149.5 144.5,149.5 Z"/></g>
<g><path style="opacity:1" fill="#6e6058" d="M 365.5,149.5 C 364.5,149.5 363.5,149.5 362.5,149.5C 362.5,163.5 362.5,177.5 362.5,191.5C 361.504,177.343 361.171,163.01 361.5,148.5C 363.099,148.232 364.432,148.566 365.5,149.5 Z"/></g>
<g><path style="opacity:1" fill="#fbdbc4" d="M 365.5,149.5 C 376.701,151.721 382.701,158.554 383.5,170C 382.395,182.938 375.395,190.105 362.5,191.5C 362.5,177.5 362.5,163.5 362.5,149.5C 363.5,149.5 364.5,149.5 365.5,149.5 Z"/></g>
<g><path style="opacity:1" fill="#262122" d="M 202.5,159.5 C 218.677,159.167 225.177,166.833 222,182.5C 215.499,191.834 207.332,193.667 197.5,188C 188.233,176.561 189.9,167.061 202.5,159.5 Z"/></g>
<g><path style="opacity:1" fill="#262122" d="M 298.5,159.5 C 314.677,159.167 321.177,166.833 318,182.5C 311.499,191.834 303.332,193.667 293.5,188C 284.233,176.561 285.9,167.061 298.5,159.5 Z"/></g>
<g><path style="opacity:1" fill="#fddc75" d="M 383.5,335.5 C 371.912,330.373 360.912,324.206 350.5,317C 340.773,309.368 334.773,299.534 332.5,287.5C 351.784,266.329 361.451,241.329 361.5,212.5C 368.894,212.488 375.894,210.821 382.5,207.5C 383.5,250.161 383.833,292.828 383.5,335.5 Z"/></g>
<g><path style="opacity:1" fill="#fecb65" d="M 148.5,212.5 C 146.383,250.255 160.383,280.255 190.5,302.5C 191.497,309.134 191.83,315.8 191.5,322.5C 170.376,330.713 149.21,339.046 128,347.5C 127.167,300.83 127.333,254.163 128.5,207.5C 134.664,211.222 141.331,212.889 148.5,212.5 Z"/></g>
<g><path style="opacity:1" fill="#81bbf2" d="M 300.5,284.5 C 256.964,293.462 222.297,279.962 196.5,244C 197.056,243.617 197.389,243.117 197.5,242.5C 243.258,230.119 288.258,232.452 332.5,249.5C 325.278,264.386 314.611,276.052 300.5,284.5 Z"/></g>
<g><path style="opacity:1" fill="#f4b353" d="M 148.5,212.5 C 150.136,252.442 167.802,283.109 201.5,304.5C 202.494,309.456 202.827,314.456 202.5,319.5C 198.763,320.2 195.096,321.2 191.5,322.5C 191.83,315.8 191.497,309.134 190.5,302.5C 160.383,280.255 146.383,250.255 148.5,212.5 Z"/></g>
<g><path style="opacity:1" fill="#6ea9e3" d="M 197.5,242.5 C 197.389,243.117 197.056,243.617 196.5,244C 222.297,279.962 256.964,293.462 300.5,284.5C 290.818,290.9 280.151,295.066 268.5,297C 227.931,300.885 197.931,285.052 178.5,249.5C 184.593,246.579 190.926,244.246 197.5,242.5 Z"/></g>
<g><path style="opacity:1" fill="#fbc965" d="M 332.5,287.5 C 334.773,299.534 340.773,309.368 350.5,317C 360.912,324.206 371.912,330.373 383.5,335.5C 383.824,339.555 383.491,343.555 382.5,347.5C 358.376,337.771 334.043,328.605 309.5,320C 308.365,315.252 308.198,310.419 309,305.5C 317.494,300.339 325.327,294.339 332.5,287.5 Z"/></g>
<g><path style="opacity:1" fill="#ebb795" d="M 286.5,337.5 C 285.549,331.044 281.883,326.877 275.5,325C 272.167,324.333 268.833,324.333 265.5,325C 251.893,329.754 237.893,331.587 223.5,330.5C 223.334,325.156 223.501,319.823 224,314.5C 244.797,321.128 265.63,321.128 286.5,314.5C 287.82,322.323 287.82,329.99 286.5,337.5 Z"/></g>
<g><path style="opacity:1" fill="#f3caad" d="M 286.5,337.5 C 283.328,350.838 274.995,359.005 261.5,362C 238.666,363.659 225.999,353.159 223.5,330.5C 237.893,331.587 251.893,329.754 265.5,325C 268.833,324.333 272.167,324.333 275.5,325C 281.883,326.877 285.549,331.044 286.5,337.5 Z"/></g>
<g><path style="opacity:0.996" fill="#d9d6e4" d="M 198.5,511.5 C 147.833,511.5 97.1667,511.5 46.5,511.5C 50.3982,507.373 52.8982,502.373 54,496.5C 58.1973,471.636 62.6973,446.97 67.5,422.5C 69.7818,434.733 75.4485,445.067 84.5,453.5C 83.7849,458.9 85.4515,463.4 89.5,467C 95.3792,468.41 101.379,468.91 107.5,468.5C 107.082,469.222 106.416,469.722 105.5,470C 113.981,474.605 122.981,477.605 132.5,479C 148.497,479.5 164.497,479.667 180.5,479.5C 180.832,436.33 180.499,393.33 179.5,350.5C 183.291,348.951 187.124,347.284 191,345.5C 191.333,398.167 191.667,450.833 192,503.5C 193.277,506.938 195.443,509.605 198.5,511.5 Z"/></g>
<g><path style="opacity:1" fill="#ebe9f0" d="M 453.5,479.5 C 408.833,479.5 364.167,479.5 319.5,479.5C 319.5,435.167 319.5,390.833 319.5,346.5C 332.017,350.061 344.017,354.894 355.5,361C 368.599,369.363 373.933,381.196 371.5,396.5C 361.255,400.988 354.755,408.655 352,419.5C 349.509,437.698 356.676,450.198 373.5,457C 389.055,460.501 401.555,456.001 411,443.5C 420.109,422.995 414.943,407.329 395.5,396.5C 394.43,388.322 392.93,380.322 391,372.5C 406.404,378.858 421.904,385.025 437.5,391C 443.852,420.278 449.186,449.778 453.5,479.5 Z"/></g>
<g><path style="opacity:1" fill="#ebe9f0" d="M 179.5,350.5 C 180.499,393.33 180.832,436.33 180.5,479.5C 164.497,479.667 148.497,479.5 132.5,479C 122.981,477.605 113.981,474.605 105.5,470C 106.416,469.722 107.082,469.222 107.5,468.5C 109.179,468.108 110.846,467.608 112.5,467C 119.186,458.269 117.519,451.769 107.5,447.5C 107.043,434.614 113.377,427.614 126.5,426.5C 140.39,426.724 147.723,433.724 148.5,447.5C 144.464,448.02 141.297,450.02 139,453.5C 137.317,459.796 139.15,464.629 144.5,468C 150.833,468.667 157.167,468.667 163.5,468C 166.728,466.437 168.895,463.937 170,460.5C 173.551,434.243 163.217,416.243 139,406.5C 136.898,393.766 138.898,381.766 145,370.5C 154.417,360.4 165.917,353.733 179.5,350.5 Z"/></g>
<g><path style="opacity:1" fill="#b58543" d="M 214.5,364.5 C 213.505,375.988 213.172,387.655 213.5,399.5C 212.344,387.91 212.177,375.577 213,362.5C 213.717,363.044 214.217,363.711 214.5,364.5 Z"/></g>
<g><path style="opacity:1" fill="#b58543" d="M 297.5,399.5 C 297.828,387.655 297.495,375.988 296.5,364.5C 296.783,363.711 297.283,363.044 298,362.5C 298.823,375.577 298.656,387.91 297.5,399.5 Z"/></g>
<g><path style="opacity:1" fill="#fab653" d="M 214.5,364.5 C 219.903,370.558 226.236,375.558 233.5,379.5C 227.2,386.467 220.533,393.134 213.5,399.5C 213.172,387.655 213.505,375.988 214.5,364.5 Z"/></g>
<g><path style="opacity:1" fill="#fbb754" d="M 296.5,364.5 C 297.495,375.988 297.828,387.655 297.5,399.5C 290.521,393.188 283.854,386.521 277.5,379.5C 282.28,376.562 286.947,373.395 291.5,370C 293.3,368.188 294.967,366.355 296.5,364.5 Z"/></g>
<g><path style="opacity:1" fill="#eae8ef" d="M 84.5,453.5 C 75.4485,445.067 69.7818,434.733 67.5,422.5C 68.5898,411.789 70.5898,401.289 73.5,391C 89.0964,385.025 104.596,378.858 120,372.5C 117.268,383.561 115.934,394.894 116,406.5C 94.5682,414.663 84.0682,430.33 84.5,453.5 Z"/></g>
<g><path style="opacity:1" fill="#fcca65" d="M 271.5,404.5 C 260.345,401.509 249.345,401.843 238.5,405.5C 243.812,399.521 249.479,393.854 255.5,388.5C 261.188,393.521 266.521,398.854 271.5,404.5 Z"/></g>
<g><path style="opacity:1" fill="#fedd75" d="M 271.5,404.5 C 280.5,412.833 289.167,421.5 297.5,430.5C 297.5,446.833 297.5,463.167 297.5,479.5C 287.078,479.316 277.078,477.149 267.5,473C 266.883,470.723 266.216,468.556 265.5,466.5C 262.164,458.354 256.498,456.354 248.5,460.5C 235.752,449.385 228.085,435.385 225.5,418.5C 229.5,413.833 233.833,409.5 238.5,405.5C 249.345,401.843 260.345,401.509 271.5,404.5 Z"/></g>
<g><path style="opacity:1" fill="#282322" d="M 251.5,415.5 C 264.051,415.314 268.218,420.981 264,432.5C 259.8,436.714 254.966,437.548 249.5,435C 242.524,427.713 243.191,421.213 251.5,415.5 Z"/></g>
<g><path style="opacity:1" fill="#e7e5eb" d="M 379.5,415.5 C 392.051,415.314 396.218,420.981 392,432.5C 387.8,436.714 382.966,437.548 377.5,435C 370.524,427.713 371.191,421.213 379.5,415.5 Z"/></g>
<g><path style="opacity:0.996" fill="#fbc965" d="M 225.5,418.5 C 228.085,435.385 235.752,449.385 248.5,460.5C 242.582,467.749 243.582,473.916 251.5,479C 261.381,480.571 266.048,476.404 265.5,466.5C 266.216,468.556 266.883,470.723 267.5,473C 277.078,477.149 287.078,479.316 297.5,479.5C 297.5,463.167 297.5,446.833 297.5,430.5C 298.332,454.997 298.832,479.663 299,504.5C 300.694,507.358 302.861,509.691 305.5,511.5C 271.833,511.5 238.167,511.5 204.5,511.5C 207.733,510.105 210.233,507.772 212,504.5C 212.333,479.833 212.667,455.167 213,430.5C 217.036,426.296 221.202,422.296 225.5,418.5 Z"/></g>
<g><path style="opacity:1" fill="#272221" d="M 265.5,466.5 C 266.048,476.404 261.381,480.571 251.5,479C 243.582,473.916 242.582,467.749 248.5,460.5C 256.498,456.354 262.164,458.354 265.5,466.5 Z"/></g>
<g><path style="opacity:0.993" fill="#d9d6e4" d="M 319.5,479.5 C 364.167,479.5 408.833,479.5 453.5,479.5C 455.424,486.276 456.924,493.276 458,500.5C 459.187,504.895 461.354,508.561 464.5,511.5C 413.5,511.5 362.5,511.5 311.5,511.5C 314.028,510.492 316.195,508.826 318,506.5C 319.414,497.582 319.914,488.582 319.5,479.5 Z"/></g>
</svg>
