<?xml version="1.0" encoding="UTF-8"?>
<!DOCTYPE svg PUBLIC "-//W3C//DTD SVG 1.1//EN" "http://www.w3.org/Graphics/SVG/1.1/DTD/svg11.dtd">
<svg xmlns="http://www.w3.org/2000/svg" version="1.1" width="512px" height="512px" style="shape-rendering:geometricPrecision; text-rendering:geometricPrecision; image-rendering:optimizeQuality; fill-rule:evenodd; clip-rule:evenodd" xmlns:xlink="http://www.w3.org/1999/xlink">
<g><path style="opacity:0.996" fill="#231f20" d="M 238.5,-0.5 C 249.833,-0.5 261.167,-0.5 272.5,-0.5C 331.535,8.35361 372.702,40.3536 396,95.5C 399.897,105.857 402.563,116.524 404,127.5C 405.622,175.477 405.955,223.477 405,271.5C 399.475,275.846 393.309,279.013 386.5,281C 361.104,289.132 335.771,297.465 310.5,306C 309.533,310.401 309.2,314.901 309.5,319.5C 312.947,319.814 316.28,320.648 319.5,322C 354.422,335.53 389.422,348.863 424.5,362C 435.674,366.173 446.508,371.006 457,376.5C 465.153,417.745 472.986,459.079 480.5,500.5C 480.153,505.499 477.819,509.165 473.5,511.5C 470.5,511.5 467.5,511.5 464.5,511.5C 461.354,508.561 459.187,504.895 458,500.5C 456.924,493.276 455.424,486.276 453.5,479.5C 449.186,449.778 443.852,420.278 437.5,391C 421.904,385.025 406.404,378.858 391,372.5C 392.93,380.322 394.43,388.322 395.5,396.5C 414.943,407.329 420.109,422.995 411,443.5C 401.555,456.001 389.055,460.501 373.5,457C 356.676,450.198 349.509,437.698 352,419.5C 354.755,408.655 361.255,400.988 371.5,396.5C 373.933,381.196 368.599,369.363 355.5,361C 344.017,354.894 332.017,350.061 319.5,346.5C 319.5,390.833 319.5,435.167 319.5,479.5C 319.914,488.582 319.414,497.582 318,506.5C 316.195,508.826 314.028,510.492 311.5,511.5C 309.5,511.5 307.5,511.5 305.5,511.5C 302.861,509.691 300.694,507.358 299,504.5C 298.832,479.663 298.332,454.997 297.5,430.5C 289.167,421.5 280.5,412.833 271.5,404.5C 266.521,398.854 261.188,393.521 255.5,388.5C 249.812,393.521 244.479,398.854 239.5,404.5C 234.5,408.833 229.833,413.5 225.5,418.5C 221.202,422.296 217.036,426.296 213,430.5C 212.667,455.167 212.333,479.833 212,504.5C 210.233,507.772 207.733,510.105 204.5,511.5C 202.5,511.5 200.5,511.5 198.5,511.5C 195.443,509.605 193.277,506.938 192,503.5C 191.667,450.833 191.333,398.167 191,345.5C 187.124,347.284 183.291,348.951 179.5,350.5C 165.917,353.733 154.417,360.4 145,370.5C 138.898,381.766 136.898,393.766 139,406.5C 163.217,416.243 173.551,434.243 170,460.5C 168.895,463.937 166.728,466.437 163.5,468C 157.167,468.667 150.833,468.667 144.5,468C 139.15,464.629 137.317,459.796 139,453.5C 141.297,450.02 144.464,448.02 148.5,447.5C 147.723,433.724 140.39,426.724 126.5,426.5C 113.377,427.614 107.043,434.614 107.5,447.5C 117.519,451.769 119.186,458.269 112.5,467C 110.846,467.608 109.179,468.108 107.5,468.5C 101.379,468.91 95.3792,468.41 89.5,467C 85.4515,463.4 83.7849,458.9 84.5,453.5C 84.0682,430.33 94.5682,414.663 116,406.5C 115.934,394.894 117.268,383.561 120,372.5C 104.596,378.858 89.0964,385.025 73.5,391C 70.5898,401.289 68.5898,411.789 67.5,422.5C 62.6973,446.97 58.1973,471.636 54,496.5C 52.8982,502.373 50.3982,507.373 46.5,511.5C 43.5,511.5 40.5,511.5 37.5,511.5C 33.1807,509.165 30.8474,505.499 30.5,500.5C 37.3974,463.18 44.2307,425.846 51,388.5C 51.8706,384.016 53.2039,379.683 55,375.5C 103.396,355.921 152.063,336.921 201,318.5C 201.796,314.245 201.629,310.079 200.5,306C 169.363,296.288 138.53,285.788 108,274.5C 107.08,271.899 106.413,269.232 106,266.5C 105.833,246.667 105.667,226.833 105.5,207C 105.395,183.479 105.895,159.979 107,136.5C 114.774,72.0527 148.941,28.5527 209.5,6C 219.17,3.23573 228.837,1.06906 238.5,-0.5 Z"/></g>
<g><path style="opacity:1" fill="#bd917b" d="M 139.5,128.5 C 143.317,101.539 154.15,77.8721 172,57.5C 178.395,50.9365 184.895,44.6032 191.5,38.5C 231.698,15.7128 272.698,14.5461 314.5,35C 353.37,56.2704 375.703,88.7704 381.5,132.5C 378.875,131.236 376.208,130.069 373.5,129C 351.603,128.968 333.77,120.468 320,103.5C 308.575,89.6517 300.575,73.985 296,56.5C 292.057,52.4822 287.557,51.6489 282.5,54C 268.109,73.8547 250.109,89.5213 228.5,101C 200.806,116.733 171.139,125.899 139.5,128.5 Z"/></g>
<g><path style="opacity:1" fill="#a47b69" d="M 191.5,38.5 C 184.895,44.6032 178.395,50.9365 172,57.5C 154.15,77.8721 143.317,101.539 139.5,128.5C 135.963,129.267 132.629,130.6 129.5,132.5C 134.626,90.9136 155.293,59.5802 191.5,38.5 Z"/></g>
<g><path style="opacity:1" fill="#f4caad" d="M 204.5,230.5 C 192.616,230.452 184.783,224.785 181,213.5C 180.5,190.169 180.333,166.836 180.5,143.5C 210.455,134.022 238.455,120.522 264.5,103C 271.596,97.9076 278.096,92.0743 284,85.5C 295.495,111.994 314.161,131.661 340,144.5C 340.667,171.167 340.667,197.833 340,224.5C 339.507,230.313 338.007,235.813 335.5,241C 334.167,241.667 332.833,241.667 331.5,241C 310.058,232.186 288.058,225.186 265.5,220C 257.167,219.333 248.833,219.333 240.5,220C 228.293,222.884 216.293,226.384 204.5,230.5 Z"/></g>
<g><path style="opacity:1" fill="#e5b391" d="M 180.5,143.5 C 180.333,166.836 180.5,190.169 181,213.5C 184.783,224.785 192.616,230.452 204.5,230.5C 195.553,234.433 186.386,238.1 177,241.5C 176.228,241.355 175.561,241.022 175,240.5C 171.791,231.789 170.124,222.789 170,213.5C 169.333,191.167 169.333,168.833 170,146.5C 173.364,145.06 176.864,144.06 180.5,143.5 Z"/></g>
<g><path style="opacity:1" fill="#eab694" d="M 144.5,149.5 C 145.833,149.5 147.167,149.5 148.5,149.5C 148.5,163.5 148.5,177.5 148.5,191.5C 132.993,189.172 126.16,180.172 128,164.5C 130.501,156.165 136.001,151.165 144.5,149.5 Z"/></g>
<g><path style="opacity:1" fill="#685548" d="M 144.5,149.5 C 145.919,148.549 147.585,148.216 149.5,148.5C 149.829,163.01 149.496,177.343 148.5,191.5C 148.5,177.5 148.5,163.5 148.5,149.5C 147.167,149.5 145.833,149.5 144.5,149.5 Z"/></g>
<g><path style="opacity:1" fill="#6b5a50" d="M 365.5,149.5 C 364.5,149.5 363.5,149.5 362.5,149.5C 362.5,163.5 362.5,177.5 362.5,191.5C 361.504,177.343 361.171,163.01 361.5,148.5C 363.099,148.232 364.432,148.566 365.5,149.5 Z"/></g>
<g><path style="opacity:1" fill="#f3c9ad" d="M 365.5,149.5 C 376.701,151.721 382.701,158.554 383.5,170C 382.395,182.938 375.395,190.105 362.5,191.5C 362.5,177.5 362.5,163.5 362.5,149.5C 363.5,149.5 364.5,149.5 365.5,149.5 Z"/></g>
<g><path style="opacity:1" fill="#252121" d="M 199.5,159.5 C 208.506,159.334 217.506,159.5 226.5,160C 236.727,166.143 237.06,172.81 227.5,180C 217.833,180.667 208.167,180.667 198.5,180C 193.45,178.566 191.117,175.233 191.5,170C 191.739,164.6 194.406,161.1 199.5,159.5 Z"/></g>
<g><path style="opacity:1" fill="#252021" d="M 284.5,159.5 C 294.58,159.077 304.58,159.577 314.5,161C 321.485,168.101 320.818,174.434 312.5,180C 302.833,180.667 293.167,180.667 283.5,180C 277.109,176.495 275.275,171.328 278,164.5C 279.965,162.45 282.132,160.783 284.5,159.5 Z"/></g>
<g><path style="opacity:1" fill="#a57b69" d="M 127.5,207.5 C 134.351,211.227 141.685,212.894 149.5,212.5C 149.215,222.669 150.381,232.669 153,242.5C 156.652,252.462 160.819,262.129 165.5,271.5C 152.831,267.666 140.331,263.333 128,258.5C 127.5,241.503 127.333,224.503 127.5,207.5 Z"/></g>
<g><path style="opacity:1" fill="#bc907b" d="M 351.5,269.5 C 359.571,251.415 363.238,232.415 362.5,212.5C 369.546,212.357 376.213,210.691 382.5,207.5C 383.833,224.5 383.833,241.5 382.5,258.5C 372.219,262.371 361.886,266.038 351.5,269.5 Z"/></g>
<g><path style="opacity:1" fill="#ebe9f0" d="M 310.5,277.5 C 272.616,294.406 237.282,290.24 204.5,265C 201.553,262.564 199.22,259.731 197.5,256.5C 213.047,250.04 229.047,244.874 245.5,241C 253.875,240.262 262.208,240.595 270.5,242C 289.237,247.412 307.571,253.912 325.5,261.5C 321.183,267.483 316.183,272.816 310.5,277.5 Z"/></g>
<g><path style="opacity:1" fill="#9e7765" d="M 362.5,212.5 C 363.238,232.415 359.571,251.415 351.5,269.5C 350.003,270.306 348.336,270.972 346.5,271.5C 346.167,271 345.833,270.5 345.5,270C 356.544,252.307 362.21,233.14 362.5,212.5 Z"/></g>
<g><path style="opacity:1" fill="#d6d3e1" d="M 197.5,256.5 C 199.22,259.731 201.553,262.564 204.5,265C 237.282,290.24 272.616,294.406 310.5,277.5C 290.177,294.251 266.843,300.751 240.5,297C 217.563,292.204 199.23,280.371 185.5,261.5C 189.357,259.438 193.357,257.771 197.5,256.5 Z"/></g>
<g><path style="opacity:1" fill="#cfa385" d="M 286.5,337.5 C 283.672,326.74 276.672,322.573 265.5,325C 252.148,329.103 238.481,330.936 224.5,330.5C 224.5,332.167 224.5,333.833 224.5,335.5C 223.345,328.679 223.179,321.679 224,314.5C 244.797,321.128 265.63,321.128 286.5,314.5C 287.82,322.323 287.82,329.99 286.5,337.5 Z"/></g>
<g><path style="opacity:1" fill="#eab794" d="M 286.5,337.5 C 282.475,353.514 272.142,361.848 255.5,362.5C 237.943,361.601 227.61,352.601 224.5,335.5C 224.5,333.833 224.5,332.167 224.5,330.5C 238.481,330.936 252.148,329.103 265.5,325C 276.672,322.573 283.672,326.74 286.5,337.5 Z"/></g>
<g><path style="opacity:0.996" fill="#d9d6e4" d="M 198.5,511.5 C 147.833,511.5 97.1667,511.5 46.5,511.5C 50.3982,507.373 52.8982,502.373 54,496.5C 58.1973,471.636 62.6973,446.97 67.5,422.5C 69.7818,434.733 75.4485,445.067 84.5,453.5C 83.7849,458.9 85.4515,463.4 89.5,467C 95.3792,468.41 101.379,468.91 107.5,468.5C 107.082,469.222 106.416,469.722 105.5,470C 113.981,474.605 122.981,477.605 132.5,479C 148.497,479.5 164.497,479.667 180.5,479.5C 180.832,436.33 180.499,393.33 179.5,350.5C 183.291,348.951 187.124,347.284 191,345.5C 191.333,398.167 191.667,450.833 192,503.5C 193.277,506.938 195.443,509.605 198.5,511.5 Z"/></g>
<g><path style="opacity:1" fill="#ebe9f0" d="M 453.5,479.5 C 408.833,479.5 364.167,479.5 319.5,479.5C 319.5,435.167 319.5,390.833 319.5,346.5C 332.017,350.061 344.017,354.894 355.5,361C 368.599,369.363 373.933,381.196 371.5,396.5C 361.255,400.988 354.755,408.655 352,419.5C 349.509,437.698 356.676,450.198 373.5,457C 389.055,460.501 401.555,456.001 411,443.5C 420.109,422.995 414.943,407.329 395.5,396.5C 394.43,388.322 392.93,380.322 391,372.5C 406.404,378.858 421.904,385.025 437.5,391C 443.852,420.278 449.186,449.778 453.5,479.5 Z"/></g>
<g><path style="opacity:1" fill="#ebe9f0" d="M 179.5,350.5 C 180.499,393.33 180.832,436.33 180.5,479.5C 164.497,479.667 148.497,479.5 132.5,479C 122.981,477.605 113.981,474.605 105.5,470C 106.416,469.722 107.082,469.222 107.5,468.5C 109.179,468.108 110.846,467.608 112.5,467C 119.186,458.269 117.519,451.769 107.5,447.5C 107.043,434.614 113.377,427.614 126.5,426.5C 140.39,426.724 147.723,433.724 148.5,447.5C 144.464,448.02 141.297,450.02 139,453.5C 137.317,459.796 139.15,464.629 144.5,468C 150.833,468.667 157.167,468.667 163.5,468C 166.728,466.437 168.895,463.937 170,460.5C 173.551,434.243 163.217,416.243 139,406.5C 136.898,393.766 138.898,381.766 145,370.5C 154.417,360.4 165.917,353.733 179.5,350.5 Z"/></g>
<g><path style="opacity:1" fill="#48709a" d="M 214.5,364.5 C 213.505,375.988 213.172,387.655 213.5,399.5C 212.344,387.91 212.177,375.577 213,362.5C 213.717,363.044 214.217,363.711 214.5,364.5 Z"/></g>
<g><path style="opacity:1" fill="#48709a" d="M 297.5,399.5 C 297.828,387.655 297.495,375.988 296.5,364.5C 296.783,363.711 297.283,363.044 298,362.5C 298.823,375.577 298.656,387.91 297.5,399.5 Z"/></g>
<g><path style="opacity:1" fill="#5997d4" d="M 214.5,364.5 C 219.903,370.558 226.236,375.558 233.5,379.5C 227.2,386.467 220.533,393.134 213.5,399.5C 213.172,387.655 213.505,375.988 214.5,364.5 Z"/></g>
<g><path style="opacity:1" fill="#5a98d5" d="M 296.5,364.5 C 297.495,375.988 297.828,387.655 297.5,399.5C 290.521,393.188 283.854,386.521 277.5,379.5C 282.28,376.562 286.947,373.395 291.5,370C 293.3,368.188 294.967,366.355 296.5,364.5 Z"/></g>
<g><path style="opacity:1" fill="#eae8ef" d="M 84.5,453.5 C 75.4485,445.067 69.7818,434.733 67.5,422.5C 68.5898,411.789 70.5898,401.289 73.5,391C 89.0964,385.025 104.596,378.858 120,372.5C 117.268,383.561 115.934,394.894 116,406.5C 94.5682,414.663 84.0682,430.33 84.5,453.5 Z"/></g>
<g><path style="opacity:1" fill="#6ea9e4" d="M 271.5,404.5 C 260.83,400.611 250.163,400.611 239.5,404.5C 244.479,398.854 249.812,393.521 255.5,388.5C 261.188,393.521 266.521,398.854 271.5,404.5 Z"/></g>
<g><path style="opacity:1" fill="#81bbf3" d="M 271.5,404.5 C 280.5,412.833 289.167,421.5 297.5,430.5C 297.5,446.833 297.5,463.167 297.5,479.5C 287.036,479.513 277.036,477.346 267.5,473C 266.883,470.723 266.216,468.556 265.5,466.5C 262.699,458.785 257.366,456.452 249.5,459.5C 248.078,459.291 246.745,458.791 245.5,458C 234.624,446.959 227.957,433.792 225.5,418.5C 229.833,413.5 234.5,408.833 239.5,404.5C 250.163,400.611 260.83,400.611 271.5,404.5 Z"/></g>
<g><path style="opacity:1" fill="#252225" d="M 251.5,415.5 C 264.051,415.314 268.218,420.981 264,432.5C 259.8,436.714 254.966,437.548 249.5,435C 242.524,427.713 243.191,421.213 251.5,415.5 Z"/></g>
<g><path style="opacity:1" fill="#e7e5eb" d="M 379.5,415.5 C 392.051,415.314 396.218,420.981 392,432.5C 387.8,436.714 382.966,437.548 377.5,435C 370.524,427.713 371.191,421.213 379.5,415.5 Z"/></g>
<g><path style="opacity:0.996" fill="#6ea9e3" d="M 225.5,418.5 C 227.957,433.792 234.624,446.959 245.5,458C 246.745,458.791 248.078,459.291 249.5,459.5C 242.393,466.8 243.06,473.3 251.5,479C 261.381,480.571 266.048,476.404 265.5,466.5C 266.216,468.556 266.883,470.723 267.5,473C 277.036,477.346 287.036,479.513 297.5,479.5C 297.5,463.167 297.5,446.833 297.5,430.5C 298.332,454.997 298.832,479.663 299,504.5C 300.694,507.358 302.861,509.691 305.5,511.5C 271.833,511.5 238.167,511.5 204.5,511.5C 207.733,510.105 210.233,507.772 212,504.5C 212.333,479.833 212.667,455.167 213,430.5C 217.036,426.296 221.202,422.296 225.5,418.5 Z"/></g>
<g><path style="opacity:1" fill="#242123" d="M 265.5,466.5 C 266.048,476.404 261.381,480.571 251.5,479C 243.06,473.3 242.393,466.8 249.5,459.5C 257.366,456.452 262.699,458.785 265.5,466.5 Z"/></g>
<g><path style="opacity:0.993" fill="#d9d6e4" d="M 319.5,479.5 C 364.167,479.5 408.833,479.5 453.5,479.5C 455.424,486.276 456.924,493.276 458,500.5C 459.187,504.895 461.354,508.561 464.5,511.5C 413.5,511.5 362.5,511.5 311.5,511.5C 314.028,510.492 316.195,508.826 318,506.5C 319.414,497.582 319.914,488.582 319.5,479.5 Z"/></g>
</svg>
