<?xml version="1.0" encoding="UTF-8"?>
<!DOCTYPE svg PUBLIC "-//W3C//DTD SVG 1.1//EN" "http://www.w3.org/Graphics/SVG/1.1/DTD/svg11.dtd">
<svg xmlns="http://www.w3.org/2000/svg" version="1.1" width="512px" height="512px" style="shape-rendering:geometricPrecision; text-rendering:geometricPrecision; image-rendering:optimizeQuality; fill-rule:evenodd; clip-rule:evenodd" xmlns:xlink="http://www.w3.org/1999/xlink">
<g><path style="opacity:0.995" fill="#231f20" d="M 246.5,-0.5 C 252.5,-0.5 258.5,-0.5 264.5,-0.5C 275.816,3.31707 283.316,10.9837 287,22.5C 287.035,76.5246 287.701,130.525 289,184.5C 291.475,196.804 298.642,204.804 310.5,208.5C 311.431,204.159 313.764,200.659 317.5,198C 322.415,194.876 327.748,192.876 333.5,192C 361.019,189.963 386.686,195.963 410.5,210C 455.531,235.866 483.031,274.366 493,325.5C 499.323,374.083 504.823,422.749 509.5,471.5C 510.053,481.814 507.886,491.481 503,500.5C 496.918,506.457 489.751,510.124 481.5,511.5C 438.167,511.5 394.833,511.5 351.5,511.5C 327.952,505.45 313.785,490.45 309,466.5C 308.667,407.5 308.333,348.5 308,289.5C 294.242,280.702 280.075,272.535 265.5,265C 258.833,261.667 252.167,261.667 245.5,265C 230.925,272.535 216.758,280.702 203,289.5C 202.667,348.5 202.333,407.5 202,466.5C 197.215,490.45 183.048,505.45 159.5,511.5C 114.833,511.5 70.1667,511.5 25.5,511.5C 10.0971,506.215 2.0971,495.381 1.5,479C 6.70323,427.801 12.2032,376.634 18,325.5C 29.8718,265.562 64.0385,224.062 120.5,201C 141.913,192.649 163.913,189.982 186.5,193C 193.852,195.847 198.519,201.014 200.5,208.5C 212.799,204.694 219.965,196.36 222,183.5C 223.298,129.858 223.965,76.1913 224,22.5C 227.684,10.9837 235.184,3.31707 246.5,-0.5 Z"/></g>
<g><path style="opacity:1" fill="#eae8ef" d="M 265.5,28.5 C 265.5,32.8333 265.5,37.1667 265.5,41.5C 258.833,41.5 252.167,41.5 245.5,41.5C 245.5,37.1667 245.5,32.8333 245.5,28.5C 249.188,20.162 254.854,18.4953 262.5,23.5C 263.952,24.9397 264.952,26.6064 265.5,28.5 Z"/></g>
<g><path style="opacity:1" fill="#a5a2a8" d="M 245.5,28.5 C 245.5,32.8333 245.5,37.1667 245.5,41.5C 252.167,41.5 258.833,41.5 265.5,41.5C 265.5,37.1667 265.5,32.8333 265.5,28.5C 266.486,32.97 266.819,37.6367 266.5,42.5C 259.167,42.5 251.833,42.5 244.5,42.5C 244.181,37.6367 244.514,32.97 245.5,28.5 Z"/></g>
<g><path style="opacity:1" fill="#7b777f" d="M 245.5,63.5 C 245.5,70.5 245.5,77.5 245.5,84.5C 252.167,84.5 258.833,84.5 265.5,84.5C 265.5,77.5 265.5,70.5 265.5,63.5C 266.492,70.6476 266.825,77.9809 266.5,85.5C 259.167,85.5 251.833,85.5 244.5,85.5C 244.175,77.9809 244.508,70.6476 245.5,63.5 Z"/></g>
<g><path style="opacity:1" fill="#d9d7e4" d="M 245.5,63.5 C 252.167,63.5 258.833,63.5 265.5,63.5C 265.5,70.5 265.5,77.5 265.5,84.5C 258.833,84.5 252.167,84.5 245.5,84.5C 245.5,77.5 245.5,70.5 245.5,63.5 Z"/></g>
<g><path style="opacity:1" fill="#959297" d="M 265.5,127.5 C 265.5,120.5 265.5,113.5 265.5,106.5C 258.833,106.5 252.167,106.5 245.5,106.5C 245.5,113.5 245.5,120.5 245.5,127.5C 244.508,120.352 244.175,113.019 244.5,105.5C 251.833,105.5 259.167,105.5 266.5,105.5C 266.825,113.019 266.492,120.352 265.5,127.5 Z"/></g>
<g><path style="opacity:1" fill="#ecebf1" d="M 265.5,127.5 C 258.833,127.5 252.167,127.5 245.5,127.5C 245.5,120.5 245.5,113.5 245.5,106.5C 252.167,106.5 258.833,106.5 265.5,106.5C 265.5,113.5 265.5,120.5 265.5,127.5 Z"/></g>
<g><path style="opacity:1" fill="#938f9d" d="M 244.5,148.5 C 251.833,148.5 259.167,148.5 266.5,148.5C 266.5,155.833 266.5,163.167 266.5,170.5C 259.167,170.5 251.833,170.5 244.5,170.5C 244.5,163.167 244.5,155.833 244.5,148.5 Z"/></g>
<g><path style="opacity:1" fill="#d6d3e2" d="M 245.5,149.5 C 252.167,149.5 258.833,149.5 265.5,149.5C 265.5,156.167 265.5,162.833 265.5,169.5C 258.833,169.5 252.167,169.5 245.5,169.5C 245.5,162.833 245.5,156.167 245.5,149.5 Z"/></g>
<g><path style="opacity:1" fill="#ebe9f0" d="M 351.5,274.5 C 332.983,262.829 314.316,251.329 295.5,240C 286.347,234.615 276.514,231.449 266,230.5C 254.731,231.544 244.231,235.044 234.5,241C 211.5,255.333 188.5,269.667 165.5,284C 162.669,284.349 160.669,283.183 159.5,280.5C 159.334,274.158 159.5,267.825 160,261.5C 181.434,248.395 202.601,234.895 223.5,221C 233.512,213.462 239.845,203.628 242.5,191.5C 251.167,191.5 259.833,191.5 268.5,191.5C 270.423,201.514 275.09,210.014 282.5,217C 303.985,232.58 326.318,246.914 349.5,260C 350,260.5 350.5,261 351,261.5C 351.499,265.821 351.666,270.154 351.5,274.5 Z"/></g>
<g><path style="opacity:1" fill="#bf445c" d="M 164.5,212.5 C 169.628,212.112 174.628,212.612 179.5,214C 180.617,217.073 180.784,220.24 180,223.5C 173.163,227.584 166.496,231.918 160,236.5C 159.5,228.841 159.334,221.174 159.5,213.5C 161.415,213.784 163.081,213.451 164.5,212.5 Z"/></g>
<g><path style="opacity:1" fill="#c0445c" d="M 333.5,212.5 C 339.516,212.593 345.516,212.926 351.5,213.5C 351.666,221.174 351.5,228.841 351,236.5C 344.504,231.918 337.837,227.584 331,223.5C 330.333,220.5 330.333,217.5 331,214.5C 331.995,213.934 332.828,213.267 333.5,212.5 Z"/></g>
<g><path style="opacity:1" fill="#f16573" d="M 135.5,219.5 C 137.164,246.985 138.164,274.652 138.5,302.5C 138.51,317.698 143.01,331.364 152,343.5C 157.698,349.532 163.698,355.199 170,360.5C 174.883,365.596 178.217,371.596 180,378.5C 180.667,387.833 180.667,397.167 180,406.5C 178.144,413.417 175.144,419.75 171,425.5C 157.686,443.97 143.853,461.97 129.5,479.5C 79.5884,481.809 47.4217,459.143 33,411.5C 32.5006,405.843 32.3339,400.176 32.5,394.5C 34.1999,369.701 37.0333,345.034 41,320.5C 52.6572,275.692 79.4905,243.526 121.5,224C 126.02,221.993 130.687,220.493 135.5,219.5 Z"/></g>
<g><path style="opacity:1" fill="#f16573" d="M 487.5,479.5 C 460.165,479.667 432.831,479.5 405.5,479C 394.999,478.375 384.999,475.875 375.5,471.5C 359.311,452.46 344.811,432.127 332,410.5C 330.502,400.545 330.169,390.545 331,380.5C 333.79,368.085 340.623,358.585 351.5,352C 361.332,342.82 367.832,331.654 371,318.5C 372.124,285.195 372.957,251.862 373.5,218.5C 430.631,238.08 463.798,277.747 473,337.5C 478.329,384.794 483.162,432.127 487.5,479.5 Z"/></g>
<g><path style="opacity:1" fill="#b6515b" d="M 135.5,219.5 C 136.209,218.596 137.209,218.263 138.5,218.5C 138.5,246.5 138.5,274.5 138.5,302.5C 138.164,274.652 137.164,246.985 135.5,219.5 Z"/></g>
<g><path style="opacity:1" fill="#d7d4e2" d="M 351.5,274.5 C 351.827,279.544 351.494,284.544 350.5,289.5C 326.297,274.801 301.964,260.301 277.5,246C 258.647,238.657 240.647,240.324 223.5,251C 202.5,263.833 181.5,276.667 160.5,289.5C 159.516,286.572 159.183,283.572 159.5,280.5C 160.669,283.183 162.669,284.349 165.5,284C 188.5,269.667 211.5,255.333 234.5,241C 244.231,235.044 254.731,231.544 266,230.5C 276.514,231.449 286.347,234.615 295.5,240C 314.316,251.329 332.983,262.829 351.5,274.5 Z"/></g>
<g><path style="opacity:1" fill="#c1445c" d="M 179.5,302.5 C 180.66,314.993 180.827,327.66 180,340.5C 170.709,333.871 164.542,325.038 161.5,314C 167.366,309.904 173.366,306.07 179.5,302.5 Z"/></g>
<g><path style="opacity:1" fill="#c1445c" d="M 330.5,302.5 C 337.384,305.767 343.718,309.767 349.5,314.5C 346.244,325.253 340.078,333.92 331,340.5C 330.5,327.838 330.333,315.171 330.5,302.5 Z"/></g>
<g><path style="opacity:1" fill="#d85568" d="M 32.5,394.5 C 32.3339,400.176 32.5006,405.843 33,411.5C 47.4217,459.143 79.5884,481.809 129.5,479.5C 127.559,483.201 125.226,486.701 122.5,490C 91.1056,490.977 59.7723,490.644 28.5,489C 24.0554,485.832 22.3887,481.499 23.5,476C 26.2596,448.664 29.2596,421.498 32.5,394.5 Z"/></g>
<g><path style="opacity:1" fill="#be435b" d="M 179.5,448.5 C 183.447,471.238 174.114,485.238 151.5,490.5C 150.5,490.167 149.5,489.833 148.5,489.5C 159.242,476.098 169.575,462.432 179.5,448.5 Z"/></g>
<g><path style="opacity:1" fill="#bd435b" d="M 330.5,448.5 C 341.162,461.841 351.495,475.507 361.5,489.5C 345.578,489.092 335.412,481.092 331,465.5C 330.501,459.843 330.334,454.176 330.5,448.5 Z"/></g>
<g><path style="opacity:1" fill="#d75567" d="M 375.5,471.5 C 384.999,475.875 394.999,478.375 405.5,479C 432.831,479.5 460.165,479.667 487.5,479.5C 487.239,485.266 484.239,488.766 478.5,490C 448.494,490.833 418.494,490.667 388.5,489.5C 384.142,483.482 379.809,477.482 375.5,471.5 Z"/></g>
</svg>
