<?xml version="1.0" encoding="UTF-8"?>
<!DOCTYPE svg PUBLIC "-//W3C//DTD SVG 1.1//EN" "http://www.w3.org/Graphics/SVG/1.1/DTD/svg11.dtd">
<svg xmlns="http://www.w3.org/2000/svg" version="1.1" width="512px" height="512px" style="shape-rendering:geometricPrecision; text-rendering:geometricPrecision; image-rendering:optimizeQuality; fill-rule:evenodd; clip-rule:evenodd" xmlns:xlink="http://www.w3.org/1999/xlink">
<g><path style="opacity:0.996" fill="#241f20" d="M 108.5,-0.5 C 114.167,-0.5 119.833,-0.5 125.5,-0.5C 139.156,3.32892 146.989,12.3289 149,26.5C 149.168,36.8494 149.668,47.1827 150.5,57.5C 160.615,53.1105 170.948,49.2772 181.5,46C 208.221,40.5172 225.554,50.6839 233.5,76.5C 249.38,74.0351 265.38,72.8684 281.5,73C 289.68,68.6067 298.346,65.6067 307.5,64C 328.833,63.3333 350.167,63.3333 371.5,64C 389,68.1667 399.833,79 404,96.5C 407.416,116.624 400.916,132.457 384.5,144C 381.052,145.927 377.385,147.261 373.5,148C 359.54,149.221 345.54,149.888 331.5,150C 349.2,155.183 365.2,163.516 379.5,175C 402.567,197.058 421.4,222.224 436,250.5C 459.106,295.481 478.106,342.147 493,390.5C 502.375,437.906 486.875,474.739 446.5,501C 434.999,506.672 422.999,510.172 410.5,511.5C 398.167,511.5 385.833,511.5 373.5,511.5C 307.834,496.414 247.334,469.747 192,431.5C 191.667,456.167 191.333,480.833 191,505.5C 189.64,508.023 187.807,510.023 185.5,511.5C 182.833,511.5 180.167,511.5 177.5,511.5C 174.059,509.388 171.725,506.388 170.5,502.5C 170.667,472.498 170.5,442.498 170,412.5C 149.016,394.378 134.85,372.045 127.5,345.5C 123.568,311.886 130.402,280.553 148,251.5C 148.044,224.126 148.71,196.793 150,169.5C 153.757,160.076 160.424,153.742 170,150.5C 174.047,122.72 187.88,101.387 211.5,86.5C 212.653,75.4493 207.653,68.6159 196.5,66C 194.5,65.3333 192.5,65.3333 190.5,66C 176.373,71.5424 162.039,76.3757 147.5,80.5C 136.43,78.7673 129.43,72.4339 126.5,61.5C 123.243,62.5514 119.91,63.2181 116.5,63.5C 113.117,63.7428 109.951,63.0761 107,61.5C 106.667,208.833 106.333,356.167 106,503.5C 104.647,507.35 102.147,510.017 98.5,511.5C 95.8333,511.5 93.1667,511.5 90.5,511.5C 87.8001,509.954 85.9668,507.621 85,504.5C 84.3333,344.5 84.3333,184.5 85,24.5C 87.9145,11.422 95.7478,3.08868 108.5,-0.5 Z"/></g>
<g><path style="opacity:1" fill="#5996d1" d="M 113.5,20.5 C 126.176,20.9912 130.009,26.9912 125,38.5C 117.815,44.5247 111.815,43.5247 107,35.5C 105.366,28.7751 107.532,23.7751 113.5,20.5 Z"/></g>
<g><path style="opacity:1" fill="#6eaae5" d="M 116.5,63.5 C 116.333,182.834 116.5,302.167 117,421.5C 120.743,447.898 134.91,466.065 159.5,476C 162.768,477.15 166.101,477.984 169.5,478.5C 169.174,486.684 169.508,494.684 170.5,502.5C 171.725,506.388 174.059,509.388 177.5,511.5C 151.167,511.5 124.833,511.5 98.5,511.5C 102.147,510.017 104.647,507.35 106,503.5C 106.333,356.167 106.667,208.833 107,61.5C 109.951,63.0761 113.117,63.7428 116.5,63.5 Z"/></g>
<g><path style="opacity:1" fill="#81bbf2" d="M 127.5,345.5 C 130.007,365.866 137.84,383.866 151,399.5C 157,405.5 163,411.5 169,417.5C 169.5,437.831 169.667,458.164 169.5,478.5C 166.101,477.984 162.768,477.15 159.5,476C 134.91,466.065 120.743,447.898 117,421.5C 116.5,302.167 116.333,182.834 116.5,63.5C 119.91,63.2181 123.243,62.5514 126.5,61.5C 129.43,72.4339 136.43,78.7673 147.5,80.5C 162.039,76.3757 176.373,71.5424 190.5,66C 192.5,65.3333 194.5,65.3333 196.5,66C 207.653,68.6159 212.653,75.4493 211.5,86.5C 187.88,101.387 174.047,122.72 170,150.5C 160.424,153.742 153.757,160.076 150,169.5C 148.71,196.793 148.044,224.126 148,251.5C 130.402,280.553 123.568,311.886 127.5,345.5 Z"/></g>
<g><path style="opacity:1" fill="#9a4750" d="M 312.5,85.5 C 316.683,84.1889 321.016,84.1889 325.5,85.5C 325.376,86.1067 325.043,86.44 324.5,86.5C 320.702,85.5166 316.702,85.1832 312.5,85.5 Z"/></g>
<g><path style="opacity:1" fill="#f16573" d="M 312.5,85.5 C 316.702,85.1832 320.702,85.5166 324.5,86.5C 317.81,100.248 318.143,113.915 325.5,127.5C 316.857,130.121 311.357,135.787 309,144.5C 307.707,171.597 308.707,198.597 312,225.5C 316.781,250.247 328.614,270.747 347.5,287C 358.767,288.076 363.267,283.242 361,272.5C 354.28,264.114 347.947,255.447 342,246.5C 335.735,235.64 332.068,223.973 331,211.5C 330.333,198.5 330.333,185.5 331,172.5C 342.453,176.62 352.953,182.453 362.5,190C 380.323,206.809 395.49,225.643 408,246.5C 435.691,295.226 457.358,346.559 473,400.5C 476.557,419.275 473.557,436.942 464,453.5C 461.966,456.909 459.466,459.909 456.5,462.5C 449.816,456.65 443.65,450.317 438,443.5C 438.64,427.604 432.14,415.77 418.5,408C 411.96,405.698 405.293,404.032 398.5,403C 396.683,401.2 395.516,399.034 395,396.5C 394.912,390.39 394.245,384.39 393,378.5C 389.345,373.725 384.512,372.225 378.5,374C 376.083,375.663 374.25,377.829 373,380.5C 372.333,386.167 372.333,391.833 373,397.5C 374.787,403.373 376.787,409.04 379,414.5C 375.142,417.229 370.809,418.563 366,418.5C 359.512,417.248 353.012,416.415 346.5,416C 339.021,422.031 338.687,428.364 345.5,435C 365.141,444.004 382.808,441.004 398.5,426C 403.445,425.589 408.112,426.589 412.5,429C 413.701,429.903 414.535,431.069 415,432.5C 414.759,440.3 416.426,447.634 420,454.5C 425.627,462.461 432.294,469.461 440,475.5C 440.692,476.437 440.525,477.103 439.5,477.5C 419.731,480.566 400.064,480.066 380.5,476C 330.009,461.581 282.342,440.915 237.5,414C 211.799,397.967 190.299,377.467 173,352.5C 170.128,348.138 167.961,343.471 166.5,338.5C 180.216,343.371 194.05,343.704 208,339.5C 220.139,343.602 232.306,347.602 244.5,351.5C 253.252,350.24 256.752,345.24 255,336.5C 253.749,333.619 251.583,331.786 248.5,331C 241.947,328.906 235.447,326.739 229,324.5C 231.033,319.391 232.866,314.057 234.5,308.5C 232.09,299.295 226.423,296.462 217.5,300C 214.267,303.66 211.767,307.827 210,312.5C 203.222,320.205 194.722,323.371 184.5,322C 176.268,319.057 167.935,316.557 159.5,314.5C 157.824,301.418 158.49,288.418 161.5,275.5C 164.777,267.945 167.777,260.278 170.5,252.5C 173.174,246.017 176.341,239.683 180,233.5C 180.5,226.842 180.666,220.175 180.5,213.5C 181.791,213.737 182.791,213.404 183.5,212.5C 186.118,212.221 188.618,211.554 191,210.5C 191.333,222.167 191.667,233.833 192,245.5C 196.255,264.592 208.088,274.925 227.5,276.5C 249.049,275.645 261.883,264.645 266,243.5C 266.023,203.454 266.69,163.454 268,123.5C 275.349,101.978 290.183,89.3118 312.5,85.5 Z"/></g>
<g><path style="opacity:1" fill="#d85567" d="M 356.5,84.5 C 373.689,84.1923 382.522,92.5257 383,109.5C 379.013,123.254 369.846,129.087 355.5,127C 343.376,121.247 338.876,111.747 342,98.5C 344.774,91.5569 349.607,86.8903 356.5,84.5 Z"/></g>
<g><path style="opacity:1" fill="#f09a74" d="M 252.5,105.5 C 248.221,107.684 245.054,111.018 243,115.5C 238.94,122.679 236.274,130.345 235,138.5C 234.832,147.518 234.332,156.518 233.5,165.5C 215.62,157.055 205.62,143.055 203.5,123.5C 205.836,118.651 209.169,114.484 213.5,111C 226.197,100.045 240.863,95.212 257.5,96.5C 255.568,99.3661 253.901,102.366 252.5,105.5 Z"/></g>
<g><path style="opacity:1" fill="#da845f" d="M 252.5,105.5 C 249.24,111.782 247.073,118.448 246,125.5C 245.962,138.262 245.295,150.928 244,163.5C 233.47,168.181 223.304,173.514 213.5,179.5C 211.721,166.587 205.055,157.254 193.5,151.5C 192.732,145.22 193.898,139.22 197,133.5C 198.444,129.589 200.611,126.256 203.5,123.5C 205.62,143.055 215.62,157.055 233.5,165.5C 234.332,156.518 234.832,147.518 235,138.5C 236.274,130.345 238.94,122.679 243,115.5C 245.054,111.018 248.221,107.684 252.5,105.5 Z"/></g>
<g><path style="opacity:1" fill="#bf445c" d="M 176.5,170.5 C 190.097,170.581 194.097,176.748 188.5,189C 180.359,193.558 174.193,191.725 170,183.5C 169.509,177.816 171.675,173.482 176.5,170.5 Z"/></g>
<g><path style="opacity:1" fill="#c3445d" d="M 243.5,187.5 C 244.497,205.326 244.83,223.326 244.5,241.5C 243.35,247.982 239.683,252.315 233.5,254.5C 234.144,244.044 234.477,233.544 234.5,223C 234.499,212.81 233.832,202.977 232.5,193.5C 235.972,191.262 239.638,189.262 243.5,187.5 Z"/></g>
<g><path style="opacity:1" fill="#572b33" d="M 243.5,187.5 C 243.56,186.957 243.893,186.624 244.5,186.5C 245.827,204.996 245.827,223.329 244.5,241.5C 244.83,223.326 244.497,205.326 243.5,187.5 Z"/></g>
<g><path style="opacity:1" fill="#d85567" d="M 232.5,193.5 C 233.832,202.977 234.499,212.81 234.5,223C 234.477,233.544 234.144,244.044 233.5,254.5C 223.222,256.772 216.389,252.772 213,242.5C 212.333,230.5 212.333,218.5 213,206.5C 219.099,201.536 225.599,197.203 232.5,193.5 Z"/></g>
<g><path style="opacity:1" fill="#d65467" d="M 183.5,212.5 C 182.791,213.404 181.791,213.737 180.5,213.5C 180.666,220.175 180.5,226.842 180,233.5C 176.341,239.683 173.174,246.017 170.5,252.5C 170.333,238.496 170.5,224.496 171,210.5C 174.922,212.312 179.089,212.979 183.5,212.5 Z"/></g>
<g><path style="opacity:1" fill="#d25365" d="M 161.5,275.5 C 158.49,288.418 157.824,301.418 159.5,314.5C 156.474,313.826 153.474,312.993 150.5,312C 149.892,310.769 149.559,309.436 149.5,308C 151.724,296.409 155.724,285.576 161.5,275.5 Z"/></g>
<g><path style="opacity:1" fill="#251f20" d="M 389.5,298.5 C 403.316,297.815 407.483,303.815 402,316.5C 398.368,319.13 395.035,322.13 392,325.5C 391.517,326.448 391.351,327.448 391.5,328.5C 397.109,328.402 402.442,329.569 407.5,332C 413.568,335.399 419.068,339.565 424,344.5C 428.493,353.861 425.66,359.527 415.5,361.5C 413.366,361.485 411.366,360.985 409.5,360C 404.436,354.801 398.436,351.135 391.5,349C 377.065,346.475 362.732,343.475 348.5,340C 341.947,337.27 339.78,332.437 342,325.5C 343.167,323 345,321.167 347.5,320C 364.992,319.422 378.992,312.255 389.5,298.5 Z"/></g>
<g><path style="opacity:1" fill="#d95568" d="M 166.5,338.5 C 167.961,343.471 170.128,348.138 173,352.5C 190.299,377.467 211.799,397.967 237.5,414C 282.342,440.915 330.009,461.581 380.5,476C 400.064,480.066 419.731,480.566 439.5,477.5C 436.01,480.415 432.01,482.582 427.5,484C 409.521,489.178 391.188,490.845 372.5,489C 311.492,473.655 255.158,448.322 203.5,413C 186.581,400.749 172.415,385.916 161,368.5C 154.545,357.633 150.378,345.967 148.5,333.5C 154.692,334.878 160.692,336.545 166.5,338.5 Z"/></g>
<g><path style="opacity:1" fill="#699dd1" d="M 127.5,345.5 C 134.85,372.045 149.016,394.378 170,412.5C 170.5,442.498 170.667,472.498 170.5,502.5C 169.508,494.684 169.174,486.684 169.5,478.5C 169.667,458.164 169.5,437.831 169,417.5C 163,411.5 157,405.5 151,399.5C 137.84,383.866 130.007,365.866 127.5,345.5 Z"/></g>
</svg>
