<?xml version="1.0" encoding="UTF-8"?>
<!DOCTYPE svg PUBLIC "-//W3C//DTD SVG 1.1//EN" "http://www.w3.org/Graphics/SVG/1.1/DTD/svg11.dtd">
<svg xmlns="http://www.w3.org/2000/svg" version="1.1" width="512px" height="512px" style="shape-rendering:geometricPrecision; text-rendering:geometricPrecision; image-rendering:optimizeQuality; fill-rule:evenodd; clip-rule:evenodd" xmlns:xlink="http://www.w3.org/1999/xlink">
<g><path style="opacity:0.991" fill="#231f20" d="M 70.5,-0.5 C 81.8333,-0.5 93.1667,-0.5 104.5,-0.5C 115.764,3.43078 123.431,11.0974 127.5,22.5C 131.569,11.0974 139.236,3.43078 150.5,-0.5C 161.833,-0.5 173.167,-0.5 184.5,-0.5C 187.27,0.31039 189.437,1.97706 191,4.5C 191.579,10.2083 192.412,15.875 193.5,21.5C 215.496,28.3301 228.996,42.9968 234,65.5C 234.5,93.1647 234.667,120.831 234.5,148.5C 240.762,147.872 246.762,148.705 252.5,151C 253.701,151.903 254.535,153.069 255,154.5C 255.667,193.5 255.667,232.5 255,271.5C 245.81,326.524 214.643,362.524 161.5,379.5C 160.668,387.813 160.168,396.147 160,404.5C 159.654,407.576 158.988,410.576 158,413.5C 156.681,415.487 154.848,416.654 152.5,417C 147.882,417.994 143.215,418.494 138.5,418.5C 141.847,450.325 157.847,473.158 186.5,487C 227.622,501.18 260.789,490.68 286,455.5C 291.655,445.868 295.322,435.534 297,424.5C 297.333,376.5 297.667,328.5 298,280.5C 301.639,252.212 316.139,231.712 341.5,219C 348.221,216.07 355.221,214.236 362.5,213.5C 368.445,180.112 387.779,158.945 420.5,150C 459.612,143.972 488.112,158.472 506,193.5C 507.975,199.254 509.808,204.921 511.5,210.5C 511.5,219.167 511.5,227.833 511.5,236.5C 502.999,270.833 481.332,291.333 446.5,298C 409.311,300.426 382.811,284.926 367,251.5C 365.126,246.212 363.459,240.879 362,235.5C 336.24,243.266 322.24,260.6 320,287.5C 319.183,329.516 319.35,371.516 320.5,413.5C 317.457,461.837 293.457,494.504 248.5,511.5C 228.167,511.5 207.833,511.5 187.5,511.5C 144.168,495.151 120.501,463.817 116.5,417.5C 111.489,417.666 106.489,417.499 101.5,417C 99.714,416.215 98.214,415.049 97,413.5C 95.5441,402.269 95.0441,390.936 95.5,379.5C 54.1514,368.326 24.9847,342.993 8,303.5C 4.19792,292.95 1.36459,282.284 -0.5,271.5C -0.5,232.5 -0.5,193.5 -0.5,154.5C 1.04602,151.8 3.37935,149.967 6.5,149C 11.1548,148.501 15.8215,148.334 20.5,148.5C 20.3334,120.831 20.5,93.1647 21,65.5C 25.6023,42.6197 39.1023,27.953 61.5,21.5C 62.4646,15.8556 63.2979,10.1889 64,4.5C 65.5631,1.97706 67.7298,0.31039 70.5,-0.5 Z M 126.5,40.5 C 129.775,47.4704 134.441,53.6371 140.5,59C 143.674,60.7248 147.007,62.0581 150.5,63C 162.904,63.939 175.238,63.6057 187.5,62C 189,61.1667 190.167,60 191,58.5C 191.333,53.8333 191.667,49.1667 192,44.5C 203.212,49.7073 209.879,58.3739 212,70.5C 212.5,96.4979 212.667,122.498 212.5,148.5C 206.238,147.872 200.238,148.705 194.5,151C 193.299,151.903 192.465,153.069 192,154.5C 191.667,187.833 191.333,221.167 191,254.5C 189.335,286.692 173.169,307.525 142.5,317C 110.073,322.539 85.9064,311.039 70,282.5C 66.2641,273.889 64.2641,264.889 64,255.5C 63.6667,221.833 63.3333,188.167 63,154.5C 61.7494,151.619 59.5827,149.786 56.5,149C 51.8452,148.501 47.1785,148.334 42.5,148.5C 42.3334,122.498 42.5,96.4979 43,70.5C 45.1213,58.3739 51.788,49.7073 63,44.5C 63.1593,49.9162 63.826,55.2496 65,60.5C 66.4194,61.4601 67.9194,62.2935 69.5,63C 81.1667,63.6667 92.8333,63.6667 104.5,63C 116.091,59.5765 123.424,52.0765 126.5,40.5 Z"/></g>
<g><path style="opacity:1" fill="#3e566d" d="M 84.5,20.5 C 89.9302,20.161 95.2636,20.661 100.5,22C 108.5,28.3333 108.5,34.6667 100.5,41C 95.2919,42.3967 89.9586,42.8967 84.5,42.5C 84.5,35.1667 84.5,27.8333 84.5,20.5 Z"/></g>
<g><path style="opacity:1" fill="#3f576d" d="M 156.5,20.5 C 161.167,20.5 165.833,20.5 170.5,20.5C 170.5,27.8333 170.5,35.1667 170.5,42.5C 165.821,42.6658 161.155,42.4992 156.5,42C 145.888,34.8364 145.888,27.6697 156.5,20.5 Z"/></g>
<g><path style="opacity:1" fill="#364e67" d="M 31.5,170.5 C 31.3334,196.169 31.5,221.835 32,247.5C 38.2796,288.428 59.4462,318.928 95.5,339C 102.243,342.249 109.243,344.916 116.5,347C 121.8,350.1 125.3,354.6 127,360.5C 126.114,369.876 129.448,377.209 137,382.5C 137.176,378.312 137.676,374.312 138.5,370.5C 138.5,379.167 138.5,387.833 138.5,396.5C 131.5,396.5 124.5,396.5 117.5,396.5C 117.666,387.494 117.5,378.494 117,369.5C 116.021,366.375 114.187,363.875 111.5,362C 74.1608,354.316 46.9942,333.483 30,299.5C 24.8586,286.653 21.8586,273.32 21,259.5C 20.5,229.835 20.3334,200.169 20.5,170.5C 24.1667,170.5 27.8333,170.5 31.5,170.5 Z"/></g>
<g><path style="opacity:1" fill="#415a70" d="M 31.5,170.5 C 35.1667,170.5 38.8333,170.5 42.5,170.5C 42.0343,204.874 42.5343,239.207 44,273.5C 53.8009,309.634 76.9676,331.801 113.5,340C 152.994,344.17 182.827,329.336 203,295.5C 206.199,289.065 208.699,282.398 210.5,275.5C 217.514,264.965 221.681,253.298 223,240.5C 224.77,217.181 224.937,193.848 223.5,170.5C 226.833,170.5 230.167,170.5 233.5,170.5C 233.5,200.833 233.5,231.167 233.5,261.5C 229.492,307.338 206.159,338.838 163.5,356C 156.439,357.848 149.439,359.848 142.5,362C 139.989,364.326 138.656,367.159 138.5,370.5C 137.676,374.312 137.176,378.312 137,382.5C 129.448,377.209 126.114,369.876 127,360.5C 125.3,354.6 121.8,350.1 116.5,347C 109.243,344.916 102.243,342.249 95.5,339C 59.4462,318.928 38.2796,288.428 32,247.5C 31.5,221.835 31.3334,196.169 31.5,170.5 Z"/></g>
<g><path style="opacity:1" fill="#374f68" d="M 223.5,170.5 C 224.937,193.848 224.77,217.181 223,240.5C 221.681,253.298 217.514,264.965 210.5,275.5C 211.796,270.938 212.462,266.271 212.5,261.5C 213.498,231.338 213.831,201.005 213.5,170.5C 216.833,170.5 220.167,170.5 223.5,170.5 Z"/></g>
<g><path style="opacity:1" fill="#354353" d="M 233.5,261.5 C 233.5,231.167 233.5,200.833 233.5,170.5C 230.167,170.5 226.833,170.5 223.5,170.5C 220.167,170.5 216.833,170.5 213.5,170.5C 213.831,201.005 213.498,231.338 212.5,261.5C 212.5,230.833 212.5,200.167 212.5,169.5C 219.833,169.5 227.167,169.5 234.5,169.5C 234.831,200.338 234.498,231.005 233.5,261.5 Z"/></g>
<g><path style="opacity:1" fill="#eae8ef" d="M 468.5,265.5 C 450.327,268.61 433.994,264.443 419.5,253C 420.094,252.536 420.761,252.369 421.5,252.5C 436.199,258.361 449.365,256.027 461,245.5C 470.955,230.787 470.955,216.12 461,201.5C 447.635,189.94 433.135,188.44 417.5,197C 404.139,208.947 401.139,223.114 408.5,239.5C 408.607,241.379 408.107,241.712 407,240.5C 396.396,225.846 392.229,209.513 394.5,191.5C 409.248,173.193 428.248,166.693 451.5,172C 480.721,183.234 493.221,204.401 489,235.5C 485.852,248.162 479.019,258.162 468.5,265.5 Z"/></g>
<g><path style="opacity:1" fill="#242021" d="M 421.5,252.5 C 416.167,249.167 411.833,244.833 408.5,239.5C 401.139,223.114 404.139,208.947 417.5,197C 433.135,188.44 447.635,189.94 461,201.5C 470.955,216.12 470.955,230.787 461,245.5C 449.365,256.027 436.199,258.361 421.5,252.5 Z"/></g>
<g><path style="opacity:1" fill="#d7d4e2" d="M 394.5,191.5 C 392.229,209.513 396.396,225.846 407,240.5C 408.107,241.712 408.607,241.379 408.5,239.5C 411.833,244.833 416.167,249.167 421.5,252.5C 420.761,252.369 420.094,252.536 419.5,253C 433.994,264.443 450.327,268.61 468.5,265.5C 456.587,275.166 442.921,278.666 427.5,276C 402.434,270.36 387.934,254.86 384,229.5C 381.95,215.168 385.45,202.501 394.5,191.5 Z"/></g>
<g><path style="opacity:1" fill="#8a8a8a" d="M 433.5,212.5 C 443.368,212.198 447.868,216.865 447,226.5C 443.826,233.505 438.659,235.672 431.5,233C 424.391,225.376 425.058,218.543 433.5,212.5 Z"/></g>
</svg>
