<?xml version="1.0" encoding="UTF-8"?>
<!DOCTYPE svg PUBLIC "-//W3C//DTD SVG 1.1//EN" "http://www.w3.org/Graphics/SVG/1.1/DTD/svg11.dtd">
<svg xmlns="http://www.w3.org/2000/svg" version="1.1" width="512px" height="512px" style="shape-rendering:geometricPrecision; text-rendering:geometricPrecision; image-rendering:optimizeQuality; fill-rule:evenodd; clip-rule:evenodd" xmlns:xlink="http://www.w3.org/1999/xlink">
<g><path style="opacity:0.995" fill="#000000" d="M 30.5,-0.5 C 180.5,-0.5 330.5,-0.5 480.5,-0.5C 496.5,4.16667 506.833,14.5 511.5,30.5C 511.5,148.5 511.5,266.5 511.5,384.5C 507.015,400.484 496.681,410.651 480.5,415C 464.17,415.5 447.837,415.667 431.5,415.5C 431.5,426.167 431.5,436.833 431.5,447.5C 452.503,447.333 473.503,447.5 494.5,448C 502.684,451.019 508.351,456.519 511.5,464.5C 511.5,474.5 511.5,484.5 511.5,494.5C 508.167,502.5 502.5,508.167 494.5,511.5C 477.5,511.5 460.5,511.5 443.5,511.5C 440.611,509.723 439.278,507.056 439.5,503.5C 439.544,499.91 441.211,497.41 444.5,496C 460.567,495.955 476.567,495.288 492.5,494C 493.701,493.097 494.535,491.931 495,490.5C 495.499,486.179 495.666,481.846 495.5,477.5C 495.665,474.482 495.498,471.482 495,468.5C 494.167,466.333 492.667,464.833 490.5,464C 333.833,463.333 177.167,463.333 20.5,464C 18.3333,464.833 16.8333,466.333 16,468.5C 15.502,471.482 15.3354,474.482 15.5,477.5C 15.3343,481.846 15.501,486.179 16,490.5C 16.8333,492.667 18.3333,494.167 20.5,495C 152.833,495.333 285.167,495.667 417.5,496C 421.518,496.863 423.518,499.363 423.5,503.5C 423.722,507.056 422.389,509.723 419.5,511.5C 285.167,511.5 150.833,511.5 16.5,511.5C 8.5,508.167 2.83333,502.5 -0.5,494.5C -0.5,484.5 -0.5,474.5 -0.5,464.5C 2.64896,456.519 8.31563,451.019 16.5,448C 37.4974,447.5 58.4974,447.333 79.5,447.5C 79.5,436.833 79.5,426.167 79.5,415.5C 61.7775,415.945 44.1108,415.445 26.5,414C 12.3797,408.719 3.37972,398.885 -0.5,384.5C -0.5,369.5 -0.5,354.5 -0.5,339.5C 1.2774,336.611 3.94407,335.278 7.5,335.5C 11.0627,335.625 13.5627,337.292 15,340.5C 15.4998,351.495 15.6665,362.495 15.5,373.5C 15.4557,386.239 21.4557,394.739 33.5,399C 181.167,399.667 328.833,399.667 476.5,399C 489.166,395.173 495.499,386.673 495.5,373.5C 495.667,260.166 495.5,146.833 495,33.5C 491.74,24.5725 485.573,18.7392 476.5,16C 328.833,15.3333 181.167,15.3333 33.5,16C 25,19.1667 19.1667,25 16,33.5C 15.6667,126.833 15.3333,220.167 15,313.5C 14.1501,317.513 11.6501,319.513 7.5,319.5C 3.94407,319.722 1.2774,318.389 -0.5,315.5C -0.5,220.5 -0.5,125.5 -0.5,30.5C 4.16667,14.5 14.5,4.16667 30.5,-0.5 Z"/></g>
<g><path style="opacity:1" fill="#dbdbdb" d="M 495.5,373.5 C 490.085,378.374 483.751,381.374 476.5,382.5C 480.314,377.961 480.314,373.461 476.5,369C 466.737,367.871 456.903,367.371 447,367.5C 437.404,367.358 427.904,367.858 418.5,369C 414.443,373.867 414.777,378.367 419.5,382.5C 409.167,383.833 398.833,383.833 388.5,382.5C 393.849,380.65 397.349,376.984 399,371.5C 399.667,261.833 399.667,152.167 399,42.5C 396.744,37.2425 392.91,33.7425 387.5,32C 272.5,31.3333 157.5,31.3333 42.5,32C 37.6667,34.1667 34.1667,37.6667 32,42.5C 31.3333,152.167 31.3333,261.833 32,371.5C 33.6513,376.984 37.1513,380.65 42.5,382.5C 32.1197,384.151 23.1197,381.151 15.5,373.5C 15.6665,362.495 15.4998,351.495 15,340.5C 13.5627,337.292 11.0627,335.625 7.5,335.5C 7.5,330.167 7.5,324.833 7.5,319.5C 11.6501,319.513 14.1501,317.513 15,313.5C 15.3333,220.167 15.6667,126.833 16,33.5C 19.1667,25 25,19.1667 33.5,16C 181.167,15.3333 328.833,15.3333 476.5,16C 485.573,18.7392 491.74,24.5725 495,33.5C 495.5,146.833 495.667,260.166 495.5,373.5 Z"/></g>
<g><path style="opacity:1" fill="#000000" d="M 388.5,382.5 C 273.167,383.833 157.833,383.833 42.5,382.5C 37.1513,380.65 33.6513,376.984 32,371.5C 31.3333,261.833 31.3333,152.167 32,42.5C 34.1667,37.6667 37.6667,34.1667 42.5,32C 157.5,31.3333 272.5,31.3333 387.5,32C 392.91,33.7425 396.744,37.2425 399,42.5C 399.667,152.167 399.667,261.833 399,371.5C 397.349,376.984 393.849,380.65 388.5,382.5 Z"/></g>
<g><path style="opacity:1" fill="#000000" d="M 420.5,31.5 C 438.17,31.3334 455.836,31.5001 473.5,32C 475.329,32.2735 476.829,33.1068 478,34.5C 479.64,52.7428 479.973,71.0761 479,89.5C 478.727,91.3289 477.893,92.8289 476.5,94C 457.899,95.6277 439.232,95.961 420.5,95C 419.069,94.5348 417.903,93.7014 417,92.5C 415.372,73.8989 415.039,55.2322 416,36.5C 417.025,34.313 418.525,32.6464 420.5,31.5 Z"/></g>
<g><path style="opacity:1" fill="#e9f1fe" d="M 383.5,351.5 C 271.5,351.5 159.5,351.5 47.5,351.5C 47.5,250.167 47.5,148.833 47.5,47.5C 159.5,47.5 271.5,47.5 383.5,47.5C 383.5,148.833 383.5,250.167 383.5,351.5 Z"/></g>
<g><path style="opacity:1" fill="#58605f" d="M 463.5,63.5 C 452.833,63.5 442.167,63.5 431.5,63.5C 431.5,58.1667 431.5,52.8333 431.5,47.5C 442.167,47.5 452.833,47.5 463.5,47.5C 463.5,52.8333 463.5,58.1667 463.5,63.5 Z"/></g>
<g><path style="opacity:1" fill="#040404" d="M 84.5,63.5 C 94.6011,62.6068 103.601,65.2734 111.5,71.5C 126.566,60.1276 140.733,61.1276 154,74.5C 159.048,81.0315 160.715,88.3648 159,96.5C 154.833,113.327 145.333,126.16 130.5,135C 124.28,138.528 117.78,141.361 111,143.5C 91.0956,137.252 76.429,124.919 67,106.5C 59.0647,86.3891 64.898,72.0558 84.5,63.5 Z"/></g>
<g><path style="opacity:1" fill="#4b5656" d="M 431.5,63.5 C 442.167,63.5 452.833,63.5 463.5,63.5C 463.5,68.8333 463.5,74.1667 463.5,79.5C 452.833,79.5 442.167,79.5 431.5,79.5C 431.5,74.1667 431.5,68.8333 431.5,63.5 Z"/></g>
<g><path style="opacity:1" fill="#020202" d="M 180.5,71.5 C 198.17,71.3334 215.836,71.5001 233.5,72C 239.462,74.4048 240.962,78.5714 238,84.5C 236.829,85.8932 235.329,86.7265 233.5,87C 215.833,87.6667 198.167,87.6667 180.5,87C 173.889,81.798 173.889,76.6314 180.5,71.5 Z"/></g>
<g><path style="opacity:1" fill="#e08297" d="M 87.5,79.5 C 96.8111,78.9599 102.644,83.2932 105,92.5C 108.419,95.8481 112.252,96.3481 116.5,94C 119.007,89.3181 122.007,84.9848 125.5,81C 138.477,77.9732 144.31,83.1398 143,96.5C 136.905,111.094 126.405,121.094 111.5,126.5C 94.6885,120.528 84.0218,109.028 79.5,92C 79.9686,86.376 82.6353,82.2093 87.5,79.5 Z"/></g>
<g><path style="opacity:1" fill="#020202" d="M 180.5,103.5 C 198.17,103.333 215.836,103.5 233.5,104C 239.462,106.405 240.962,110.571 238,116.5C 236.829,117.893 235.329,118.727 233.5,119C 215.833,119.667 198.167,119.667 180.5,119C 173.889,113.798 173.889,108.631 180.5,103.5 Z"/></g>
<g><path style="opacity:1" fill="#000000" d="M 420.5,111.5 C 438.17,111.333 455.836,111.5 473.5,112C 475.329,112.273 476.829,113.107 478,114.5C 479.64,132.743 479.973,151.076 479,169.5C 478.727,171.329 477.893,172.829 476.5,174C 457.899,175.628 439.232,175.961 420.5,175C 419.069,174.535 417.903,173.701 417,172.5C 415.372,153.899 415.039,135.232 416,116.5C 417.025,114.313 418.525,112.646 420.5,111.5 Z"/></g>
<g><path style="opacity:1" fill="#58605f" d="M 463.5,143.5 C 452.833,143.5 442.167,143.5 431.5,143.5C 431.5,138.167 431.5,132.833 431.5,127.5C 442.167,127.5 452.833,127.5 463.5,127.5C 463.5,132.833 463.5,138.167 463.5,143.5 Z"/></g>
<g><path style="opacity:1" fill="#4b5656" d="M 431.5,143.5 C 442.167,143.5 452.833,143.5 463.5,143.5C 463.5,148.833 463.5,154.167 463.5,159.5C 452.833,159.5 442.167,159.5 431.5,159.5C 431.5,154.167 431.5,148.833 431.5,143.5 Z"/></g>
<g><path style="opacity:1" fill="#030404" d="M 148.5,167.5 C 153.152,166.984 156.652,168.651 159,172.5C 177.355,217.072 196.188,261.405 215.5,305.5C 234.951,260.657 254.117,215.657 273,170.5C 277.298,166.621 281.631,166.621 286,170.5C 295.892,193.285 306.059,215.952 316.5,238.5C 331.489,239.333 346.489,239.833 361.5,240C 367.462,242.405 368.962,246.571 366,252.5C 364.829,253.893 363.329,254.727 361.5,255C 343.076,255.973 324.743,255.64 306.5,254C 297.281,235.059 288.448,215.892 280,196.5C 260.466,240.905 241.466,285.572 223,330.5C 220.649,334.511 217.149,336.011 212.5,335C 210.333,334.167 208.833,332.667 208,330.5C 189.534,285.572 170.534,240.905 151,196.5C 142.552,215.892 133.719,235.059 124.5,254C 105.899,255.628 87.2322,255.961 68.5,255C 64.4893,252.649 62.9893,249.149 64,244.5C 64.8333,242.333 66.3333,240.833 68.5,240C 83.8442,239.833 99.1775,239.333 114.5,238.5C 124.275,217.285 133.775,195.951 143,174.5C 143.967,171.379 145.8,169.046 148.5,167.5 Z"/></g>
<g><path style="opacity:1" fill="#000000" d="M 420.5,191.5 C 438.17,191.333 455.836,191.5 473.5,192C 475.329,192.273 476.829,193.107 478,194.5C 479.64,212.743 479.973,231.076 479,249.5C 478.727,251.329 477.893,252.829 476.5,254C 457.899,255.628 439.232,255.961 420.5,255C 419.069,254.535 417.903,253.701 417,252.5C 415.372,233.899 415.039,215.232 416,196.5C 417.025,194.313 418.525,192.646 420.5,191.5 Z"/></g>
<g><path style="opacity:1" fill="#58605f" d="M 463.5,223.5 C 452.833,223.5 442.167,223.5 431.5,223.5C 431.5,218.167 431.5,212.833 431.5,207.5C 442.167,207.5 452.833,207.5 463.5,207.5C 463.5,212.833 463.5,218.167 463.5,223.5 Z"/></g>
<g><path style="opacity:1" fill="#4b5656" d="M 431.5,223.5 C 442.167,223.5 452.833,223.5 463.5,223.5C 463.5,228.833 463.5,234.167 463.5,239.5C 452.833,239.5 442.167,239.5 431.5,239.5C 431.5,234.167 431.5,228.833 431.5,223.5 Z"/></g>
<g><path style="opacity:1" fill="#000000" d="M 420.5,271.5 C 438.17,271.333 455.836,271.5 473.5,272C 475.329,272.273 476.829,273.107 478,274.5C 479.64,292.743 479.973,311.076 479,329.5C 478.727,331.329 477.893,332.829 476.5,334C 457.899,335.628 439.232,335.961 420.5,335C 419.069,334.535 417.903,333.701 417,332.5C 415.372,313.899 415.039,295.232 416,276.5C 417.025,274.313 418.525,272.646 420.5,271.5 Z"/></g>
<g><path style="opacity:1" fill="#58605f" d="M 463.5,303.5 C 452.833,303.5 442.167,303.5 431.5,303.5C 431.5,298.167 431.5,292.833 431.5,287.5C 442.167,287.5 452.833,287.5 463.5,287.5C 463.5,292.833 463.5,298.167 463.5,303.5 Z"/></g>
<g><path style="opacity:1" fill="#4b5656" d="M 431.5,303.5 C 442.167,303.5 452.833,303.5 463.5,303.5C 463.5,308.833 463.5,314.167 463.5,319.5C 452.833,319.5 442.167,319.5 431.5,319.5C 431.5,314.167 431.5,308.833 431.5,303.5 Z"/></g>
<g><path style="opacity:1" fill="#c0d1f6" d="M 47.5,351.5 C 159.5,351.5 271.5,351.5 383.5,351.5C 383.5,356.833 383.5,362.167 383.5,367.5C 271.5,367.5 159.5,367.5 47.5,367.5C 47.5,362.167 47.5,356.833 47.5,351.5 Z"/></g>
<g><path style="opacity:1" fill="#020202" d="M 476.5,382.5 C 457.458,383.81 438.458,383.81 419.5,382.5C 414.777,378.367 414.443,373.867 418.5,369C 427.904,367.858 437.404,367.358 447,367.5C 456.903,367.371 466.737,367.871 476.5,369C 480.314,373.461 480.314,377.961 476.5,382.5 Z"/></g>
<g><path style="opacity:1" fill="#bababa" d="M 15.5,373.5 C 23.1197,381.151 32.1197,384.151 42.5,382.5C 157.833,383.833 273.167,383.833 388.5,382.5C 398.833,383.833 409.167,383.833 419.5,382.5C 438.458,383.81 457.458,383.81 476.5,382.5C 483.751,381.374 490.085,378.374 495.5,373.5C 495.499,386.673 489.166,395.173 476.5,399C 328.833,399.667 181.167,399.667 33.5,399C 21.4557,394.739 15.4557,386.239 15.5,373.5 Z"/></g>
<g><path style="opacity:1" fill="#c0d1f6" d="M 415.5,431.5 C 308.833,431.5 202.167,431.5 95.5,431.5C 95.5,426.167 95.5,420.833 95.5,415.5C 202.167,415.5 308.833,415.5 415.5,415.5C 415.5,420.833 415.5,426.167 415.5,431.5 Z"/></g>
<g><path style="opacity:1" fill="#e9f2fe" d="M 95.5,431.5 C 202.167,431.5 308.833,431.5 415.5,431.5C 415.5,436.833 415.5,442.167 415.5,447.5C 308.833,447.5 202.167,447.5 95.5,447.5C 95.5,442.167 95.5,436.833 95.5,431.5 Z"/></g>
<g><path style="opacity:1" fill="#dbdbdb" d="M 495.5,477.5 C 493.914,478.148 492.247,478.648 490.5,479C 333.167,479.667 175.833,479.667 18.5,479C 17.4734,478.487 16.4734,477.987 15.5,477.5C 15.3354,474.482 15.502,471.482 16,468.5C 16.8333,466.333 18.3333,464.833 20.5,464C 177.167,463.333 333.833,463.333 490.5,464C 492.667,464.833 494.167,466.333 495,468.5C 495.498,471.482 495.665,474.482 495.5,477.5 Z"/></g>
<g><path style="opacity:1" fill="#bababa" d="M 15.5,477.5 C 16.4734,477.987 17.4734,478.487 18.5,479C 175.833,479.667 333.167,479.667 490.5,479C 492.247,478.648 493.914,478.148 495.5,477.5C 495.666,481.846 495.499,486.179 495,490.5C 494.535,491.931 493.701,493.097 492.5,494C 476.567,495.288 460.567,495.955 444.5,496C 441.211,497.41 439.544,499.91 439.5,503.5C 434.167,503.5 428.833,503.5 423.5,503.5C 423.518,499.363 421.518,496.863 417.5,496C 285.167,495.667 152.833,495.333 20.5,495C 18.3333,494.167 16.8333,492.667 16,490.5C 15.501,486.179 15.3343,481.846 15.5,477.5 Z"/></g>
</svg>
