<?xml version="1.0" encoding="UTF-8"?>
<!DOCTYPE svg PUBLIC "-//W3C//DTD SVG 1.1//EN" "http://www.w3.org/Graphics/SVG/1.1/DTD/svg11.dtd">
<svg xmlns="http://www.w3.org/2000/svg" version="1.1" width="512px" height="512px" style="shape-rendering:geometricPrecision; text-rendering:geometricPrecision; image-rendering:optimizeQuality; fill-rule:evenodd; clip-rule:evenodd" xmlns:xlink="http://www.w3.org/1999/xlink">
<g><path style="opacity:0.983" fill="#010101" d="M 177.5,-0.5 C 220.167,-0.5 262.833,-0.5 305.5,-0.5C 325.521,5.18888 338.187,18.1889 343.5,38.5C 362.527,43.3602 375.36,55.0269 382,73.5C 383.121,94.4577 383.955,115.458 384.5,136.5C 391.62,139.785 396.453,145.118 399,152.5C 399.667,167.833 399.667,183.167 399,198.5C 396.649,205.519 392.149,210.686 385.5,214C 376.916,215.41 368.25,215.91 359.5,215.5C 359.686,246.462 348.352,272.295 325.5,293C 368.167,315.333 410.833,337.667 453.5,360C 472.2,371.724 483.367,388.557 487,410.5C 487.667,442.833 487.667,475.167 487,507.5C 486.31,509.35 485.144,510.684 483.5,511.5C 480.833,511.5 478.167,511.5 475.5,511.5C 472.611,509.723 471.278,507.056 471.5,503.5C 471.5,495.5 471.5,487.5 471.5,479.5C 471.667,457.164 471.5,434.831 471,412.5C 467.659,395.835 458.825,383.002 444.5,374C 402.167,351.833 359.833,329.667 317.5,307.5C 316.914,307.709 316.414,308.043 316,308.5C 307.175,363.786 298.675,419.119 290.5,474.5C 288.28,483.911 286.947,493.578 286.5,503.5C 286.293,507.174 284.626,509.84 281.5,511.5C 278.833,511.5 276.167,511.5 273.5,511.5C 272.542,510.038 271.376,508.705 270,507.5C 269.51,506.207 269.343,504.873 269.5,503.5C 270.671,495.462 272.004,487.462 273.5,479.5C 279.333,441.51 284.833,403.51 290,365.5C 266.966,378.615 243.966,378.615 221,365.5C 226.167,403.51 231.667,441.51 237.5,479.5C 238.996,487.462 240.329,495.462 241.5,503.5C 241.333,507.179 239.666,509.846 236.5,511.5C 234.167,511.5 231.833,511.5 229.5,511.5C 226.374,509.84 224.707,507.174 224.5,503.5C 224.082,493.575 222.748,483.909 220.5,474.5C 212.326,419.122 203.826,363.788 195,308.5C 194.586,308.043 194.086,307.709 193.5,307.5C 151.833,329.333 110.167,351.167 68.5,373C 53.2276,381.948 43.7276,395.115 40,412.5C 39.5,434.831 39.3334,457.164 39.5,479.5C 39.5,487.5 39.5,495.5 39.5,503.5C 39.7224,507.056 38.3891,509.723 35.5,511.5C 32.8333,511.5 30.1667,511.5 27.5,511.5C 25.8564,510.684 24.6897,509.35 24,507.5C 23.3333,474.833 23.3333,442.167 24,409.5C 28.4773,387.377 40.3106,370.544 59.5,359C 101.5,337 143.5,315 185.5,293C 162.647,272.291 151.314,246.458 151.5,215.5C 142.75,215.91 134.084,215.41 125.5,214C 118.851,210.686 114.351,205.519 112,198.5C 111.045,182.1 111.378,165.766 113,149.5C 117.425,139.872 124.925,135.205 135.5,135.5C 161.169,135.667 186.835,135.5 212.5,135C 241.169,131.501 264.836,118.835 283.5,97C 286.833,95 290.167,95 293.5,97C 312.913,119.873 337.58,132.373 367.5,134.5C 367.667,116.497 367.5,98.4969 367,80.5C 363.933,68.4323 356.433,60.599 344.5,57C 339.748,56.2753 335.081,55.2753 330.5,54C 329.107,52.8289 328.273,51.3289 328,49.5C 327.256,30.8281 317.756,19.6614 299.5,16C 260.5,15.3333 221.5,15.3333 182.5,16C 161,20.1667 148.167,33 144,54.5C 143.667,74.1667 143.333,93.8333 143,113.5C 142.15,117.513 139.65,119.513 135.5,119.5C 132.039,119.854 129.539,118.521 128,115.5C 127.333,93.5 127.333,71.5 128,49.5C 134.682,22.9857 151.182,6.31898 177.5,-0.5 Z"/></g>
<g><path style="opacity:1" fill="#585f5f" d="M 135.5,135.5 C 135.5,130.167 135.5,124.833 135.5,119.5C 139.65,119.513 142.15,117.513 143,113.5C 143.333,93.8333 143.667,74.1667 144,54.5C 148.167,33 161,20.1667 182.5,16C 221.5,15.3333 260.5,15.3333 299.5,16C 317.756,19.6614 327.256,30.8281 328,49.5C 328.273,51.3289 329.107,52.8289 330.5,54C 335.081,55.2753 339.748,56.2753 344.5,57C 356.433,60.599 363.933,68.4323 367,80.5C 367.5,98.4969 367.667,116.497 367.5,134.5C 337.58,132.373 312.913,119.873 293.5,97C 290.167,95 286.833,95 283.5,97C 264.836,118.835 241.169,131.501 212.5,135C 186.835,135.5 161.169,135.667 135.5,135.5 Z"/></g>
<g><path style="opacity:1" fill="#dfc2a9" d="M 340.5,238.5 C 312.768,280.011 274.435,294.844 225.5,283C 207.984,276.83 193.151,266.663 181,252.5C 177.702,247.518 174.202,242.852 170.5,238.5C 169.512,234.211 168.679,229.878 168,225.5C 167.5,200.836 167.333,176.169 167.5,151.5C 183.17,151.667 198.837,151.5 214.5,151C 242.99,146.92 267.657,135.087 288.5,115.5C 302.211,128.361 317.878,138.194 335.5,145C 338.063,146.079 340.729,146.579 343.5,146.5C 343.667,172.835 343.5,199.169 343,225.5C 342.321,229.878 341.488,234.211 340.5,238.5 Z"/></g>
<g><path style="opacity:1" fill="#edbfa6" d="M 132.5,151.5 C 138.833,151.5 145.167,151.5 151.5,151.5C 151.5,167.5 151.5,183.5 151.5,199.5C 145.158,199.666 138.825,199.5 132.5,199C 130.333,198.167 128.833,196.667 128,194.5C 127.333,181.833 127.333,169.167 128,156.5C 129.025,154.313 130.525,152.646 132.5,151.5 Z"/></g>
<g><path style="opacity:1" fill="#ecbfa6" d="M 359.5,151.5 C 380.498,146.498 388.498,154.498 383.5,175.5C 388.498,196.502 380.498,204.502 359.5,199.5C 359.5,183.5 359.5,167.5 359.5,151.5 Z"/></g>
<g><path style="opacity:1" fill="#070605" d="M 204.5,159.5 C 209.152,158.984 212.652,160.651 215,164.5C 215.839,169.921 215.506,175.254 214,180.5C 210.498,183.601 206.665,184.101 202.5,182C 201.107,180.829 200.273,179.329 200,177.5C 199.333,173.167 199.333,168.833 200,164.5C 201.025,162.313 202.525,160.646 204.5,159.5 Z"/></g>
<g><path style="opacity:1" fill="#070605" d="M 300.5,159.5 C 305.152,158.984 308.652,160.651 311,164.5C 311.839,169.921 311.506,175.254 310,180.5C 306.498,183.601 302.665,184.101 298.5,182C 297.107,180.829 296.273,179.329 296,177.5C 295.333,173.167 295.333,168.833 296,164.5C 297.025,162.313 298.525,160.646 300.5,159.5 Z"/></g>
<g><path style="opacity:1" fill="#cda07d" d="M 170.5,238.5 C 174.202,242.852 177.702,247.518 181,252.5C 193.151,266.663 207.984,276.83 225.5,283C 274.435,294.844 312.768,280.011 340.5,238.5C 326.894,279.59 298.394,301.257 255,303.5C 212.147,300.802 183.98,279.135 170.5,238.5 Z"/></g>
<g><path style="opacity:1" fill="#050404" d="M 228.5,247.5 C 230.527,247.338 232.527,247.505 234.5,248C 243.269,254.076 252.935,256.076 263.5,254C 268.882,252.222 274.048,250.056 279,247.5C 287.888,249.574 289.721,254.407 284.5,262C 264.285,273.829 244.452,273.329 225,260.5C 222.325,255.011 223.492,250.678 228.5,247.5 Z"/></g>
<g><path style="opacity:1" fill="#f4f4f4" d="M 220.5,474.5 C 220.5,476.167 220.5,477.833 220.5,479.5C 160.167,479.5 99.8333,479.5 39.5,479.5C 39.3334,457.164 39.5,434.831 40,412.5C 43.7276,395.115 53.2276,381.948 68.5,373C 110.167,351.167 151.833,329.333 193.5,307.5C 194.086,307.709 194.586,308.043 195,308.5C 203.826,363.788 212.326,419.122 220.5,474.5 Z"/></g>
<g><path style="opacity:1" fill="#f5f5f5" d="M 471.5,479.5 C 455.5,479.5 439.5,479.5 423.5,479.5C 423.665,475.818 423.499,472.152 423,468.5C 422.535,467.069 421.701,465.903 420.5,465C 410.914,463.58 401.247,463.08 391.5,463.5C 391.867,459.033 391.367,454.7 390,450.5C 384.522,445.998 379.855,446.665 376,452.5C 375.501,456.152 375.335,459.818 375.5,463.5C 370.167,463.5 364.833,463.5 359.5,463.5C 359.666,457.158 359.5,450.825 359,444.5C 355.911,439.695 351.744,438.528 346.5,441C 345.299,441.903 344.465,443.069 344,444.5C 343.5,450.825 343.334,457.158 343.5,463.5C 330.5,461.167 325.167,466.5 327.5,479.5C 315.167,479.5 302.833,479.5 290.5,479.5C 290.5,477.833 290.5,476.167 290.5,474.5C 298.675,419.119 307.175,363.786 316,308.5C 316.414,308.043 316.914,307.709 317.5,307.5C 359.833,329.667 402.167,351.833 444.5,374C 458.825,383.002 467.659,395.835 471,412.5C 471.5,434.831 471.667,457.164 471.5,479.5 Z"/></g>
<g><path style="opacity:1" fill="#ebbea5" d="M 211.5,309.5 C 230.502,318.943 250.502,321.777 271.5,318C 281.028,316.118 290.361,313.618 299.5,310.5C 298.241,320.624 296.408,330.624 294,340.5C 276.701,359.617 256.201,364.117 232.5,354C 226.742,350.246 221.575,345.746 217,340.5C 214.463,330.314 212.63,319.98 211.5,309.5 Z"/></g>
<g><path style="opacity:1" fill="#a7ecfb" d="M 273.5,479.5 C 261.5,479.5 249.5,479.5 237.5,479.5C 231.667,441.51 226.167,403.51 221,365.5C 243.966,378.615 266.966,378.615 290,365.5C 284.833,403.51 279.333,441.51 273.5,479.5 Z"/></g>
<g><path style="opacity:1" fill="#020101" d="M 100.5,391.5 C 113.907,391.056 127.24,391.556 140.5,393C 141.701,393.903 142.535,395.069 143,396.5C 143.499,400.152 143.665,403.818 143.5,407.5C 146.85,407.335 150.183,407.502 153.5,408C 155.329,408.273 156.829,409.107 158,410.5C 159.13,417.232 159.63,424.065 159.5,431C 159.612,438.242 159.112,445.409 158,452.5C 156.829,453.893 155.329,454.727 153.5,455C 150.183,455.498 146.85,455.665 143.5,455.5C 143.665,458.85 143.498,462.183 143,465.5C 142.727,467.329 141.893,468.829 140.5,470C 133.409,471.112 126.242,471.612 119,471.5C 112.065,471.63 105.232,471.13 98.5,470C 97.1068,468.829 96.2735,467.329 96,465.5C 95.5017,462.183 95.335,458.85 95.5,455.5C 91.8183,455.665 88.1516,455.499 84.5,455C 83.0692,454.535 81.9025,453.701 81,452.5C 79.888,445.409 79.388,438.242 79.5,431C 79.3696,424.065 79.8696,417.232 81,410.5C 81.9025,409.299 83.0692,408.465 84.5,408C 88.1516,407.501 91.8183,407.335 95.5,407.5C 95.3347,403.818 95.5014,400.152 96,396.5C 97.025,394.313 98.525,392.646 100.5,391.5 Z"/></g>
<g><path style="opacity:1" fill="#cc4e5e" d="M 111.5,407.5 C 116.833,407.5 122.167,407.5 127.5,407.5C 125.189,420.523 130.523,425.856 143.5,423.5C 143.5,428.833 143.5,434.167 143.5,439.5C 130.5,437.167 125.167,442.5 127.5,455.5C 122.167,455.5 116.833,455.5 111.5,455.5C 113.856,442.523 108.523,437.189 95.5,439.5C 95.5,434.167 95.5,428.833 95.5,423.5C 108.5,425.833 113.833,420.5 111.5,407.5 Z"/></g>
<g><path style="opacity:0.992" fill="#010101" d="M 423.5,479.5 C 423.5,487.5 423.5,495.5 423.5,503.5C 423.722,507.056 422.389,509.723 419.5,511.5C 416.833,511.5 414.167,511.5 411.5,511.5C 408.611,509.723 407.278,507.056 407.5,503.5C 407.5,495.5 407.5,487.5 407.5,479.5C 386.167,479.5 364.833,479.5 343.5,479.5C 343.5,487.5 343.5,495.5 343.5,503.5C 343.722,507.056 342.389,509.723 339.5,511.5C 336.833,511.5 334.167,511.5 331.5,511.5C 328.611,509.723 327.278,507.056 327.5,503.5C 327.5,495.5 327.5,487.5 327.5,479.5C 325.167,466.5 330.5,461.167 343.5,463.5C 343.334,457.158 343.5,450.825 344,444.5C 344.465,443.069 345.299,441.903 346.5,441C 351.744,438.528 355.911,439.695 359,444.5C 359.5,450.825 359.666,457.158 359.5,463.5C 364.833,463.5 370.167,463.5 375.5,463.5C 375.335,459.818 375.501,456.152 376,452.5C 379.855,446.665 384.522,445.998 390,450.5C 391.367,454.7 391.867,459.033 391.5,463.5C 401.247,463.08 410.914,463.58 420.5,465C 421.701,465.903 422.535,467.069 423,468.5C 423.499,472.152 423.665,475.818 423.5,479.5 Z"/></g>
<g><path style="opacity:1" fill="#dbdbdb" d="M 220.5,474.5 C 222.748,483.909 224.082,493.575 224.5,503.5C 162.833,503.5 101.167,503.5 39.5,503.5C 39.5,495.5 39.5,487.5 39.5,479.5C 99.8333,479.5 160.167,479.5 220.5,479.5C 220.5,477.833 220.5,476.167 220.5,474.5 Z"/></g>
<g><path style="opacity:1" fill="#8ad3dd" d="M 237.5,479.5 C 249.5,479.5 261.5,479.5 273.5,479.5C 272.004,487.462 270.671,495.462 269.5,503.5C 260.167,503.5 250.833,503.5 241.5,503.5C 240.329,495.462 238.996,487.462 237.5,479.5 Z"/></g>
<g><path style="opacity:1" fill="#dadada" d="M 290.5,474.5 C 290.5,476.167 290.5,477.833 290.5,479.5C 302.833,479.5 315.167,479.5 327.5,479.5C 327.5,487.5 327.5,495.5 327.5,503.5C 313.833,503.5 300.167,503.5 286.5,503.5C 286.947,493.578 288.28,483.911 290.5,474.5 Z"/></g>
<g><path style="opacity:1" fill="#babbba" d="M 407.5,503.5 C 386.167,503.5 364.833,503.5 343.5,503.5C 343.5,495.5 343.5,487.5 343.5,479.5C 364.833,479.5 386.167,479.5 407.5,479.5C 407.5,487.5 407.5,495.5 407.5,503.5 Z"/></g>
<g><path style="opacity:1" fill="#dbdcdb" d="M 423.5,479.5 C 439.5,479.5 455.5,479.5 471.5,479.5C 471.5,487.5 471.5,495.5 471.5,503.5C 455.5,503.5 439.5,503.5 423.5,503.5C 423.5,495.5 423.5,487.5 423.5,479.5 Z"/></g>
</svg>
