<?xml version="1.0" encoding="UTF-8"?>
<!DOCTYPE svg PUBLIC "-//W3C//DTD SVG 1.1//EN" "http://www.w3.org/Graphics/SVG/1.1/DTD/svg11.dtd">
<svg xmlns="http://www.w3.org/2000/svg" version="1.1" width="512px" height="512px" style="shape-rendering:geometricPrecision; text-rendering:geometricPrecision; image-rendering:optimizeQuality; fill-rule:evenodd; clip-rule:evenodd" xmlns:xlink="http://www.w3.org/1999/xlink">
<g><path style="opacity:0.98" fill="#373754" d="M 436.5,101.5 C 434.704,100.207 433.037,98.7073 431.5,97C 429.655,95.872 427.655,95.372 425.5,95.5C 426.138,101.459 424.638,102.459 421,98.5C 420.667,93.5 420.333,88.5 420,83.5C 415.722,80.6108 413.888,76.6108 414.5,71.5C 405.527,73.3947 396.527,75.228 387.5,77C 379.692,78.0194 372.025,77.5194 364.5,75.5C 363.194,76.9122 362.36,78.5789 362,80.5C 361.826,85.6835 361.326,90.6835 360.5,95.5C 359.199,94.1184 358.366,92.4517 358,90.5C 357.667,84.8333 357.333,79.1667 357,73.5C 351.249,69.6616 348.415,64.3282 348.5,57.5C 356.61,57.9471 358.11,55.2805 353,49.5C 352.689,47.444 352.189,45.444 351.5,43.5C 363.362,39.9031 375.029,35.7365 386.5,31C 393.833,29 401.167,29 408.5,31C 415.399,35.2184 422.733,38.5518 430.5,41C 439.716,45.5877 444.216,53.0877 444,63.5C 445.433,76.9844 442.933,89.6511 436.5,101.5 Z"/></g>
<g><path style="opacity:0.984" fill="#32327a" d="M 155.5,183.5 C 148.833,183.5 142.167,183.5 135.5,183.5C 135.5,179.833 135.5,176.167 135.5,172.5C 135.5,171.5 135.5,170.5 135.5,169.5C 150.301,166.868 159.467,158.201 163,143.5C 163.667,130.833 163.667,118.167 163,105.5C 162.439,104.978 161.772,104.645 161,104.5C 155.611,106.149 150.111,107.315 144.5,108C 128.489,108.658 112.489,108.491 96.5,107.5C 96.5,111.5 96.5,115.5 96.5,119.5C 86.0756,122.353 83.2422,128.686 88,138.5C 90.3974,140.782 93.2307,142.116 96.5,142.5C 96.5,150.833 96.5,159.167 96.5,167.5C 96.5,172.833 96.5,178.167 96.5,183.5C 90.31,183.823 84.31,183.49 78.5,182.5C 80.6993,165.904 79.5327,149.571 75,133.5C 72.3475,112.096 76.3475,92.0956 87,73.5C 96.965,62.9837 108.632,60.6503 122,66.5C 125.594,61.6197 130.427,59.2864 136.5,59.5C 152.46,61.3978 163.626,69.7311 170,84.5C 175.613,101.145 176.947,118.145 174,135.5C 168.516,151.787 162.35,167.787 155.5,183.5 Z"/></g>
<g><path style="opacity:0.995" fill="#f7c3bf" d="M 436.5,101.5 C 438.336,110.201 435.003,115.201 426.5,116.5C 425.778,116.082 425.278,115.416 425,114.5C 422.186,130.648 412.686,140.148 396.5,143C 406.342,145.292 416.342,146.125 426.5,145.5C 426.5,147.167 426.5,148.833 426.5,150.5C 418.003,151.707 409.67,153.707 401.5,156.5C 397.065,155.023 392.732,153.356 388.5,151.5C 388.813,148.753 388.48,146.086 387.5,143.5C 372.649,139.817 363.816,130.483 361,115.5C 360.5,108.842 360.334,102.175 360.5,95.5C 361.326,90.6835 361.826,85.6835 362,80.5C 362.36,78.5789 363.194,76.9122 364.5,75.5C 372.025,77.5194 379.692,78.0194 387.5,77C 396.527,75.228 405.527,73.3947 414.5,71.5C 413.888,76.6108 415.722,80.6108 420,83.5C 420.333,88.5 420.667,93.5 421,98.5C 424.638,102.459 426.138,101.459 425.5,95.5C 427.655,95.372 429.655,95.872 431.5,97C 433.037,98.7073 434.704,100.207 436.5,101.5 Z"/></g>
<g><path style="opacity:1" fill="#423f5a" d="M 371.5,94.5 C 376.068,94.0826 377.568,96.0826 376,100.5C 374.333,103.167 372.667,103.167 371,100.5C 370.322,98.4024 370.489,96.4024 371.5,94.5 Z"/></g>
<g><path style="opacity:1" fill="#3a3955" d="M 393.5,94.5 C 394.822,94.33 395.989,94.6634 397,95.5C 397.667,97.5 397.667,99.5 397,101.5C 395.667,102.833 394.333,102.833 393,101.5C 392.297,99.0709 392.463,96.7375 393.5,94.5 Z"/></g>
<g><path style="opacity:1" fill="#f7c2bf" d="M 135.5,169.5 C 115.372,170.615 102.372,161.615 96.5,142.5C 93.2307,142.116 90.3974,140.782 88,138.5C 83.2422,128.686 86.0756,122.353 96.5,119.5C 96.5,115.5 96.5,111.5 96.5,107.5C 112.489,108.491 128.489,108.658 144.5,108C 150.111,107.315 155.611,106.149 161,104.5C 161.772,104.645 162.439,104.978 163,105.5C 163.667,118.167 163.667,130.833 163,143.5C 159.467,158.201 150.301,166.868 135.5,169.5 Z"/></g>
<g><path style="opacity:1" fill="#fefdfd" d="M 372.5,117.5 C 380.5,117.5 388.5,117.5 396.5,117.5C 396.67,125.664 392.67,129.997 384.5,130.5C 377.025,129.359 373.025,125.025 372.5,117.5 Z"/></g>
<g><path style="opacity:1" fill="#fd9c9a" d="M 426.5,116.5 C 426.5,126.167 426.5,135.833 426.5,145.5C 416.342,146.125 406.342,145.292 396.5,143C 412.686,140.148 422.186,130.648 425,114.5C 425.278,115.416 425.778,116.082 426.5,116.5 Z"/></g>
<g><path style="opacity:1" fill="#3e377a" d="M 126.5,120.5 C 129.352,120.352 131.019,121.686 131.5,124.5C 130.875,127.986 129.042,128.986 126,127.5C 125.297,125.071 125.463,122.738 126.5,120.5 Z"/></g>
<g><path style="opacity:1" fill="#3f387b" d="M 149.5,120.5 C 150.822,120.33 151.989,120.663 153,121.5C 153.667,123.5 153.667,125.5 153,127.5C 149.958,128.986 148.125,127.986 147.5,124.5C 147.752,122.927 148.418,121.594 149.5,120.5 Z"/></g>
<g><path style="opacity:1" fill="#fc9c9a" d="M 135.5,145.5 C 139.5,145.5 143.5,145.5 147.5,145.5C 147.5,146.5 147.5,147.5 147.5,148.5C 144.201,147.624 140.868,147.457 137.5,148C 135.023,149.643 132.69,151.476 130.5,153.5C 129.417,152.635 129.251,151.635 130,150.5C 131.812,148.7 133.645,147.033 135.5,145.5 Z"/></g>
<g><path style="opacity:1" fill="#fc9b99" d="M 96.5,142.5 C 102.372,161.615 115.372,170.615 135.5,169.5C 135.5,170.5 135.5,171.5 135.5,172.5C 135.167,172.5 134.833,172.5 134.5,172.5C 121.696,174.29 109.363,172.623 97.5,167.5C 97.1667,167.5 96.8333,167.5 96.5,167.5C 96.5,159.167 96.5,150.833 96.5,142.5 Z"/></g>
<g><path style="opacity:0.996" fill="#60b09b" d="M 426.5,150.5 C 428.833,152.167 430.833,154.167 432.5,156.5C 431.833,157.167 431.167,157.833 430.5,158.5C 422.892,162.306 415.559,166.64 408.5,171.5C 407.575,170.643 406.908,169.643 406.5,168.5C 405.205,164.577 403.372,160.91 401,157.5C 396.999,160.335 393.499,163.668 390.5,167.5C 389.518,168.141 388.518,168.807 387.5,169.5C 386.832,167.031 386.165,164.698 385.5,162.5C 385.675,160.379 385.341,158.379 384.5,156.5C 385.604,154.611 386.937,152.945 388.5,151.5C 392.732,153.356 397.065,155.023 401.5,156.5C 409.67,153.707 418.003,151.707 426.5,150.5 Z"/></g>
<g><path style="opacity:0.997" fill="#f0f6fe" d="M 384.5,156.5 C 385.341,158.379 385.675,160.379 385.5,162.5C 385.413,171.188 385.747,179.854 386.5,188.5C 387.014,194.822 387.347,201.155 387.5,207.5C 385.973,218.055 385.14,228.722 385,239.5C 370.937,234.941 356.77,230.607 342.5,226.5C 341.507,221.88 341.173,217.214 341.5,212.5C 340.5,212.5 339.5,212.5 338.5,212.5C 338.826,216.884 338.492,221.217 337.5,225.5C 334.898,224.346 332.232,223.846 329.5,224C 351.888,232.096 374.554,239.263 397.5,245.5C 404.399,227.196 411.732,209.029 419.5,191C 419.333,190.5 419.167,190 419,189.5C 411.726,205.049 404.726,220.715 398,236.5C 396.726,242.582 393.559,243.916 388.5,240.5C 388.167,238.667 387.833,236.833 387.5,235C 388.332,225.852 388.666,216.685 388.5,207.5C 392.833,202.167 397.167,196.833 401.5,191.5C 411.51,180.822 421.177,169.822 430.5,158.5C 431.167,157.833 431.833,157.167 432.5,156.5C 444.991,155.287 456.991,157.12 468.5,162C 478.184,168.365 483.184,177.365 483.5,189C 482.951,195.809 481.284,202.309 478.5,208.5C 469.402,234.291 460.569,260.291 452,286.5C 441.767,306.138 425.934,312.971 404.5,307C 378.833,292.5 353.167,278 327.5,263.5C 325.008,268.305 321.675,272.472 317.5,276C 313.912,277.622 310.579,279.455 307.5,281.5C 300.676,276.255 293.676,271.255 286.5,266.5C 281.373,250.997 276.707,235.331 272.5,219.5C 279.196,222.594 286.196,224.928 293.5,226.5C 293.702,233.115 293.868,239.781 294,246.5C 297.743,250.889 302.577,252.889 308.5,252.5C 310.674,241.188 313.674,230.188 317.5,219.5C 319.5,219.833 321.5,220.167 323.5,220.5C 323.333,209.828 323.5,199.161 324,188.5C 326.828,174.987 334.661,165.82 347.5,161C 359.711,158.422 372.045,156.922 384.5,156.5 Z"/></g>
<g><path style="opacity:1" fill="#384259" d="M 406.5,168.5 C 404.496,169.673 402.996,171.34 402,173.5C 401.501,179.491 401.334,185.491 401.5,191.5C 397.167,196.833 392.833,202.167 388.5,207.5C 388.167,207.5 387.833,207.5 387.5,207.5C 387.347,201.155 387.014,194.822 386.5,188.5C 388.58,181.762 389.913,174.762 390.5,167.5C 393.499,163.668 396.999,160.335 401,157.5C 403.372,160.91 405.205,164.577 406.5,168.5 Z"/></g>
<g><path style="opacity:1" fill="#79d6a7" d="M 430.5,158.5 C 421.177,169.822 411.51,180.822 401.5,191.5C 401.334,185.491 401.501,179.491 402,173.5C 402.996,171.34 404.496,169.673 406.5,168.5C 406.908,169.643 407.575,170.643 408.5,171.5C 415.559,166.64 422.892,162.306 430.5,158.5 Z"/></g>
<g><path style="opacity:1" fill="#f9c3bf" d="M 97.5,167.5 C 109.363,172.623 121.696,174.29 134.5,172.5C 134.5,175.833 134.5,179.167 134.5,182.5C 122.167,182.5 109.833,182.5 97.5,182.5C 97.5,177.5 97.5,172.5 97.5,167.5 Z"/></g>
<g><path style="opacity:1" fill="#7dd5a9" d="M 385.5,162.5 C 386.165,164.698 386.832,167.031 387.5,169.5C 388.518,168.807 389.518,168.141 390.5,167.5C 389.913,174.762 388.58,181.762 386.5,188.5C 385.747,179.854 385.413,171.188 385.5,162.5 Z"/></g>
<g><path style="opacity:0.994" fill="#78d6a6" d="M 78.5,182.5 C 84.31,183.49 90.31,183.823 96.5,183.5C 97.1667,183.833 97.8333,184.167 98.5,184.5C 109.814,193.636 121.314,202.636 133,211.5C 133.921,202.187 134.421,192.853 134.5,183.5C 134.833,183.5 135.167,183.5 135.5,183.5C 142.167,183.5 148.833,183.5 155.5,183.5C 170.409,180.85 182.243,185.517 191,197.5C 195.723,216.614 199.223,235.947 201.5,255.5C 196.167,255.5 190.833,255.5 185.5,255.5C 185.167,255.5 184.833,255.5 184.5,255.5C 182.165,243.823 179.665,232.156 177,220.5C 176.5,232.162 176.333,243.829 176.5,255.5C 176.5,266.833 176.5,278.167 176.5,289.5C 162.484,289.833 148.484,289.499 134.5,288.5C 133.365,286.201 132.032,284.034 130.5,282C 121.125,280.851 119.125,284.185 124.5,292C 117.721,292.493 111.054,293.493 104.5,295C 96.9512,302.313 95.4512,310.813 100,320.5C 101.938,323.106 104.438,324.939 107.5,326C 115.515,326.055 123.515,325.555 131.5,324.5C 146.887,325.612 162.22,326.612 177.5,327.5C 177.5,332.833 177.5,338.167 177.5,343.5C 150.167,343.5 122.833,343.5 95.5,343.5C 88.8376,337.671 82.671,331.337 77,324.5C 76.8341,307.146 77.3341,289.813 78.5,272.5C 79.8333,272.5 81.1667,272.5 82.5,272.5C 82.6666,250.164 82.5,227.831 82,205.5C 80.3389,224.746 79.1722,244.08 78.5,263.5C 62.1667,263.5 45.8333,263.5 29.5,263.5C 28.1691,256.197 27.5024,248.53 27.5,240.5C 23.4111,202.27 40.4111,182.937 78.5,182.5 Z"/></g>
<g><path style="opacity:1" fill="#d4abb3" d="M 96.5,167.5 C 96.8333,167.5 97.1667,167.5 97.5,167.5C 97.5,172.5 97.5,177.5 97.5,182.5C 109.833,182.5 122.167,182.5 134.5,182.5C 134.5,179.167 134.5,175.833 134.5,172.5C 134.833,172.5 135.167,172.5 135.5,172.5C 135.5,176.167 135.5,179.833 135.5,183.5C 135.167,183.5 134.833,183.5 134.5,183.5C 122.322,183.172 110.322,183.505 98.5,184.5C 97.8333,184.167 97.1667,183.833 96.5,183.5C 96.5,178.167 96.5,172.833 96.5,167.5 Z"/></g>
<g><path style="opacity:1" fill="#f7c4bf" d="M 134.5,183.5 C 134.421,192.853 133.921,202.187 133,211.5C 121.314,202.636 109.814,193.636 98.5,184.5C 110.322,183.505 122.322,183.172 134.5,183.5 Z"/></g>
<g><path style="opacity:0.99" fill="#363383" d="M 270.5,212.5 C 270.41,215.152 271.076,217.485 272.5,219.5C 276.707,235.331 281.373,250.997 286.5,266.5C 287.802,270.242 288.802,274.075 289.5,278C 289.441,279.436 289.108,280.769 288.5,282C 271.833,282.667 255.167,282.667 238.5,282C 233.814,270.436 229.814,258.603 226.5,246.5C 227.508,244.661 229.008,243.328 231,242.5C 235.168,236.095 235.501,229.429 232,222.5C 229.222,215.525 224.056,212.191 216.5,212.5C 214.971,207.909 213.637,203.243 212.5,198.5C 212.529,196.971 213.196,195.804 214.5,195C 231.167,194.333 247.833,194.333 264.5,195C 266.8,200.733 268.8,206.566 270.5,212.5 Z"/></g>
<g><path style="opacity:0.983" fill="#f8c4c1" d="M 317.5,219.5 C 313.674,230.188 310.674,241.188 308.5,252.5C 302.577,252.889 297.743,250.889 294,246.5C 293.868,239.781 293.702,233.115 293.5,226.5C 286.196,224.928 279.196,222.594 272.5,219.5C 271.076,217.485 270.41,215.152 270.5,212.5C 271.117,212.611 271.617,212.944 272,213.5C 273.47,211.848 275.303,210.848 277.5,210.5C 286.844,212.836 296.177,215.169 305.5,217.5C 305.621,214.998 305.788,212.332 306,209.5C 308.795,206.887 311.629,206.887 314.5,209.5C 315.506,212.863 316.506,216.196 317.5,219.5 Z"/></g>
<g><path style="opacity:1" fill="#cbddfa" d="M 387.5,207.5 C 387.833,207.5 388.167,207.5 388.5,207.5C 388.666,216.685 388.332,225.852 387.5,235C 387.833,236.833 388.167,238.667 388.5,240.5C 393.559,243.916 396.726,242.582 398,236.5C 404.726,220.715 411.726,205.049 419,189.5C 419.167,190 419.333,190.5 419.5,191C 411.732,209.029 404.399,227.196 397.5,245.5C 374.554,239.263 351.888,232.096 329.5,224C 332.232,223.846 334.898,224.346 337.5,225.5C 338.492,221.217 338.826,216.884 338.5,212.5C 339.5,212.5 340.5,212.5 341.5,212.5C 341.173,217.214 341.507,221.88 342.5,226.5C 356.77,230.607 370.937,234.941 385,239.5C 385.14,228.722 385.973,218.055 387.5,207.5 Z"/></g>
<g><path style="opacity:0.972" fill="#f5c1bf" d="M 216.5,212.5 C 224.056,212.191 229.222,215.525 232,222.5C 235.501,229.429 235.168,236.095 231,242.5C 229.008,243.328 227.508,244.661 226.5,246.5C 221.896,247.621 219.063,245.955 218,241.5C 216.167,233.5 214.333,225.5 212.5,217.5C 212.747,214.923 214.081,213.257 216.5,212.5 Z"/></g>
<g><path style="opacity:1" fill="#c7dafa" d="M 478.5,208.5 C 478.514,254.836 478.181,301.169 477.5,347.5C 477.499,362.849 476.833,377.849 475.5,392.5C 471.5,392.5 467.5,392.5 463.5,392.5C 460.134,376.769 453.301,362.769 443,350.5C 426.593,332.891 407.759,318.557 386.5,307.5C 385.702,309.078 385.202,310.744 385,312.5C 384.444,331.19 383.61,349.856 382.5,368.5C 382.167,368.5 381.833,368.5 381.5,368.5C 381.957,347.151 381.957,325.818 381.5,304.5C 366.806,297.303 353.639,287.97 342,276.5C 341.791,282.581 341.291,288.581 340.5,294.5C 333.538,294.941 326.871,293.774 320.5,291C 315.985,287.97 311.651,284.803 307.5,281.5C 310.579,279.455 313.912,277.622 317.5,276C 321.675,272.472 325.008,268.305 327.5,263.5C 353.167,278 378.833,292.5 404.5,307C 425.934,312.971 441.767,306.138 452,286.5C 460.569,260.291 469.402,234.291 478.5,208.5 Z"/></g>
<g><path style="opacity:1" fill="#61b79d" d="M 78.5,272.5 C 78.5,269.5 78.5,266.5 78.5,263.5C 79.1722,244.08 80.3389,224.746 82,205.5C 82.5,227.831 82.6666,250.164 82.5,272.5C 81.1667,272.5 79.8333,272.5 78.5,272.5 Z"/></g>
<g><path style="opacity:1" fill="#5fb49d" d="M 184.5,255.5 C 181.833,255.5 179.167,255.5 176.5,255.5C 176.333,243.829 176.5,232.162 177,220.5C 179.665,232.156 182.165,243.823 184.5,255.5 Z"/></g>
<g><path style="opacity:0.993" fill="#f8c4bf" d="M 185.5,255.5 C 190.833,255.5 196.167,255.5 201.5,255.5C 201.667,274.836 201.5,294.17 201,313.5C 196.577,323.734 188.744,328.401 177.5,327.5C 162.22,326.612 146.887,325.612 131.5,324.5C 123.515,325.555 115.515,326.055 107.5,326C 104.438,324.939 101.938,323.106 100,320.5C 95.4512,310.813 96.9512,302.313 104.5,295C 111.054,293.493 117.721,292.493 124.5,292C 119.125,284.185 121.125,280.851 130.5,282C 132.032,284.034 133.365,286.201 134.5,288.5C 148.484,289.499 162.484,289.833 176.5,289.5C 177.495,278.679 177.828,267.679 177.5,256.5C 180.385,256.806 183.052,256.473 185.5,255.5 Z"/></g>
<g><path style="opacity:1" fill="#c3c9b5" d="M 176.5,255.5 C 179.167,255.5 181.833,255.5 184.5,255.5C 184.833,255.5 185.167,255.5 185.5,255.5C 183.052,256.473 180.385,256.806 177.5,256.5C 177.828,267.679 177.495,278.679 176.5,289.5C 176.5,278.167 176.5,266.833 176.5,255.5 Z"/></g>
<g><path style="opacity:0.993" fill="#f8c3c0" d="M 29.5,263.5 C 45.8333,263.5 62.1667,263.5 78.5,263.5C 78.5,266.5 78.5,269.5 78.5,272.5C 77.3341,289.813 76.8341,307.146 77,324.5C 82.671,331.337 88.8376,337.671 95.5,343.5C 106.33,355.164 116.996,366.997 127.5,379C 131.833,379.333 136.167,379.667 140.5,380C 144.598,383.649 144.265,386.982 139.5,390C 137.1,390.186 134.766,390.686 132.5,391.5C 137.09,397.689 141.424,404.022 145.5,410.5C 147.735,417.637 146.402,423.97 141.5,429.5C 135.101,433.327 128.768,433.327 122.5,429.5C 117.75,423.673 113.75,417.34 110.5,410.5C 109.094,407.586 107.094,405.086 104.5,403C 84.1374,388.49 63.8041,373.99 43.5,359.5C 36.1379,355.639 31.6379,349.639 30,341.5C 29.5,315.502 29.3334,289.502 29.5,263.5 Z"/></g>
<g><path style="opacity:0.983" fill="#f0f6fe" d="M 381.5,368.5 C 380.892,371.327 379.892,373.993 378.5,376.5C 370.017,388.561 358.351,393.228 343.5,390.5C 342.5,390.5 341.5,390.5 340.5,390.5C 340.5,358.5 340.5,326.5 340.5,294.5C 341.291,288.581 341.791,282.581 342,276.5C 353.639,287.97 366.806,297.303 381.5,304.5C 381.957,325.818 381.957,347.151 381.5,368.5 Z"/></g>
<g><path style="opacity:1" fill="#f0f6fe" d="M 463.5,392.5 C 443.497,392.667 423.497,392.5 403.5,392C 400.022,390.76 396.689,389.26 393.5,387.5C 387.517,382.537 383.85,376.203 382.5,368.5C 383.61,349.856 384.444,331.19 385,312.5C 385.202,310.744 385.702,309.078 386.5,307.5C 407.759,318.557 426.593,332.891 443,350.5C 453.301,362.769 460.134,376.769 463.5,392.5 Z"/></g>
<g><path style="opacity:0.998" fill="#78aefd" d="M 95.5,343.5 C 122.833,343.5 150.167,343.5 177.5,343.5C 185.833,343.5 194.167,343.5 202.5,343.5C 219.105,347.264 230.272,357.264 236,373.5C 237.474,409.451 237.974,445.451 237.5,481.5C 215.5,481.5 193.5,481.5 171.5,481.5C 171.5,470.5 171.5,459.5 171.5,448.5C 171.5,442.167 171.5,435.833 171.5,429.5C 171.5,423.167 171.5,416.833 171.5,410.5C 162.833,410.5 154.167,410.5 145.5,410.5C 141.424,404.022 137.09,397.689 132.5,391.5C 134.766,390.686 137.1,390.186 139.5,390C 144.265,386.982 144.598,383.649 140.5,380C 136.167,379.667 131.833,379.333 127.5,379C 116.996,366.997 106.33,355.164 95.5,343.5 Z"/></g>
<g><path style="opacity:0.974" fill="#5592ff" d="M 202.5,343.5 C 225.455,342.302 240.288,352.635 247,374.5C 247.5,410.165 247.667,445.832 247.5,481.5C 244.167,481.5 240.833,481.5 237.5,481.5C 237.974,445.451 237.474,409.451 236,373.5C 230.272,357.264 219.105,347.264 202.5,343.5 Z"/></g>
<g><path style="opacity:0.984" fill="#7aaffd" d="M 43.5,359.5 C 63.8041,373.99 84.1374,388.49 104.5,403C 107.094,405.086 109.094,407.586 110.5,410.5C 96.1375,410.764 81.8042,410.431 67.5,409.5C 53.9537,404.105 46.1203,394.105 44,379.5C 43.5004,372.842 43.3337,366.175 43.5,359.5 Z"/></g>
<g><path style="opacity:0.994" fill="#4e84e6" d="M 381.5,368.5 C 381.833,368.5 382.167,368.5 382.5,368.5C 383.85,376.203 387.517,382.537 393.5,387.5C 396.068,418.817 398.401,450.15 400.5,481.5C 396.167,481.5 391.833,481.5 387.5,481.5C 385.434,447.474 382.934,413.474 380,379.5C 379.768,378.263 379.268,377.263 378.5,376.5C 379.892,373.993 380.892,371.327 381.5,368.5 Z"/></g>
<g><path style="opacity:0.977" fill="#5592fe" d="M 378.5,376.5 C 379.268,377.263 379.768,378.263 380,379.5C 382.934,413.474 385.434,447.474 387.5,481.5C 372.833,481.5 358.167,481.5 343.5,481.5C 343.5,451.167 343.5,420.833 343.5,390.5C 358.351,393.228 370.017,388.561 378.5,376.5 Z"/></g>
<g><path style="opacity:0.988" fill="#78aefd" d="M 393.5,387.5 C 396.689,389.26 400.022,390.76 403.5,392C 423.497,392.5 443.497,392.667 463.5,392.5C 467.5,392.5 471.5,392.5 475.5,392.5C 475.5,422.167 475.5,451.833 475.5,481.5C 450.5,481.5 425.5,481.5 400.5,481.5C 398.401,450.15 396.068,418.817 393.5,387.5 Z"/></g>
<g><path style="opacity:0.995" fill="#387094" d="M 67.5,409.5 C 81.8042,410.431 96.1375,410.764 110.5,410.5C 113.75,417.34 117.75,423.673 122.5,429.5C 95.5,429.5 68.5,429.5 41.5,429.5C 41.5,422.833 41.5,416.167 41.5,409.5C 50.1667,409.5 58.8333,409.5 67.5,409.5 Z"/></g>
<g><path style="opacity:1" fill="#3a7195" d="M 145.5,410.5 C 154.167,410.5 162.833,410.5 171.5,410.5C 171.5,416.833 171.5,423.167 171.5,429.5C 161.5,429.5 151.5,429.5 141.5,429.5C 146.402,423.97 147.735,417.637 145.5,410.5 Z"/></g>
<g><path style="opacity:0.994" fill="#315a79" d="M 41.5,429.5 C 68.5,429.5 95.5,429.5 122.5,429.5C 128.768,433.327 135.101,433.327 141.5,429.5C 151.5,429.5 161.5,429.5 171.5,429.5C 171.5,435.833 171.5,442.167 171.5,448.5C 158.833,448.5 146.167,448.5 133.5,448.5C 122.069,447.181 110.735,447.181 99.5,448.5C 80.1667,448.5 60.8333,448.5 41.5,448.5C 41.5,442.167 41.5,435.833 41.5,429.5 Z"/></g>
<g><path style="opacity:1" fill="#c6d9f9" d="M 133.5,448.5 C 133.5,459.5 133.5,470.5 133.5,481.5C 122.167,481.5 110.833,481.5 99.5,481.5C 99.5,470.5 99.5,459.5 99.5,448.5C 110.735,447.181 122.069,447.181 133.5,448.5 Z"/></g>
</svg>
