<?xml version="1.0" encoding="UTF-8"?>
<!DOCTYPE svg PUBLIC "-//W3C//DTD SVG 1.1//EN" "http://www.w3.org/Graphics/SVG/1.1/DTD/svg11.dtd">
<svg xmlns="http://www.w3.org/2000/svg" version="1.1" width="512px" height="512px" style="shape-rendering:geometricPrecision; text-rendering:geometricPrecision; image-rendering:optimizeQuality; fill-rule:evenodd; clip-rule:evenodd" xmlns:xlink="http://www.w3.org/1999/xlink">
<g><path style="opacity:0.985" fill="#333077" d="M 150.5,134.5 C 154.945,128.939 157.778,122.606 159,115.5C 159.667,106.5 159.667,97.5 159,88.5C 147.921,82.3509 141.255,73.0176 139,60.5C 135.246,66.2581 130.746,71.4248 125.5,76C 113.495,84.8362 100.495,91.8362 86.5,97C 79.4581,104.384 80.1248,111.05 88.5,117C 89.7932,117.49 91.1266,117.657 92.5,117.5C 92.5,125.833 92.5,134.167 92.5,142.5C 77.7434,146.2 66.5768,141.533 59,128.5C 58.3333,126.167 58.3333,123.833 59,121.5C 65.3627,101.309 68.3627,80.6426 68,59.5C 73.3026,42.0084 84.9693,35.3418 103,39.5C 121.463,30.1898 137.796,33.1898 152,48.5C 156.696,54.556 160.363,61.2227 163,68.5C 165.308,76.4222 167.808,84.2556 170.5,92C 167.407,92.0697 164.407,91.7364 161.5,91C 163.682,99.8811 166.849,108.381 171,116.5C 171.667,118.167 171.667,119.833 171,121.5C 165.758,128.212 158.924,132.545 150.5,134.5 Z"/></g>
<g><path style="opacity:0.998" fill="#f7c2bf" d="M 150.5,134.5 C 145.476,140.18 139.143,143.513 131.5,144.5C 131.5,149.5 131.5,154.5 131.5,159.5C 130.835,162.482 130.502,165.648 130.5,169C 131.471,182.164 131.971,195.331 132,208.5C 119,192.003 105.833,175.67 92.5,159.5C 92.5,155.5 92.5,151.5 92.5,147.5C 102.308,148.027 111.974,147.194 121.5,145C 106.403,141.4 96.7363,132.233 92.5,117.5C 91.1266,117.657 89.7932,117.49 88.5,117C 80.1248,111.05 79.4581,104.384 86.5,97C 100.495,91.8362 113.495,84.8362 125.5,76C 130.746,71.4248 135.246,66.2581 139,60.5C 141.255,73.0176 147.921,82.3509 159,88.5C 159.667,97.5 159.667,106.5 159,115.5C 157.778,122.606 154.945,128.939 150.5,134.5 Z"/></g>
<g><path style="opacity:1" fill="#323547" d="M 122.5,94.5 C 126.976,94.8222 128.476,97.1556 127,101.5C 123.481,104.28 121.647,103.28 121.5,98.5C 121.623,97.0755 121.957,95.7421 122.5,94.5 Z"/></g>
<g><path style="opacity:1" fill="#303446" d="M 144.5,94.5 C 148.976,94.8222 150.476,97.1556 149,101.5C 147.333,104.167 145.667,104.167 144,101.5C 143.297,99.0709 143.463,96.7375 144.5,94.5 Z"/></g>
<g><path style="opacity:0.992" fill="#353e57" d="M 463.5,122.5 C 460.19,135.813 452.19,145.146 439.5,150.5C 437.69,147.855 436.69,144.855 436.5,141.5C 422.476,143.929 408.476,144.096 394.5,142C 392.763,147.323 392.096,152.823 392.5,158.5C 385.945,156.448 381.445,152.114 379,145.5C 374.736,116.591 387.236,101.258 416.5,99.5C 429.972,99.4885 441.806,103.822 452,112.5C 453.626,114.917 455.126,117.417 456.5,120C 458.9,120.744 461.233,121.577 463.5,122.5 Z"/></g>
<g><path style="opacity:1" fill="#fefdfd" d="M 122.5,118.5 C 130.833,118.5 139.167,118.5 147.5,118.5C 146.79,126.709 142.29,131.043 134,131.5C 126.112,130.777 122.278,126.444 122.5,118.5 Z"/></g>
<g><path style="opacity:1" fill="#fb9997" d="M 92.5,117.5 C 96.7363,132.233 106.403,141.4 121.5,145C 111.974,147.194 102.308,148.027 92.5,147.5C 92.5,145.833 92.5,144.167 92.5,142.5C 92.5,134.167 92.5,125.833 92.5,117.5 Z"/></g>
<g><path style="opacity:0.995" fill="#2d354a" d="M 463.5,122.5 C 477.067,132.406 480.901,145.406 475,161.5C 472.089,168.819 467.589,174.986 461.5,180C 458.688,181.549 455.688,182.382 452.5,182.5C 452.822,176.642 452.489,170.975 451.5,165.5C 445.31,162.304 441.31,157.304 439.5,150.5C 452.19,145.146 460.19,135.813 463.5,122.5 Z"/></g>
<g><path style="opacity:0.995" fill="#f7c2bf" d="M 439.5,150.5 C 441.31,157.304 445.31,162.304 451.5,165.5C 452.718,188.275 442.052,200.942 419.5,203.5C 397.033,196.939 388.033,181.939 392.5,158.5C 392.096,152.823 392.763,147.323 394.5,142C 408.476,144.096 422.476,143.929 436.5,141.5C 436.69,144.855 437.69,147.855 439.5,150.5 Z"/></g>
<g><path style="opacity:1" fill="#2c3244" d="M 402.5,157.5 C 403.822,157.33 404.989,157.663 406,158.5C 406.667,160.5 406.667,162.5 406,164.5C 404.413,165.727 403.079,165.394 402,163.5C 401.322,161.402 401.489,159.402 402.5,157.5 Z"/></g>
<g><path style="opacity:1" fill="#323547" d="M 422.5,156.5 C 425.05,156.884 426.383,158.384 426.5,161C 424.472,166.874 422.805,166.874 421.5,161C 421.605,159.408 421.939,157.908 422.5,156.5 Z"/></g>
<g><path style="opacity:0.993" fill="#77d6a5" d="M 82.5,159.5 C 83.006,164.554 83.8394,169.554 85,174.5C 89.7861,177.618 94.2861,181.118 98.5,185C 96.9991,186.252 95.3325,187.252 93.5,188C 109.345,205.343 125.345,222.51 141.5,239.5C 146.642,219.932 151.309,200.265 155.5,180.5C 150.677,180.123 146.011,179.29 141.5,178C 144.5,175.833 147.5,173.667 150.5,171.5C 146.811,167.48 143.145,163.48 139.5,159.5C 149.982,159.586 160.315,160.753 170.5,163C 178,166.5 183.5,172 187,179.5C 192.131,192.088 196.964,204.755 201.5,217.5C 192.873,217.144 187.54,221.144 185.5,229.5C 188.811,245.034 191.145,260.701 192.5,276.5C 185.524,276.011 179.524,273.345 174.5,268.5C 173.5,290.156 173.167,311.823 173.5,333.5C 169.761,333.999 166.094,334.999 162.5,336.5C 161.567,340.429 161.234,344.429 161.5,348.5C 145.026,349.544 129.026,347.377 113.5,342C 100.001,333.493 87.5013,323.659 76,312.5C 75.5,283.502 75.3334,254.502 75.5,225.5C 73.8333,225.5 72.1667,225.5 70.5,225.5C 70.5,272.5 70.5,319.5 70.5,366.5C 56.1667,366.5 41.8333,366.5 27.5,366.5C 27.0154,306.788 27.5154,247.121 29,187.5C 33.8799,171.957 44.3799,162.79 60.5,160C 67.8258,159.5 75.1591,159.334 82.5,159.5 Z"/></g>
<g><path style="opacity:1" fill="#5eb19c" d="M 82.5,159.5 C 85.8333,159.5 89.1667,159.5 92.5,159.5C 105.833,175.67 119,192.003 132,208.5C 131.971,195.331 131.471,182.164 130.5,169C 130.502,165.648 130.835,162.482 131.5,159.5C 134.167,159.5 136.833,159.5 139.5,159.5C 143.145,163.48 146.811,167.48 150.5,171.5C 147.5,173.667 144.5,175.833 141.5,178C 146.011,179.29 150.677,180.123 155.5,180.5C 151.309,200.265 146.642,219.932 141.5,239.5C 125.345,222.51 109.345,205.343 93.5,188C 95.3325,187.252 96.9991,186.252 98.5,185C 94.2861,181.118 89.7861,177.618 85,174.5C 83.8394,169.554 83.006,164.554 82.5,159.5 Z"/></g>
<g><path style="opacity:1" fill="#fefcfc" d="M 402.5,178.5 C 409.833,178.5 417.167,178.5 424.5,178.5C 422.954,188.608 417.287,192.108 407.5,189C 403.808,186.45 402.142,182.95 402.5,178.5 Z"/></g>
<g><path style="opacity:1" fill="#fb9b99" d="M 451.5,165.5 C 452.489,170.975 452.822,176.642 452.5,182.5C 452.5,188.167 452.5,193.833 452.5,199.5C 452.5,201.833 452.5,204.167 452.5,206.5C 452.5,206.833 452.5,207.167 452.5,207.5C 441.554,208.23 430.887,206.897 420.5,203.5C 420.167,203.5 419.833,203.5 419.5,203.5C 442.052,200.942 452.718,188.275 451.5,165.5 Z"/></g>
<g><path style="opacity:0.986" fill="#393939" d="M 452.5,199.5 C 459.076,200.746 462.409,204.746 462.5,211.5C 460.924,214.352 459.424,217.352 458,220.5C 453.923,225.73 450.09,231.064 446.5,236.5C 444.833,237.5 443.5,238.833 442.5,240.5C 440.049,244.124 437.383,247.624 434.5,251C 439.656,257.299 439.822,263.799 435,270.5C 431.318,274.349 427.485,278.016 423.5,281.5C 421.232,282.544 418.899,282.711 416.5,282C 413.654,281.121 412.987,279.454 414.5,277C 416.557,276.695 418.557,276.695 420.5,277C 424.702,273.133 428.535,268.967 432,264.5C 434.039,256.234 430.872,251.567 422.5,250.5C 418.742,250.878 415.742,252.544 413.5,255.5C 410.87,257.628 408.37,259.961 406,262.5C 405.885,264.107 406.385,265.607 407.5,267C 406.313,269.59 404.48,270.09 402,268.5C 400.85,266.246 400.516,263.913 401,261.5C 406.067,254.931 411.9,249.265 418.5,244.5C 420.607,245.468 422.941,245.802 425.5,245.5C 428.258,247.048 430.758,246.715 433,244.5C 438.618,236.547 444.618,228.88 451,221.5C 452.777,218.941 454.277,216.274 455.5,213.5C 455.5,213.167 455.5,212.833 455.5,212.5C 455.969,209.607 454.969,207.607 452.5,206.5C 452.5,204.167 452.5,201.833 452.5,199.5 Z"/></g>
<g><path style="opacity:0.984" fill="#f7c2be" d="M 420.5,203.5 C 430.887,206.897 441.554,208.23 452.5,207.5C 452.5,209.167 452.5,210.833 452.5,212.5C 447.661,213.434 442.661,214.268 437.5,215C 436.956,215.717 436.289,216.217 435.5,216.5C 432.939,215.233 430.272,215.233 427.5,216.5C 425.735,215.539 423.735,215.205 421.5,215.5C 421.802,212.941 421.468,210.607 420.5,208.5C 420.5,206.833 420.5,205.167 420.5,203.5 Z"/></g>
<g><path style="opacity:0.952" fill="#343637" d="M 420.5,208.5 C 421.468,210.607 421.802,212.941 421.5,215.5C 419.973,215.427 418.973,216.094 418.5,217.5C 409.822,226.682 401.656,236.349 394,246.5C 393.581,248.68 393.748,250.846 394.5,253C 393.01,259.256 389.01,261.756 382.5,260.5C 382.167,260.5 381.833,260.5 381.5,260.5C 377.829,257.751 376.663,254.084 378,249.5C 379.945,245.61 383.112,243.943 387.5,244.5C 389.017,244.489 390.184,243.823 391,242.5C 395.842,236.137 400.676,229.803 405.5,223.5C 408.812,216.855 413.812,211.855 420.5,208.5 Z"/></g>
<g><path style="opacity:0.995" fill="#f0f6fe" d="M 462.5,211.5 C 472.05,211.196 478.55,215.529 482,224.5C 483.374,251.822 483.707,279.155 483,306.5C 482.321,310.039 481.154,313.372 479.5,316.5C 476.778,320.732 473.445,324.565 469.5,328C 464.705,330.713 459.705,333.046 454.5,335C 460.252,338.252 465.585,342.085 470.5,346.5C 471.666,357.151 471.832,367.818 471,378.5C 466.5,387 460,393.5 451.5,398C 445.477,400.896 439.31,403.396 433,405.5C 432.5,393.838 432.333,382.171 432.5,370.5C 432.5,367.167 432.5,363.833 432.5,360.5C 436.287,361.186 439.454,360.186 442,357.5C 442.667,350.5 442.667,343.5 442,336.5C 441.184,335.177 440.017,334.511 438.5,334.5C 406.671,333.502 374.671,333.168 342.5,333.5C 342.5,323.833 342.5,314.167 342.5,304.5C 355.053,302.279 367.72,300.612 380.5,299.5C 386.851,298.593 393.184,297.593 399.5,296.5C 410.834,294.703 422.167,292.87 433.5,291C 439.333,289.167 443.167,285.333 445,279.5C 445.746,265.173 446.246,250.84 446.5,236.5C 450.09,231.064 453.923,225.73 458,220.5C 459.424,217.352 460.924,214.352 462.5,211.5 Z"/></g>
<g><path style="opacity:1" fill="#3384fa" d="M 452.5,212.5 C 453.5,212.5 454.5,212.5 455.5,212.5C 455.5,212.833 455.5,213.167 455.5,213.5C 450.139,216.512 444.806,219.512 439.5,222.5C 436.518,222.963 433.518,223.296 430.5,223.5C 430.5,222.5 430.5,221.5 430.5,220.5C 432.142,219.197 433.809,217.864 435.5,216.5C 436.289,216.217 436.956,215.717 437.5,215C 442.661,214.268 447.661,213.434 452.5,212.5 Z"/></g>
<g><path style="opacity:1" fill="#e9f0f9" d="M 455.5,213.5 C 454.277,216.274 452.777,218.941 451,221.5C 444.618,228.88 438.618,236.547 433,244.5C 430.758,246.715 428.258,247.048 425.5,245.5C 429.413,237.333 434.08,229.667 439.5,222.5C 444.806,219.512 450.139,216.512 455.5,213.5 Z"/></g>
<g><path style="opacity:1" fill="#2881f8" d="M 421.5,215.5 C 423.735,215.205 425.735,215.539 427.5,216.5C 425.999,217.752 424.332,218.752 422.5,219.5C 419.631,222.512 418.298,221.845 418.5,217.5C 418.973,216.094 419.973,215.427 421.5,215.5 Z"/></g>
<g><path style="opacity:0.998" fill="#475f9c" d="M 201.5,217.5 C 217.675,217.17 233.675,217.504 249.5,218.5C 245.486,218.334 241.486,218.501 237.5,219C 240.745,220.981 242.911,223.814 244,227.5C 249.332,258.989 254.498,290.489 259.5,322C 259.054,327.073 256.72,330.906 252.5,333.5C 238.167,333.5 223.833,333.5 209.5,333.5C 208.5,333.5 207.5,333.5 206.5,333.5C 203.8,331.954 201.967,329.621 201,326.5C 198.055,309.831 195.222,293.164 192.5,276.5C 191.145,260.701 188.811,245.034 185.5,229.5C 187.54,221.144 192.873,217.144 201.5,217.5 Z"/></g>
<g><path style="opacity:1" fill="#343177" d="M 249.5,218.5 C 253.627,218.635 256.294,220.635 257.5,224.5C 260.261,237.062 262.594,249.729 264.5,262.5C 267.607,280.808 270.607,299.141 273.5,317.5C 273.665,320.518 273.498,323.518 273,326.5C 271.334,328.996 269.5,331.329 267.5,333.5C 262.5,333.5 257.5,333.5 252.5,333.5C 256.72,330.906 259.054,327.073 259.5,322C 254.498,290.489 249.332,258.989 244,227.5C 242.911,223.814 240.745,220.981 237.5,219C 241.486,218.501 245.486,218.334 249.5,218.5 Z"/></g>
<g><path style="opacity:1" fill="#81c1fa" d="M 418.5,217.5 C 418.298,221.845 419.631,222.512 422.5,219.5C 422.702,221.989 422.202,224.323 421,226.5C 406.578,246.452 394.411,267.786 384.5,290.5C 383.778,290.082 383.278,289.416 383,288.5C 382.5,279.173 382.334,269.839 382.5,260.5C 389.01,261.756 393.01,259.256 394.5,253C 393.748,250.846 393.581,248.68 394,246.5C 401.656,236.349 409.822,226.682 418.5,217.5 Z"/></g>
<g><path style="opacity:0.943" fill="#f8c3c0" d="M 264.5,262.5 C 262.594,249.729 260.261,237.062 257.5,224.5C 259.392,220.832 262.392,219.665 266.5,221C 269.448,224.927 268.782,228.261 264.5,231C 274.167,231.333 283.833,231.667 293.5,232C 297.717,235.473 297.384,238.473 292.5,241C 287.133,241.403 281.799,242.07 276.5,243C 278.704,248.12 278.871,253.287 277,258.5C 273.613,262.039 269.447,263.372 264.5,262.5 Z"/></g>
<g><path style="opacity:1" fill="#83c2f9" d="M 430.5,220.5 C 430.5,221.5 430.5,222.5 430.5,223.5C 433.518,223.296 436.518,222.963 439.5,222.5C 434.08,229.667 429.413,237.333 425.5,245.5C 422.941,245.802 420.607,245.468 418.5,244.5C 420.504,237.992 423.004,231.659 426,225.5C 426.996,223.34 428.496,221.673 430.5,220.5 Z"/></g>
<g><path style="opacity:1" fill="#5db19c" d="M 161.5,348.5 C 159.741,357.702 163.407,361.702 172.5,360.5C 172.5,363.833 172.5,367.167 172.5,370.5C 172.5,375.5 172.5,380.5 172.5,385.5C 171.833,385.5 171.167,385.5 170.5,385.5C 140.005,384.502 109.338,384.169 78.5,384.5C 79.4731,382.932 79.6397,381.265 79,379.5C 76.1428,375.102 73.3095,370.768 70.5,366.5C 70.5,319.5 70.5,272.5 70.5,225.5C 72.1667,225.5 73.8333,225.5 75.5,225.5C 75.3334,254.502 75.5,283.502 76,312.5C 87.5013,323.659 100.001,333.493 113.5,342C 129.026,347.377 145.026,349.544 161.5,348.5 Z"/></g>
<g><path style="opacity:0.783" fill="#7bbff4" d="M 405.5,223.5 C 400.676,229.803 395.842,236.137 391,242.5C 390.184,243.823 389.017,244.489 387.5,244.5C 391.401,235.606 397.401,228.606 405.5,223.5 Z"/></g>
<g><path style="opacity:1" fill="#5db19c" d="M 173.5,232.5 C 174.829,237.96 175.496,243.793 175.5,250C 175.167,255.833 174.833,261.667 174.5,267.5C 173.501,255.852 173.168,244.186 173.5,232.5 Z"/></g>
<g><path style="opacity:1" fill="#cadcf9" d="M 446.5,236.5 C 446.246,250.84 445.746,265.173 445,279.5C 443.167,285.333 439.333,289.167 433.5,291C 422.167,292.87 410.834,294.703 399.5,296.5C 399.263,295.209 399.596,294.209 400.5,293.5C 411.109,291.677 421.776,290.177 432.5,289C 437.694,287.807 440.86,284.64 442,279.5C 443.381,266.346 443.548,253.346 442.5,240.5C 443.5,238.833 444.833,237.5 446.5,236.5 Z"/></g>
<g><path style="opacity:1" fill="#eef4fc" d="M 442.5,240.5 C 443.548,253.346 443.381,266.346 442,279.5C 440.86,284.64 437.694,287.807 432.5,289C 421.776,290.177 411.109,291.677 400.5,293.5C 400.263,292.209 400.596,291.209 401.5,290.5C 408.469,277.233 415.469,263.899 422.5,250.5C 430.872,251.567 434.039,256.234 432,264.5C 428.535,268.967 424.702,273.133 420.5,277C 418.557,276.695 416.557,276.695 414.5,277C 412.987,279.454 413.654,281.121 416.5,282C 418.899,282.711 421.232,282.544 423.5,281.5C 427.485,278.016 431.318,274.349 435,270.5C 439.822,263.799 439.656,257.299 434.5,251C 437.383,247.624 440.049,244.124 442.5,240.5 Z"/></g>
<g><path style="opacity:1" fill="#5eb29c" d="M 141.5,245.5 C 147.643,246.026 148.976,248.86 145.5,254C 140.504,254.664 138.67,252.498 140,247.5C 140.717,246.956 141.217,246.289 141.5,245.5 Z"/></g>
<g><path style="opacity:1" fill="#8ac2f5" d="M 422.5,250.5 C 415.469,263.899 408.469,277.233 401.5,290.5C 404.707,278.546 408.707,266.88 413.5,255.5C 415.742,252.544 418.742,250.878 422.5,250.5 Z"/></g>
<g><path style="opacity:1" fill="#f79237" d="M 435.5,216.5 C 433.809,217.864 432.142,219.197 430.5,220.5C 428.496,221.673 426.996,223.34 426,225.5C 423.004,231.659 420.504,237.992 418.5,244.5C 411.9,249.265 406.067,254.931 401,261.5C 400.516,263.913 400.85,266.246 402,268.5C 404.48,270.09 406.313,269.59 407.5,267C 406.385,265.607 405.885,264.107 406,262.5C 408.37,259.961 410.87,257.628 413.5,255.5C 408.707,266.88 404.707,278.546 401.5,290.5C 400.596,291.209 400.263,292.209 400.5,293.5C 399.596,294.209 399.263,295.209 399.5,296.5C 393.184,297.593 386.851,298.593 380.5,299.5C 381.561,296.378 382.895,293.378 384.5,290.5C 394.411,267.786 406.578,246.452 421,226.5C 422.202,224.323 422.702,221.989 422.5,219.5C 424.332,218.752 425.999,217.752 427.5,216.5C 430.272,215.233 432.939,215.233 435.5,216.5 Z"/></g>
<g><path style="opacity:0.97" fill="#c6d9f9" d="M 381.5,260.5 C 381.833,260.5 382.167,260.5 382.5,260.5C 382.334,269.839 382.5,279.173 383,288.5C 383.278,289.416 383.778,290.082 384.5,290.5C 382.895,293.378 381.561,296.378 380.5,299.5C 367.72,300.612 355.053,302.279 342.5,304.5C 340.847,304.34 339.514,303.674 338.5,302.5C 350.885,298.371 363.219,294.038 375.5,289.5C 378.037,279.946 380.037,270.28 381.5,260.5 Z"/></g>
<g><path style="opacity:1" fill="#5eb29c" d="M 141.5,266.5 C 147.643,267.026 148.976,269.86 145.5,275C 140.504,275.664 138.67,273.498 140,268.5C 140.717,267.956 141.217,267.289 141.5,266.5 Z"/></g>
<g><path style="opacity:1" fill="#333278" d="M 216.5,266.5 C 219.263,266.744 221.429,268.077 223,270.5C 227.432,277.394 228.432,284.727 226,292.5C 225.261,293.574 224.261,294.241 223,294.5C 218.011,291.207 215.011,286.541 214,280.5C 212.806,275.369 213.639,270.702 216.5,266.5 Z"/></g>
<g><path style="opacity:0.99" fill="#f4c1be" d="M 338.5,302.5 C 339.514,303.674 340.847,304.34 342.5,304.5C 342.5,314.167 342.5,323.833 342.5,333.5C 374.671,333.168 406.671,333.502 438.5,334.5C 394.167,334.5 349.833,334.5 305.5,334.5C 305.167,333.5 304.5,332.833 303.5,332.5C 299.276,328.494 297.609,323.494 298.5,317.5C 300.011,313.824 302.677,311.324 306.5,310C 311.852,309.479 317.185,308.813 322.5,308C 319.022,305.294 318.689,302.294 321.5,299C 323.167,298.333 324.833,298.333 326.5,299C 330.417,300.479 334.417,301.646 338.5,302.5 Z"/></g>
<g><path style="opacity:0.98" fill="#48609c" d="M 273.5,317.5 C 281.833,317.5 290.167,317.5 298.5,317.5C 297.609,323.494 299.276,328.494 303.5,332.5C 291.678,333.495 279.678,333.828 267.5,333.5C 269.5,331.329 271.334,328.996 273,326.5C 273.498,323.518 273.665,320.518 273.5,317.5 Z"/></g>
<g><path style="opacity:1" fill="#c7d9f7" d="M 479.5,316.5 C 479.5,352.833 479.5,389.167 479.5,425.5C 463.5,425.5 447.5,425.5 431.5,425.5C 431.5,407.167 431.5,388.833 431.5,370.5C 431.833,370.5 432.167,370.5 432.5,370.5C 432.333,382.171 432.5,393.838 433,405.5C 439.31,403.396 445.477,400.896 451.5,398C 460,393.5 466.5,387 471,378.5C 471.832,367.818 471.666,357.151 470.5,346.5C 465.585,342.085 460.252,338.252 454.5,335C 459.705,333.046 464.705,330.713 469.5,328C 473.445,324.565 476.778,320.732 479.5,316.5 Z"/></g>
<g><path style="opacity:0.997" fill="#9f6167" d="M 173.5,333.5 C 184.5,333.5 195.5,333.5 206.5,333.5C 207.5,333.5 208.5,333.5 209.5,333.5C 241.329,334.498 273.329,334.832 305.5,334.5C 349.833,334.5 394.167,334.5 438.5,334.5C 440.017,334.511 441.184,335.177 442,336.5C 442.667,343.5 442.667,350.5 442,357.5C 439.454,360.186 436.287,361.186 432.5,360.5C 432.5,363.833 432.5,367.167 432.5,370.5C 432.167,370.5 431.833,370.5 431.5,370.5C 431.5,367.167 431.5,363.833 431.5,360.5C 345.167,360.5 258.833,360.5 172.5,360.5C 163.407,361.702 159.741,357.702 161.5,348.5C 161.234,344.429 161.567,340.429 162.5,336.5C 166.094,334.999 169.761,333.999 173.5,333.5 Z"/></g>
<g><path style="opacity:0.761" fill="#756080" d="M 303.5,332.5 C 304.5,332.833 305.167,333.5 305.5,334.5C 273.329,334.832 241.329,334.498 209.5,333.5C 223.833,333.5 238.167,333.5 252.5,333.5C 257.5,333.5 262.5,333.5 267.5,333.5C 279.678,333.828 291.678,333.495 303.5,332.5 Z"/></g>
<g><path style="opacity:1" fill="#894e57" d="M 172.5,360.5 C 258.833,360.5 345.167,360.5 431.5,360.5C 431.5,363.833 431.5,367.167 431.5,370.5C 345.167,370.5 258.833,370.5 172.5,370.5C 172.5,367.167 172.5,363.833 172.5,360.5 Z"/></g>
<g><path style="opacity:0.995" fill="#f7c3bf" d="M 27.5,366.5 C 41.8333,366.5 56.1667,366.5 70.5,366.5C 73.3095,370.768 76.1428,375.102 79,379.5C 79.6397,381.265 79.4731,382.932 78.5,384.5C 75.295,388.408 71.9617,388.408 68.5,384.5C 65.0219,375.891 63.3552,375.891 63.5,384.5C 64.4472,399.549 57.4472,407.216 42.5,407.5C 36.4709,406.314 31.9709,402.98 29,397.5C 27.5738,387.246 27.0738,376.912 27.5,366.5 Z"/></g>
<g><path style="opacity:1" fill="#9f6067" d="M 172.5,370.5 C 258.833,370.5 345.167,370.5 431.5,370.5C 431.5,388.833 431.5,407.167 431.5,425.5C 431.5,437.5 431.5,449.5 431.5,461.5C 431.5,466.5 431.5,471.5 431.5,476.5C 419.322,476.172 407.322,476.505 395.5,477.5C 321.167,477.5 246.833,477.5 172.5,477.5C 172.5,446.833 172.5,416.167 172.5,385.5C 172.5,380.5 172.5,375.5 172.5,370.5 Z"/></g>
<g><path style="opacity:1" fill="#74b3a0" d="M 68.5,384.5 C 66.8333,384.5 65.1667,384.5 63.5,384.5C 63.3552,375.891 65.0219,375.891 68.5,384.5 Z"/></g>
<g><path style="opacity:0.993" fill="#5050ab" d="M 63.5,384.5 C 65.1667,384.5 66.8333,384.5 68.5,384.5C 71.9617,388.408 75.295,388.408 78.5,384.5C 109.338,384.169 140.005,384.502 170.5,385.5C 170.5,416.167 170.5,446.833 170.5,477.5C 157.833,477.5 145.167,477.5 132.5,477.5C 132.5,446.833 132.5,416.167 132.5,385.5C 129.5,385.5 126.5,385.5 123.5,385.5C 123.5,416.167 123.5,446.833 123.5,477.5C 96.5,477.5 69.5,477.5 42.5,477.5C 42.5,454.167 42.5,430.833 42.5,407.5C 57.4472,407.216 64.4472,399.549 63.5,384.5 Z"/></g>
<g><path style="opacity:1" fill="#363383" d="M 132.5,477.5 C 129.5,477.5 126.5,477.5 123.5,477.5C 123.5,446.833 123.5,416.167 123.5,385.5C 126.5,385.5 129.5,385.5 132.5,385.5C 132.5,416.167 132.5,446.833 132.5,477.5 Z"/></g>
<g><path style="opacity:1" fill="#d78a5b" d="M 431.5,425.5 C 447.5,425.5 463.5,425.5 479.5,425.5C 464.009,426.496 448.342,426.83 432.5,426.5C 432.5,438.167 432.5,449.833 432.5,461.5C 432.167,461.5 431.833,461.5 431.5,461.5C 431.5,449.5 431.5,437.5 431.5,425.5 Z"/></g>
<g><path style="opacity:0.993" fill="#fc9232" d="M 479.5,425.5 C 480.802,430.734 480.802,436.067 479.5,441.5C 478.199,444.101 476.866,446.768 475.5,449.5C 471.089,457.047 464.423,461.047 455.5,461.5C 448.833,461.5 442.167,461.5 435.5,461.5C 434.5,461.5 433.5,461.5 432.5,461.5C 432.5,449.833 432.5,438.167 432.5,426.5C 448.342,426.83 464.009,426.496 479.5,425.5 Z"/></g>
<g><path style="opacity:0.626" fill="#d4dbee" d="M 479.5,441.5 C 479.5,444.167 479.5,446.833 479.5,449.5C 478.167,449.5 476.833,449.5 475.5,449.5C 476.866,446.768 478.199,444.101 479.5,441.5 Z"/></g>
<g><path style="opacity:0.982" fill="#363e56" d="M 435.5,461.5 C 442.167,461.5 448.833,461.5 455.5,461.5C 456.292,467.279 454.959,472.446 451.5,477C 446.177,477.499 440.844,477.666 435.5,477.5C 434.791,476.596 433.791,476.263 432.5,476.5C 432.5,471.833 432.5,467.167 432.5,462.5C 433.791,462.737 434.791,462.404 435.5,461.5 Z"/></g>
<g><path style="opacity:0.165" fill="#806b7d" d="M 431.5,461.5 C 431.833,461.5 432.167,461.5 432.5,461.5C 433.5,461.5 434.5,461.5 435.5,461.5C 434.791,462.404 433.791,462.737 432.5,462.5C 432.5,467.167 432.5,471.833 432.5,476.5C 433.791,476.263 434.791,476.596 435.5,477.5C 422.167,477.5 408.833,477.5 395.5,477.5C 407.322,476.505 419.322,476.172 431.5,476.5C 431.5,471.5 431.5,466.5 431.5,461.5 Z"/></g>
</svg>
