<?xml version="1.0" encoding="UTF-8"?>
<!DOCTYPE svg PUBLIC "-//W3C//DTD SVG 1.1//EN" "http://www.w3.org/Graphics/SVG/1.1/DTD/svg11.dtd">
<svg xmlns="http://www.w3.org/2000/svg" version="1.1" width="512px" height="512px" style="shape-rendering:geometricPrecision; text-rendering:geometricPrecision; image-rendering:optimizeQuality; fill-rule:evenodd; clip-rule:evenodd" xmlns:xlink="http://www.w3.org/1999/xlink">
<g><path style="opacity:0.909" fill="#000000" d="M 511.5,76.5 C 511.5,79.5 511.5,82.5 511.5,85.5C 506.672,104.992 494.339,116.659 474.5,120.5C 471.174,141.16 459.174,153.16 438.5,156.5C 434.755,176.745 422.755,188.912 402.5,193C 393.833,193.333 385.167,193.667 376.5,194C 400.993,226.135 401.493,258.635 378,291.5C 373.468,296.367 368.634,300.867 363.5,305C 376.607,324.897 378.44,345.73 369,367.5C 362.631,380.702 352.798,390.369 339.5,396.5C 349.543,420.282 347.043,442.615 332,463.5C 316.81,479.956 297.977,487.29 275.5,485.5C 275.666,492.841 275.5,500.174 275,507.5C 270.837,511.747 267.171,511.414 264,506.5C 263.5,471.502 263.333,436.502 263.5,401.5C 258.167,401.5 252.833,401.5 247.5,401.5C 247.667,436.502 247.5,471.502 247,506.5C 243.822,511.371 240.155,511.704 236,507.5C 235.5,500.174 235.334,492.841 235.5,485.5C 199.026,487.037 175.86,470.37 166,435.5C 165.147,426.114 165.481,416.781 167,407.5C 168.011,403.632 169.511,399.966 171.5,396.5C 139.964,377.742 129.797,350.742 141,315.5C 142.54,311.581 144.707,308.081 147.5,305C 121.525,284.54 111.691,258.04 118,225.5C 121.018,213.627 126.518,203.127 134.5,194C 125.833,193.667 117.167,193.333 108.5,193C 91.5744,190.075 80.0744,180.575 74,164.5C 73.1785,161.883 72.6785,159.216 72.5,156.5C 51.8262,153.16 39.8262,141.16 36.5,120.5C 16.6609,116.659 4.32761,104.992 -0.5,85.5C -0.5,82.5 -0.5,79.5 -0.5,76.5C 0.267389,75.828 0.934056,74.9947 1.5,74C 49.8333,73.3333 98.1667,73.3333 146.5,74C 171.111,78.6156 189.611,91.7823 202,113.5C 205.139,121.249 208.472,128.916 212,136.5C 218.111,143.826 225.944,146.826 235.5,145.5C 235.667,124.164 235.5,102.831 235,81.5C 211.862,65.618 206.528,44.9513 219,19.5C 231.543,2.76201 248.043,-3.07132 268.5,2C 290.69,10.5313 300.523,26.698 298,50.5C 295.725,64.4389 288.392,74.7722 276,81.5C 275.5,102.831 275.333,124.164 275.5,145.5C 285.056,146.826 292.889,143.826 299,136.5C 305.982,112.001 320.482,93.5006 342.5,81C 349.509,77.6638 356.842,75.3304 364.5,74C 412.833,73.3333 461.167,73.3333 509.5,74C 510.066,74.9947 510.733,75.828 511.5,76.5 Z M 252.5,11.5 C 276.806,13.3015 287.973,26.3015 286,50.5C 280.22,68.8169 267.72,76.6503 248.5,74C 229.864,67.9141 222.031,55.0808 225,35.5C 229.413,21.9122 238.58,13.9122 252.5,11.5 Z M 11.5,85.5 C 54.3314,84.3353 97.3314,84.1686 140.5,85C 163.346,88.2041 180.513,99.7041 192,119.5C 195.195,126.753 198.195,134.086 201,141.5C 209.473,153.151 220.973,158.484 235.5,157.5C 235.5,165.5 235.5,173.5 235.5,181.5C 226.475,181.832 217.475,181.498 208.5,180.5C 204.411,172.446 197.744,168.446 188.5,168.5C 174.341,169.165 161.341,173.331 149.5,181C 135.5,181.667 121.5,181.667 107.5,181C 95.7286,177.729 88.0619,170.229 84.5,158.5C 110.827,157.667 137.16,157.167 163.5,157C 168.946,154.305 169.613,150.638 165.5,146C 134.5,145.667 103.5,145.333 72.5,145C 59.5689,141.57 51.5689,133.403 48.5,120.5C 75.5021,120.667 102.502,120.5 129.5,120C 132.167,116.667 132.167,113.333 129.5,110C 97.4605,109.963 65.4605,109.297 33.5,108C 22.2332,104.265 14.8998,96.7647 11.5,85.5 Z M 370.5,84.5 C 413.505,84.1667 456.505,84.5001 499.5,85.5C 495.719,98.7827 487.052,106.616 473.5,109C 442.833,109.333 412.167,109.667 381.5,110C 378.833,113.333 378.833,116.667 381.5,120C 408.498,120.5 435.498,120.667 462.5,120.5C 459.314,133.852 450.981,142.019 437.5,145C 406.833,145.333 376.167,145.667 345.5,146C 341.937,149.019 341.603,152.352 344.5,156C 371.831,156.5 399.165,156.667 426.5,156.5C 423.417,169.417 415.417,177.583 402.5,181C 388.833,181.667 375.167,181.667 361.5,181C 349.356,173.129 336.023,168.962 321.5,168.5C 312.676,168.736 306.342,172.736 302.5,180.5C 293.525,181.498 284.525,181.832 275.5,181.5C 275.5,173.167 275.5,164.833 275.5,156.5C 289.213,158.543 300.38,154.21 309,143.5C 313.384,131.998 318.718,120.998 325,110.5C 336.922,95.961 352.089,87.2944 370.5,84.5 Z M 247.5,85.5 C 252.667,86.8096 257.834,86.8096 263,85.5C 263.5,149.832 263.667,214.166 263.5,278.5C 258.167,278.5 252.833,278.5 247.5,278.5C 247.5,214.167 247.5,149.833 247.5,85.5 Z M 183.5,180.5 C 194.552,178.712 198.719,183.045 196,193.5C 195.097,194.701 193.931,195.535 192.5,196C 159.351,199.145 143.184,217.312 144,250.5C 148.5,272.333 161.667,285.5 183.5,290C 228.833,290.333 274.167,290.667 319.5,291C 346.924,296.424 361.59,313.091 363.5,341C 361.921,362.007 351.755,377.174 333,386.5C 329.5,381.667 325.333,377.5 320.5,374C 341.721,367.068 350.221,352.568 346,330.5C 341.551,317.186 332.384,309.353 318.5,307C 273.167,306.667 227.833,306.333 182.5,306C 145.289,297.737 127.123,274.571 128,236.5C 134.013,205.321 152.513,186.654 183.5,180.5 Z M 317.5,180.5 C 345.57,180.762 365.737,193.428 378,218.5C 388.708,249.372 381.374,275.038 356,295.5C 351.589,292.045 347.089,288.711 342.5,285.5C 365.44,270.851 372.607,250.518 364,224.5C 357.624,211.382 347.458,202.549 333.5,198C 327.367,197.291 321.367,196.124 315.5,194.5C 311.177,189.106 311.844,184.439 317.5,180.5 Z M 209.5,193.5 C 218.167,193.5 226.833,193.5 235.5,193.5C 235.5,221.833 235.5,250.167 235.5,278.5C 216.778,278.948 198.112,278.448 179.5,277C 161.734,269.305 153.901,255.805 156,236.5C 158.747,224.749 165.581,216.249 176.5,211C 183.357,209.014 190.357,207.681 197.5,207C 203.473,204.197 207.473,199.697 209.5,193.5 Z M 275.5,193.5 C 284.192,193.169 292.859,193.502 301.5,194.5C 303.208,198.71 305.874,202.21 309.5,205C 315.607,207.297 321.941,208.63 328.5,209C 350.383,216.595 358.883,231.762 354,254.5C 349.833,265.333 342.333,272.833 331.5,277C 312.888,278.448 294.222,278.948 275.5,278.5C 275.5,250.167 275.5,221.833 275.5,193.5 Z M 157.5,310.5 C 162.38,312.773 167.38,314.773 172.5,316.5C 161.599,330.634 160.766,345.3 170,360.5C 176.36,368.264 184.527,372.764 194.5,374C 227.167,374.333 259.833,374.667 292.5,375C 318.387,381.107 332.054,397.44 333.5,424C 332.382,445.575 322.049,460.908 302.5,470C 293.76,473.027 284.76,474.193 275.5,473.5C 275.5,468.167 275.5,462.833 275.5,457.5C 300.896,460.25 315.23,449.084 318.5,424C 317.682,406.845 309.015,395.845 292.5,391C 258.501,390.283 224.501,389.616 190.5,389C 169.147,384.245 155.313,371.412 149,350.5C 145.934,335.892 148.767,322.559 157.5,310.5 Z M 192.5,318.5 C 206.833,318.5 221.167,318.5 235.5,318.5C 235.5,333.167 235.5,347.833 235.5,362.5C 221.496,362.667 207.496,362.5 193.5,362C 176.578,355.326 172.078,343.826 180,327.5C 183.299,323.118 187.466,320.118 192.5,318.5 Z M 247.5,318.5 C 252.833,318.5 258.167,318.5 263.5,318.5C 263.5,333.167 263.5,347.833 263.5,362.5C 258.167,362.5 252.833,362.5 247.5,362.5C 247.5,347.833 247.5,333.167 247.5,318.5 Z M 275.5,318.5 C 291.238,318.047 306.904,318.547 322.5,320C 335.763,327.794 338.929,338.628 332,352.5C 329.404,356.39 325.904,359.223 321.5,361C 306.238,362.452 290.905,362.952 275.5,362.5C 275.5,347.833 275.5,333.167 275.5,318.5 Z M 182.5,399.5 C 188.502,400.223 194.502,401.056 200.5,402C 190.441,415.789 189.941,429.956 199,444.5C 208.701,455.458 220.868,459.791 235.5,457.5C 235.5,462.833 235.5,468.167 235.5,473.5C 210.843,475.758 192.676,466.091 181,444.5C 174.724,429.261 175.224,414.261 182.5,399.5 Z M 221.5,401.5 C 226.167,401.5 230.833,401.5 235.5,401.5C 235.5,416.5 235.5,431.5 235.5,446.5C 221.403,448.371 211.236,443.037 205,430.5C 202.36,416.017 207.86,406.351 221.5,401.5 Z M 275.5,401.5 C 290.381,399.047 300.547,404.713 306,418.5C 308.092,431.15 303.259,439.983 291.5,445C 286.233,446.191 280.899,446.691 275.5,446.5C 275.5,431.5 275.5,416.5 275.5,401.5 Z"/></g>
</svg>
