<?xml version="1.0" encoding="UTF-8"?>
<!DOCTYPE svg PUBLIC "-//W3C//DTD SVG 1.1//EN" "http://www.w3.org/Graphics/SVG/1.1/DTD/svg11.dtd">
<svg xmlns="http://www.w3.org/2000/svg" version="1.1" width="512px" height="512px" style="shape-rendering:geometricPrecision; text-rendering:geometricPrecision; image-rendering:optimizeQuality; fill-rule:evenodd; clip-rule:evenodd" xmlns:xlink="http://www.w3.org/1999/xlink">
<g><path style="opacity:0.983" fill="#312e3e" d="M 511.5,435.5 C 511.5,439.167 511.5,442.833 511.5,446.5C 510.527,446.987 509.527,447.487 508.5,448C 339.833,448.667 171.167,448.667 2.5,448C 1.47344,447.487 0.473444,446.987 -0.5,446.5C -0.5,439.833 -0.5,433.167 -0.5,426.5C 1.05869,408.657 2.55869,390.657 4,372.5C 12.557,331.442 37.3903,307.109 78.5,299.5C 78.6655,295.486 78.4988,291.486 78,287.5C 63.9207,277.016 55.754,263.016 53.5,245.5C 38.009,242.525 32.8423,233.525 38,218.5C 40.5366,215.628 43.3699,213.128 46.5,211C 41.9131,206.772 40.4131,201.606 42,195.5C 44.4654,189.363 48.1321,184.03 53,179.5C 50.2617,136.405 70.4284,116.739 113.5,120.5C 133.903,116.912 151.07,122.579 165,137.5C 169.04,143.247 171.706,149.58 173,156.5C 173.333,164.167 173.667,171.833 174,179.5C 181.872,185.668 185.539,193.668 185,203.5C 184.394,206.548 182.894,209.048 180.5,211C 191.5,217.833 194,226.999 188,238.5C 184.142,242.846 179.308,245.179 173.5,245.5C 171.631,262.911 163.798,276.911 150,287.5C 149.501,291.486 149.334,295.486 149.5,299.5C 152.011,299.838 154.345,299.838 156.5,299.5C 165.114,272.386 182.78,253.886 209.5,244C 215.663,241.867 221.996,240.701 228.5,240.5C 228.826,236.116 228.492,231.783 227.5,227.5C 209.324,217.48 198.824,202.146 196,181.5C 179.756,178.342 174.423,169.008 180,153.5C 181.672,150.663 183.839,148.33 186.5,146.5C 185.208,144.333 184.375,142 184,139.5C 183.333,115.167 183.333,90.8333 184,66.5C 184.465,65.0692 185.299,63.9025 186.5,63C 197.667,62.8333 208.833,62.6667 220,62.5C 232.878,62.3833 245.712,62.8833 258.5,64C 265.766,66.2993 272.099,70.1326 277.5,75.5C 284.815,64.2377 295.148,60.071 308.5,63C 321.381,66.5761 328.214,75.0761 329,88.5C 329.333,109.167 329.667,129.833 330,150.5C 336.124,159.131 335.957,167.631 329.5,176C 325.391,178.814 320.891,180.647 316,181.5C 313.176,202.146 302.676,217.48 284.5,227.5C 283.508,231.783 283.174,236.116 283.5,240.5C 323.264,246.091 348.097,268.425 358,307.5C 362.069,306.179 366.236,305.179 370.5,304.5C 371.66,300.541 371.827,296.541 371,292.5C 352.608,282.593 341.775,267.26 338.5,246.5C 322.54,242.473 317.707,232.807 324,217.5C 327.623,212.605 332.456,210.272 338.5,210.5C 338.333,195.496 338.5,180.496 339,165.5C 343.762,146.197 355.929,134.697 375.5,131C 439.755,119.425 467.755,145.925 459.5,210.5C 470.349,211.184 476.016,217.017 476.5,228C 475.303,238.696 469.303,244.529 458.5,245.5C 455.742,266.413 445.242,282.079 427,292.5C 426.501,296.486 426.334,300.486 426.5,304.5C 452.426,308.037 472.926,320.37 488,341.5C 492.413,348.327 495.746,355.66 498,363.5C 502.627,387.613 507.127,411.613 511.5,435.5 Z"/></g>
<g><path style="opacity:1" fill="#515079" d="M 194.5,73.5 C 213.503,73.3334 232.503,73.5001 251.5,74C 262.588,75.9226 270.255,82.0893 274.5,92.5C 274,92.8333 273.5,93.1667 273,93.5C 264.708,91.0102 256.208,89.8436 247.5,90C 245.418,84.8882 241.751,82.8882 236.5,84C 234.556,86.1529 234.056,88.6529 235,91.5C 242.554,99.5121 244.554,108.845 241,119.5C 240.632,120.91 239.799,121.91 238.5,122.5C 230.014,114.514 221.681,106.348 213.5,98C 207.507,96.3317 205.007,98.4983 206,104.5C 207.458,106.96 209.291,109.127 211.5,111C 203.319,119.53 198.486,129.697 197,141.5C 196.085,140.672 195.419,139.672 195,138.5C 194.5,116.836 194.333,95.1692 194.5,73.5 Z"/></g>
<g><path style="opacity:1" fill="#51517a" d="M 295.5,73.5 C 305.105,71.9638 312.271,75.2971 317,83.5C 317.833,104.175 317.666,124.841 316.5,145.5C 313.382,125.908 303.715,110.575 287.5,99.5C 286.337,93.8625 286.17,88.1959 287,82.5C 288.688,78.3148 291.521,75.3148 295.5,73.5 Z"/></g>
<g><path style="opacity:1" fill="#f79a87" d="M 304.5,141.5 C 292.79,122.841 275.79,113.508 253.5,113.5C 253.647,108.786 253.314,104.119 252.5,99.5C 280.93,99.9431 298.263,113.943 304.5,141.5 Z"/></g>
<g><path style="opacity:1" fill="#f8c2a9" d="M 253.5,113.5 C 275.79,113.508 292.79,122.841 304.5,141.5C 305.66,153.993 305.827,166.66 305,179.5C 296.334,211.464 275.5,224.964 242.5,220C 223.18,213.016 211.346,199.516 207,179.5C 206.173,166.66 206.34,153.993 207.5,141.5C 210.068,138.927 212.568,135.594 215,131.5C 217.729,128.601 220.562,125.934 223.5,123.5C 227.631,127.13 231.631,130.963 235.5,135C 237.365,136.301 239.365,136.635 241.5,136C 248.042,129.743 252.042,122.243 253.5,113.5 Z"/></g>
<g><path style="opacity:1" fill="#f49986" d="M 223.5,123.5 C 220.562,125.934 217.729,128.601 215,131.5C 212.568,135.594 210.068,138.927 207.5,141.5C 208.574,134.343 211.074,127.676 215,121.5C 218.509,117.716 221.343,118.382 223.5,123.5 Z"/></g>
<g><path style="opacity:1" fill="#65b5fb" d="M 162.5,166.5 C 153.356,154.11 141.022,148.443 125.5,149.5C 126.298,145.297 124.631,142.63 120.5,141.5C 119.289,139.578 117.956,137.745 116.5,136C 111.171,134.178 108.504,136.011 108.5,141.5C 103.351,141.651 101.018,144.318 101.5,149.5C 85.996,148.421 73.6627,154.087 64.5,166.5C 64.5734,148.518 73.2401,137.018 90.5,132C 105.167,131.333 119.833,131.333 134.5,132C 153.58,135.581 162.913,147.081 162.5,166.5 Z"/></g>
<g><path style="opacity:1" fill="#313042" d="M 125.5,149.5 C 123.787,151.85 121.453,152.85 118.5,152.5C 117.681,159.821 114.514,161.154 109,156.5C 108.51,155.207 108.343,153.873 108.5,152.5C 105.547,152.85 103.213,151.85 101.5,149.5C 101.018,144.318 103.351,141.651 108.5,141.5C 108.504,136.011 111.171,134.178 116.5,136C 117.956,137.745 119.289,139.578 120.5,141.5C 124.631,142.63 126.298,145.297 125.5,149.5 Z"/></g>
<g><path style="opacity:1" fill="#48cf91" d="M 376.5,141.5 C 390.837,141.333 405.171,141.5 419.5,142C 435.769,146.431 445.102,156.931 447.5,173.5C 414.833,173.5 382.167,173.5 349.5,173.5C 351.981,157.351 360.981,146.685 376.5,141.5 Z"/></g>
<g><path style="opacity:1" fill="#332f3e" d="M 225.5,142.5 C 231.176,142.334 236.843,142.501 242.5,143C 246.5,146 246.5,149 242.5,152C 237.167,152.667 231.833,152.667 226.5,152C 222.968,149.172 222.634,146.005 225.5,142.5 Z"/></g>
<g><path style="opacity:1" fill="#332f3e" d="M 269.5,142.5 C 275.176,142.334 280.843,142.501 286.5,143C 289.299,146.339 288.966,149.339 285.5,152C 280.167,152.667 274.833,152.667 269.5,152C 265.581,148.84 265.581,145.673 269.5,142.5 Z"/></g>
<g><path style="opacity:1" fill="#30303e" d="M 396.5,145.5 C 401.811,144.972 404.145,147.306 403.5,152.5C 410.309,152.951 411.976,156.118 408.5,162C 406.866,162.494 405.199,162.66 403.5,162.5C 404.517,166.789 402.85,169.122 398.5,169.5C 394.64,168.791 392.973,166.458 393.5,162.5C 389.211,163.517 386.878,161.85 386.5,157.5C 387.444,153.89 389.777,152.223 393.5,152.5C 393.15,149.547 394.15,147.213 396.5,145.5 Z"/></g>
<g><path style="opacity:1" fill="#4976da" d="M 101.5,149.5 C 103.213,151.85 105.547,152.85 108.5,152.5C 108.343,153.873 108.51,155.207 109,156.5C 114.514,161.154 117.681,159.821 118.5,152.5C 121.453,152.85 123.787,151.85 125.5,149.5C 141.022,148.443 153.356,154.11 162.5,166.5C 162.785,168.288 162.452,169.955 161.5,171.5C 151.326,166.832 140.659,163.998 129.5,163C 111.241,161.368 93.2406,162.701 75.5,167C 72.0482,168.226 68.7148,169.726 65.5,171.5C 64.5481,169.955 64.2148,168.288 64.5,166.5C 73.6627,154.087 85.996,148.421 101.5,149.5 Z"/></g>
<g><path style="opacity:1" fill="#35303f" d="M 231.5,155.5 C 239.003,154.853 241.503,158.186 239,165.5C 236,169.5 233,169.5 230,165.5C 229.037,161.851 229.537,158.518 231.5,155.5 Z"/></g>
<g><path style="opacity:1" fill="#353140" d="M 274.5,155.5 C 282.003,154.853 284.503,158.186 282,165.5C 279,169.5 276,169.5 273,165.5C 272.037,161.851 272.537,158.518 274.5,155.5 Z"/></g>
<g><path style="opacity:1" fill="#f3bea7" d="M 195.5,156.5 C 195.5,160.5 195.5,164.5 195.5,168.5C 194.5,168.5 193.5,168.5 192.5,168.5C 188.059,165.796 187.393,162.296 190.5,158C 192.025,156.991 193.692,156.491 195.5,156.5 Z"/></g>
<g><path style="opacity:1" fill="#a5857c" d="M 195.5,156.5 C 196.485,160.634 196.818,164.968 196.5,169.5C 194.901,169.768 193.568,169.434 192.5,168.5C 193.5,168.5 194.5,168.5 195.5,168.5C 195.5,164.5 195.5,160.5 195.5,156.5 Z"/></g>
<g><path style="opacity:1" fill="#927572" d="M 316.5,156.5 C 316.5,160.5 316.5,164.5 316.5,168.5C 317.5,168.5 318.5,168.5 319.5,168.5C 318.432,169.434 317.099,169.768 315.5,169.5C 315.182,164.968 315.515,160.634 316.5,156.5 Z"/></g>
<g><path style="opacity:1" fill="#f5bfa7" d="M 316.5,156.5 C 322.076,156.974 324.243,159.974 323,165.5C 322.28,167.056 321.113,168.056 319.5,168.5C 318.5,168.5 317.5,168.5 316.5,168.5C 316.5,164.5 316.5,160.5 316.5,156.5 Z"/></g>
<g><path style="opacity:1" fill="#f14765" d="M 146.5,177.5 C 145.702,179.966 144.369,181.966 142.5,183.5C 121.729,179.198 101.062,179.532 80.5,184.5C 80.5997,181.892 79.9331,179.558 78.5,177.5C 89.3584,174.075 100.525,172.742 112,173.5C 118.5,173.667 125,173.833 131.5,174C 136.755,174.667 141.755,175.834 146.5,177.5 Z"/></g>
<g><path style="opacity:1" fill="#b02a52" d="M 78.5,177.5 C 79.9331,179.558 80.5997,181.892 80.5,184.5C 70.3202,187.51 62.6535,193.677 57.5,203C 53.5126,203.339 52.0126,201.506 53,197.5C 58.7793,187.361 67.2793,180.694 78.5,177.5 Z"/></g>
<g><path style="opacity:1" fill="#b02a52" d="M 146.5,177.5 C 158.601,180.134 167.768,186.8 174,197.5C 174.987,201.506 173.487,203.339 169.5,203C 163.26,192.558 154.26,186.058 142.5,183.5C 144.369,181.966 145.702,179.966 146.5,177.5 Z"/></g>
<g><path style="opacity:1" fill="#49d292" d="M 447.5,184.5 C 447.5,186.167 447.5,187.833 447.5,189.5C 414.833,189.5 382.167,189.5 349.5,189.5C 349.5,187.833 349.5,186.167 349.5,184.5C 382.167,184.5 414.833,184.5 447.5,184.5 Z"/></g>
<g><path style="opacity:1" fill="#3c8369" d="M 447.5,184.5 C 448.461,186.265 448.795,188.265 448.5,190.5C 415.329,190.832 382.329,190.498 349.5,189.5C 382.167,189.5 414.833,189.5 447.5,189.5C 447.5,187.833 447.5,186.167 447.5,184.5 Z"/></g>
<g><path style="opacity:1" fill="#f79a87" d="M 162.5,222.5 C 156.827,220.575 152.661,216.908 150,211.5C 148.549,209.536 146.716,208.203 144.5,207.5C 143.508,207.672 142.842,207.338 142.5,206.5C 138.833,204.655 134.833,203.488 130.5,203C 118.833,202.333 107.167,202.333 95.5,203C 91.4711,203.416 87.8044,204.583 84.5,206.5C 84.1583,207.338 83.4916,207.672 82.5,207.5C 80.2843,208.203 78.451,209.536 77,211.5C 74.5257,217.144 70.359,220.811 64.5,222.5C 63.281,212.767 66.6143,204.934 74.5,199C 86.0997,193.065 98.433,190.565 111.5,191.5C 125.844,190.664 139.51,193.164 152.5,199C 156.232,201.945 159.399,205.445 162,209.5C 162.499,213.821 162.666,218.154 162.5,222.5 Z"/></g>
<g><path style="opacity:1" fill="#34303f" d="M 239.5,192.5 C 243.604,192.884 247.271,194.384 250.5,197C 254.167,197.667 257.833,197.667 261.5,197C 264.4,195.258 267.4,193.758 270.5,192.5C 273.733,192.9 275.4,194.734 275.5,198C 273.838,202.653 270.505,205.653 265.5,207C 254.631,210.581 245.131,208.415 237,200.5C 236.018,197.225 236.851,194.559 239.5,192.5 Z"/></g>
<g><path style="opacity:1" fill="#ae756e" d="M 349.5,201.5 C 382.329,200.502 415.329,200.168 448.5,200.5C 448.829,215.343 448.496,230.01 447.5,244.5C 447.5,233.833 447.5,223.167 447.5,212.5C 447.5,208.833 447.5,205.167 447.5,201.5C 414.833,201.5 382.167,201.5 349.5,201.5 Z"/></g>
<g><path style="opacity:1" fill="#fa9b87" d="M 349.5,201.5 C 382.167,201.5 414.833,201.5 447.5,201.5C 447.5,205.167 447.5,208.833 447.5,212.5C 442.167,212.5 436.833,212.5 431.5,212.5C 431.607,210.097 430.607,208.264 428.5,207C 423.167,206.333 417.833,206.333 412.5,207C 410.393,208.264 409.393,210.097 409.5,212.5C 402.08,212.203 394.746,212.536 387.5,213.5C 387.739,211.533 387.406,209.699 386.5,208C 380.947,206.43 375.281,206.097 369.5,207C 367.393,208.264 366.393,210.097 366.5,212.5C 360.833,212.5 355.167,212.5 349.5,212.5C 349.5,208.833 349.5,205.167 349.5,201.5 Z"/></g>
<g><path style="opacity:1" fill="#f9c2aa" d="M 142.5,206.5 C 137.489,206.334 132.489,206.501 127.5,207C 123.965,209.838 123.632,213.005 126.5,216.5C 131.78,217.618 137.113,217.784 142.5,217C 143.416,216.626 144.25,216.126 145,215.5C 145.722,212.739 145.555,210.073 144.5,207.5C 146.716,208.203 148.549,209.536 150,211.5C 152.661,216.908 156.827,220.575 162.5,222.5C 166.883,248.884 157.883,269.051 135.5,283C 102.747,294.531 79.5799,284.364 66,252.5C 64.6687,242.55 64.1687,232.55 64.5,222.5C 70.359,220.811 74.5257,217.144 77,211.5C 78.451,209.536 80.2843,208.203 82.5,207.5C 80.9162,210.906 81.2495,214.072 83.5,217C 88.8333,217.667 94.1667,217.667 99.5,217C 103.485,213.714 103.485,210.381 99.5,207C 94.5111,206.501 89.5111,206.334 84.5,206.5C 87.8044,204.583 91.4711,203.416 95.5,203C 107.167,202.333 118.833,202.333 130.5,203C 134.833,203.488 138.833,204.655 142.5,206.5 Z"/></g>
<g><path style="opacity:1" fill="#373240" d="M 84.5,206.5 C 89.5111,206.334 94.5111,206.501 99.5,207C 103.485,210.381 103.485,213.714 99.5,217C 94.1667,217.667 88.8333,217.667 83.5,217C 81.2495,214.072 80.9162,210.906 82.5,207.5C 83.4916,207.672 84.1583,207.338 84.5,206.5 Z"/></g>
<g><path style="opacity:1" fill="#363140" d="M 142.5,206.5 C 142.842,207.338 143.508,207.672 144.5,207.5C 145.555,210.073 145.722,212.739 145,215.5C 144.25,216.126 143.416,216.626 142.5,217C 137.113,217.784 131.78,217.618 126.5,216.5C 123.632,213.005 123.965,209.838 127.5,207C 132.489,206.501 137.489,206.334 142.5,206.5 Z"/></g>
<g><path style="opacity:1" fill="#36313f" d="M 387.5,213.5 C 387.426,215.411 386.426,216.578 384.5,217C 379.5,217.667 374.5,217.667 369.5,217C 367.624,216.082 366.624,214.582 366.5,212.5C 366.393,210.097 367.393,208.264 369.5,207C 375.281,206.097 380.947,206.43 386.5,208C 387.406,209.699 387.739,211.533 387.5,213.5 Z"/></g>
<g><path style="opacity:1" fill="#383140" d="M 431.5,212.5 C 431.141,214.371 430.141,215.871 428.5,217C 423.167,217.667 417.833,217.667 412.5,217C 410.859,215.871 409.859,214.371 409.5,212.5C 409.393,210.097 410.393,208.264 412.5,207C 417.833,206.333 423.167,206.333 428.5,207C 430.607,208.264 431.607,210.097 431.5,212.5 Z"/></g>
<g><path style="opacity:1" fill="#f9c2a9" d="M 349.5,212.5 C 355.167,212.5 360.833,212.5 366.5,212.5C 366.624,214.582 367.624,216.082 369.5,217C 374.5,217.667 379.5,217.667 384.5,217C 386.426,216.578 387.426,215.411 387.5,213.5C 394.746,212.536 402.08,212.203 409.5,212.5C 409.859,214.371 410.859,215.871 412.5,217C 417.833,217.667 423.167,217.667 428.5,217C 430.141,215.871 431.141,214.371 431.5,212.5C 436.833,212.5 442.167,212.5 447.5,212.5C 447.5,223.167 447.5,233.833 447.5,244.5C 443.939,266.778 431.272,280.945 409.5,287C 386.606,290.466 368.773,282.632 356,263.5C 352.997,257.49 350.997,251.157 350,244.5C 349.5,233.839 349.333,223.172 349.5,212.5 Z"/></g>
<g><path style="opacity:1" fill="#3a3442" d="M 89.5,219.5 C 96.0885,219.657 98.5885,222.99 97,229.5C 93.4922,233.436 90.1589,233.436 87,229.5C 85.8613,225.579 86.6946,222.246 89.5,219.5 Z"/></g>
<g><path style="opacity:1" fill="#3a3442" d="M 133.5,219.5 C 139.795,219.984 141.961,223.317 140,229.5C 136.841,233.436 133.508,233.436 130,229.5C 128.756,225.191 129.923,221.858 133.5,219.5 Z"/></g>
<g><path style="opacity:1" fill="#393442" d="M 375.5,219.5 C 381.795,219.984 383.961,223.317 382,229.5C 378.714,233.485 375.381,233.485 372,229.5C 370.756,225.191 371.923,221.858 375.5,219.5 Z"/></g>
<g><path style="opacity:1" fill="#353140" d="M 418.5,219.5 C 425.109,220.258 427.276,223.925 425,230.5C 416.96,234.142 413.96,231.475 416,222.5C 417.045,221.627 417.878,220.627 418.5,219.5 Z"/></g>
<g><path style="opacity:1" fill="#f19684" d="M 49.5,221.5 C 50.8333,221.5 52.1667,221.5 53.5,221.5C 53.8256,225.884 53.4922,230.217 52.5,234.5C 45.9962,231.306 44.9962,226.972 49.5,221.5 Z"/></g>
<g><path style="opacity:1" fill="#ec9382" d="M 173.5,221.5 C 179.303,221.81 181.47,224.81 180,230.5C 178.587,232.414 176.753,233.747 174.5,234.5C 173.508,230.217 173.174,225.884 173.5,221.5 Z"/></g>
<g><path style="opacity:1" fill="#f19684" d="M 338.5,221.5 C 339.089,225.971 338.423,229.971 336.5,233.5C 330.904,230.778 330.238,227.111 334.5,222.5C 335.736,221.754 337.07,221.421 338.5,221.5 Z"/></g>
<g><path style="opacity:1" fill="#7e5759" d="M 338.5,221.5 C 339.485,225.634 339.818,229.968 339.5,234.5C 338.209,234.737 337.209,234.404 336.5,233.5C 338.423,229.971 339.089,225.971 338.5,221.5 Z"/></g>
<g><path style="opacity:1" fill="#eb9382" d="M 458.5,221.5 C 465.456,222.392 467.289,226.059 464,232.5C 462.416,233.861 460.582,234.528 458.5,234.5C 458.5,230.167 458.5,225.833 458.5,221.5 Z"/></g>
<g><path style="opacity:1" fill="#f49885" d="M 270.5,231.5 C 271.809,233.571 272.475,236.071 272.5,239C 271.55,248.601 266.05,253.434 256,253.5C 249.82,253.076 244.486,250.743 240,246.5C 239.501,241.845 239.334,237.179 239.5,232.5C 249.14,233.559 258.806,233.725 268.5,233C 269.416,232.722 270.082,232.222 270.5,231.5 Z"/></g>
<g><path style="opacity:1" fill="#dddddf" d="M 234.5,267.5 C 233.423,266.982 232.256,266.648 231,266.5C 226.438,267.312 221.938,268.312 217.5,269.5C 220.368,263.134 224.535,257.801 230,253.5C 231.991,257.975 233.491,262.642 234.5,267.5 Z"/></g>
<g><path style="opacity:1" fill="#dfdfe1" d="M 294.5,269.5 C 290.695,268.733 286.861,268.067 283,267.5C 281.076,267.581 279.243,267.914 277.5,268.5C 278.841,263.473 280.341,258.473 282,253.5C 287.527,257.85 291.694,263.183 294.5,269.5 Z"/></g>
<g><path style="opacity:1" fill="#e3e4e5" d="M 203.5,278.5 C 193.787,285.233 186.954,294.233 183,305.5C 177.416,335.154 171.75,364.821 166,394.5C 163.694,403.71 165.861,411.544 172.5,418C 175.561,420.035 178.895,421.201 182.5,421.5C 181.346,426.73 180.68,432.064 180.5,437.5C 167.833,437.5 155.167,437.5 142.5,437.5C 148.75,399.079 155.584,360.746 163,322.5C 166.094,289.947 182.594,267.28 212.5,254.5C 212.833,254.833 213.167,255.167 213.5,255.5C 208.202,262.421 204.868,270.088 203.5,278.5 Z"/></g>
<g><path style="opacity:1" fill="#e3e4e5" d="M 330.5,420.5 C 340.826,418.499 346.159,412.165 346.5,401.5C 341.06,370.47 335.56,339.47 330,308.5C 328.271,302.714 325.771,297.38 322.5,292.5C 320.791,285.13 316.125,281.463 308.5,281.5C 308.039,272.247 305.039,263.913 299.5,256.5C 321.109,263.266 335.942,277.599 344,299.5C 353.14,345.339 361.306,391.339 368.5,437.5C 356.5,437.5 344.5,437.5 332.5,437.5C 332.16,431.792 331.493,426.125 330.5,420.5 Z"/></g>
<g><path style="opacity:1" fill="#353140" d="M 96.5,257.5 C 101.013,257.588 105.013,259.088 108.5,262C 112.572,262.658 116.572,262.325 120.5,261C 122.519,259.134 124.852,257.967 127.5,257.5C 130.708,257.708 132.708,259.374 133.5,262.5C 132.058,265.777 129.725,268.277 126.5,270C 114.77,275.769 104.104,274.269 94.5,265.5C 92.9712,262.282 93.6379,259.615 96.5,257.5 Z"/></g>
<g><path style="opacity:1" fill="#35303f" d="M 381.5,257.5 C 385.495,256.883 388.828,258.049 391.5,261C 393.744,261.906 396.077,262.406 398.5,262.5C 403.707,261.808 408.541,260.141 413,257.5C 418.654,258.93 419.82,262.097 416.5,267C 403.863,276.083 391.696,275.583 380,265.5C 379.109,262.502 379.609,259.836 381.5,257.5 Z"/></g>
<g><path style="opacity:1" fill="#82bdf9" d="M 266.5,261.5 C 267.376,261.369 268.043,261.702 268.5,262.5C 263.867,276.697 259.701,291.03 256,305.5C 252.052,291.161 248.218,276.828 244.5,262.5C 252.059,264.104 259.393,263.771 266.5,261.5 Z"/></g>
<g><path style="opacity:1" fill="#fdfdfd" d="M 234.5,267.5 C 240.323,288.12 246.156,308.787 252,329.5C 255.761,332.359 258.761,331.692 261,327.5C 266.399,307.802 271.899,288.136 277.5,268.5C 279.243,267.914 281.076,267.581 283,267.5C 286.861,268.067 290.695,268.733 294.5,269.5C 296.721,273.168 297.721,277.168 297.5,281.5C 292.327,281.668 288.494,284.002 286,288.5C 285.333,295.167 285.333,301.833 286,308.5C 289.339,311.299 292.339,310.966 295,307.5C 295.333,302.5 295.667,297.5 296,292.5C 301,291.167 306,291.167 311,292.5C 311.333,297.5 311.667,302.5 312,307.5C 315.333,311.5 318.667,311.5 322,307.5C 322.499,302.511 322.666,297.511 322.5,292.5C 325.771,297.38 328.271,302.714 330,308.5C 335.56,339.47 341.06,370.47 346.5,401.5C 346.159,412.165 340.826,418.499 330.5,420.5C 326.012,394.572 321.845,368.572 318,342.5C 315.668,338.459 312.502,337.625 308.5,340C 307.878,341.569 307.544,343.236 307.5,345C 311.364,369.15 315.031,393.317 318.5,417.5C 318.5,418.833 318.5,420.167 318.5,421.5C 276.833,421.5 235.167,421.5 193.5,421.5C 196.885,395.802 200.552,370.136 204.5,344.5C 205.032,340.697 203.365,338.697 199.5,338.5C 196.129,339.04 194.295,341.04 194,344.5C 189.757,370.115 185.923,395.781 182.5,421.5C 178.895,421.201 175.561,420.035 172.5,418C 165.861,411.544 163.694,403.71 166,394.5C 171.75,364.821 177.416,335.154 183,305.5C 186.954,294.233 193.787,285.233 203.5,278.5C 203.5,279.833 203.5,281.167 203.5,282.5C 195.58,284.767 191.247,290.1 190.5,298.5C 194.025,315.513 203.691,320.347 219.5,313C 227.302,305.78 228.469,297.614 223,288.5C 220.87,285.77 218.203,283.77 215,282.5C 214.12,277.821 214.953,273.488 217.5,269.5C 221.938,268.312 226.438,267.312 231,266.5C 232.256,266.648 233.423,266.982 234.5,267.5 Z"/></g>
<g><path style="opacity:1" fill="#f7f7f8" d="M 204.5,292.5 C 215.262,291.739 217.929,295.905 212.5,305C 206.361,307.149 202.694,305.149 201.5,299C 201.84,296.489 202.84,294.322 204.5,292.5 Z"/></g>
<g><path style="opacity:1" fill="#66b6fc" d="M 99.5,319.5 C 86.8824,324.105 74.2157,328.605 61.5,333C 45.0509,343.055 34.8843,357.555 31,376.5C 30.4481,384.697 29.6147,392.863 28.5,401C 28.2654,410.236 32.2654,416.736 40.5,420.5C 40.5,426.167 40.5,431.833 40.5,437.5C 30.5,437.5 20.5,437.5 10.5,437.5C 11.4471,416.127 12.9471,394.793 15,373.5C 24.0875,336.85 47.2542,315.017 84.5,308C 88.6833,304.099 90.5166,299.265 90,293.5C 92.8774,295.404 96.0441,296.404 99.5,296.5C 99.5,304.167 99.5,311.833 99.5,319.5 Z"/></g>
<g><path style="opacity:1" fill="#67b6fc" d="M 151.5,326.5 C 148.813,326.664 146.146,326.497 143.5,326C 138.244,323.859 132.91,322.026 127.5,320.5C 127.5,312.5 127.5,304.5 127.5,296.5C 130.789,295.626 134.123,294.959 137.5,294.5C 137.498,305.666 143.164,311.5 154.5,312C 153.548,316.819 152.548,321.653 151.5,326.5 Z"/></g>
<g><path style="opacity:1" fill="#f89a86" d="M 382.5,296.5 C 393.465,299.014 404.465,299.014 415.5,296.5C 418.251,310.587 412.417,317.587 398,317.5C 384.692,316.676 379.526,309.676 382.5,296.5 Z"/></g>
<g><path style="opacity:1" fill="#f99b87" d="M 110.5,298.5 C 112.5,298.5 114.5,298.5 116.5,298.5C 116.666,305.841 116.5,313.174 116,320.5C 114.333,321.833 112.667,321.833 111,320.5C 110.5,313.174 110.334,305.841 110.5,298.5 Z"/></g>
<g><path style="opacity:1" fill="#48cb90" d="M 377.5,332.5 C 372.816,331.774 368.15,332.274 363.5,334C 362.748,334.671 362.414,335.504 362.5,336.5C 361.459,331.812 360.459,326.979 359.5,322C 359.559,320.564 359.892,319.231 360.5,318C 364.446,316.676 368.446,316.009 372.5,316C 374.397,321.421 376.064,326.921 377.5,332.5 Z"/></g>
<g><path style="opacity:1" fill="#48cf92" d="M 464.5,419.5 C 472.814,416.322 477.147,410.156 477.5,401C 475.853,390.802 474.019,380.635 472,370.5C 462.957,346.432 445.79,333.765 420.5,332.5C 422.147,327.244 423.481,321.911 424.5,316.5C 458.075,320.569 479.575,338.902 489,371.5C 492.825,393.463 496.325,415.463 499.5,437.5C 488.833,437.5 478.167,437.5 467.5,437.5C 466.71,431.429 465.71,425.429 464.5,419.5 Z"/></g>
<g><path style="opacity:1" fill="#c8e7fd" d="M 99.5,319.5 C 99.3379,321.527 99.5045,323.527 100,325.5C 102.488,327.743 105.154,329.743 108,331.5C 108.5,361.498 108.667,391.498 108.5,421.5C 108.167,421.5 107.833,421.5 107.5,421.5C 88.8333,421.5 70.1667,421.5 51.5,421.5C 52.2804,411.508 52.4471,401.508 52,391.5C 48.3813,388.657 45.048,388.99 42,392.5C 41.7213,401.859 41.2213,411.192 40.5,420.5C 32.2654,416.736 28.2654,410.236 28.5,401C 29.6147,392.863 30.4481,384.697 31,376.5C 34.8843,357.555 45.0509,343.055 61.5,333C 74.2157,328.605 86.8824,324.105 99.5,319.5 Z"/></g>
<g><path style="opacity:1" fill="#c5e4fa" d="M 127.5,320.5 C 132.91,322.026 138.244,323.859 143.5,326C 146.146,326.497 148.813,326.664 151.5,326.5C 148.982,339.124 146.649,351.791 144.5,364.5C 128.77,366.065 121.603,374.731 123,390.5C 125.182,397.35 129.516,402.35 136,405.5C 135.986,411.051 135.153,416.384 133.5,421.5C 128.5,421.5 123.5,421.5 118.5,421.5C 118.333,391.498 118.5,361.498 119,331.5C 121.846,329.743 124.512,327.743 127,325.5C 127.494,323.866 127.66,322.199 127.5,320.5 Z"/></g>
<g><path style="opacity:1" fill="#82bdf9" d="M 386.5,326.5 C 390.335,327.92 394.335,328.587 398.5,328.5C 402.959,328.376 407.292,327.876 411.5,327C 406.798,340.968 402.631,355.135 399,369.5C 394.523,355.302 390.357,340.969 386.5,326.5 Z"/></g>
<g><path style="opacity:1" fill="#6bf2cc" d="M 377.5,332.5 C 382.666,351.164 387.833,369.831 393,388.5C 393.5,399.495 393.667,410.495 393.5,421.5C 388.167,421.5 382.833,421.5 377.5,421.5C 371.966,393.298 366.966,364.965 362.5,336.5C 362.414,335.504 362.748,334.671 363.5,334C 368.15,332.274 372.816,331.774 377.5,332.5 Z"/></g>
<g><path style="opacity:1" fill="#6bf3ce" d="M 464.5,419.5 C 463.444,412.83 462.277,406.163 461,399.5C 456.805,395.206 453.305,395.706 450.5,401C 452.097,407.75 453.097,414.583 453.5,421.5C 437.167,421.5 420.833,421.5 404.5,421.5C 404.333,410.162 404.5,398.828 405,387.5C 410.612,369.265 415.778,350.932 420.5,332.5C 445.79,333.765 462.957,346.432 472,370.5C 474.019,380.635 475.853,390.802 477.5,401C 477.147,410.156 472.814,416.322 464.5,419.5 Z"/></g>
<g><path style="opacity:1" fill="#ef4765" d="M 139.5,375.5 C 140.675,375.281 141.675,375.614 142.5,376.5C 141.169,382.492 139.836,388.492 138.5,394.5C 133.37,390.514 132.203,385.514 135,379.5C 136.397,377.93 137.897,376.596 139.5,375.5 Z"/></g>
<g><path style="opacity:1" fill="#64b1f6" d="M 118.5,421.5 C 123.5,421.5 128.5,421.5 133.5,421.5C 132.704,426.816 132.037,432.149 131.5,437.5C 127.167,437.5 122.833,437.5 118.5,437.5C 118.5,432.167 118.5,426.833 118.5,421.5 Z"/></g>
<g><path style="opacity:1" fill="#e3e4e6" d="M 318.5,417.5 C 320.561,423.879 321.561,430.546 321.5,437.5C 278.167,437.5 234.833,437.5 191.5,437.5C 191.527,431.949 192.194,426.616 193.5,421.5C 235.167,421.5 276.833,421.5 318.5,421.5C 318.5,420.167 318.5,418.833 318.5,417.5 Z"/></g>
<g><path style="opacity:1" fill="#48cf91" d="M 377.5,421.5 C 382.833,421.5 388.167,421.5 393.5,421.5C 393.5,426.833 393.5,432.167 393.5,437.5C 388.833,437.5 384.167,437.5 379.5,437.5C 379.113,432.126 378.446,426.793 377.5,421.5 Z"/></g>
<g><path style="opacity:1" fill="#48cf91" d="M 404.5,421.5 C 420.833,421.5 437.167,421.5 453.5,421.5C 455.344,426.551 456.344,431.884 456.5,437.5C 439.167,437.5 421.833,437.5 404.5,437.5C 404.5,432.167 404.5,426.833 404.5,421.5 Z"/></g>
<g><path style="opacity:1" fill="#5b9ad6" d="M 51.5,421.5 C 51.5,426.5 51.5,431.5 51.5,436.5C 70.1667,436.5 88.8333,436.5 107.5,436.5C 107.5,431.5 107.5,426.5 107.5,421.5C 107.833,421.5 108.167,421.5 108.5,421.5C 108.5,426.833 108.5,432.167 108.5,437.5C 89.1667,437.5 69.8333,437.5 50.5,437.5C 50.1786,431.974 50.5119,426.64 51.5,421.5 Z"/></g>
<g><path style="opacity:1" fill="#67b8ff" d="M 51.5,421.5 C 70.1667,421.5 88.8333,421.5 107.5,421.5C 107.5,426.5 107.5,431.5 107.5,436.5C 88.8333,436.5 70.1667,436.5 51.5,436.5C 51.5,431.5 51.5,426.5 51.5,421.5 Z"/></g>
</svg>
