<?xml version="1.0" encoding="UTF-8"?>
<!DOCTYPE svg PUBLIC "-//W3C//DTD SVG 1.1//EN" "http://www.w3.org/Graphics/SVG/1.1/DTD/svg11.dtd">
<svg xmlns="http://www.w3.org/2000/svg" version="1.1" width="512px" height="512px" style="shape-rendering:geometricPrecision; text-rendering:geometricPrecision; image-rendering:optimizeQuality; fill-rule:evenodd; clip-rule:evenodd" xmlns:xlink="http://www.w3.org/1999/xlink">
<g><path style="opacity:0.984" fill="#52527a" d="M 321.5,148.5 C 318.167,148.5 314.833,148.5 311.5,148.5C 311.787,118.91 297.787,99.7438 269.5,91C 260.719,89.1635 252.053,89.1635 243.5,91C 246.946,97.0189 248.279,103.519 247.5,110.5C 246.552,117.396 243.718,123.396 239,128.5C 235.298,124.63 231.464,120.963 227.5,117.5C 224.188,113.521 220.521,109.854 216.5,106.5C 204.684,117.936 199.351,131.936 200.5,148.5C 199.167,148.5 197.833,148.5 196.5,148.5C 191.98,145.796 189.147,141.796 188,136.5C 187.5,112.169 187.333,87.8356 187.5,63.5C 208.503,63.3334 229.503,63.5 250.5,64C 266.013,65.5126 276.179,73.6793 281,88.5C 281.283,68.09 291.449,60.2567 311.5,65C 318.835,67.6705 323.335,72.8372 325,80.5C 325.667,101.167 325.667,121.833 325,142.5C 324.436,144.887 323.27,146.887 321.5,148.5 Z"/></g>
<g><path style="opacity:1" fill="#f89b88" d="M 311.5,148.5 C 311.662,150.527 311.495,152.527 311,154.5C 301.212,123.562 280.045,108.895 247.5,110.5C 248.279,103.519 246.946,97.0189 243.5,91C 252.053,89.1635 260.719,89.1635 269.5,91C 297.787,99.7438 311.787,118.91 311.5,148.5 Z"/></g>
<g><path style="opacity:1" fill="#f89b88" d="M 227.5,117.5 C 213.826,126.693 204.993,139.359 201,155.5C 200.503,153.19 200.337,150.857 200.5,148.5C 199.351,131.936 204.684,117.936 216.5,106.5C 220.521,109.854 224.188,113.521 227.5,117.5 Z"/></g>
<g><path style="opacity:1" fill="#fac3aa" d="M 247.5,110.5 C 280.045,108.895 301.212,123.562 311,154.5C 311.495,152.527 311.662,150.527 311.5,148.5C 314.833,148.5 318.167,148.5 321.5,148.5C 329.925,151.688 332.759,157.688 330,166.5C 328.833,169 327,170.833 324.5,172C 320.605,173.266 316.605,173.766 312.5,173.5C 311.676,197.839 300.343,215.173 278.5,225.5C 263.492,230.756 248.492,230.756 233.5,225.5C 211.648,215.148 200.315,197.815 199.5,173.5C 184.295,174.737 178.795,168.071 183,153.5C 186.6,149.452 191.1,147.785 196.5,148.5C 197.833,148.5 199.167,148.5 200.5,148.5C 200.337,150.857 200.503,153.19 201,155.5C 204.993,139.359 213.826,126.693 227.5,117.5C 231.464,120.963 235.298,124.63 239,128.5C 243.718,123.396 246.552,117.396 247.5,110.5 Z"/></g>
<g><path style="opacity:0.977" fill="#66b7fe" d="M 166.5,179.5 C 166.167,179.5 165.833,179.5 165.5,179.5C 160.368,156.724 146.035,146.058 122.5,147.5C 123.322,141.992 120.989,139.325 115.5,139.5C 114.681,132.179 111.514,130.846 106,135.5C 105.51,136.793 105.343,138.127 105.5,139.5C 100.351,139.651 98.0178,142.318 98.5,147.5C 75.8883,146.145 61.2216,156.145 54.5,177.5C 50.8479,137.043 69.3479,118.71 110,122.5C 151.791,118.79 170.624,137.79 166.5,179.5 Z"/></g>
<g><path style="opacity:1" fill="#3e3b66" d="M 122.5,147.5 C 118.56,149.299 115.56,152.132 113.5,156C 108.171,157.822 105.504,155.989 105.5,150.5C 102.547,150.85 100.213,149.85 98.5,147.5C 98.0178,142.318 100.351,139.651 105.5,139.5C 105.343,138.127 105.51,136.793 106,135.5C 111.514,130.846 114.681,132.179 115.5,139.5C 120.989,139.325 123.322,141.992 122.5,147.5 Z"/></g>
<g><path style="opacity:1" fill="#4ad193" d="M 379.5,133.5 C 393.833,133.5 408.167,133.5 422.5,133.5C 440.295,137.96 451.961,148.96 457.5,166.5C 457.5,169.833 457.5,173.167 457.5,176.5C 420.5,176.5 383.5,176.5 346.5,176.5C 346.5,174.167 346.5,171.833 346.5,169.5C 349.884,150.452 360.884,138.452 379.5,133.5 Z"/></g>
<g><path style="opacity:0.66" fill="#f7fdfa" d="M 379.5,133.5 C 360.884,138.452 349.884,150.452 346.5,169.5C 346.167,169.5 345.833,169.5 345.5,169.5C 347.588,148.746 358.921,136.746 379.5,133.5 Z"/></g>
<g><path style="opacity:0.593" fill="#f4fcf8" d="M 422.5,133.5 C 442.207,135.872 453.874,146.872 457.5,166.5C 451.961,148.96 440.295,137.96 422.5,133.5 Z"/></g>
<g><path style="opacity:1" fill="#373241" d="M 226.5,139.5 C 231.511,139.334 236.511,139.501 241.5,140C 245.436,143.508 245.436,146.841 241.5,150C 236.167,150.667 230.833,150.667 225.5,150C 222.721,146.181 223.054,142.681 226.5,139.5 Z"/></g>
<g><path style="opacity:1" fill="#393342" d="M 270.5,139.5 C 275.511,139.334 280.511,139.501 285.5,140C 290.233,142.922 290.566,146.255 286.5,150C 280.833,150.667 275.167,150.667 269.5,150C 266.711,146.225 267.045,142.725 270.5,139.5 Z"/></g>
<g><path style="opacity:1" fill="#3e3c63" d="M 399.5,143.5 C 404.083,143.028 406.583,145.028 407,149.5C 412.593,150.095 414.593,153.095 413,158.5C 411.556,160.155 409.722,160.822 407.5,160.5C 407.597,164.642 405.597,166.976 401.5,167.5C 397.89,166.556 396.223,164.223 396.5,160.5C 389.179,159.681 387.846,156.514 392.5,151C 393.793,150.51 395.127,150.343 396.5,150.5C 396.15,147.547 397.15,145.213 399.5,143.5 Z"/></g>
<g><path style="opacity:1" fill="#4d76da" d="M 98.5,147.5 C 100.213,149.85 102.547,150.85 105.5,150.5C 105.504,155.989 108.171,157.822 113.5,156C 115.56,152.132 118.56,149.299 122.5,147.5C 146.035,146.058 160.368,156.724 165.5,179.5C 160.945,176.055 155.945,173.388 150.5,171.5C 137.19,167.156 123.524,165.49 109.5,166.5C 94.9965,165.27 80.9965,167.27 67.5,172.5C 62.6647,174.414 58.3314,177.081 54.5,180.5C 54.5,179.5 54.5,178.5 54.5,177.5C 61.2216,156.145 75.8883,146.145 98.5,147.5 Z"/></g>
<g><path style="opacity:1" fill="#393442" d="M 231.5,153.5 C 238.503,152.673 241.003,155.673 239,162.5C 235.667,167.833 232.333,167.833 229,162.5C 227.927,158.9 228.76,155.9 231.5,153.5 Z"/></g>
<g><path style="opacity:1" fill="#393442" d="M 275.5,153.5 C 282.503,152.673 285.003,155.673 283,162.5C 279.667,167.833 276.333,167.833 273,162.5C 271.927,158.9 272.76,155.9 275.5,153.5 Z"/></g>
<g><path style="opacity:1" fill="#f64867" d="M 150.5,171.5 C 141.909,175.517 140.243,181.517 145.5,189.5C 121.818,182.959 98.1511,182.959 74.5,189.5C 78.9048,180.976 76.5714,175.309 67.5,172.5C 80.9965,167.27 94.9965,165.27 109.5,166.5C 123.524,165.49 137.19,167.156 150.5,171.5 Z"/></g>
<g><path style="opacity:1" fill="#b82b54" d="M 150.5,171.5 C 155.945,173.388 160.945,176.055 165.5,179.5C 165.833,179.5 166.167,179.5 166.5,179.5C 169.831,183 172.998,186.666 176,190.5C 179.434,195.792 179.267,200.959 175.5,206C 172.649,207.289 169.649,207.789 166.5,207.5C 162.644,203.019 158.644,198.519 154.5,194C 151.473,192.487 148.473,190.987 145.5,189.5C 140.243,181.517 141.909,175.517 150.5,171.5 Z"/></g>
<g><path style="opacity:1" fill="#b82b53" d="M 67.5,172.5 C 76.5714,175.309 78.9048,180.976 74.5,189.5C 72.0226,191.241 69.3559,192.741 66.5,194C 62.4628,197.958 58.7962,202.124 55.5,206.5C 54.8333,206.5 54.5,206.833 54.5,207.5C 45.1346,208.116 41.3013,203.782 43,194.5C 45.6248,188.721 49.4582,184.054 54.5,180.5C 58.3314,177.081 62.6647,174.414 67.5,172.5 Z"/></g>
<g><path style="opacity:1" fill="#4db895" d="M 345.5,169.5 C 345.833,169.5 346.167,169.5 346.5,169.5C 346.5,171.833 346.5,174.167 346.5,176.5C 383.5,176.5 420.5,176.5 457.5,176.5C 457.5,176.833 457.5,177.167 457.5,177.5C 420.5,177.5 383.5,177.5 346.5,177.5C 346.167,177.5 345.833,177.5 345.5,177.5C 345.5,174.833 345.5,172.167 345.5,169.5 Z"/></g>
<g><path style="opacity:1" fill="#498293" d="M 346.5,177.5 C 383.5,177.5 420.5,177.5 457.5,177.5C 457.5,180.5 457.5,183.5 457.5,186.5C 457.5,188.833 457.5,191.167 457.5,193.5C 420.5,193.5 383.5,193.5 346.5,193.5C 346.5,188.167 346.5,182.833 346.5,177.5 Z"/></g>
<g><path style="opacity:1" fill="#fa9b88" d="M 145.5,189.5 C 148.473,190.987 151.473,192.487 154.5,194C 158.644,198.519 162.644,203.019 166.5,207.5C 166.5,209.833 166.5,212.167 166.5,214.5C 181.012,213.17 186.845,219.504 184,233.5C 179.428,238.892 173.594,240.892 166.5,239.5C 166.828,234.125 166.495,228.792 165.5,223.5C 156.015,221.184 149.015,215.684 144.5,207C 137.544,203.74 130.211,201.74 122.5,201C 108.643,199.724 94.9762,200.724 81.5,204C 80.1667,204.667 78.8333,205.333 77.5,206C 73.9284,209.815 70.5951,213.815 67.5,218C 64.0128,220.912 60.0128,222.412 55.5,222.5C 55.5,217.167 55.5,211.833 55.5,206.5C 58.7962,202.124 62.4628,197.958 66.5,194C 69.3559,192.741 72.0226,191.241 74.5,189.5C 98.1511,182.959 121.818,182.959 145.5,189.5 Z"/></g>
<g><path style="opacity:1" fill="#332f3f" d="M 238.5,191.5 C 244.012,193.407 249.679,195.074 255.5,196.5C 259.995,196.28 263.995,194.78 267.5,192C 274,190.5 276.5,193 275,199.5C 264.324,208.484 252.824,209.651 240.5,203C 236.097,199.745 235.43,195.912 238.5,191.5 Z"/></g>
<g><path style="opacity:1" fill="#6d9b91" d="M 345.5,177.5 C 345.833,177.5 346.167,177.5 346.5,177.5C 346.5,182.833 346.5,188.167 346.5,193.5C 383.5,193.5 420.5,193.5 457.5,193.5C 420.67,194.498 383.67,194.832 346.5,194.5C 346.167,194.5 345.833,194.5 345.5,194.5C 345.5,188.833 345.5,183.167 345.5,177.5 Z"/></g>
<g><path style="opacity:1" fill="#f89a87" d="M 457.5,186.5 C 458.833,195.167 458.833,203.833 457.5,212.5C 449.932,211.188 442.265,211.188 434.5,212.5C 434.822,210.278 434.155,208.444 432.5,207C 426.833,206.333 421.167,206.333 415.5,207C 413.845,208.444 413.178,210.278 413.5,212.5C 405.833,211.833 398.167,211.167 390.5,210.5C 390.489,208.983 389.823,207.816 388.5,207C 382.5,206.333 376.5,206.333 370.5,207C 369.418,208.33 368.751,209.83 368.5,211.5C 361.167,211.5 353.833,211.5 346.5,211.5C 346.5,205.833 346.5,200.167 346.5,194.5C 383.67,194.832 420.67,194.498 457.5,193.5C 457.5,191.167 457.5,188.833 457.5,186.5 Z"/></g>
<g><path style="opacity:0.995" fill="#f9c2aa" d="M 166.5,239.5 C 166.566,260.04 158.233,276.04 141.5,287.5C 134.606,291.019 127.273,293.353 119.5,294.5C 119.5,303.167 119.5,311.833 119.5,320.5C 119.768,322.099 119.434,323.432 118.5,324.5C 118.5,314.833 118.5,305.167 118.5,295.5C 113.167,295.5 107.833,295.5 102.5,295.5C 102.5,305.167 102.5,314.833 102.5,324.5C 101.566,323.432 101.232,322.099 101.5,320.5C 101.5,311.833 101.5,303.167 101.5,294.5C 93.743,293.358 86.4096,291.025 79.5,287.5C 62.7675,276.04 54.4342,260.04 54.5,239.5C 54.5,231.167 54.5,222.833 54.5,214.5C 54.5,212.167 54.5,209.833 54.5,207.5C 54.5,206.833 54.8333,206.5 55.5,206.5C 55.5,211.833 55.5,217.167 55.5,222.5C 60.0128,222.412 64.0128,220.912 67.5,218C 70.5951,213.815 73.9284,209.815 77.5,206C 78.8333,205.333 80.1667,204.667 81.5,204C 94.9762,200.724 108.643,199.724 122.5,201C 130.211,201.74 137.544,203.74 144.5,207C 149.015,215.684 156.015,221.184 165.5,223.5C 166.495,228.792 166.828,234.125 166.5,239.5 Z"/></g>
<g><path style="opacity:1" fill="#332f3e" d="M 79.5,206.5 C 85.5092,206.334 91.5092,206.501 97.5,207C 100.311,210.294 99.9779,213.294 96.5,216C 91.1667,216.667 85.8333,216.667 80.5,216C 76.9678,213.172 76.6344,210.005 79.5,206.5 Z"/></g>
<g><path style="opacity:1" fill="#393342" d="M 125.5,205.5 C 130.179,205.334 134.845,205.501 139.5,206C 144.408,208.873 144.741,212.206 140.5,216C 135.167,216.667 129.833,216.667 124.5,216C 120.336,212.005 120.669,208.505 125.5,205.5 Z"/></g>
<g><path style="opacity:1" fill="#332e3e" d="M 390.5,210.5 C 390.617,212.484 389.95,214.15 388.5,215.5C 382.886,216.621 377.22,216.788 371.5,216C 369.859,214.871 368.859,213.371 368.5,211.5C 368.751,209.83 369.418,208.33 370.5,207C 376.5,206.333 382.5,206.333 388.5,207C 389.823,207.816 390.489,208.983 390.5,210.5 Z"/></g>
<g><path style="opacity:1" fill="#312e3d" d="M 434.5,212.5 C 434.489,214.017 433.823,215.184 432.5,216C 426.833,216.667 421.167,216.667 415.5,216C 414.177,215.184 413.511,214.017 413.5,212.5C 413.178,210.278 413.845,208.444 415.5,207C 421.167,206.333 426.833,206.333 432.5,207C 434.155,208.444 434.822,210.278 434.5,212.5 Z"/></g>
<g><path style="opacity:0.993" fill="#fac3aa" d="M 345.5,194.5 C 345.833,194.5 346.167,194.5 346.5,194.5C 346.5,200.167 346.5,205.833 346.5,211.5C 353.833,211.5 361.167,211.5 368.5,211.5C 368.859,213.371 369.859,214.871 371.5,216C 377.22,216.788 382.886,216.621 388.5,215.5C 389.95,214.15 390.617,212.484 390.5,210.5C 398.167,211.167 405.833,211.833 413.5,212.5C 413.511,214.017 414.177,215.184 415.5,216C 421.167,216.667 426.833,216.667 432.5,216C 433.823,215.184 434.489,214.017 434.5,212.5C 442.265,211.188 449.932,211.188 457.5,212.5C 457.5,213.167 457.5,213.833 457.5,214.5C 457.5,222.833 457.5,231.167 457.5,239.5C 456.803,263.241 445.803,280.241 424.5,290.5C 417.042,292.857 409.376,294.191 401.5,294.5C 394.054,293.811 386.721,292.478 379.5,290.5C 357.944,280.405 346.611,263.405 345.5,239.5C 346.814,231.265 346.814,222.932 345.5,214.5C 345.5,207.833 345.5,201.167 345.5,194.5 Z"/></g>
<g><path style="opacity:0.955" fill="#fb9c88" d="M 54.5,214.5 C 54.5,222.833 54.5,231.167 54.5,239.5C 39.9879,240.83 34.1545,234.496 37,220.5C 41.5723,215.108 47.4056,213.108 54.5,214.5 Z"/></g>
<g><path style="opacity:0.95" fill="#fb9c88" d="M 345.5,214.5 C 346.814,222.932 346.814,231.265 345.5,239.5C 331.624,241.126 325.791,235.126 328,221.5C 332.122,215.197 337.955,212.864 345.5,214.5 Z"/></g>
<g><path style="opacity:0.957" fill="#fb9b87" d="M 457.5,214.5 C 471.321,212.16 477.487,217.827 476,231.5C 474.73,235.77 471.896,238.27 467.5,239C 464.183,239.498 460.85,239.665 457.5,239.5C 457.5,231.167 457.5,222.833 457.5,214.5 Z"/></g>
<g><path style="opacity:1" fill="#34303f" d="M 85.5,219.5 C 93.0035,218.853 95.5035,222.186 93,229.5C 89.9515,233.482 86.9515,233.482 84,229.5C 83.037,225.851 83.537,222.518 85.5,219.5 Z"/></g>
<g><path style="opacity:1" fill="#363140" d="M 130.5,219.5 C 137.314,219.49 139.814,222.823 138,229.5C 134.667,233.5 131.333,233.5 128,229.5C 126.863,225.537 127.697,222.204 130.5,219.5 Z"/></g>
<g><path style="opacity:1" fill="#393442" d="M 376.5,219.5 C 385.244,219.413 387.577,223.246 383.5,231C 380.165,233.291 377.332,232.791 375,229.5C 374.037,225.851 374.537,222.518 376.5,219.5 Z"/></g>
<g><path style="opacity:1" fill="#393341" d="M 421.5,219.5 C 427.82,219.32 430.32,222.32 429,228.5C 426.177,233.395 422.843,233.729 419,229.5C 417.863,225.537 418.697,222.204 421.5,219.5 Z"/></g>
<g><path style="opacity:0.997" fill="#fa9c88" d="M 233.5,225.5 C 248.492,230.756 263.492,230.756 278.5,225.5C 278.5,231.833 278.5,238.167 278.5,244.5C 278.5,245.167 278.5,245.833 278.5,246.5C 278.5,246.833 278.5,247.167 278.5,247.5C 267.495,259.25 254.828,261.417 240.5,254C 238.63,251.96 236.63,250.127 234.5,248.5C 234.167,247.833 233.833,247.167 233.5,246.5C 233.5,245.833 233.5,245.167 233.5,244.5C 233.5,238.167 233.5,231.833 233.5,225.5 Z"/></g>
<g><path style="opacity:1" fill="#423d65" d="M 278.5,244.5 C 283.183,245.074 287.85,245.74 292.5,246.5C 299.653,250.5 304.486,256.5 307,264.5C 308.446,268.722 309.28,273.055 309.5,277.5C 315.841,276.998 320.341,279.665 323,285.5C 323.499,291.157 323.666,296.824 323.5,302.5C 320.465,308.576 316.965,308.909 313,303.5C 312.667,298.5 312.333,293.5 312,288.5C 307.252,287.365 302.419,287.198 297.5,288C 296.931,293.861 296.097,299.694 295,305.5C 292.599,306.602 290.099,306.769 287.5,306C 286.874,305.25 286.374,304.416 286,303.5C 285.333,297.833 285.333,292.167 286,286.5C 288.202,280.658 292.369,277.658 298.5,277.5C 298.702,275.05 298.369,272.717 297.5,270.5C 294.492,259.791 288.158,251.791 278.5,246.5C 278.5,245.833 278.5,245.167 278.5,244.5 Z"/></g>
<g><path style="opacity:1" fill="#413c64" d="M 233.5,244.5 C 233.5,245.167 233.5,245.833 233.5,246.5C 223.843,252.176 217.509,260.509 214.5,271.5C 213.286,273.808 213.286,276.141 214.5,278.5C 226.156,285.184 228.656,294.517 222,306.5C 216.25,312.115 209.417,313.948 201.5,312C 195.418,309.422 191.751,304.922 190.5,298.5C 189.111,291.445 191.111,285.612 196.5,281C 198.217,279.441 200.217,278.608 202.5,278.5C 203.001,265.834 208.001,255.501 217.5,247.5C 222.638,246.069 227.971,245.069 233.5,244.5 Z"/></g>
<g><path style="opacity:1" fill="#e2e4e6" d="M 278.5,246.5 C 288.158,251.791 294.492,259.791 297.5,270.5C 290.996,268.542 284.329,267.209 277.5,266.5C 275.742,266.592 274.076,266.925 272.5,267.5C 274.189,260.747 276.189,254.08 278.5,247.5C 278.5,247.167 278.5,246.833 278.5,246.5 Z"/></g>
<g><path style="opacity:1" fill="#e2e3e6" d="M 233.5,246.5 C 233.833,247.167 234.167,247.833 234.5,248.5C 236.452,254.357 237.785,260.357 238.5,266.5C 230.054,266.239 222.054,267.906 214.5,271.5C 217.509,260.509 223.843,252.176 233.5,246.5 Z"/></g>
<g><path style="opacity:0.997" fill="#e5e6e7" d="M 217.5,247.5 C 208.001,255.501 203.001,265.834 202.5,278.5C 200.217,278.608 198.217,279.441 196.5,281C 191.111,285.612 189.111,291.445 190.5,298.5C 189.686,296.369 189.186,294.036 189,291.5C 185.53,296.774 182.864,302.44 181,308.5C 174.608,340.902 168.774,373.402 163.5,406C 164.155,416.82 169.822,422.987 180.5,424.5C 179.833,431.5 179.167,438.5 178.5,445.5C 177.609,446.11 176.609,446.443 175.5,446.5C 161.5,446.5 147.5,446.5 133.5,446.5C 133.5,445.5 133.5,444.5 133.5,443.5C 134.222,437.782 135.222,432.115 136.5,426.5C 137.988,419.32 139.321,411.986 140.5,404.5C 142.358,394.68 144.358,384.847 146.5,375C 145.944,373.989 145.278,373.156 144.5,372.5C 145.5,372.5 146.5,372.5 147.5,372.5C 149.425,358.104 151.758,343.771 154.5,329.5C 155.808,322.623 157.141,315.623 158.5,308.5C 165.618,276.048 185.285,255.715 217.5,247.5 Z"/></g>
<g><path style="opacity:0.997" fill="#e5e6e7" d="M 292.5,246.5 C 327.741,256.411 348.741,279.411 355.5,315.5C 354.903,315.735 354.57,316.235 354.5,317C 356.392,323.733 357.725,330.566 358.5,337.5C 363.836,366.524 369.169,395.524 374.5,424.5C 375.407,430.851 376.407,437.184 377.5,443.5C 377.5,444.5 377.5,445.5 377.5,446.5C 363.5,446.5 349.5,446.5 335.5,446.5C 334.283,439.199 333.283,431.865 332.5,424.5C 342.412,421.88 347.746,415.38 348.5,405C 342.874,372.458 337.041,339.958 331,307.5C 329.274,303.047 327.274,298.714 325,294.5C 324.817,297.365 324.317,300.031 323.5,302.5C 323.666,296.824 323.499,291.157 323,285.5C 320.341,279.665 315.841,276.998 309.5,277.5C 309.28,273.055 308.446,268.722 307,264.5C 304.486,256.5 299.653,250.5 292.5,246.5 Z"/></g>
<g><path style="opacity:1" fill="#86c2fe" d="M 278.5,247.5 C 276.189,254.08 274.189,260.747 272.5,267.5C 267.16,287.193 261.66,306.859 256,326.5C 250.758,306.174 244.924,286.174 238.5,266.5C 237.785,260.357 236.452,254.357 234.5,248.5C 236.63,250.127 238.63,251.96 240.5,254C 254.828,261.417 267.495,259.25 278.5,247.5 Z"/></g>
<g><path style="opacity:1" fill="#342f3f" d="M 93.5,257.5 C 99.0312,259.421 104.698,261.087 110.5,262.5C 112.167,262.333 113.833,262.167 115.5,262C 118.649,260.341 121.816,258.841 125,257.5C 130.373,258.634 131.706,261.634 129,266.5C 118.921,274.328 108.088,275.494 96.5,270C 89.9242,266.936 88.9242,262.77 93.5,257.5 Z"/></g>
<g><path style="opacity:1" fill="#34303f" d="M 384.5,257.5 C 389.904,259.274 395.404,260.94 401,262.5C 405.68,262.385 409.847,260.885 413.5,258C 420,256.5 422.5,259 421,265.5C 413.491,272.445 404.658,274.945 394.5,273C 388.495,271.36 384.161,267.86 381.5,262.5C 382.092,260.577 383.092,258.911 384.5,257.5 Z"/></g>
<g><path style="opacity:1" fill="#fefefe" d="M 238.5,266.5 C 244.924,286.174 250.758,306.174 256,326.5C 261.66,306.859 267.16,287.193 272.5,267.5C 274.076,266.925 275.742,266.592 277.5,266.5C 284.329,267.209 290.996,268.542 297.5,270.5C 298.369,272.717 298.702,275.05 298.5,277.5C 292.369,277.658 288.202,280.658 286,286.5C 285.333,292.167 285.333,297.833 286,303.5C 286.374,304.416 286.874,305.25 287.5,306C 290.099,306.769 292.599,306.602 295,305.5C 296.097,299.694 296.931,293.861 297.5,288C 302.419,287.198 307.252,287.365 312,288.5C 312.333,293.5 312.667,298.5 313,303.5C 316.965,308.909 320.465,308.576 323.5,302.5C 324.317,300.031 324.817,297.365 325,294.5C 327.274,298.714 329.274,303.047 331,307.5C 337.041,339.958 342.874,372.458 348.5,405C 347.746,415.38 342.412,421.88 332.5,424.5C 327.914,398.374 323.747,372.04 320,345.5C 318.634,341.234 315.801,339.734 311.5,341C 309.406,342.255 308.406,344.088 308.5,346.5C 313.15,371.068 317.15,395.735 320.5,420.5C 320.5,421.833 320.5,423.167 320.5,424.5C 277.487,425.161 234.82,424.495 192.5,422.5C 195.838,396.965 199.505,371.465 203.5,346C 203.641,342.302 201.808,340.469 198,340.5C 194.563,340.943 192.896,342.943 193,346.5C 188.956,372.661 184.789,398.661 180.5,424.5C 169.822,422.987 164.155,416.82 163.5,406C 168.774,373.402 174.608,340.902 181,308.5C 182.864,302.44 185.53,296.774 189,291.5C 189.186,294.036 189.686,296.369 190.5,298.5C 191.751,304.922 195.418,309.422 201.5,312C 209.417,313.948 216.25,312.115 222,306.5C 228.656,294.517 226.156,285.184 214.5,278.5C 213.286,276.141 213.286,273.808 214.5,271.5C 222.054,267.906 230.054,266.239 238.5,266.5 Z"/></g>
<g><path style="opacity:0.984" fill="#67b8fe" d="M 79.5,287.5 C 86.4096,291.025 93.743,293.358 101.5,294.5C 101.5,303.167 101.5,311.833 101.5,320.5C 90.7171,324.213 79.7171,327.38 68.5,330C 43.2487,339.585 28.7487,357.751 25,384.5C 24.3333,393.833 24.3333,403.167 25,412.5C 26.7572,418.426 30.5905,422.092 36.5,423.5C 35.9295,431.154 35.5962,438.821 35.5,446.5C 35.5,446.833 35.5,447.167 35.5,447.5C 23.5,447.5 11.5,447.5 -0.5,447.5C -0.5,442.167 -0.5,436.833 -0.5,431.5C 1.10264,413.328 2.60264,394.995 4,376.5C 12.6058,336.894 36.7725,313.061 76.5,305C 77.3333,304.167 78.1667,303.333 79,302.5C 79.4993,297.511 79.6659,292.511 79.5,287.5 Z"/></g>
<g><path style="opacity:0.982" fill="#68b8fe" d="M 141.5,287.5 C 141.334,292.511 141.501,297.511 142,302.5C 142.903,303.701 144.069,304.535 145.5,305C 149.957,305.856 154.29,307.022 158.5,308.5C 157.141,315.623 155.808,322.623 154.5,329.5C 149.529,328.623 144.529,327.789 139.5,327C 133.102,323.966 126.435,321.799 119.5,320.5C 119.5,311.833 119.5,303.167 119.5,294.5C 127.273,293.353 134.606,291.019 141.5,287.5 Z"/></g>
<g><path style="opacity:1" fill="#f7f7f9" d="M 203.5,288.5 C 211.825,286.993 215.325,290.327 214,298.5C 209.667,303.833 205.333,303.833 201,298.5C 199.861,294.579 200.695,291.246 203.5,288.5 Z"/></g>
<g><path style="opacity:0.991" fill="#fa9c88" d="M 379.5,290.5 C 386.721,292.478 394.054,293.811 401.5,294.5C 409.376,294.191 417.042,292.857 424.5,290.5C 424.5,297.167 424.5,303.833 424.5,310.5C 423.766,311.708 423.433,313.041 423.5,314.5C 412.525,325.387 400.192,327.221 386.5,320C 383.642,318.306 381.309,316.139 379.5,313.5C 379.5,312.5 379.5,311.5 379.5,310.5C 379.5,303.833 379.5,297.167 379.5,290.5 Z"/></g>
<g><path style="opacity:1" fill="#fa9c88" d="M 118.5,324.5 C 117.833,325.167 117.167,325.833 116.5,326.5C 115.508,326.328 114.842,326.662 114.5,327.5C 113.193,328.153 111.86,328.82 110.5,329.5C 109.14,328.82 107.807,328.153 106.5,327.5C 106.158,326.662 105.492,326.328 104.5,326.5C 103.833,325.833 103.167,325.167 102.5,324.5C 102.5,314.833 102.5,305.167 102.5,295.5C 107.833,295.5 113.167,295.5 118.5,295.5C 118.5,305.167 118.5,314.833 118.5,324.5 Z"/></g>
<g><path style="opacity:0.985" fill="#49d293" d="M 424.5,310.5 C 463.027,314.201 487.861,334.534 499,371.5C 503.187,394.635 507.354,417.635 511.5,440.5C 511.5,442.833 511.5,445.167 511.5,447.5C 498.833,447.5 486.167,447.5 473.5,447.5C 473.737,446.209 473.404,445.209 472.5,444.5C 471.593,437.486 470.593,430.486 469.5,423.5C 477.865,419.114 481.865,412.114 481.5,402.5C 480.803,387.766 477.303,373.766 471,360.5C 463.961,349.724 454.461,341.891 442.5,337C 434.524,334.992 426.858,332.825 419.5,330.5C 420.629,325.112 421.963,319.779 423.5,314.5C 423.433,313.041 423.766,311.708 424.5,310.5 Z"/></g>
<g><path style="opacity:0.986" fill="#4ad294" d="M 379.5,310.5 C 379.5,311.5 379.5,312.5 379.5,313.5C 381.569,319.374 383.235,325.374 384.5,331.5C 375.955,332.863 367.289,334.863 358.5,337.5C 357.725,330.566 356.392,323.733 354.5,317C 354.57,316.235 354.903,315.735 355.5,315.5C 363.27,312.813 371.27,311.146 379.5,310.5 Z"/></g>
<g><path style="opacity:1" fill="#85c1fd" d="M 379.5,313.5 C 381.309,316.139 383.642,318.306 386.5,320C 400.192,327.221 412.525,325.387 423.5,314.5C 421.963,319.779 420.629,325.112 419.5,330.5C 414.902,344.883 410.902,359.55 407.5,374.5C 406.463,375.93 405.796,377.597 405.5,379.5C 404.777,383.946 403.61,388.279 402,392.5C 400.265,388.655 399.099,384.655 398.5,380.5C 398.204,378.597 397.537,376.93 396.5,375.5C 393.024,360.591 389.024,345.924 384.5,331.5C 383.235,325.374 381.569,319.374 379.5,313.5 Z"/></g>
<g><path style="opacity:1" fill="#c9e8fe" d="M 101.5,320.5 C 101.232,322.099 101.566,323.432 102.5,324.5C 103.167,325.167 103.833,325.833 104.5,326.5C 104.5,359.167 104.5,391.833 104.5,424.5C 85.5,424.5 66.5,424.5 47.5,424.5C 47.5,422.5 47.5,420.5 47.5,418.5C 47.5714,410.803 47.7381,403.137 48,395.5C 44.714,391.515 41.3807,391.515 38,395.5C 37.4628,404.836 36.9628,414.169 36.5,423.5C 30.5905,422.092 26.7572,418.426 25,412.5C 24.3333,403.167 24.3333,393.833 25,384.5C 28.7487,357.751 43.2487,339.585 68.5,330C 79.7171,327.38 90.7171,324.213 101.5,320.5 Z"/></g>
<g><path style="opacity:1" fill="#cae8fe" d="M 119.5,320.5 C 126.435,321.799 133.102,323.966 139.5,327C 144.529,327.789 149.529,328.623 154.5,329.5C 151.758,343.771 149.425,358.104 147.5,372.5C 146.5,372.5 145.5,372.5 144.5,372.5C 130.505,371.993 124.338,378.66 126,392.5C 128.277,399.612 133.11,403.612 140.5,404.5C 139.321,411.986 137.988,419.32 136.5,426.5C 130.25,424.541 123.584,423.874 116.5,424.5C 116.5,391.833 116.5,359.167 116.5,326.5C 117.167,325.833 117.833,325.167 118.5,324.5C 119.434,323.432 119.768,322.099 119.5,320.5 Z"/></g>
<g><path style="opacity:1" fill="#8a99b7" d="M 104.5,326.5 C 105.492,326.328 106.158,326.662 106.5,327.5C 105.502,359.662 105.168,391.996 105.5,424.5C 105.167,424.5 104.833,424.5 104.5,424.5C 104.5,391.833 104.5,359.167 104.5,326.5 Z"/></g>
<g><path style="opacity:1" fill="#3e3962" d="M 106.5,327.5 C 107.807,328.153 109.14,328.82 110.5,329.5C 111.86,328.82 113.193,328.153 114.5,327.5C 115.498,359.662 115.832,391.996 115.5,424.5C 115.5,431.833 115.5,439.167 115.5,446.5C 112.167,446.5 108.833,446.5 105.5,446.5C 105.5,439.167 105.5,431.833 105.5,424.5C 105.168,391.996 105.502,359.662 106.5,327.5 Z"/></g>
<g><path style="opacity:1" fill="#8794b2" d="M 114.5,327.5 C 114.842,326.662 115.508,326.328 116.5,326.5C 116.5,359.167 116.5,391.833 116.5,424.5C 116.167,424.5 115.833,424.5 115.5,424.5C 115.832,391.996 115.498,359.662 114.5,327.5 Z"/></g>
<g><path style="opacity:1" fill="#6cf4cf" d="M 384.5,331.5 C 389.024,345.924 393.024,360.591 396.5,375.5C 396.5,391.833 396.5,408.167 396.5,424.5C 389.167,424.5 381.833,424.5 374.5,424.5C 369.169,395.524 363.836,366.524 358.5,337.5C 367.289,334.863 375.955,332.863 384.5,331.5 Z"/></g>
<g><path style="opacity:1" fill="#6bf4ce" d="M 419.5,330.5 C 426.858,332.825 434.524,334.992 442.5,337C 454.461,341.891 463.961,349.724 471,360.5C 477.303,373.766 480.803,387.766 481.5,402.5C 481.865,412.114 477.865,419.114 469.5,423.5C 468.138,417.343 466.971,411.01 466,404.5C 462.01,397.856 458.177,397.856 454.5,404.5C 456.02,411.476 457.353,418.476 458.5,425.5C 441.577,424.515 424.577,424.182 407.5,424.5C 407.5,407.833 407.5,391.167 407.5,374.5C 410.902,359.55 414.902,344.883 419.5,330.5 Z"/></g>
<g><path style="opacity:1" fill="#423d65" d="M 192.5,422.5 C 191.014,428.963 190.014,435.63 189.5,442.5C 188.566,443.568 188.232,444.901 188.5,446.5C 184.958,446.813 181.625,446.479 178.5,445.5C 179.167,438.5 179.833,431.5 180.5,424.5C 184.789,398.661 188.956,372.661 193,346.5C 192.896,342.943 194.563,340.943 198,340.5C 201.808,340.469 203.641,342.302 203.5,346C 199.505,371.465 195.838,396.965 192.5,422.5 Z"/></g>
<g><path style="opacity:1" fill="#423d65" d="M 332.5,424.5 C 333.283,431.865 334.283,439.199 335.5,446.5C 331.833,446.5 328.167,446.5 324.5,446.5C 323.782,437.607 322.449,428.94 320.5,420.5C 317.15,395.735 313.15,371.068 308.5,346.5C 308.406,344.088 309.406,342.255 311.5,341C 315.801,339.734 318.634,341.234 320,345.5C 323.747,372.04 327.914,398.374 332.5,424.5 Z"/></g>
<g><path style="opacity:1" fill="#f64b69" d="M 144.5,372.5 C 145.278,373.156 145.944,373.989 146.5,375C 144.358,384.847 142.358,394.68 140.5,404.5C 133.11,403.612 128.277,399.612 126,392.5C 124.338,378.66 130.505,371.993 144.5,372.5 Z"/></g>
<g><path style="opacity:1" fill="#435170" d="M 396.5,375.5 C 397.537,376.93 398.204,378.597 398.5,380.5C 397.503,402.327 397.169,424.327 397.5,446.5C 397.167,446.5 396.833,446.5 396.5,446.5C 396.5,439.167 396.5,431.833 396.5,424.5C 396.5,408.167 396.5,391.833 396.5,375.5 Z"/></g>
<g><path style="opacity:1" fill="#3e3962" d="M 405.5,379.5 C 406.497,401.66 406.831,423.994 406.5,446.5C 403.5,446.5 400.5,446.5 397.5,446.5C 397.169,424.327 397.503,402.327 398.5,380.5C 399.099,384.655 400.265,388.655 402,392.5C 403.61,388.279 404.777,383.946 405.5,379.5 Z"/></g>
<g><path style="opacity:1" fill="#3f3a63" d="M 47.5,418.5 C 46.5088,425.313 46.1755,432.313 46.5,439.5C 45.5318,441.607 45.1984,443.941 45.5,446.5C 42.1667,446.5 38.8333,446.5 35.5,446.5C 35.5962,438.821 35.9295,431.154 36.5,423.5C 36.9628,414.169 37.4628,404.836 38,395.5C 41.3807,391.515 44.714,391.515 48,395.5C 47.7381,403.137 47.5714,410.803 47.5,418.5 Z"/></g>
<g><path style="opacity:1" fill="#3f3d64" d="M 469.5,423.5 C 470.593,430.486 471.593,437.486 472.5,444.5C 471.306,445.777 469.64,446.444 467.5,446.5C 465.215,446.324 463.215,445.657 461.5,444.5C 460.886,438.097 459.886,431.764 458.5,425.5C 457.353,418.476 456.02,411.476 454.5,404.5C 458.177,397.856 462.01,397.856 466,404.5C 466.971,411.01 468.138,417.343 469.5,423.5 Z"/></g>
<g><path style="opacity:1" fill="#456375" d="M 407.5,374.5 C 407.5,391.167 407.5,407.833 407.5,424.5C 407.5,432.167 407.5,439.833 407.5,447.5C 403.833,447.5 400.167,447.5 396.5,447.5C 396.5,447.167 396.5,446.833 396.5,446.5C 396.833,446.5 397.167,446.5 397.5,446.5C 400.5,446.5 403.5,446.5 406.5,446.5C 406.831,423.994 406.497,401.66 405.5,379.5C 405.796,377.597 406.463,375.93 407.5,374.5 Z"/></g>
<g><path style="opacity:1" fill="#49d193" d="M 407.5,424.5 C 424.577,424.182 441.577,424.515 458.5,425.5C 459.886,431.764 460.886,438.097 461.5,444.5C 461.5,445.5 461.5,446.5 461.5,447.5C 443.5,447.5 425.5,447.5 407.5,447.5C 407.5,439.833 407.5,432.167 407.5,424.5 Z"/></g>
<g><path style="opacity:1" fill="#68b8fe" d="M 47.5,418.5 C 47.5,420.5 47.5,422.5 47.5,424.5C 66.5,424.5 85.5,424.5 104.5,424.5C 104.5,432.167 104.5,439.833 104.5,447.5C 85.1667,447.5 65.8333,447.5 46.5,447.5C 46.5,444.833 46.5,442.167 46.5,439.5C 46.1755,432.313 46.5088,425.313 47.5,418.5 Z"/></g>
<g><path style="opacity:1" fill="#547cb3" d="M 104.5,424.5 C 104.833,424.5 105.167,424.5 105.5,424.5C 105.5,431.833 105.5,439.167 105.5,446.5C 108.833,446.5 112.167,446.5 115.5,446.5C 115.5,439.167 115.5,431.833 115.5,424.5C 115.833,424.5 116.167,424.5 116.5,424.5C 116.5,432.167 116.5,439.833 116.5,447.5C 112.5,447.5 108.5,447.5 104.5,447.5C 104.5,439.833 104.5,432.167 104.5,424.5 Z"/></g>
<g><path style="opacity:1" fill="#69b9fe" d="M 116.5,424.5 C 123.584,423.874 130.25,424.541 136.5,426.5C 135.222,432.115 134.222,437.782 133.5,443.5C 132.566,444.568 132.232,445.901 132.5,447.5C 127.167,447.5 121.833,447.5 116.5,447.5C 116.5,439.833 116.5,432.167 116.5,424.5 Z"/></g>
<g><path style="opacity:1" fill="#e5e6e7" d="M 320.5,420.5 C 322.449,428.94 323.782,437.607 324.5,446.5C 313.654,446.172 302.987,446.506 292.5,447.5C 268.833,447.5 245.167,447.5 221.5,447.5C 211.013,446.506 200.346,446.172 189.5,446.5C 189.5,445.167 189.5,443.833 189.5,442.5C 190.014,435.63 191.014,428.963 192.5,422.5C 234.82,424.495 277.487,425.161 320.5,424.5C 320.5,423.167 320.5,421.833 320.5,420.5 Z"/></g>
<g><path style="opacity:1" fill="#49d293" d="M 374.5,424.5 C 381.833,424.5 389.167,424.5 396.5,424.5C 396.5,431.833 396.5,439.167 396.5,446.5C 396.5,446.833 396.5,447.167 396.5,447.5C 390.5,447.5 384.5,447.5 378.5,447.5C 378.768,445.901 378.434,444.568 377.5,443.5C 376.407,437.184 375.407,430.851 374.5,424.5 Z"/></g>
<g><path style="opacity:0.247" fill="#527aad" d="M 46.5,439.5 C 46.5,442.167 46.5,444.833 46.5,447.5C 42.8333,447.5 39.1667,447.5 35.5,447.5C 35.5,447.167 35.5,446.833 35.5,446.5C 38.8333,446.5 42.1667,446.5 45.5,446.5C 45.1984,443.941 45.5318,441.607 46.5,439.5 Z"/></g>
<g><path style="opacity:0.247" fill="#acd6f3" d="M 133.5,443.5 C 133.5,444.5 133.5,445.5 133.5,446.5C 147.5,446.5 161.5,446.5 175.5,446.5C 175.5,446.833 175.5,447.167 175.5,447.5C 161.167,447.5 146.833,447.5 132.5,447.5C 132.232,445.901 132.566,444.568 133.5,443.5 Z"/></g>
<g><path style="opacity:0.435" fill="#798baa" d="M 178.5,445.5 C 181.625,446.479 184.958,446.813 188.5,446.5C 188.5,446.833 188.5,447.167 188.5,447.5C 184.167,447.5 179.833,447.5 175.5,447.5C 175.5,447.167 175.5,446.833 175.5,446.5C 176.609,446.443 177.609,446.11 178.5,445.5 Z"/></g>
<g><path style="opacity:0.247" fill="#acd0eb" d="M 189.5,442.5 C 189.5,443.833 189.5,445.167 189.5,446.5C 200.346,446.172 211.013,446.506 221.5,447.5C 210.5,447.5 199.5,447.5 188.5,447.5C 188.5,447.167 188.5,446.833 188.5,446.5C 188.232,444.901 188.566,443.568 189.5,442.5 Z"/></g>
<g><path style="opacity:0.247" fill="#9edabe" d="M 377.5,443.5 C 378.434,444.568 378.768,445.901 378.5,447.5C 349.833,447.5 321.167,447.5 292.5,447.5C 302.987,446.506 313.654,446.172 324.5,446.5C 328.167,446.5 331.833,446.5 335.5,446.5C 349.5,446.5 363.5,446.5 377.5,446.5C 377.5,445.5 377.5,444.5 377.5,443.5 Z"/></g>
<g><path style="opacity:0.247" fill="#45857a" d="M 461.5,444.5 C 463.215,445.657 465.215,446.324 467.5,446.5C 469.64,446.444 471.306,445.777 472.5,444.5C 473.404,445.209 473.737,446.209 473.5,447.5C 469.5,447.5 465.5,447.5 461.5,447.5C 461.5,446.5 461.5,445.5 461.5,444.5 Z"/></g>
</svg>
