<?xml version="1.0" encoding="UTF-8"?>
<!DOCTYPE svg PUBLIC "-//W3C//DTD SVG 1.1//EN" "http://www.w3.org/Graphics/SVG/1.1/DTD/svg11.dtd">
<svg xmlns="http://www.w3.org/2000/svg" version="1.1" width="512px" height="512px" style="shape-rendering:geometricPrecision; text-rendering:geometricPrecision; image-rendering:optimizeQuality; fill-rule:evenodd; clip-rule:evenodd" xmlns:xlink="http://www.w3.org/1999/xlink">
<g><path style="opacity:0.97" fill="#312d3d" d="M 278.5,60.5 C 277.668,88.6637 277.168,116.997 277,145.5C 275.853,155.284 272.187,163.951 266,171.5C 247.605,190.062 229.105,208.396 210.5,226.5C 206.702,229.796 203.036,233.296 199.5,237C 193.24,239.412 190.407,237.245 191,230.5C 201.728,219.604 212.562,208.937 223.5,198.5C 228.479,194.188 233.146,189.521 237.5,184.5C 226.913,157.948 207.247,145.614 178.5,147.5C 156.402,146.466 139.235,155.132 127,173.5C 108.1,214.098 94.5997,256.431 86.5,300.5C 91.8846,301.244 97.218,302.244 102.5,303.5C 133.014,315.497 150.347,337.83 154.5,370.5C 154.5,376.5 154.5,382.5 154.5,388.5C 204.999,386.159 237.499,360.825 252,312.5C 253.992,302.582 254.659,292.582 254,282.5C 251.705,265.732 248.872,249.065 245.5,232.5C 240.479,236.854 235.812,241.521 231.5,246.5C 227.369,250.13 223.369,253.963 219.5,258C 213.507,259.668 211.007,257.502 212,251.5C 230.221,233.279 248.387,215.113 266.5,197C 280.361,189.471 294.028,189.804 307.5,198C 327.667,218.167 347.833,238.333 368,258.5C 368.833,264.333 366.333,266.833 360.5,266C 355.965,261.297 351.298,256.797 346.5,252.5C 342.203,247.702 337.703,243.035 333,238.5C 327.188,259.394 324.854,280.728 326,302.5C 334.596,351.429 363.429,379.929 412.5,388C 436.5,388.667 460.5,388.667 484.5,388C 492.575,386.222 497.742,381.389 500,373.5C 498.007,308.192 484.007,245.525 458,185.5C 450.235,165.061 435.735,152.561 414.5,148C 385.453,141.778 362.62,150.611 346,174.5C 342.834,179.804 341.167,185.471 341,191.5C 345.003,196.669 349.503,201.336 354.5,205.5C 365.131,216.632 375.965,227.632 387,238.5C 388.167,244.667 385.667,247.167 379.5,246C 375.631,241.963 371.631,238.13 367.5,234.5C 347.565,213.064 327.065,192.064 306,171.5C 301.33,165.158 297.996,158.158 296,150.5C 295.5,120.502 295.333,90.5019 295.5,60.5C 297.581,55.1748 301.081,54.1748 306,57.5C 306.029,89.2143 306.696,120.881 308,152.5C 309.746,156.327 311.746,159.993 314,163.5C 319.667,169.167 325.333,174.833 331,180.5C 340.088,157.083 356.922,142.583 381.5,137C 393.167,136.333 404.833,136.333 416.5,137C 440.816,141.643 457.649,155.476 467,178.5C 490.632,234.363 505.465,292.363 511.5,352.5C 511.5,360.5 511.5,368.5 511.5,376.5C 507.266,389.557 498.266,397.057 484.5,399C 461.167,399.667 437.833,399.667 414.5,399C 370.018,394.165 338.851,371.332 321,330.5C 316.446,317.728 313.946,304.561 313.5,291C 315.963,270.065 318.796,249.231 322,228.5C 313.768,219.598 304.934,211.431 295.5,204C 287.111,200.838 279.111,201.838 271.5,207C 266.333,212.167 261.167,217.333 256,222.5C 258.989,242.438 261.989,262.438 265,282.5C 266.792,332.106 245.626,367.939 201.5,390C 185.821,396.447 169.487,399.781 152.5,400C 135.099,443.673 103.099,461.34 56.5,453C 25.6919,442.851 6.69189,422.018 -0.5,390.5C -0.5,381.833 -0.5,373.167 -0.5,364.5C 8.81786,324.187 34.1512,302.52 75.5,299.5C 83.1736,257.804 95.3403,217.471 112,178.5C 121.351,155.476 138.184,141.643 162.5,137C 174.167,136.333 185.833,136.333 197.5,137C 220.186,141.692 236.352,154.525 246,175.5C 251.367,170.468 256.367,165.135 261,159.5C 263.466,154.768 265.133,149.768 266,144.5C 266.333,116.167 266.667,87.8333 267,59.5C 269.107,55.4992 272.273,54.4992 276.5,56.5C 277.705,57.5769 278.372,58.9102 278.5,60.5 Z"/></g>
<g><path style="opacity:0.997" fill="#c82a4e" d="M 278.5,60.5 C 284.167,60.5 289.833,60.5 295.5,60.5C 295.333,90.5019 295.5,120.502 296,150.5C 297.996,158.158 301.33,165.158 306,171.5C 327.065,192.064 347.565,213.064 367.5,234.5C 362.607,236.138 357.94,235.638 353.5,233C 337.138,216.971 321.138,200.638 305.5,184C 293.606,174.87 281.273,174.203 268.5,182C 253.529,195.971 238.862,210.304 224.5,225C 219.99,227.481 215.323,227.981 210.5,226.5C 229.105,208.396 247.605,190.062 266,171.5C 272.187,163.951 275.853,155.284 277,145.5C 277.168,116.997 277.668,88.6637 278.5,60.5 Z"/></g>
<g><path style="opacity:1" fill="#c82a4e" d="M 223.5,198.5 C 221.594,180.086 211.594,168.586 193.5,164C 166.343,157.348 147.177,166.514 136,191.5C 120.469,227.588 109.302,264.921 102.5,303.5C 97.218,302.244 91.8846,301.244 86.5,300.5C 94.5997,256.431 108.1,214.098 127,173.5C 139.235,155.132 156.402,146.466 178.5,147.5C 207.247,145.614 226.913,157.948 237.5,184.5C 233.146,189.521 228.479,194.188 223.5,198.5 Z"/></g>
<g><path style="opacity:1" fill="#c82a4d" d="M 346.5,252.5 C 341.439,271.127 340.272,290.127 343,309.5C 353.347,345.18 376.847,366.014 413.5,372C 436.5,372.667 459.5,372.667 482.5,372C 483,371.5 483.5,371 484,370.5C 481.341,307.213 467.341,246.546 442,188.5C 436.8,175.298 427.3,167.132 413.5,164C 402.441,163.094 391.441,163.427 380.5,165C 363.409,173 354.742,186.5 354.5,205.5C 349.503,201.336 345.003,196.669 341,191.5C 341.167,185.471 342.834,179.804 346,174.5C 362.62,150.611 385.453,141.778 414.5,148C 435.735,152.561 450.235,165.061 458,185.5C 484.007,245.525 498.007,308.192 500,373.5C 497.742,381.389 492.575,386.222 484.5,388C 460.5,388.667 436.5,388.667 412.5,388C 363.429,379.929 334.596,351.429 326,302.5C 324.854,280.728 327.188,259.394 333,238.5C 337.703,243.035 342.203,247.702 346.5,252.5 Z"/></g>
<g><path style="opacity:1" fill="#f6517a" d="M 223.5,198.5 C 212.562,208.937 201.728,219.604 191,230.5C 190.407,237.245 193.24,239.412 199.5,237C 203.036,233.296 206.702,229.796 210.5,226.5C 215.323,227.981 219.99,227.481 224.5,225C 238.862,210.304 253.529,195.971 268.5,182C 281.273,174.203 293.606,174.87 305.5,184C 321.138,200.638 337.138,216.971 353.5,233C 357.94,235.638 362.607,236.138 367.5,234.5C 371.631,238.13 375.631,241.963 379.5,246C 385.667,247.167 388.167,244.667 387,238.5C 375.965,227.632 365.131,216.632 354.5,205.5C 354.742,186.5 363.409,173 380.5,165C 391.441,163.427 402.441,163.094 413.5,164C 427.3,167.132 436.8,175.298 442,188.5C 467.341,246.546 481.341,307.213 484,370.5C 483.5,371 483,371.5 482.5,372C 459.5,372.667 436.5,372.667 413.5,372C 376.847,366.014 353.347,345.18 343,309.5C 340.272,290.127 341.439,271.127 346.5,252.5C 351.298,256.797 355.965,261.297 360.5,266C 366.333,266.833 368.833,264.333 368,258.5C 347.833,238.333 327.667,218.167 307.5,198C 294.028,189.804 280.361,189.471 266.5,197C 248.387,215.113 230.221,233.279 212,251.5C 211.007,257.502 213.507,259.668 219.5,258C 223.369,253.963 227.369,250.13 231.5,246.5C 236.367,264.065 238.534,282.065 238,300.5C 229.846,344.014 203.679,368.014 159.5,372.5C 157.545,372.276 155.879,371.609 154.5,370.5C 150.347,337.83 133.014,315.497 102.5,303.5C 109.302,264.921 120.469,227.588 136,191.5C 147.177,166.514 166.343,157.348 193.5,164C 211.594,168.586 221.594,180.086 223.5,198.5 Z"/></g>
<g><path style="opacity:1" fill="#342d3e" d="M 158.5,177.5 C 161.119,177.232 163.619,177.565 166,178.5C 167.072,183.132 168.072,187.799 169,192.5C 170.5,194 172,195.5 173.5,197C 179.277,198.59 184.777,200.756 190,203.5C 190.746,210.571 187.579,213.071 180.5,211C 175.994,209.828 171.827,207.995 168,205.5C 165.361,209.639 162.528,213.639 159.5,217.5C 153.038,219.54 150.538,217.206 152,210.5C 154.516,206.129 157.016,201.796 159.5,197.5C 157.947,193.12 156.947,188.62 156.5,184C 156.338,181.498 157.005,179.331 158.5,177.5 Z"/></g>
<g><path style="opacity:1" fill="#352e3e" d="M 388.5,178.5 C 389.873,178.343 391.207,178.51 392.5,179C 396.833,183.333 401.167,187.667 405.5,192C 409.594,192.767 413.594,192.434 417.5,191C 420.717,188.274 424.05,185.774 427.5,183.5C 432.766,184.698 434.266,187.698 432,192.5C 425.169,200.829 416.336,204.663 405.5,204C 402.833,206.667 400.167,209.333 397.5,212C 390.6,215.098 387.766,212.931 389,205.5C 391.553,203.284 393.72,200.784 395.5,198C 392.013,193.845 388.513,189.678 385,185.5C 384.576,182.348 385.743,180.014 388.5,178.5 Z"/></g>
<g><path style="opacity:1" fill="#c72a4d" d="M 154.5,370.5 C 155.879,371.609 157.545,372.276 159.5,372.5C 203.679,368.014 229.846,344.014 238,300.5C 238.534,282.065 236.367,264.065 231.5,246.5C 235.812,241.521 240.479,236.854 245.5,232.5C 248.872,249.065 251.705,265.732 254,282.5C 254.659,292.582 253.992,302.582 252,312.5C 237.499,360.825 204.999,386.159 154.5,388.5C 154.5,382.5 154.5,376.5 154.5,370.5 Z"/></g>
<g><path style="opacity:1" fill="#352e3e" d="M 403.5,257.5 C 418.36,257.68 428.526,264.68 434,278.5C 436.219,284.93 434.053,287.763 427.5,287C 424.707,283.919 422.54,280.419 421,276.5C 416.287,270.606 410.12,267.606 402.5,267.5C 399.708,263.808 400.042,260.474 403.5,257.5 Z"/></g>
<g><path style="opacity:1" fill="#f692ac" d="M 172.5,334.5 C 176.589,332.483 177.422,329.483 175,325.5C 172.65,323.317 170.483,320.984 168.5,318.5C 171.818,314.682 175.318,311.015 179,307.5C 179.881,301.714 177.381,299.214 171.5,300C 167.167,304.333 162.833,308.667 158.5,313C 155.304,313.805 152.304,313.638 149.5,312.5C 151.527,312.662 153.527,312.495 155.5,312C 149,305.5 142.5,299 136,292.5C 131.843,285.005 130.509,277.005 132,268.5C 136.461,260.676 142.628,258.843 150.5,263C 170.5,275 190.5,287 210.5,299C 213.92,303.789 214.42,308.956 212,314.5C 208.857,321.959 204.357,328.459 198.5,334C 189.882,339.61 181.215,339.777 172.5,334.5 Z"/></g>
<g><path style="opacity:1" fill="#332e3e" d="M 172.5,334.5 C 171.127,334.657 169.793,334.49 168.5,334C 165.167,330.667 161.833,327.333 158.5,324C 147.458,325.229 138.625,321.395 132,312.5C 130.332,306.507 132.498,304.007 138.5,305C 141.463,306.961 144.129,309.294 146.5,312C 147.448,312.483 148.448,312.649 149.5,312.5C 152.304,313.638 155.304,313.805 158.5,313C 162.833,308.667 167.167,304.333 171.5,300C 177.381,299.214 179.881,301.714 179,307.5C 175.318,311.015 171.818,314.682 168.5,318.5C 170.483,320.984 172.65,323.317 175,325.5C 177.422,329.483 176.589,332.483 172.5,334.5 Z"/></g>
<g><path style="opacity:1" fill="#352e3e" d="M 382.5,299.5 C 385.923,299.128 388.423,300.461 390,303.5C 389.046,310.311 391.213,315.811 396.5,320C 401.759,321.641 406.926,323.475 412,325.5C 414.045,328.719 413.545,331.552 410.5,334C 403.316,334.253 396.65,332.42 390.5,328.5C 387.377,332.578 384.377,336.745 381.5,341C 375.667,341.833 373.167,339.333 374,333.5C 377.03,329.302 379.863,324.968 382.5,320.5C 379.891,314.744 379.058,308.744 380,302.5C 381.045,301.627 381.878,300.627 382.5,299.5 Z"/></g>
<g><path style="opacity:1" fill="#48d092" d="M 65.5,310.5 C 107.331,308.19 133.497,327.19 144,367.5C 146.111,406.48 128.611,431.647 91.5,443C 58.5415,447.935 33.7082,436.102 17,407.5C 3.20994,374.163 10.0433,345.997 37.5,323C 46.1797,317.171 55.513,313.004 65.5,310.5 Z"/></g>
<g><path style="opacity:1" fill="#32303f" d="M 64.5,339.5 C 73.1731,339.334 81.8397,339.5 90.5,340C 91,340.5 91.5,341 92,341.5C 92.4996,348.158 92.6663,354.825 92.5,361.5C 99.6154,361.075 106.615,361.575 113.5,363C 114,363.5 114.5,364 115,364.5C 115.667,372.833 115.667,381.167 115,389.5C 114.626,390.416 114.126,391.25 113.5,392C 106.615,393.425 99.6154,393.925 92.5,393.5C 92.6663,400.175 92.4996,406.842 92,413.5C 91.2496,414.126 90.4162,414.626 89.5,415C 81.1667,415.667 72.8333,415.667 64.5,415C 63.6667,414.167 62.8333,413.333 62,412.5C 61.5005,406.175 61.3338,399.842 61.5,393.5C 55.1579,393.666 48.8246,393.5 42.5,393C 41.6667,392.167 40.8333,391.333 40,390.5C 39.183,381.255 39.3497,372.089 40.5,363C 47.3846,361.575 54.3846,361.075 61.5,361.5C 61.3338,355.158 61.5005,348.825 62,342.5C 62.6979,341.309 63.5313,340.309 64.5,339.5 Z"/></g>
<g><path style="opacity:1" fill="#fcfcfc" d="M 72.5,349.5 C 75.8333,349.5 79.1667,349.5 82.5,349.5C 82.3337,356.175 82.5004,362.842 83,369.5C 83.8333,370.333 84.6667,371.167 85.5,372C 91.8246,372.5 98.1579,372.666 104.5,372.5C 104.5,375.833 104.5,379.167 104.5,382.5C 98.1579,382.334 91.8246,382.5 85.5,383C 84.6667,383.833 83.8333,384.667 83,385.5C 82.5005,391.825 82.3338,398.158 82.5,404.5C 79.1667,404.5 75.8333,404.5 72.5,404.5C 72.6662,398.158 72.4995,391.825 72,385.5C 71.5,385 71,384.5 70.5,384C 63.6154,382.575 56.6154,382.075 49.5,382.5C 49.5,379.167 49.5,375.833 49.5,372.5C 56.6154,372.925 63.6154,372.425 70.5,371C 71.1258,370.25 71.6258,369.416 72,368.5C 72.4995,362.175 72.6662,355.842 72.5,349.5 Z"/></g>
</svg>
