<?xml version="1.0" encoding="UTF-8"?>
<!DOCTYPE svg PUBLIC "-//W3C//DTD SVG 1.1//EN" "http://www.w3.org/Graphics/SVG/1.1/DTD/svg11.dtd">
<svg xmlns="http://www.w3.org/2000/svg" version="1.1" width="6250px" height="6250px" style="shape-rendering:geometricPrecision; text-rendering:geometricPrecision; image-rendering:optimizeQuality; fill-rule:evenodd; clip-rule:evenodd" xmlns:xlink="http://www.w3.org/1999/xlink">
<g><path style="opacity:0.989" fill="#db0c14" d="M 3135.5,589.5 C 3155.68,590.523 3175.68,593.023 3195.5,597C 3217.55,602.932 3236.38,614.099 3252,630.5C 3272.3,653.798 3292.96,676.798 3314,699.5C 3321.94,714.018 3318.44,724.852 3303.5,732C 3285.73,731.738 3268.06,730.071 3250.5,727C 3222.77,720.72 3199.6,706.887 3181,685.5C 3162.04,663.536 3142.7,641.869 3123,620.5C 3117.32,606.011 3121.49,595.678 3135.5,589.5 Z"/></g>
<g><path style="opacity:0.989" fill="#db0c14" d="M 2959.5,594.5 C 2982.01,594.324 3004.35,596.157 3026.5,600C 3040.66,603.581 3053.66,609.581 3065.5,618C 3093.27,643.103 3120.44,668.936 3147,695.5C 3150.94,704.415 3149.94,712.748 3144,720.5C 3138.52,725.605 3132.02,727.605 3124.5,726.5C 3108.78,725.938 3093.12,724.772 3077.5,723C 3054.32,718.575 3033.98,708.575 3016.5,693C 2993.67,670.833 2970.83,648.667 2948,626.5C 2941.82,612.192 2945.66,601.526 2959.5,594.5 Z"/></g>
<g><path style="opacity:0.988" fill="#db0c14" d="M 3312.5,596.5 C 3332.44,598.854 3352.1,602.687 3371.5,608C 3392.13,615.23 3409.63,627.063 3424,643.5C 3443.76,669.348 3463.76,695.014 3484,720.5C 3488.76,732.616 3485.59,742.116 3474.5,749C 3469.25,750.506 3463.92,750.839 3458.5,750C 3440.92,747.018 3423.59,743.018 3406.5,738C 3386.35,730.351 3369.52,718.184 3356,701.5C 3337.24,676.985 3318.24,652.652 3299,628.5C 3292.81,613.231 3297.31,602.564 3312.5,596.5 Z"/></g>
<g><path style="opacity:0.99" fill="#db0c14" d="M 2786.5,611.5 C 2805.5,611.333 2824.5,611.5 2843.5,612C 2866.32,615.044 2886.65,623.71 2904.5,638C 2928.76,658.381 2952.93,678.881 2977,699.5C 2984.18,714.645 2980.01,725.478 2964.5,732C 2945.83,732.667 2927.17,732.667 2908.5,732C 2885.31,729.163 2864.64,720.497 2846.5,706C 2822.61,685.144 2798.45,664.644 2774,644.5C 2766.68,628.951 2770.84,617.951 2786.5,611.5 Z"/></g>
<g><path style="opacity:0.989" fill="#db0c14" d="M 3484.5,616.5 C 3488.85,616.334 3493.18,616.501 3497.5,617C 3511.89,620.797 3526.22,624.797 3540.5,629C 3563.48,637.732 3582.32,651.898 3597,671.5C 3615,698.167 3633,724.833 3651,751.5C 3654.79,765.413 3649.96,774.913 3636.5,780C 3631.76,780.726 3627.09,780.393 3622.5,779C 3606.59,775.107 3590.93,770.44 3575.5,765C 3555.44,756.273 3538.94,743.107 3526,725.5C 3507.42,698.005 3489.09,670.338 3471,642.5C 3468.94,630.293 3473.44,621.626 3484.5,616.5 Z"/></g>
<g><path style="opacity:0.989" fill="#db0c14" d="M 2649.5,637.5 C 2677.15,635.663 2702.82,641.829 2726.5,656C 2752.83,675 2779.17,694 2805.5,713C 2813,720.698 2814.5,729.531 2810,739.5C 2807.28,744.551 2803.11,747.718 2797.5,749C 2775.93,752.017 2754.26,753.017 2732.5,752C 2714.53,749.566 2697.86,743.566 2682.5,734C 2655.36,714.36 2628.36,694.526 2601.5,674.5C 2595.84,664.892 2596.34,655.559 2603,646.5C 2606.37,643.731 2610.2,641.898 2614.5,641C 2626.34,640.099 2638.01,638.932 2649.5,637.5 Z"/></g>
<g><path style="opacity:0.989" fill="#db0c14" d="M 3660.5,647.5 C 3682.31,652.158 3703.31,659.325 3723.5,669C 3744.77,681.6 3761.27,698.767 3773,720.5C 3786.75,744.997 3800.75,769.33 3815,793.5C 3818.48,807.043 3813.65,816.209 3800.5,821C 3797.17,821.667 3793.83,821.667 3790.5,821C 3776.77,816.534 3763.1,811.868 3749.5,807C 3721.58,794.747 3700.42,775.247 3686,748.5C 3671.99,723.801 3657.99,699.135 3644,674.5C 3641.48,660.535 3646.98,651.535 3660.5,647.5 Z"/></g>
<g><path style="opacity:0.988" fill="#db0c14" d="M 2486.5,675.5 C 2515.14,673.743 2541.47,680.576 2565.5,696C 2590.5,711.667 2615.5,727.333 2640.5,743C 2649.35,755.23 2648.01,766.23 2636.5,776C 2634.91,776.862 2633.25,777.529 2631.5,778C 2612.8,781.534 2593.96,784.034 2575,785.5C 2552.54,785.344 2531.71,779.511 2512.5,768C 2485.83,751.333 2459.17,734.667 2432.5,718C 2424.08,706.81 2424.75,696.143 2434.5,686C 2436.5,685 2438.5,684 2440.5,683C 2455.98,680.529 2471.31,678.029 2486.5,675.5 Z"/></g>
<g><path style="opacity:0.989" fill="#db0c14" d="M 3828.5,691.5 C 3833.27,691.191 3837.93,691.691 3842.5,693C 3857.62,699.392 3872.62,706.059 3887.5,713C 3906.33,723.833 3921.17,738.667 3932,757.5C 3946.33,786.833 3960.67,816.167 3975,845.5C 3979.01,861.805 3972.67,871.471 3956,874.5C 3932.47,867.218 3910.31,857.051 3889.5,844C 3875.39,833.231 3864.22,820.065 3856,804.5C 3841.73,775.622 3827.73,746.622 3814,717.5C 3811.83,704.824 3816.67,696.158 3828.5,691.5 Z"/></g>
<g><path style="opacity:0.99" fill="#db0c14" d="M 2331.5,724.5 C 2350.24,724.235 2368.24,727.735 2385.5,735C 2415.32,750.412 2444.99,766.079 2474.5,782C 2483.28,790.295 2484.78,799.795 2479,810.5C 2476.41,813.762 2473.24,816.262 2469.5,818C 2448.23,824.236 2426.56,828.069 2404.5,829.5C 2388.96,829.559 2373.96,826.726 2359.5,821C 2329.5,805.333 2299.5,789.667 2269.5,774C 2259.68,767.54 2256.85,758.707 2261,747.5C 2263.66,741.508 2268.16,737.675 2274.5,736C 2293.43,731.011 2312.43,727.177 2331.5,724.5 Z"/></g>
<g><path style="opacity:0.988" fill="#db0c14" d="M 3997.5,746.5 C 4001.25,746.392 4004.91,746.892 4008.5,748C 4027.64,757.067 4045.98,767.4 4063.5,779C 4077.4,790.89 4088.23,805.057 4096,821.5C 4108.33,852.167 4120.67,882.833 4133,913.5C 4133.58,927.762 4126.74,935.762 4112.5,937.5C 4109.43,937.393 4106.43,936.893 4103.5,936C 4091.99,929.745 4080.32,923.745 4068.5,918C 4044.72,904.622 4027.22,885.455 4016,860.5C 4004,830.5 3992,800.5 3980,770.5C 3979.11,757.561 3984.94,749.561 3997.5,746.5 Z"/></g>
<g><path style="opacity:0.989" fill="#db0c14" d="M 2167.5,785.5 C 2187.13,784.162 2206.13,786.996 2224.5,794C 2254.98,807.409 2285.32,821.076 2315.5,835C 2323.33,844.967 2323.49,855.134 2316,865.5C 2313.75,867.377 2311.25,868.877 2308.5,870C 2289.86,876.411 2270.86,881.411 2251.5,885C 2233.05,886.935 2215.05,884.935 2197.5,879C 2166,865.388 2134.67,851.388 2103.5,837C 2094.25,827.559 2093.42,817.393 2101,806.5C 2104.3,803.433 2108.13,801.267 2112.5,800C 2130.67,793.987 2149.01,789.154 2167.5,785.5 Z"/></g>
<g><path style="opacity:0.989" fill="#db0c14" d="M 4158.5,813.5 C 4162.92,813.305 4167.25,813.805 4171.5,815C 4185.17,823.333 4198.83,831.667 4212.5,840C 4230.67,853.506 4244.17,870.672 4253,891.5C 4263.49,923.119 4273.82,954.786 4284,986.5C 4284.9,1004.93 4276.07,1013.1 4257.5,1011C 4239.7,1001.52 4222.7,990.853 4206.5,979C 4191.51,965.85 4180.34,950.017 4173,931.5C 4163,900.833 4153,870.167 4143,839.5C 4140.77,826.273 4145.94,817.606 4158.5,813.5 Z"/></g>
<g><path style="opacity:0.989" fill="#db0c14" d="M 2018.5,856.5 C 2032.37,856.154 2046.04,857.654 2059.5,861C 2092.38,872.444 2125.05,884.444 2157.5,897C 2162.74,901.037 2165.07,906.37 2164.5,913C 2164.9,919.816 2162.56,925.483 2157.5,930C 2138.67,938.388 2119.33,945.388 2099.5,951C 2080.68,954.695 2062.01,954.028 2043.5,949C 2011.76,937.864 1980.09,926.53 1948.5,915C 1938.01,907.906 1935.18,898.406 1940,886.5C 1941.46,884.04 1943.29,881.873 1945.5,880C 1968.83,868.65 1993.16,860.817 2018.5,856.5 Z"/></g>
<g><path style="opacity:0.992" fill="#db0c14" d="M 3255.5,871.5 C 3256.6,872.601 3256.76,873.934 3256,875.5C 3238.63,925.946 3222.29,976.612 3207,1027.5C 3251.17,1059.67 3295.33,1091.83 3339.5,1124C 3284.83,1123.38 3230.17,1123.55 3175.5,1124.5C 3158.77,1176.53 3141.94,1228.53 3125,1280.5C 3107.88,1228.98 3091.05,1177.31 3074.5,1125.5C 3019.5,1124.67 2964.5,1124.17 2909.5,1124C 2953.6,1092.87 2997.43,1061.37 3041,1029.5C 3040.99,1025.78 3040.32,1022.11 3039,1018.5C 3023.17,970.333 3007.33,922.167 2991.5,874C 2991.83,873.5 2992.17,873 2992.5,872.5C 3036.14,904.307 3079.64,936.307 3123,968.5C 3167.35,936.303 3211.52,903.97 3255.5,871.5 Z"/></g>
<g><path style="opacity:0.988" fill="#db0c14" d="M 4315.5,891.5 C 4321.56,890.838 4327.23,892.004 4332.5,895C 4344.17,903.333 4355.83,911.667 4367.5,920C 4385.4,934.911 4398.23,953.411 4406,975.5C 4414.16,1007.12 4422.16,1038.79 4430,1070.5C 4431.73,1088.44 4423.56,1096.94 4405.5,1096C 4403.5,1095.33 4401.5,1094.67 4399.5,1094C 4386.32,1084.91 4373.32,1075.58 4360.5,1066C 4341.53,1049.36 4328.7,1028.86 4322,1004.5C 4314.67,975.167 4307.33,945.833 4300,916.5C 4298.46,903.898 4303.62,895.565 4315.5,891.5 Z"/></g>
<g><path style="opacity:0.989" fill="#db0c14" d="M 1867.5,938.5 C 1881.66,937.84 1895.66,939.006 1909.5,942C 1940.55,950.845 1971.55,959.845 2002.5,969C 2012.11,974.972 2015.28,983.472 2012,994.5C 2008.72,1001.74 2003.22,1006.58 1995.5,1009C 1980.62,1016.44 1965.29,1022.77 1949.5,1028C 1930.24,1032.22 1910.9,1032.56 1891.5,1029C 1859.79,1020.16 1828.12,1011.16 1796.5,1002C 1786.88,996.589 1783.38,988.422 1786,977.5C 1787.12,972.761 1789.62,968.928 1793.5,966C 1807.05,959.393 1820.71,953.06 1834.5,947C 1845.35,943.038 1856.35,940.205 1867.5,938.5 Z"/></g>
<g><path style="opacity:0.99" fill="#db0c14" d="M 4466.5,980.5 C 4472.07,979.99 4477.41,980.823 4482.5,983C 4495.02,992.76 4507.35,1002.76 4519.5,1013C 4535.67,1029.17 4546.84,1048.34 4553,1070.5C 4559.27,1104.1 4565.1,1137.76 4570.5,1171.5C 4569.04,1183.77 4562.04,1190.43 4549.5,1191.5C 4547.22,1190.79 4544.89,1190.29 4542.5,1190C 4524.46,1177.38 4507.63,1163.21 4492,1147.5C 4477.92,1129.94 4469.25,1109.94 4466,1087.5C 4460.73,1058.56 4455.9,1029.56 4451.5,1000.5C 4451.68,990.125 4456.68,983.458 4466.5,980.5 Z"/></g>
<g><path style="opacity:0.991" fill="#db0c14" d="M 2383.5,992.5 C 2384.22,992.918 2384.72,993.584 2385,994.5C 2388.79,1048.2 2392.95,1101.87 2397.5,1155.5C 2450.83,1168.33 2504.16,1181.17 2557.5,1194C 2507.39,1215.05 2457.06,1235.55 2406.5,1255.5C 2410.27,1309.88 2414.61,1364.21 2419.5,1418.5C 2419.17,1419.17 2418.83,1419.83 2418.5,1420.5C 2384.52,1381.2 2351.02,1341.54 2318,1301.5C 2316.28,1299.44 2314.28,1297.78 2312,1296.5C 2261.53,1318.01 2211.03,1338.67 2160.5,1358.5C 2189.29,1312.42 2217.96,1266.25 2246.5,1220C 2210.83,1178.33 2175.17,1136.67 2139.5,1095C 2192.46,1107.49 2245.46,1119.82 2298.5,1132C 2327.48,1085.86 2355.82,1039.36 2383.5,992.5 Z"/></g>
<g><path style="opacity:0.991" fill="#db0c14" d="M 3863.5,992.5 C 3892.23,1038.94 3920.73,1085.6 3949,1132.5C 4002.08,1118.77 4055.24,1106.1 4108.5,1094.5C 4072.98,1135.52 4037.65,1176.69 4002.5,1218C 4031.29,1264.42 4059.96,1310.92 4088.5,1357.5C 4088.17,1357.83 4087.83,1358.17 4087.5,1358.5C 4037.61,1337.59 3987.78,1316.59 3938,1295.5C 3902.33,1337.17 3866.67,1378.83 3831,1420.5C 3834.53,1367.64 3838.7,1314.81 3843.5,1262C 3843.17,1260.5 3842.83,1259 3842.5,1257.5C 3792.17,1236.67 3741.83,1215.83 3691.5,1195C 3744.27,1181.73 3797.27,1169.23 3850.5,1157.5C 3854.58,1102.43 3858.92,1047.43 3863.5,992.5 Z"/></g>
<g><path style="opacity:0.989" fill="#db0c14" d="M 1725.5,1030.5 C 1736.87,1030.21 1748.21,1030.71 1759.5,1032C 1791.89,1038.75 1824.23,1045.75 1856.5,1053C 1865.93,1059.62 1868.76,1068.45 1865,1079.5C 1863.26,1083.24 1860.76,1086.41 1857.5,1089C 1843.33,1096.92 1828.99,1104.59 1814.5,1112C 1792.9,1120.73 1770.57,1123.4 1747.5,1120C 1714.81,1113.13 1682.14,1106.13 1649.5,1099C 1639.38,1091.76 1636.55,1082.26 1641,1070.5C 1642.79,1067.7 1644.96,1065.2 1647.5,1063C 1661.01,1055.41 1674.67,1048.08 1688.5,1041C 1700.52,1035.93 1712.85,1032.43 1725.5,1030.5 Z"/></g>
<g><path style="opacity:0.989" fill="#db0c14" d="M 4611.5,1079.5 C 4617.56,1078.84 4623.23,1080 4628.5,1083C 4644.67,1096.5 4659.5,1111.33 4673,1127.5C 4683.23,1142.31 4689.9,1158.64 4693,1176.5C 4696.63,1209.49 4700.13,1242.49 4703.5,1275.5C 4702.41,1288.23 4695.41,1294.9 4682.5,1295.5C 4677.8,1295.07 4673.46,1293.57 4669.5,1291C 4653.97,1277.13 4639.47,1262.3 4626,1246.5C 4615.4,1230.71 4608.73,1213.37 4606,1194.5C 4602.68,1162.46 4599.18,1130.46 4595.5,1098.5C 4596.88,1088.68 4602.22,1082.35 4611.5,1079.5 Z"/></g>
<g><path style="opacity:0.989" fill="#db0c14" d="M 1596.5,1131.5 C 1635.33,1134.85 1674,1139.69 1712.5,1146C 1723.72,1150.26 1728.22,1158.43 1726,1170.5C 1724.76,1175.74 1721.93,1179.91 1717.5,1183C 1707,1189.42 1696.66,1196.08 1686.5,1203C 1664.08,1216.69 1639.75,1222.69 1613.5,1221C 1579.79,1216.61 1546.13,1211.95 1512.5,1207C 1501.46,1201.41 1497.63,1192.58 1501,1180.5C 1502.3,1176.73 1504.47,1173.56 1507.5,1171C 1521.66,1161.75 1536,1152.75 1550.5,1144C 1565.28,1137.31 1580.61,1133.14 1596.5,1131.5 Z"/></g>
<g><path style="opacity:0.989" fill="#db0c14" d="M 4748.5,1188.5 C 4754.89,1187.79 4760.89,1188.96 4766.5,1192C 4781.82,1206.65 4795.66,1222.48 4808,1239.5C 4817.26,1255.27 4822.92,1272.27 4825,1290.5C 4826.62,1325.16 4827.62,1359.83 4828,1394.5C 4823.45,1405.35 4815.28,1409.85 4803.5,1408C 4800.38,1406.94 4797.38,1405.61 4794.5,1404C 4785.33,1394.17 4776.17,1384.33 4767,1374.5C 4749.43,1354.15 4739.43,1330.48 4737,1303.5C 4735.56,1270.17 4734.56,1236.83 4734,1203.5C 4736.35,1195.98 4741.18,1190.98 4748.5,1188.5 Z"/></g>
<g><path style="opacity:0.989" fill="#db0c14" d="M 1464.5,1242.5 C 1503.59,1243.74 1542.59,1246.24 1581.5,1250C 1590.22,1254.93 1594.05,1262.43 1593,1272.5C 1591.93,1277.81 1589.43,1282.31 1585.5,1286C 1574.99,1293.42 1564.66,1301.09 1554.5,1309C 1527.58,1327.15 1497.91,1334.15 1465.5,1330C 1437.82,1328.14 1410.16,1326.14 1382.5,1324C 1371.63,1319.44 1367.13,1311.27 1369,1299.5C 1369.9,1294.94 1372.07,1291.1 1375.5,1288C 1388.55,1277.95 1401.89,1268.28 1415.5,1259C 1430.92,1250.36 1447.25,1244.86 1464.5,1242.5 Z"/></g>
<g><path style="opacity:0.99" fill="#db0c14" d="M 4880.5,1306.5 C 4887.18,1306.17 4893.18,1308 4898.5,1312C 4905.62,1321.46 4913.12,1330.62 4921,1339.5C 4940.43,1363.29 4949.6,1390.62 4948.5,1421.5C 4947.73,1453.18 4946.57,1484.85 4945,1516.5C 4939.68,1527.73 4930.85,1531.9 4918.5,1529C 4914.21,1527.6 4910.71,1525.1 4908,1521.5C 4896.03,1507.55 4885.03,1492.88 4875,1477.5C 4864.5,1458.17 4859.67,1437.51 4860.5,1415.5C 4861.38,1384.16 4862.55,1352.82 4864,1321.5C 4866.56,1313.1 4872.06,1308.1 4880.5,1306.5 Z"/></g>
<g><path style="opacity:0.993" fill="#db0c14" d="M 1345.5,1361.5 C 1381.5,1361.33 1417.5,1361.5 1453.5,1362C 1465.95,1367.74 1470.12,1377.24 1466,1390.5C 1464.44,1393.78 1462.27,1396.62 1459.5,1399C 1449.83,1407.33 1440.17,1415.67 1430.5,1424C 1412.85,1437.82 1392.85,1446.15 1370.5,1449C 1333.17,1449.67 1295.83,1449.67 1258.5,1449C 1250.06,1445.29 1245.72,1438.79 1245.5,1429.5C 1246.05,1425.31 1247.21,1421.31 1249,1417.5C 1260.5,1407.33 1272,1397.17 1283.5,1387C 1302.02,1373.11 1322.68,1364.61 1345.5,1361.5 Z"/></g>
<g><path style="opacity:0.984" fill="#db0c14" d="M 3080.5,1385.5 C 3497.71,1379.4 3870.38,1503.24 4198.5,1757C 4453.51,1959.73 4639.01,2213.56 4755,2518.5C 4861.78,2810.74 4889.78,3110.41 4839,3417.5C 4780.72,3744.34 4642.72,4031.34 4425,4278.5C 4175.96,4555.79 3868.79,4736.96 3503.5,4822C 3197.95,4888.26 2895.95,4874.93 2597.5,4782C 2255.25,4669.72 1973.08,4472.56 1751,4190.5C 1518.59,3887.67 1396.92,3544.34 1386,3160.5C 1380.84,2777.39 1487.84,2429.72 1707,2117.5C 1894.53,1857.31 2134.69,1661.81 2427.5,1531C 2635.8,1440.34 2853.47,1391.84 3080.5,1385.5 Z M 3079.5,1425.5 C 3486.8,1419.21 3850.8,1539.71 4171.5,1787C 4441.52,2001.38 4631.36,2272.55 4741,2600.5C 4835.65,2897.87 4848.98,3198.87 4781,3503.5C 4708.16,3810.62 4563.49,4077.28 4347,4303.5C 4090.99,4565.8 3781.49,4730.63 3418.5,4798C 3084.58,4854.45 2761.91,4816.45 2450.5,4684C 2131.59,4542.81 1877.76,4325.64 1689,4032.5C 1507.46,3742.71 1419.79,3426.37 1426,3083.5C 1438.05,2709.94 1557.38,2375.94 1784,2081.5C 1985.66,1825.57 2239.49,1640.74 2545.5,1527C 2718.23,1464.82 2896.23,1430.99 3079.5,1425.5 Z M 2380.5,1768.5 C 2400.31,1771.15 2409.81,1782.48 2409,1802.5C 2406.87,1810.3 2402.7,1816.8 2396.5,1822C 2388.58,1827.21 2380.41,1832.04 2372,1836.5C 2362.37,1820.08 2352.87,1803.58 2343.5,1787C 2354.57,1778.13 2366.91,1771.96 2380.5,1768.5 Z M 3879.5,1774.5 C 3873.08,1802.2 3866.58,1830.2 3860,1858.5C 3847.25,1850.87 3834.42,1843.37 3821.5,1836C 3842.14,1816.54 3861.47,1796.04 3879.5,1774.5 Z M 3089.5,1871.5 C 3388.55,1866.58 3656.22,1954.41 3892.5,2135C 4111.92,2308.25 4259.42,2530.09 4335,2800.5C 4403.8,3066.7 4388.8,3328.04 4290,3584.5C 4188.54,3833.61 4025.37,4031.78 3800.5,4179C 3540.71,4342.37 3258.21,4404.53 2953,4365.5C 2686.26,4325.87 2455.43,4214.37 2260.5,4031C 2040.17,3817.5 1912.67,3557.33 1878,3250.5C 1850.25,2944.83 1922.25,2665.5 2094,2412.5C 2252.47,2187.79 2461.63,2029.62 2721.5,1938C 2841.04,1897.8 2963.71,1875.63 3089.5,1871.5 Z M 4616.5,2717.5 C 4617.83,2717.5 4619.17,2717.5 4620.5,2717.5C 4622.97,2725.39 4625.14,2733.39 4627,2741.5C 4629.93,2753.14 4627.1,2762.97 4618.5,2771C 4606.55,2777.08 4596.05,2775.25 4587,2765.5C 4579.91,2754.18 4575.41,2741.84 4573.5,2728.5C 4588.05,2725.28 4602.39,2721.61 4616.5,2717.5 Z M 4537.5,2737.5 C 4543.62,2750.27 4546.12,2763.94 4545,2778.5C 4539.58,2797.96 4527.08,2805.13 4507.5,2800C 4499.5,2795.54 4493.67,2789.04 4490,2780.5C 4486.71,2771.02 4484.21,2761.36 4482.5,2751.5C 4501.14,2747.59 4519.47,2742.92 4537.5,2737.5 Z M 4581.5,2977.5 C 4609.38,2983.38 4637.38,2988.54 4665.5,2993C 4638.74,3001.75 4612.41,3011.59 4586.5,3022.5C 4585.72,3021.27 4585.22,3019.94 4585,3018.5C 4583.89,3004.82 4582.72,2991.15 4581.5,2977.5 Z M 4545.5,3477.5 C 4570.12,3491.82 4595.12,3505.65 4620.5,3519C 4591.87,3518.94 4563.2,3519.44 4534.5,3520.5C 4537.7,3506.03 4541.37,3491.7 4545.5,3477.5 Z M 1915.5,4019.5 C 1923.38,4020.11 1930.38,4022.94 1936.5,4028C 1943.88,4035.45 1950.55,4043.45 1956.5,4052C 1941.64,4063.69 1926.64,4075.19 1911.5,4086.5C 1898.51,4076.34 1890.51,4063.18 1887.5,4047C 1890.77,4031.56 1900.11,4022.39 1915.5,4019.5 Z"/></g>
<g><path style="opacity:0.99" fill="#db0c14" d="M 5002.5,1433.5 C 5009.11,1433.32 5014.95,1435.32 5020,1439.5C 5033.25,1456.76 5044.91,1475.1 5055,1494.5C 5062.71,1513.81 5065.38,1533.81 5063,1554.5C 5059.81,1585.18 5056.48,1615.85 5053,1646.5C 5048.17,1656.9 5040,1661.07 5028.5,1659C 5020.81,1655.97 5014.97,1650.81 5011,1643.5C 5002.61,1631.44 4994.61,1619.1 4987,1606.5C 4977.62,1586.88 4973.62,1566.21 4975,1544.5C 4978.27,1512.83 4981.6,1481.16 4985,1449.5C 4987.21,1440.12 4993.05,1434.78 5002.5,1433.5 Z"/></g>
<g><path style="opacity:0.991" fill="#db0c14" d="M 4622.5,1437.5 C 4631.47,1490.99 4640.14,1544.65 4648.5,1598.5C 4702.57,1607.32 4756.57,1616.32 4810.5,1625.5C 4762.5,1649.83 4714.5,1674.17 4666.5,1698.5C 4666.17,1699.5 4665.83,1700.5 4665.5,1701.5C 4674.52,1754.94 4682.85,1808.27 4690.5,1861.5C 4652.5,1822.67 4614,1784.33 4575,1746.5C 4527.77,1770.53 4480.6,1794.7 4433.5,1819C 4431.96,1820.19 4430.29,1820.52 4428.5,1820C 4453.5,1771.67 4478.5,1723.33 4503.5,1675C 4464.19,1636.69 4425.19,1598.03 4386.5,1559C 4439.9,1566.73 4493.24,1575.23 4546.5,1584.5C 4547.17,1584.17 4547.83,1583.83 4548.5,1583.5C 4573.18,1534.81 4597.85,1486.14 4622.5,1437.5 Z"/></g>
<g><path style="opacity:0.991" fill="#db0c14" d="M 1624.5,1438.5 C 1625.38,1438.37 1626.04,1438.7 1626.5,1439.5C 1650.24,1487.32 1674.24,1534.99 1698.5,1582.5C 1699.5,1582.83 1700.5,1583.17 1701.5,1583.5C 1754.94,1574.48 1808.27,1566.15 1861.5,1558.5C 1822.67,1596.5 1784.33,1635 1746.5,1674C 1770.53,1721.23 1794.7,1768.4 1819,1815.5C 1820.19,1817.04 1820.52,1818.71 1820,1820.5C 1771.67,1795.5 1723.33,1770.5 1675,1745.5C 1636.69,1784.81 1598.03,1823.81 1559,1862.5C 1566.73,1809.1 1575.23,1755.76 1584.5,1702.5C 1584.17,1701.83 1583.83,1701.17 1583.5,1700.5C 1534.68,1675.92 1486.01,1651.09 1437.5,1626C 1491.18,1617.5 1544.85,1609 1598.5,1600.5C 1607.63,1546.58 1616.3,1492.58 1624.5,1438.5 Z"/></g>
<g><path style="opacity:0.99" fill="#db0c14" d="M 1325.5,1482.5 C 1340.33,1481.75 1348.66,1488.75 1350.5,1503.5C 1350.06,1508.2 1348.56,1512.54 1346,1516.5C 1334.8,1528.03 1323.3,1539.2 1311.5,1550C 1295.17,1563.5 1276.5,1572.16 1255.5,1576C 1221.87,1578.97 1188.2,1581.47 1154.5,1583.5C 1144.95,1584.77 1138.12,1581.1 1134,1572.5C 1131.51,1564.81 1132.18,1557.47 1136,1550.5C 1146.83,1539.67 1157.67,1528.83 1168.5,1518C 1186.15,1503.01 1206.48,1493.68 1229.5,1490C 1261.66,1487.6 1293.66,1485.1 1325.5,1482.5 Z"/></g>
<g><path style="opacity:0.97" fill="#db0c14" d="M 3387.5,1507.5 C 3409.83,1506.33 3418.66,1516.66 3414,1538.5C 3407.17,1550.33 3397.33,1553.83 3384.5,1549C 3373.66,1542.81 3369.82,1533.64 3373,1521.5C 3375.77,1514.56 3380.61,1509.89 3387.5,1507.5 Z"/></g>
<g><path style="opacity:0.987" fill="#db0c14" d="M 3117.5,1537.5 C 3171.87,1539.72 3226.2,1542.39 3280.5,1545.5C 3280.2,1559.17 3279.87,1572.83 3279.5,1586.5C 3260.18,1585.31 3240.85,1584.31 3221.5,1583.5C 3218.6,1640.49 3215.93,1697.49 3213.5,1754.5C 3197.18,1753.47 3180.84,1752.47 3164.5,1751.5C 3167.2,1694.83 3169.7,1638.16 3172,1581.5C 3153.58,1580.09 3135.08,1579.09 3116.5,1578.5C 3116.8,1564.83 3117.13,1551.17 3117.5,1537.5 Z"/></g>
<g><path style="opacity:0.986" fill="#db0c14" d="M 3026.5,1540.5 C 3027.5,1540.5 3028.5,1540.5 3029.5,1540.5C 3030.57,1553.87 3031.9,1567.2 3033.5,1580.5C 3006.53,1583.46 2979.53,1586.3 2952.5,1589C 2951.92,1589.89 2951.59,1590.89 2951.5,1592C 2953.13,1605.14 2954.46,1618.31 2955.5,1631.5C 2981.54,1629.1 3007.54,1626.43 3033.5,1623.5C 3034.28,1636.77 3035.61,1649.93 3037.5,1663C 3011.48,1665.87 2985.48,1668.87 2959.5,1672C 2961.49,1688.1 2963.33,1704.26 2965,1720.5C 2993.74,1717.01 3022.57,1714.01 3051.5,1711.5C 3052.37,1724.56 3053.71,1737.56 3055.5,1750.5C 3012.24,1755.69 2968.9,1760.36 2925.5,1764.5C 2923.36,1764.39 2921.53,1763.72 2920,1762.5C 2912.73,1693.13 2905.73,1623.8 2899,1554.5C 2941.61,1549.92 2984.11,1545.26 3026.5,1540.5 Z"/></g>
<g><path style="opacity:0.985" fill="#db0c14" d="M 3364.5,1557.5 C 3380.45,1560.38 3396.45,1563.05 3412.5,1565.5C 3400.7,1635.14 3389.04,1704.81 3377.5,1774.5C 3361.04,1772.31 3344.7,1769.48 3328.5,1766C 3340.45,1696.49 3352.45,1626.99 3364.5,1557.5 Z"/></g>
<g><path style="opacity:0.983" fill="#db0c14" d="M 2805.5,1568.5 C 2807.17,1568.5 2808.83,1568.5 2810.5,1568.5C 2799,1614.15 2787,1659.65 2774.5,1705C 2782.08,1733.17 2789.75,1761.33 2797.5,1789.5C 2782.87,1794.58 2767.87,1798.91 2752.5,1802.5C 2750.22,1802.22 2749.05,1800.89 2749,1798.5C 2742.16,1772.12 2735.16,1745.79 2728,1719.5C 2696.02,1684.68 2663.85,1650.02 2631.5,1615.5C 2649.62,1609.89 2667.96,1605.39 2686.5,1602C 2706.12,1627.41 2725.62,1652.91 2745,1678.5C 2748.76,1646.1 2752.92,1613.77 2757.5,1581.5C 2773.77,1577.77 2789.77,1573.43 2805.5,1568.5 Z"/></g>
<g><path style="opacity:0.99" fill="#db0c14" d="M 5109.5,1569.5 C 5119.95,1567.26 5128.45,1570.26 5135,1578.5C 5143,1592.5 5151,1606.5 5159,1620.5C 5168.4,1641.55 5171.73,1663.55 5169,1686.5C 5163.55,1718.54 5157.88,1750.54 5152,1782.5C 5148.79,1791.52 5142.29,1796.19 5132.5,1796.5C 5125.22,1796.24 5119.39,1793.24 5115,1787.5C 5109.06,1776.57 5102.73,1765.91 5096,1755.5C 5082.06,1730.86 5077.06,1704.53 5081,1676.5C 5086.33,1645.83 5091.67,1615.17 5097,1584.5C 5098.48,1577.19 5102.65,1572.19 5109.5,1569.5 Z"/></g>
<g><path style="opacity:0.971" fill="#db0c14" d="M 2512.5,1602.5 C 2531.79,1602.62 2540.29,1612.29 2538,1631.5C 2533.1,1643.21 2524.26,1648.04 2511.5,1646C 2497.85,1641.2 2492.68,1631.7 2496,1617.5C 2499.2,1609.79 2504.7,1604.79 2512.5,1602.5 Z"/></g>
<g><path style="opacity:0.989" fill="#db0c14" d="M 1217.5,1611.5 C 1230.09,1610.7 1237.92,1616.37 1241,1628.5C 1241.66,1632.57 1241.32,1636.57 1240,1640.5C 1230.57,1652.35 1220.91,1664.02 1211,1675.5C 1194.67,1692.25 1175.17,1703.75 1152.5,1710C 1117.54,1715.4 1082.54,1720.57 1047.5,1725.5C 1035.41,1723.75 1028.75,1716.75 1027.5,1704.5C 1027.94,1699.76 1029.44,1695.43 1032,1691.5C 1042.5,1679.67 1053,1667.83 1063.5,1656C 1078.41,1642.21 1095.74,1632.54 1115.5,1627C 1149.62,1621.68 1183.62,1616.51 1217.5,1611.5 Z"/></g>
<g><path style="opacity:0.984" fill="#db0c14" d="M 3635.5,1631.5 C 3669.7,1629.62 3700.04,1639.46 3726.5,1661C 3728.68,1663.02 3730.68,1665.18 3732.5,1667.5C 3724.73,1678.72 3716.73,1689.72 3708.5,1700.5C 3696.41,1688.12 3682.08,1679.28 3665.5,1674C 3654.54,1670.31 3645.04,1672.48 3637,1680.5C 3633.03,1688.8 3634.03,1696.47 3640,1703.5C 3650.73,1714.9 3662.06,1725.57 3674,1735.5C 3700.34,1763.22 3702.34,1792.55 3680,1823.5C 3662.88,1840.21 3642.38,1846.71 3618.5,1843C 3590.93,1838.88 3566.26,1828.21 3544.5,1811C 3541.45,1808.29 3538.78,1805.29 3536.5,1802C 3543.6,1790.41 3551.27,1779.24 3559.5,1768.5C 3573.52,1782.52 3589.85,1793.02 3608.5,1800C 3617.7,1803.63 3626.7,1803.29 3635.5,1799C 3645.21,1791.16 3647.04,1781.66 3641,1770.5C 3632.85,1760.69 3623.68,1751.85 3613.5,1744C 3601.92,1733.42 3593.08,1720.92 3587,1706.5C 3580.02,1666.46 3596.18,1641.46 3635.5,1631.5 Z"/></g>
<g><path style="opacity:0.984" fill="#db0c14" d="M 2549.5,1646.5 C 2552.05,1646.56 2553.55,1647.89 2554,1650.5C 2579.97,1714.28 2605.8,1778.11 2631.5,1842C 2631.09,1842.95 2630.43,1843.61 2629.5,1844C 2615.16,1849.45 2600.99,1855.28 2587,1861.5C 2559.98,1796.1 2533.14,1730.6 2506.5,1665C 2520.89,1658.8 2535.23,1652.63 2549.5,1646.5 Z"/></g>
<g><path style="opacity:0.99" fill="#db0c14" d="M 5214.5,1711.5 C 5223.02,1710.75 5230.18,1713.41 5236,1719.5C 5246.29,1737.42 5254.96,1756.08 5262,1775.5C 5267.15,1795.01 5267.81,1814.67 5264,1834.5C 5256.16,1866.21 5248.16,1897.88 5240,1929.5C 5233.38,1938.93 5224.55,1941.76 5213.5,1938C 5210.1,1936.6 5207.26,1934.43 5205,1931.5C 5194.09,1912.69 5185.09,1893.02 5178,1872.5C 5173.77,1853.91 5173.44,1835.24 5177,1816.5C 5184.67,1785.83 5192.33,1755.17 5200,1724.5C 5202.53,1717.5 5207.37,1713.17 5214.5,1711.5 Z"/></g>
<g><path style="opacity:0.985" fill="#db0c14" d="M 2388.5,1726.5 C 2417.2,1724.26 2437.37,1736.26 2449,1762.5C 2455.89,1783.37 2452.72,1802.54 2439.5,1820C 2451.85,1819.67 2462.85,1823.34 2472.5,1831C 2491.04,1848.71 2509.37,1866.54 2527.5,1884.5C 2513.33,1893.09 2499,1901.42 2484.5,1909.5C 2481.03,1907.19 2477.69,1904.69 2474.5,1902C 2461.47,1889.3 2448.8,1876.3 2436.5,1863C 2427.84,1855.44 2418.17,1853.78 2407.5,1858C 2401.18,1860.83 2395.18,1864.16 2389.5,1868C 2402.84,1891.68 2416.17,1915.35 2429.5,1939C 2427.97,1941.12 2425.97,1942.78 2423.5,1944C 2411.83,1950.5 2400.17,1957 2388.5,1963.5C 2353.8,1903.26 2319.46,1842.76 2285.5,1782C 2309.77,1762.18 2336.44,1745.84 2365.5,1733C 2373.16,1730.34 2380.83,1728.17 2388.5,1726.5 Z M 2380.5,1768.5 C 2366.91,1771.96 2354.57,1778.13 2343.5,1787C 2352.87,1803.58 2362.37,1820.08 2372,1836.5C 2380.41,1832.04 2388.58,1827.21 2396.5,1822C 2402.7,1816.8 2406.87,1810.3 2409,1802.5C 2409.81,1782.48 2400.31,1771.15 2380.5,1768.5 Z"/></g>
<g><path style="opacity:0.985" fill="#db0c14" d="M 3872.5,1726.5 C 3891.8,1736.15 3910.47,1746.81 3928.5,1758.5C 3912.97,1830.63 3897.14,1902.63 3881,1974.5C 3866.17,1966.42 3851.5,1958.09 3837,1949.5C 3839.99,1931.05 3843.82,1912.71 3848.5,1894.5C 3831.56,1884.45 3814.39,1874.78 3797,1865.5C 3783.36,1878.31 3769.86,1891.31 3756.5,1904.5C 3741.97,1896.4 3727.63,1888.07 3713.5,1879.5C 3766.34,1828.26 3819.34,1777.26 3872.5,1726.5 Z M 3879.5,1774.5 C 3861.47,1796.04 3842.14,1816.54 3821.5,1836C 3834.42,1843.37 3847.25,1850.87 3860,1858.5C 3866.58,1830.2 3873.08,1802.2 3879.5,1774.5 Z"/></g>
<g><path style="opacity:0.989" fill="#db0c14" d="M 1120.5,1747.5 C 1138.01,1750.2 1144.51,1760.2 1140,1777.5C 1128.35,1795.15 1115.19,1811.65 1100.5,1827C 1086.03,1839.07 1069.69,1847.74 1051.5,1853C 1020.17,1859.67 988.833,1866.33 957.5,1873C 943.3,1873.64 935.3,1866.81 933.5,1852.5C 933.926,1847.8 935.426,1843.46 938,1839.5C 947.333,1827.5 956.667,1815.5 966,1803.5C 981.357,1787.06 999.857,1775.56 1021.5,1769C 1054.64,1761.87 1087.64,1754.71 1120.5,1747.5 Z"/></g>
<g><path style="opacity:0.984" fill="#db0c14" d="M 3099.5,1832.5 C 3406.14,1829.99 3680.14,1921.82 3921.5,2108C 4145.3,2286.59 4295.8,2514.42 4373,2791.5C 4439.05,3047.74 4429.38,3301.08 4344,3551.5C 4248.82,3815.28 4086.66,4027.45 3857.5,4188C 3598.03,4363.46 3311.69,4437.46 2998.5,4410C 2706.37,4378.39 2453.37,4263.39 2239.5,4065C 2012.92,3848 1880.08,3582.83 1841,3269.5C 1809.58,2965.88 1874.91,2685.22 2037,2427.5C 2192.38,2189.82 2402.54,2019.32 2667.5,1916C 2806.88,1863.69 2950.88,1835.86 3099.5,1832.5 Z M 3089.5,1871.5 C 2963.71,1875.63 2841.04,1897.8 2721.5,1938C 2461.63,2029.62 2252.47,2187.79 2094,2412.5C 1922.25,2665.5 1850.25,2944.83 1878,3250.5C 1912.67,3557.33 2040.17,3817.5 2260.5,4031C 2455.43,4214.37 2686.26,4325.87 2953,4365.5C 3258.21,4404.53 3540.71,4342.37 3800.5,4179C 4025.37,4031.78 4188.54,3833.61 4290,3584.5C 4388.8,3328.04 4403.8,3066.7 4335,2800.5C 4259.42,2530.09 4111.92,2308.25 3892.5,2135C 3656.22,1954.41 3388.55,1866.58 3089.5,1871.5 Z"/></g>
<g><path style="opacity:0.969" fill="#db0c14" d="M 4133.5,1834.5 C 4140.46,1839.62 4147.29,1844.95 4154,1850.5C 4149.79,1859.59 4151.63,1867.42 4159.5,1874C 4167.31,1880.76 4175.14,1880.93 4183,1874.5C 4189.31,1879.31 4195.48,1884.31 4201.5,1889.5C 4202.58,1890.36 4202.75,1891.36 4202,1892.5C 4189.3,1906.47 4174.13,1909.97 4156.5,1903C 4144.05,1896.54 4134.21,1887.38 4127,1875.5C 4122.87,1866.62 4122.54,1857.62 4126,1848.5C 4128.27,1843.62 4130.77,1838.95 4133.5,1834.5 Z"/></g>
<g><path style="opacity:0.984" fill="#db0c14" d="M 2191.5,1840.5 C 2218.55,1872.91 2245.39,1905.58 2272,1938.5C 2309.43,1993.11 2300.26,2038.28 2244.5,2074C 2219.33,2088.89 2193.99,2089.23 2168.5,2075C 2155.18,2066.24 2143.34,2055.74 2133,2043.5C 2107.64,2012.31 2082.48,1980.98 2057.5,1949.5C 2070.15,1939.36 2082.65,1929.02 2095,1918.5C 2121,1950.5 2147,1982.5 2173,2014.5C 2180.71,2023.89 2189.88,2031.39 2200.5,2037C 2220.19,2043.21 2235.36,2037.38 2246,2019.5C 2250.17,2010.65 2250.5,2001.65 2247,1992.5C 2243.23,1983.08 2238.23,1974.41 2232,1966.5C 2206.05,1934.76 2180.21,1902.92 2154.5,1871C 2166.73,1860.59 2179.06,1850.42 2191.5,1840.5 Z"/></g>
<g><path style="opacity:0.989" fill="#db0c14" d="M 5303.5,1861.5 C 5314.03,1859.29 5322.53,1862.29 5329,1870.5C 5336.5,1886.49 5343.16,1902.83 5349,1919.5C 5355,1941.83 5355,1964.17 5349,1986.5C 5339.33,2016.17 5329.67,2045.83 5320,2075.5C 5315.24,2086.13 5307.08,2090.3 5295.5,2088C 5289.54,2086.38 5285.04,2082.88 5282,2077.5C 5275.11,2061.72 5268.78,2045.72 5263,2029.5C 5257.47,2008.91 5257.14,1988.25 5262,1967.5C 5272.27,1934.7 5282.93,1902.03 5294,1869.5C 5296.77,1866.22 5299.94,1863.55 5303.5,1861.5 Z"/></g>
<g><path style="opacity:0.984" fill="#db0c14" d="M 4052.5,1877.5 C 4079.03,1875.47 4103.69,1881.3 4126.5,1895C 4151.02,1910.02 4170.69,1929.86 4185.5,1954.5C 4175.23,1962.97 4164.56,1970.97 4153.5,1978.5C 4143.18,1962.01 4130.18,1947.84 4114.5,1936C 4079.7,1913.83 4049.2,1918.66 4023,1950.5C 3995.59,1990.8 4002.09,2024.63 4042.5,2052C 4045.35,2053.53 4048.19,2055.03 4051,2056.5C 4060.17,2045.33 4069.33,2034.17 4078.5,2023C 4070.17,2016 4061.83,2009 4053.5,2002C 4061.31,1992.02 4069.31,1982.19 4077.5,1972.5C 4098.3,1988.88 4118.63,2005.72 4138.5,2023C 4115.75,2052.42 4092.25,2081.26 4068,2109.5C 4031.83,2096.31 4001.5,2074.98 3977,2045.5C 3948.64,2002.94 3949.97,1961.28 3981,1920.5C 3999.24,1896.8 4023.08,1882.46 4052.5,1877.5 Z"/></g>
<g><path style="opacity:0.989" fill="#db0c14" d="M 1028.5,1890.5 C 1042.93,1890.43 1050.93,1897.59 1052.5,1912C 1051.87,1914.14 1051.37,1916.3 1051,1918.5C 1042.76,1932.41 1034.09,1946.08 1025,1959.5C 1011.7,1976.47 995.195,1989.31 975.5,1998C 940.486,2008.71 905.32,2018.88 870,2028.5C 855.099,2025.59 848.765,2016.59 851,2001.5C 859.237,1986.69 868.237,1972.36 878,1958.5C 891.64,1940.93 908.807,1928.1 929.5,1920C 962.583,1910.02 995.583,1900.19 1028.5,1890.5 Z"/></g>
<g><path style="opacity:0.989" fill="#db0c14" d="M 5387.5,2016.5 C 5398.73,2015.2 5406.9,2019.53 5412,2029.5C 5417.6,2044.64 5422.6,2059.97 5427,2075.5C 5432.24,2098.87 5430.91,2121.87 5423,2144.5C 5411.06,2173.39 5399.39,2202.39 5388,2231.5C 5384.21,2238.73 5378.21,2242.73 5370,2243.5C 5360.82,2242.92 5354.15,2238.58 5350,2230.5C 5344.79,2215.22 5339.79,2199.88 5335,2184.5C 5329.81,2161.9 5330.81,2139.56 5338,2117.5C 5350.39,2086.39 5363.06,2055.39 5376,2024.5C 5378.95,2020.35 5382.79,2017.68 5387.5,2016.5 Z"/></g>
<g><path style="opacity:0.984" fill="#db0c14" d="M 1974.5,2029.5 C 1975.55,2029.35 1976.55,2029.52 1977.5,2030C 2030.54,2075.51 2083.54,2121.01 2136.5,2166.5C 2126.54,2179.13 2116.21,2191.46 2105.5,2203.5C 2082.85,2184.69 2060.35,2165.69 2038,2146.5C 2021.14,2165.72 2004.64,2185.22 1988.5,2205C 1990.5,2207 1992.5,2209 1994.5,2211C 2014.97,2227.63 2034.97,2244.8 2054.5,2262.5C 2044.54,2275.13 2034.21,2287.46 2023.5,2299.5C 1969.37,2254.21 1915.71,2208.37 1862.5,2162C 1872.4,2149.06 1882.9,2136.56 1894,2124.5C 1914.06,2142.4 1934.56,2159.73 1955.5,2176.5C 1972.32,2157.51 1988.99,2138.34 2005.5,2119C 1984.99,2101.32 1964.66,2083.49 1944.5,2065.5C 1954.51,2053.47 1964.51,2041.47 1974.5,2029.5 Z"/></g>
<g><path style="opacity:0.983" fill="#db0c14" d="M 4271.5,2029.5 C 4282.1,2039.97 4292.27,2050.97 4302,2062.5C 4303.29,2064.05 4303.96,2065.72 4304,2067.5C 4261.36,2104.3 4219.2,2141.64 4177.5,2179.5C 4195.33,2200.49 4213.33,2221.33 4231.5,2242C 4222.17,2251.84 4212.17,2261.01 4201.5,2269.5C 4172.2,2236.53 4142.86,2203.53 4113.5,2170.5C 4166.19,2123.48 4218.85,2076.48 4271.5,2029.5 Z"/></g>
<g><path style="opacity:0.989" fill="#db0c14" d="M 949.5,2039.5 C 965.755,2040.59 973.255,2049.26 972,2065.5C 964.189,2081.12 955.856,2096.45 947,2111.5C 933.703,2130.79 916.203,2144.96 894.5,2154C 864.167,2165 833.833,2176 803.5,2187C 789.99,2189.15 781.49,2183.65 778,2170.5C 777.39,2166.76 777.723,2163.1 779,2159.5C 787.242,2143.34 796.242,2127.68 806,2112.5C 818.403,2096.06 833.903,2083.56 852.5,2075C 884.905,2063.04 917.238,2051.2 949.5,2039.5 Z"/></g>
<g><path style="opacity:0.984" fill="#db0c14" d="M 3190.5,2044.5 C 3191.24,2044.37 3191.91,2044.54 3192.5,2045C 3183.83,2071.67 3175.17,2098.33 3166.5,2125C 3189.5,2141.33 3212.5,2157.67 3235.5,2174C 3208.83,2174.33 3182.17,2174.67 3155.5,2175C 3153.74,2175.2 3152.08,2175.7 3150.5,2176.5C 3142.45,2203.03 3133.95,2229.36 3125,2255.5C 3115.87,2229.27 3107.03,2202.93 3098.5,2176.5C 3070.49,2175.8 3042.49,2175.47 3014.5,2175.5C 3037.01,2158.74 3059.35,2141.74 3081.5,2124.5C 3071.87,2098.44 3063.37,2072.1 3056,2045.5C 3078.84,2061.59 3101.51,2077.92 3124,2094.5C 3146.32,2077.93 3168.49,2061.27 3190.5,2044.5 Z"/></g>
<g><path style="opacity:0.991" fill="#db0c14" d="M 5153.5,2139.5 C 5154.12,2139.92 5154.46,2140.58 5154.5,2141.5C 5141.19,2193.72 5128.69,2246.05 5117,2298.5C 5163.25,2327.38 5209.75,2355.88 5256.5,2384C 5202.23,2388.69 5147.9,2393.19 5093.5,2397.5C 5080.67,2450.83 5067.83,2504.16 5055,2557.5C 5033.95,2507.39 5013.45,2457.06 4993.5,2406.5C 4939.12,2410.27 4884.79,2414.61 4830.5,2419.5C 4829.83,2419.17 4829.17,2418.83 4828.5,2418.5C 4867.8,2384.52 4907.46,2351.02 4947.5,2318C 4949.56,2316.28 4951.22,2314.28 4952.5,2312C 4931.64,2261.78 4910.64,2211.61 4889.5,2161.5C 4890,2160.48 4890.67,2160.31 4891.5,2161C 4937.25,2189.63 4983.08,2218.13 5029,2246.5C 5070.69,2210.97 5112.19,2175.3 5153.5,2139.5 Z"/></g>
<g><path style="opacity:0.991" fill="#db0c14" d="M 1093.5,2140.5 C 1095.93,2141.75 1098.27,2143.25 1100.5,2145C 1139.67,2178.83 1178.83,2212.67 1218,2246.5C 1264.42,2217.71 1310.92,2189.04 1357.5,2160.5C 1357.83,2160.83 1358.17,2161.17 1358.5,2161.5C 1337.59,2211.39 1316.59,2261.22 1295.5,2311C 1337.17,2346.67 1378.83,2382.33 1420.5,2418C 1367.64,2414.47 1314.81,2410.3 1262,2405.5C 1260.5,2405.83 1259,2406.17 1257.5,2406.5C 1236.67,2456.83 1215.83,2507.17 1195,2557.5C 1181.73,2504.73 1169.23,2451.73 1157.5,2398.5C 1102.35,2394.58 1047.35,2390.08 992.5,2385C 1039.17,2356.67 1085.83,2328.33 1132.5,2300C 1119.11,2246.95 1106.11,2193.78 1093.5,2140.5 Z"/></g>
<g><path style="opacity:0.989" fill="#db0c14" d="M 5456.5,2177.5 C 5468.99,2175.49 5477.83,2180.16 5483,2191.5C 5487.47,2207.72 5491.47,2224.06 5495,2240.5C 5497.85,2262.52 5495.18,2283.85 5487,2304.5C 5472.33,2334.5 5457.67,2364.5 5443,2394.5C 5437.24,2401.04 5430.08,2403.2 5421.5,2401C 5416.76,2399.88 5412.93,2397.38 5410,2393.5C 5400.96,2370.18 5395.46,2346.02 5393.5,2321C 5393.77,2305.67 5396.6,2290.84 5402,2276.5C 5417,2245.83 5432,2215.17 5447,2184.5C 5449.82,2181.52 5452.99,2179.19 5456.5,2177.5 Z"/></g>
<g><path style="opacity:0.988" fill="#db0c14" d="M 880.5,2193.5 C 897.251,2194.75 904.751,2203.75 903,2220.5C 895.451,2237.93 887.118,2254.93 878,2271.5C 864.44,2290.72 846.94,2305.22 825.5,2315C 798.417,2326.81 771.417,2338.81 744.5,2351C 728.226,2354.57 718.892,2348.07 716.5,2331.5C 716.818,2328.04 717.652,2324.71 719,2321.5C 726.687,2303.4 735.687,2286.07 746,2269.5C 758.088,2253.89 772.922,2241.72 790.5,2233C 820.488,2219.52 850.488,2206.35 880.5,2193.5 Z"/></g>
<g><path style="opacity:0.983" fill="#db0c14" d="M 4409.5,2198.5 C 4411.02,2198.51 4412.18,2199.18 4413,2200.5C 4421.33,2212.5 4429.67,2224.5 4438,2236.5C 4438.67,2237.5 4438.67,2238.5 4438,2239.5C 4382.75,2277.88 4327.58,2316.38 4272.5,2355C 4269.97,2356.93 4267.3,2358.27 4264.5,2359C 4255.79,2346.41 4246.96,2333.91 4238,2321.5C 4237.33,2320.5 4237.33,2319.5 4238,2318.5C 4295.35,2278.64 4352.51,2238.64 4409.5,2198.5 Z"/></g>
<g><path style="opacity:0.99" fill="#db0c14" d="M 3003.5,2249.5 C 3004.24,2249.37 3004.91,2249.54 3005.5,2250C 2950.28,2299.66 2929.78,2361.16 2944,2434.5C 2966.05,2512.55 3016.89,2559.39 3096.5,2575C 3167.04,2582.94 3224.87,2559.78 3270,2505.5C 3310.47,2449.89 3319.14,2389.55 3296,2324.5C 3283.98,2295.15 3265.81,2270.32 3241.5,2250C 3243.29,2249.48 3244.96,2249.81 3246.5,2251C 3308.47,2290.72 3344.97,2347.22 3356,2420.5C 3364.74,2522.18 3326.24,2600.02 3240.5,2654C 3171.89,2690.53 3101.55,2694.2 3029.5,2665C 2951.74,2627.89 2905.9,2566.72 2892,2481.5C 2883.12,2394.47 2911.96,2322.97 2978.5,2267C 2986.9,2261.14 2995.23,2255.31 3003.5,2249.5 Z"/></g>
<g><path style="opacity:0.983" fill="#db0c14" d="M 1813.5,2322.5 C 1831.8,2339.97 1849.63,2357.97 1867,2376.5C 1887.71,2398.38 1908.21,2420.38 1928.5,2442.5C 1922.93,2453.99 1916.59,2464.99 1909.5,2475.5C 1856.78,2463.07 1804.44,2449.57 1752.5,2435C 1798.08,2463.04 1843.58,2491.21 1889,2519.5C 1882.59,2532.97 1875.59,2546.3 1868,2559.5C 1808.7,2521.7 1749.53,2483.7 1690.5,2445.5C 1689.42,2444.64 1689.25,2443.64 1690,2442.5C 1699.83,2424.83 1709.67,2407.17 1719.5,2389.5C 1720.17,2389.17 1720.83,2388.83 1721.5,2388.5C 1769.78,2398.32 1817.45,2410.15 1864.5,2424C 1845.33,2405.5 1826.17,2387 1807,2368.5C 1791.17,2351.33 1775.33,2334.17 1759.5,2317C 1769.63,2298.56 1780.13,2280.39 1791,2262.5C 1854.68,2292.92 1918.18,2323.76 1981.5,2355C 1973.86,2369.11 1965.86,2382.95 1957.5,2396.5C 1909.13,2372.32 1861.13,2347.65 1813.5,2322.5 Z"/></g>
<g><path style="opacity:0.984" fill="#db0c14" d="M 4494.5,2325.5 C 4502.9,2339.29 4510.57,2353.63 4517.5,2368.5C 4490.5,2382.67 4463.5,2396.83 4436.5,2411C 4473.19,2415 4509.86,2419.34 4546.5,2424C 4555.63,2441.09 4564.63,2458.25 4573.5,2475.5C 4572.67,2475.83 4571.83,2476.17 4571,2476.5C 4534.5,2469.61 4498,2463.11 4461.5,2457C 4437.38,2497.42 4412.88,2537.58 4388,2577.5C 4378.91,2560.99 4370.08,2544.33 4361.5,2527.5C 4380.17,2498.5 4398.83,2469.5 4417.5,2440.5C 4409.02,2438.44 4400.52,2436.44 4392,2434.5C 4371.19,2444.9 4350.53,2455.57 4330,2466.5C 4322.12,2452.57 4314.62,2438.4 4307.5,2424C 4369.89,2391.14 4432.23,2358.3 4494.5,2325.5 Z"/></g>
<g><path style="opacity:0.989" fill="#db0c14" d="M 5516.5,2342.5 C 5528.88,2341.26 5537.38,2346.26 5542,2357.5C 5546.4,2376.98 5549.56,2396.65 5551.5,2416.5C 5551.05,2439.01 5545.22,2460.01 5534,2479.5C 5519.33,2504.83 5504.67,2530.17 5490,2555.5C 5478.84,2567.44 5467.5,2567.44 5456,2555.5C 5455,2553.5 5454,2551.5 5453,2549.5C 5448.54,2529.86 5445.37,2510.03 5443.5,2490C 5443.96,2467.65 5449.8,2446.81 5461,2427.5C 5476.59,2401.33 5491.92,2375 5507,2348.5C 5509.84,2345.84 5513.01,2343.84 5516.5,2342.5 Z"/></g>
<g><path style="opacity:0.989" fill="#db0c14" d="M 819.5,2352.5 C 834.915,2351.02 843.582,2357.85 845.5,2373C 840.631,2390.58 834.464,2407.75 827,2424.5C 817.075,2443.43 803.242,2458.93 785.5,2471C 755.084,2487.74 724.418,2504.07 693.5,2520C 675.021,2521.52 666.521,2513.02 668,2494.5C 674.114,2475.48 681.781,2457.15 691,2439.5C 701.5,2423.67 714.667,2410.5 730.5,2400C 760.228,2384.14 789.895,2368.3 819.5,2352.5 Z"/></g>
<g><path style="opacity:0.99" fill="#db0c14" d="M 5564.5,2511.5 C 5575.94,2510.63 5584.11,2515.3 5589,2525.5C 5593.39,2548.31 5595.06,2571.31 5594,2594.5C 5591.59,2613.31 5585.26,2630.64 5575,2646.5C 5558.33,2671.17 5541.67,2695.83 5525,2720.5C 5514.77,2731.73 5503.77,2732.4 5492,2722.5C 5489.16,2718.64 5487.49,2714.31 5487,2709.5C 5483.35,2688.97 5482.02,2668.31 5483,2647.5C 5485.13,2630.44 5490.47,2614.44 5499,2599.5C 5517.88,2570.9 5537.38,2542.73 5557.5,2515C 5559.93,2513.79 5562.26,2512.62 5564.5,2511.5 Z"/></g>
<g><path style="opacity:0.988" fill="#db0c14" d="M 773.5,2514.5 C 791.741,2514.3 799.908,2523.3 798,2541.5C 794.155,2554.55 790.155,2567.55 786,2580.5C 777.491,2602.67 763.991,2621.17 745.5,2636C 716.833,2654 688.167,2672 659.5,2690C 646.874,2694.97 637.374,2691.47 631,2679.5C 629.637,2675.24 629.304,2670.91 630,2666.5C 634.6,2650.7 639.6,2635.03 645,2619.5C 653.354,2600.14 665.854,2583.98 682.5,2571C 712.595,2551.63 742.928,2532.79 773.5,2514.5 Z"/></g>
<g><path style="opacity:0.986" fill="#db0c14" d="M 1641.5,2558.5 C 1684.24,2572.02 1726.9,2585.86 1769.5,2600C 1822.22,2623.77 1838.06,2662.94 1817,2717.5C 1799.83,2758.18 1769.33,2774.34 1725.5,2766C 1680.17,2753.28 1635.17,2739.45 1590.5,2724.5C 1590.17,2723.83 1589.83,2723.17 1589.5,2722.5C 1593.81,2707.07 1598.97,2692.07 1605,2677.5C 1641.83,2689.33 1678.67,2701.17 1715.5,2713C 1728.11,2717.71 1741.11,2719.71 1754.5,2719C 1773.89,2714.76 1784.22,2702.59 1785.5,2682.5C 1783.88,2669.04 1777.21,2658.87 1765.5,2652C 1759.95,2649.06 1754.29,2646.39 1748.5,2644C 1708.53,2631.06 1668.53,2618.23 1628.5,2605.5C 1627.39,2604.28 1627.22,2602.94 1628,2601.5C 1632.61,2587.18 1637.11,2572.85 1641.5,2558.5 Z"/></g>
<g><path style="opacity:0.986" fill="#db0c14" d="M 4635.5,2662.5 C 4637.17,2662.5 4638.83,2662.5 4640.5,2662.5C 4651.78,2690.93 4659.94,2720.27 4665,2750.5C 4668.1,2769.99 4664.44,2787.99 4654,2804.5C 4636.41,2822.68 4616.25,2826.18 4593.5,2815C 4586.67,2810.83 4581.17,2805.33 4577,2798.5C 4571.2,2839.62 4547.7,2857.12 4506.5,2851C 4489.74,2845.23 4476.9,2834.73 4468,2819.5C 4460.24,2805.21 4454.24,2790.21 4450,2774.5C 4444.61,2754.74 4440.45,2734.74 4437.5,2714.5C 4441.62,2712.55 4445.96,2711.05 4450.5,2710C 4512.41,2694.61 4574.08,2678.77 4635.5,2662.5 Z M 4616.5,2717.5 C 4602.39,2721.61 4588.05,2725.28 4573.5,2728.5C 4575.41,2741.84 4579.91,2754.18 4587,2765.5C 4596.05,2775.25 4606.55,2777.08 4618.5,2771C 4627.1,2762.97 4629.93,2753.14 4627,2741.5C 4625.14,2733.39 4622.97,2725.39 4620.5,2717.5C 4619.17,2717.5 4617.83,2717.5 4616.5,2717.5 Z M 4537.5,2737.5 C 4519.47,2742.92 4501.14,2747.59 4482.5,2751.5C 4484.21,2761.36 4486.71,2771.02 4490,2780.5C 4493.67,2789.04 4499.5,2795.54 4507.5,2800C 4527.08,2805.13 4539.58,2797.96 4545,2778.5C 4546.12,2763.94 4543.62,2750.27 4537.5,2737.5 Z"/></g>
<g><path style="opacity:0.988" fill="#db0c14" d="M 737.5,2679.5 C 752.761,2678.43 761.427,2685.43 763.5,2700.5C 760.098,2719.11 755.598,2737.44 750,2755.5C 742.351,2775.65 730.184,2792.48 713.5,2806C 686.833,2825.33 660.167,2844.67 633.5,2864C 616.908,2868.36 606.908,2862.03 603.5,2845C 607.285,2826.69 611.785,2808.53 617,2790.5C 625.233,2769.6 638.066,2752.1 655.5,2738C 682.758,2718.22 710.092,2698.72 737.5,2679.5 Z"/></g>
<g><path style="opacity:0.989" fill="#db0c14" d="M 5599.5,2683.5 C 5612.28,2682.14 5620.78,2687.47 5625,2699.5C 5625.92,2714.33 5626.75,2729.16 5627.5,2744C 5627.36,2769.39 5620.2,2792.56 5606,2813.5C 5585.76,2838.99 5565.76,2864.65 5546,2890.5C 5536.92,2897.94 5527.42,2898.44 5517.5,2892C 5511.64,2886.08 5509.14,2878.91 5510,2870.5C 5507.81,2850.44 5508.14,2830.44 5511,2810.5C 5514.99,2791.52 5522.99,2774.52 5535,2759.5C 5553.38,2736.79 5571.38,2713.79 5589,2690.5C 5592,2687.26 5595.5,2684.93 5599.5,2683.5 Z"/></g>
<g><path style="opacity:0.993" fill="#db0c14" d="M 2011.5,2691.5 C 2060.8,2699.97 2110.47,2704.8 2160.5,2706C 2201.83,2706.67 2243.17,2706.67 2284.5,2706C 2368.83,2702.97 2453.17,2699.97 2537.5,2697C 2598.27,2695.17 2658.94,2696.83 2719.5,2702C 2755.34,2705.37 2790.34,2712.7 2824.5,2724C 2856.14,2734.39 2882.97,2751.89 2905,2776.5C 2929.32,2809.78 2939.32,2847.11 2935,2888.5C 2933.41,2903.36 2931.58,2918.19 2929.5,2933C 2931.26,2963.85 2943.93,2989.18 2967.5,3009C 2990.16,3028 3016.16,3040 3045.5,3045C 3035.3,3061.94 3020.3,3071.61 3000.5,3074C 2970.72,3076.26 2942.05,3071.59 2914.5,3060C 2895.29,3052.4 2877.29,3042.73 2860.5,3031C 2852.95,3028.11 2845.29,3027.78 2837.5,3030C 2832.38,3032.06 2827.38,3034.39 2822.5,3037C 2784.44,3061.4 2747.77,3087.73 2712.5,3116C 2677.67,3141.93 2640.67,3164.6 2601.5,3184C 2571.65,3198.5 2540.15,3206.67 2507,3208.5C 2475.46,3208.22 2447.96,3197.72 2424.5,3177C 2495.2,3145.32 2563.87,3109.98 2630.5,3071C 2688.17,3035.5 2746.17,3000.5 2804.5,2966C 2794.29,2965.59 2784.29,2966.92 2774.5,2970C 2744.62,2979.85 2715.62,2991.85 2687.5,3006C 2650.83,3024.33 2614.17,3042.67 2577.5,3061C 2537.08,3081.04 2495.42,3098.04 2452.5,3112C 2419.05,3123.3 2384.72,3127.96 2349.5,3126C 2302.84,3120.96 2272,3096.46 2257,3052.5C 2364.82,3028.59 2471.32,2999.75 2576.5,2966C 2649.84,2941.33 2723.18,2916.66 2796.5,2892C 2777.27,2887.91 2757.94,2887.58 2738.5,2891C 2698.74,2896.48 2659.41,2904.15 2620.5,2914C 2537.3,2935.72 2453.64,2955.38 2369.5,2973C 2324.94,2982.03 2279.94,2987.2 2234.5,2988.5C 2207.83,2989.07 2181.83,2985.23 2156.5,2977C 2118.3,2962.48 2099.64,2934.65 2100.5,2893.5C 2183.03,2889.15 2265.37,2882.32 2347.5,2873C 2490.37,2856.81 2633.04,2839.14 2775.5,2820C 2755.02,2813.42 2734.02,2809.75 2712.5,2809C 2674.47,2808 2636.47,2808.67 2598.5,2811C 2532.16,2815.94 2465.83,2820.94 2399.5,2826C 2342.88,2830.21 2286.22,2831.21 2229.5,2829C 2186.44,2827.61 2144.44,2820.28 2103.5,2807C 2075.94,2797.48 2052.77,2781.64 2034,2759.5C 2019.61,2739.16 2012.11,2716.5 2011.5,2691.5 Z"/></g>
<g><path style="opacity:0.993" fill="#db0c14" d="M 4233.5,2691.5 C 4234.83,2691.5 4236.17,2691.5 4237.5,2691.5C 4235.81,2735.07 4216.47,2768.23 4179.5,2791C 4152.27,2805.97 4123.27,2815.97 4092.5,2821C 4041.13,2828.9 3989.46,2831.9 3937.5,2830C 3908.14,2829.24 3878.81,2827.9 3849.5,2826C 3783.5,2821 3717.5,2816 3651.5,2811C 3605.82,2807.8 3560.15,2807.8 3514.5,2811C 3500.49,2812.47 3486.83,2815.47 3473.5,2820C 3612.97,2838.73 3752.64,2856.06 3892.5,2872C 3977.63,2881.71 4062.96,2888.87 4148.5,2893.5C 4149.3,2933.09 4131.64,2960.59 4095.5,2976C 4069.43,2984.92 4042.6,2989.08 4015,2988.5C 3969.4,2987.14 3924.24,2981.97 3879.5,2973C 3852.75,2967.72 3826.08,2962.05 3799.5,2956C 3732.54,2939.51 3665.54,2923.18 3598.5,2907C 3559.36,2897.37 3519.7,2891.2 3479.5,2888.5C 3470.37,2888.8 3461.37,2889.97 3452.5,2892C 3521.97,2914.93 3591.3,2938.27 3660.5,2962C 3770.09,2997.48 3881.09,3027.81 3993.5,3053C 3977.08,3096.41 3945.75,3120.74 3899.5,3126C 3866.77,3127.91 3834.77,3123.91 3803.5,3114C 3762.61,3101.39 3722.94,3085.72 3684.5,3067C 3627.2,3038.18 3569.53,3010.18 3511.5,2983C 3495.63,2976.27 3479.3,2970.93 3462.5,2967C 3456.87,2965.8 3451.2,2965.47 3445.5,2966C 3514.57,3008.06 3583.9,3049.73 3653.5,3091C 3708.77,3121.97 3765.44,3150.3 3823.5,3176C 3823.83,3176.33 3824.17,3176.67 3824.5,3177C 3801.25,3197.78 3773.92,3208.28 3742.5,3208.5C 3717.3,3207.36 3692.97,3202.19 3669.5,3193C 3643.22,3182.7 3618.22,3170.03 3594.5,3155C 3581.83,3146.67 3569.17,3138.33 3556.5,3130C 3523.17,3105.33 3489.83,3080.67 3456.5,3056C 3442.29,3046.06 3427.29,3037.39 3411.5,3030C 3403.71,3027.78 3396.05,3028.11 3388.5,3031C 3355.94,3053.75 3319.94,3068.08 3280.5,3074C 3269.83,3074.67 3259.17,3074.67 3248.5,3074C 3232.6,3072.3 3219.43,3065.47 3209,3053.5C 3207.25,3051 3205.75,3048.33 3204.5,3045.5C 3243.18,3038.25 3275.01,3019.59 3300,2989.5C 3312.57,2972.62 3319.07,2953.62 3319.5,2932.5C 3317.21,2916.56 3315.38,2900.56 3314,2884.5C 3309.17,2817.64 3336,2768.48 3394.5,2737C 3427.86,2721.24 3462.86,2710.91 3499.5,2706C 3535.32,2700.81 3571.32,2697.81 3607.5,2697C 3642.17,2696.33 3676.83,2696.33 3711.5,2697C 3795.84,2699.92 3880.17,2702.92 3964.5,2706C 4006.17,2706.67 4047.83,2706.67 4089.5,2706C 4138.03,2704.97 4186.03,2700.13 4233.5,2691.5 Z"/></g>
<g><path style="opacity:0.993" fill="#db0c14" d="M 3113.5,2783.5 C 3153.96,2780.82 3185.46,2796.15 3208,2829.5C 3223.64,2858.24 3225.64,2887.91 3214,2918.5C 3202.77,2942.56 3184.94,2959.56 3160.5,2969.5C 3157.42,3118.5 3154.25,3267.5 3151,3416.5C 3133,3410.5 3115,3404.5 3097,3398.5C 3094.07,3255.51 3091.57,3112.51 3089.5,2969.5C 3057.72,2956.54 3037.89,2933.2 3030,2899.5C 3023.38,2851.91 3040.88,2816.41 3082.5,2793C 3092.63,2788.73 3102.96,2785.56 3113.5,2783.5 Z"/></g>
<g><path style="opacity:0.985" fill="#db0c14" d="M 1573.5,2816.5 C 1586.26,2821.38 1598.93,2826.54 1611.5,2832C 1598.45,2853.6 1594.28,2876.77 1599,2901.5C 1606.75,2925.31 1622.92,2939.81 1647.5,2945C 1703.94,2954.23 1732.94,2930.23 1734.5,2873C 1734.62,2865.08 1733.96,2857.25 1732.5,2849.5C 1744.35,2849.07 1756.18,2848.4 1768,2847.5C 1771.52,2847.84 1773.18,2849.84 1773,2853.5C 1777.91,2888.68 1772.25,2922.01 1756,2953.5C 1736.11,2983.95 1707.77,2999.29 1671,2999.5C 1641.8,2999.21 1615.64,2990.38 1592.5,2973C 1565.42,2947.79 1553.26,2916.63 1556,2879.5C 1557.33,2857.17 1563.16,2836.17 1573.5,2816.5 Z"/></g>
<g><path style="opacity:0.989" fill="#db0c14" d="M 714.5,2846.5 C 729.264,2845.94 737.598,2852.94 739.5,2867.5C 737.253,2889.98 732.753,2911.98 726,2933.5C 718.035,2951.58 706.535,2967.08 691.5,2980C 668.874,2998.29 646.541,3016.96 624.5,3036C 616.93,3041.19 608.93,3041.85 600.5,3038C 593.803,3033.94 590.47,3027.94 590.5,3020C 592.666,2999.5 596.5,2979.33 602,2959.5C 608.853,2940.65 619.687,2924.48 634.5,2911C 657.793,2892.04 680.793,2872.71 703.5,2853C 706.933,2850.29 710.6,2848.12 714.5,2846.5 Z"/></g>
<g><path style="opacity:0.989" fill="#db0c14" d="M 5621.5,2857.5 C 5634.25,2855.95 5643.09,2860.95 5648,2872.5C 5648.67,2890.52 5648.33,2908.52 5647,2926.5C 5644.22,2948.37 5636.22,2968.04 5623,2985.5C 5600.2,3011.3 5577.04,3036.8 5553.5,3062C 5542.31,3067.23 5532.81,3065.06 5525,3055.5C 5522.89,3051.44 5521.72,3047.11 5521.5,3042.5C 5522.07,3025.82 5522.9,3009.15 5524,2992.5C 5527.51,2970.49 5536.17,2950.83 5550,2933.5C 5571.04,2910.8 5591.7,2887.8 5612,2864.5C 5614.79,2861.53 5617.96,2859.2 5621.5,2857.5 Z"/></g>
<g><path style="opacity:0.992" fill="#db0c14" d="M 1123.5,2909.5 C 1123.39,2964 1123.72,3018.67 1124.5,3073.5C 1176.53,3090.23 1228.53,3107.06 1280.5,3124C 1228.98,3141.12 1177.31,3157.95 1125.5,3174.5C 1124.67,3229.5 1124.17,3284.5 1124,3339.5C 1092.87,3295.4 1061.37,3251.57 1029.5,3208C 1025.78,3208.01 1022.11,3208.68 1018.5,3210C 970.333,3225.83 922.167,3241.67 874,3257.5C 873.5,3257.17 873,3256.83 872.5,3256.5C 904.307,3212.86 936.307,3169.36 968.5,3126C 936.167,3081.67 903.833,3037.33 871.5,2993C 872.833,2992.33 874.167,2992.33 875.5,2993C 925.946,3010.37 976.612,3026.71 1027.5,3042C 1059.72,2997.95 1091.72,2953.79 1123.5,2909.5 Z"/></g>
<g><path style="opacity:0.992" fill="#db0c14" d="M 5124.5,2909.5 C 5156.02,2953.35 5187.69,2997.19 5219.5,3041C 5223.22,3040.99 5226.89,3040.32 5230.5,3039C 5278.67,3023.17 5326.83,3007.33 5375,2991.5C 5375.5,2991.83 5376,2992.17 5376.5,2992.5C 5344.69,3036.14 5312.69,3079.64 5280.5,3123C 5312.83,3167.33 5345.17,3211.67 5377.5,3256C 5376.17,3256.67 5374.83,3256.67 5373.5,3256C 5323.05,3238.63 5272.39,3222.29 5221.5,3207C 5189.33,3251.17 5157.17,3295.33 5125,3339.5C 5125.62,3284.83 5125.45,3230.17 5124.5,3175.5C 5072.47,3158.77 5020.47,3141.94 4968.5,3125C 5020.02,3107.88 5071.69,3091.05 5123.5,3074.5C 5124.5,3019.5 5124.83,2964.5 5124.5,2909.5 Z"/></g>
<g><path style="opacity:0.986" fill="#db0c14" d="M 4484.5,2912.5 C 4556.11,2928.15 4627.78,2943.65 4699.5,2959C 4700.85,2959.77 4701.68,2960.94 4702,2962.5C 4703.33,2978.5 4704.67,2994.5 4706,3010.5C 4706.83,3014.87 4706.66,3019.2 4705.5,3023.5C 4637.43,3051.63 4569.1,3078.96 4500.5,3105.5C 4499.72,3088.79 4498.38,3072.12 4496.5,3055.5C 4496.83,3054.83 4497.17,3054.17 4497.5,3053.5C 4514.64,3046.26 4531.98,3039.59 4549.5,3033.5C 4547.61,3013.52 4545.95,2993.52 4544.5,2973.5C 4525.86,2970.41 4507.36,2966.74 4489,2962.5C 4487.72,2945.79 4486.22,2929.12 4484.5,2912.5 Z M 4581.5,2977.5 C 4582.72,2991.15 4583.89,3004.82 4585,3018.5C 4585.22,3019.94 4585.72,3021.27 4586.5,3022.5C 4612.41,3011.59 4638.74,3001.75 4665.5,2993C 4637.38,2988.54 4609.38,2983.38 4581.5,2977.5 Z"/></g>
<g><path style="opacity:0.989" fill="#db0c14" d="M 699.5,3015.5 C 713.448,3013.05 722.615,3018.38 727,3031.5C 726.709,3051.99 724.709,3072.33 721,3092.5C 715.655,3113.2 705.655,3131.2 691,3146.5C 667.53,3168.3 644.364,3190.47 621.5,3213C 608.812,3219.33 598.645,3216.49 591,3204.5C 589.982,3201.26 589.482,3197.92 589.5,3194.5C 590.329,3173.2 593.162,3152.2 598,3131.5C 602.826,3116.7 610.159,3103.37 620,3091.5C 646.092,3065.57 672.592,3040.24 699.5,3015.5 Z"/></g>
<g><path style="opacity:0.989" fill="#db0c14" d="M 5633.5,3032.5 C 5653.32,3032.82 5661.82,3042.82 5659,3062.5C 5658.49,3083.32 5655.15,3103.66 5649,3123.5C 5643.96,3135.85 5637.29,3147.19 5629,3157.5C 5603.83,3182 5578.67,3206.5 5553.5,3231C 5541.59,3236.25 5531.76,3233.75 5524,3223.5C 5522.34,3219.84 5521.5,3216.01 5521.5,3212C 5522.71,3193.38 5524.87,3174.88 5528,3156.5C 5532.5,3139.5 5540.16,3124.17 5551,3110.5C 5572.53,3088.64 5594.36,3067.14 5616.5,3046C 5621.8,3040.85 5627.47,3036.35 5633.5,3032.5 Z"/></g>
<g><path style="opacity:0.992" fill="#db0c14" d="M 2927.5,3121.5 C 2997.3,3123.17 3044.46,3156.5 3069,3221.5C 3070.76,3227.4 3071.43,3233.4 3071,3239.5C 3069.11,3243.06 3066.27,3245.56 3062.5,3247C 3042.28,3249.47 3022.28,3248.14 3002.5,3243C 2982.12,3238.15 2961.79,3233.15 2941.5,3228C 2915.13,3223.11 2894.97,3231.94 2881,3254.5C 2875.07,3268.8 2875.07,3283.13 2881,3297.5C 2892.48,3321.32 2909.31,3340.48 2931.5,3355C 2968.38,3379.08 3008.05,3397.42 3050.5,3410C 3113.01,3427.39 3175.34,3445.39 3237.5,3464C 3266.79,3473.98 3294.12,3487.64 3319.5,3505C 3359.9,3536.63 3364.4,3572.8 3333,3613.5C 3313.93,3634.07 3291.43,3649.74 3265.5,3660.5C 3232.38,3642.4 3197.71,3627.9 3161.5,3617C 3181.88,3609.21 3202.21,3601.21 3222.5,3593C 3234.57,3587.89 3245.74,3581.39 3256,3573.5C 3259.45,3568.31 3259.12,3563.31 3255,3558.5C 3243.81,3549.82 3231.31,3543.66 3217.5,3540C 3143.21,3520.51 3068.88,3501.18 2994.5,3482C 2940.95,3464.73 2892.61,3438.4 2849.5,3403C 2834.19,3389.03 2820.36,3373.86 2808,3357.5C 2770.57,3291.31 2777.57,3230.31 2829,3174.5C 2855.44,3144.87 2888.27,3127.2 2927.5,3121.5 Z"/></g>
<g><path style="opacity:0.992" fill="#db0c14" d="M 3315.5,3121.5 C 3343.56,3121.58 3369.23,3129.41 3392.5,3145C 3420.7,3164.87 3442.87,3190.04 3459,3220.5C 3475.31,3258.3 3475.65,3296.3 3460,3334.5C 3458,3339.17 3456,3343.83 3454,3348.5C 3423.51,3392 3384.67,3425.83 3337.5,3450C 3326.38,3456.14 3314.88,3461.31 3303,3465.5C 3259.54,3448.01 3215.04,3433.68 3169.5,3422.5C 3198.32,3412.84 3226.99,3402.67 3255.5,3392C 3287.23,3379.31 3316.23,3362.31 3342.5,3341C 3358.95,3326.6 3370.78,3309.1 3378,3288.5C 3383.01,3259.52 3371.84,3239.68 3344.5,3229C 3334.58,3226.23 3324.58,3225.9 3314.5,3228C 3294.21,3233.15 3273.88,3238.15 3253.5,3243C 3233.72,3248.14 3213.72,3249.47 3193.5,3247C 3189.7,3245.53 3186.87,3243.03 3185,3239.5C 3185.27,3224.01 3189.61,3209.68 3198,3196.5C 3209.99,3175.51 3225.83,3158.01 3245.5,3144C 3267.34,3131.55 3290.68,3124.05 3315.5,3121.5 Z"/></g>
<g><path style="opacity:0.987" fill="#db0c14" d="M 1738.5,3160.5 C 1742.5,3160.5 1746.5,3160.5 1750.5,3160.5C 1753.67,3205.51 1757,3250.51 1760.5,3295.5C 1690.45,3300.76 1620.45,3306.43 1550.5,3312.5C 1545.9,3268.94 1542.23,3225.27 1539.5,3181.5C 1552.79,3180.06 1566.12,3179.06 1579.5,3178.5C 1581.02,3205.91 1583.35,3233.25 1586.5,3260.5C 1600.47,3259.01 1614.47,3257.68 1628.5,3256.5C 1626,3230.88 1624,3205.22 1622.5,3179.5C 1635.5,3177.91 1648.5,3177.24 1661.5,3177.5C 1664.06,3202.77 1666.06,3228.1 1667.5,3253.5C 1683.87,3252.44 1700.2,3251.11 1716.5,3249.5C 1714.35,3220.84 1712.35,3192.18 1710.5,3163.5C 1719.99,3162.7 1729.32,3161.7 1738.5,3160.5 Z"/></g>
<g><path style="opacity:0.986" fill="#db0c14" d="M 4499.5,3164.5 C 4569.12,3170.93 4638.78,3177.1 4708.5,3183C 4709.66,3184.01 4710.32,3185.34 4710.5,3187C 4708.97,3201.82 4707.64,3216.65 4706.5,3231.5C 4675.86,3228.49 4645.19,3225.99 4614.5,3224C 4643.29,3246.45 4671.79,3269.29 4700,3292.5C 4699.56,3312.56 4698.06,3332.56 4695.5,3352.5C 4667.5,3326.83 4639.5,3301.17 4611.5,3275.5C 4569.38,3296.64 4527.21,3317.64 4485,3338.5C 4485.73,3319.81 4487.06,3301.15 4489,3282.5C 4520.42,3267.54 4551.92,3252.7 4583.5,3238C 4576.83,3231.67 4570.17,3225.33 4563.5,3219C 4540.85,3216.84 4518.19,3215 4495.5,3213.5C 4496.34,3197.1 4497.67,3180.77 4499.5,3164.5 Z"/></g>
<g><path style="opacity:0.989" fill="#db0c14" d="M 703.5,3183.5 C 715.891,3183.74 723.724,3189.74 727,3201.5C 727.331,3221.9 726.331,3242.24 724,3262.5C 720.182,3280.46 712.849,3296.8 702,3311.5C 679.667,3336.5 657.333,3361.5 635,3386.5C 621.273,3395.15 610.273,3392.48 602,3378.5C 600.187,3357.51 600.52,3336.51 603,3315.5C 606.92,3294 615.92,3275 630,3258.5C 651.833,3234.67 673.667,3210.83 695.5,3187C 698.158,3185.52 700.825,3184.36 703.5,3183.5 Z"/></g>
<g><path style="opacity:0.988" fill="#db0c14" d="M 5631.5,3208.5 C 5642.95,3206.48 5651.45,3210.48 5657,3220.5C 5657.98,3223.24 5658.48,3226.07 5658.5,3229C 5656.37,3246.28 5653.54,3263.45 5650,3280.5C 5643.62,3303.1 5631.79,3322.27 5614.5,3338C 5591.21,3356.96 5568.21,3376.29 5545.5,3396C 5533.9,3405.2 5523.07,3404.36 5513,3393.5C 5510.72,3389.82 5509.55,3385.82 5509.5,3381.5C 5511.68,3364.39 5514.52,3347.39 5518,3330.5C 5524.65,3306.35 5537.49,3286.18 5556.5,3270C 5581.11,3248.88 5606.11,3228.38 5631.5,3208.5 Z"/></g>
<g><path style="opacity:0.989" fill="#db0c14" d="M 711.5,3352.5 C 724.523,3350.42 733.356,3355.42 738,3367.5C 739.928,3386.79 740.595,3406.13 740,3425.5C 737.636,3447.6 729.969,3467.6 717,3485.5C 696.833,3511 676.667,3536.5 656.5,3562C 645.219,3567.86 635.386,3566.03 627,3556.5C 625.438,3554.04 624.438,3551.38 624,3548.5C 623.097,3534 622.263,3519.5 621.5,3505C 621.638,3479.6 628.805,3456.44 643,3435.5C 663.242,3410.01 683.242,3384.35 703,3358.5C 705.637,3356.11 708.47,3354.11 711.5,3352.5 Z"/></g>
<g><path style="opacity:0.988" fill="#db0c14" d="M 5622.5,3382.5 C 5635.8,3383.63 5643.46,3390.8 5645.5,3404C 5641.7,3422.35 5637.2,3440.52 5632,3458.5C 5624.11,3479.05 5611.61,3496.22 5594.5,3510C 5568.66,3528.42 5542.99,3547.09 5517.5,3566C 5504.35,3572.34 5494.18,3569.17 5487,3556.5C 5485.68,3552.57 5485.34,3548.57 5486,3544.5C 5489.57,3527.3 5493.91,3510.3 5499,3493.5C 5506.65,3473.35 5518.82,3456.52 5535.5,3443C 5561.34,3424.58 5587.01,3405.91 5612.5,3387C 5615.7,3385 5619.04,3383.5 5622.5,3382.5 Z"/></g>
<g><path style="opacity:0.986" fill="#db0c14" d="M 4476.5,3383.5 C 4539.03,3422.02 4601.53,3460.69 4664,3499.5C 4659.16,3520.18 4654,3540.85 4648.5,3561.5C 4574.49,3564.39 4500.49,3567.22 4426.5,3570C 4431.01,3553.29 4435.68,3536.62 4440.5,3520C 4458.83,3519.22 4477.16,3518.56 4495.5,3518C 4501.28,3499.55 4506.61,3480.89 4511.5,3462C 4511.24,3460.74 4510.57,3459.74 4509.5,3459C 4494.09,3450.55 4478.92,3441.71 4464,3432.5C 4467.37,3416.01 4471.54,3399.68 4476.5,3383.5 Z M 4545.5,3477.5 C 4541.37,3491.7 4537.7,3506.03 4534.5,3520.5C 4563.2,3519.44 4591.87,3518.94 4620.5,3519C 4595.12,3505.65 4570.12,3491.82 4545.5,3477.5 Z"/></g>
<g><path style="opacity:0.984" fill="#db0c14" d="M 1561.5,3401.5 C 1606.96,3414.57 1652.46,3427.57 1698,3440.5C 1726.79,3433.59 1755.63,3426.93 1784.5,3420.5C 1787.51,3435.39 1790.84,3450.22 1794.5,3465C 1794.41,3466.11 1794.08,3467.11 1793.5,3468C 1765.79,3474.51 1738.13,3481.18 1710.5,3488C 1675.33,3519.17 1640.17,3550.33 1605,3581.5C 1599.72,3563.71 1595.39,3545.71 1592,3527.5C 1617.72,3507.72 1643.89,3488.56 1670.5,3470C 1638.36,3465.59 1606.36,3460.42 1574.5,3454.5C 1569.7,3436.95 1565.36,3419.28 1561.5,3401.5 Z"/></g>
<g><path style="opacity:0.99" fill="#db0c14" d="M 2957.5,3492.5 C 2999.29,3507.54 3041.96,3519.54 3085.5,3528.5C 3067.6,3533.64 3049.6,3538.48 3031.5,3543C 3018.83,3545.58 3008,3551.41 2999,3560.5C 2997.07,3565.19 2997.07,3569.86 2999,3574.5C 3005.22,3580.7 3012.38,3585.53 3020.5,3589C 3028.75,3592.53 3037.09,3595.86 3045.5,3599C 3085.88,3611.85 3126.21,3624.85 3166.5,3638C 3196.1,3648.13 3224.76,3660.46 3252.5,3675C 3271.8,3684.97 3287.3,3699.13 3299,3717.5C 3312.94,3741.74 3315.61,3767.07 3307,3793.5C 3296.06,3814.1 3279.73,3828.77 3258,3837.5C 3241.99,3817.73 3221.49,3804.9 3196.5,3799C 3186.23,3796.51 3175.9,3794.35 3165.5,3792.5C 3182.9,3787.87 3199.57,3781.37 3215.5,3773C 3220.64,3769.87 3224.3,3765.53 3226.5,3760C 3224.47,3752.63 3220.14,3746.96 3213.5,3743C 3203.35,3736.92 3192.68,3731.92 3181.5,3728C 3117.45,3709.65 3054.45,3688.32 2992.5,3664C 2963.46,3651.95 2938.62,3634.11 2918,3610.5C 2891.11,3572.06 2895.94,3538.23 2932.5,3509C 2940.74,3503.24 2949.07,3497.74 2957.5,3492.5 Z"/></g>
<g><path style="opacity:0.989" fill="#db0c14" d="M 735.5,3519.5 C 747.587,3517.9 756.087,3522.57 761,3533.5C 765.147,3556 766.813,3578.67 766,3601.5C 763.866,3618.57 758.533,3634.57 750,3649.5C 732,3676.17 714,3702.83 696,3729.5C 685.751,3739.81 675.085,3740.15 664,3730.5C 660.939,3726.71 659.272,3722.38 659,3717.5C 655.35,3696.97 654.017,3676.31 655,3655.5C 657.229,3637.14 663.229,3620.14 673,3604.5C 690.581,3579.01 707.914,3553.34 725,3527.5C 727.855,3523.79 731.355,3521.12 735.5,3519.5 Z"/></g>
<g><path style="opacity:0.986" fill="#db0c14" d="M 3100.5,3527.5 C 3116.69,3532.3 3133.03,3536.63 3149.5,3540.5C 3148.91,3565.5 3148.24,3590.5 3147.5,3615.5C 3131.88,3611.01 3116.21,3606.68 3100.5,3602.5C 3100.5,3577.5 3100.5,3552.5 3100.5,3527.5 Z"/></g>
<g><path style="opacity:0.989" fill="#db0c14" d="M 5595.5,3556.5 C 5609.75,3556.42 5617.75,3563.42 5619.5,3577.5C 5615.78,3593.37 5611.28,3609.03 5606,3624.5C 5597.58,3645.85 5584.41,3663.68 5566.5,3678C 5538.5,3695.67 5510.5,3713.33 5482.5,3731C 5469.24,3737.79 5459.07,3734.62 5452,3721.5C 5450.52,3716.92 5450.19,3712.26 5451,3707.5C 5455.69,3692.06 5460.69,3676.73 5466,3661.5C 5475.06,3641.1 5488.56,3624.27 5506.5,3611C 5535.97,3592.28 5565.64,3574.11 5595.5,3556.5 Z"/></g>
<g><path style="opacity:0.984" fill="#db0c14" d="M 1829.5,3586.5 C 1831.41,3586.57 1832.58,3587.57 1833,3589.5C 1838.31,3603.28 1843.47,3617.11 1848.5,3631C 1848.17,3631.5 1847.83,3632 1847.5,3632.5C 1782.02,3657.6 1716.52,3682.6 1651,3707.5C 1644.61,3692.05 1638.78,3676.38 1633.5,3660.5C 1699.13,3636.4 1764.46,3611.74 1829.5,3586.5 Z"/></g>
<g><path style="opacity:0.985" fill="#db0c14" d="M 4405.5,3625.5 C 4469.47,3654.05 4533.14,3683.38 4596.5,3713.5C 4596.83,3714.17 4597.17,3714.83 4597.5,3715.5C 4589.96,3732.07 4582.3,3748.57 4574.5,3765C 4519,3771.68 4463.34,3774.68 4407.5,3774C 4428.17,3781.17 4448.5,3789.17 4468.5,3798C 4492.92,3809.14 4517.25,3820.47 4541.5,3832C 4542.52,3833.05 4542.68,3834.22 4542,3835.5C 4536.06,3848.39 4529.89,3861.05 4523.5,3873.5C 4460.29,3843.73 4396.95,3814.23 4333.5,3785C 4332.48,3783.95 4332.32,3782.78 4333,3781.5C 4340.07,3767.37 4346.57,3753.04 4352.5,3738.5C 4410.69,3732.97 4469.03,3729.8 4527.5,3729C 4480.69,3709.26 4434.36,3688.43 4388.5,3666.5C 4387.42,3665.64 4387.25,3664.64 4388,3663.5C 4394.12,3650.93 4399.95,3638.26 4405.5,3625.5 Z"/></g>
<g><path style="opacity:0.972" fill="#db0c14" d="M 1609.5,3673.5 C 1630.56,3676.94 1637.06,3688.61 1629,3708.5C 1622.84,3716.67 1614.68,3719.5 1604.5,3717C 1592.84,3712.53 1587.68,3704.03 1589,3691.5C 1591.99,3681 1598.83,3675 1609.5,3673.5 Z"/></g>
<g><path style="opacity:0.99" fill="#db0c14" d="M 2992.5,3679.5 C 3027.67,3692.08 3062.67,3705.25 3097.5,3719C 3075.89,3729.14 3054.55,3739.81 3033.5,3751C 3026.42,3760.45 3028.42,3767.79 3039.5,3773C 3052.64,3779.4 3066.31,3784.4 3080.5,3788C 3109.95,3795.36 3139.61,3801.69 3169.5,3807C 3188.57,3810.91 3206.57,3817.58 3223.5,3827C 3243.16,3838.81 3252.49,3856.31 3251.5,3879.5C 3250.91,3897.12 3244.74,3912.46 3233,3925.5C 3226.91,3932.43 3220.07,3938.43 3212.5,3943.5C 3194.46,3928.81 3174.12,3918.31 3151.5,3912C 3150.17,3911.33 3150.17,3910.67 3151.5,3910C 3156.78,3907.11 3161.61,3903.61 3166,3899.5C 3171.37,3892.99 3171.7,3886.33 3167,3879.5C 3160.35,3874.26 3152.85,3870.76 3144.5,3869C 3119.17,3865 3093.83,3861 3068.5,3857C 3040.61,3852.48 3013.95,3844.15 2988.5,3832C 2944.65,3807.78 2932.15,3772.28 2951,3725.5C 2960.86,3706.48 2974.69,3691.15 2992.5,3679.5 Z"/></g>
<g><path style="opacity:0.989" fill="#db0c14" d="M 772.5,3684.5 C 784.035,3683.84 791.869,3688.84 796,3699.5C 799.776,3717.04 802.776,3734.71 805,3752.5C 806.052,3774.29 801.719,3794.96 792,3814.5C 775.414,3842.67 759.081,3871 743,3899.5C 733.327,3908.31 723.161,3908.81 712.5,3901C 709.836,3898.33 708.002,3895.16 707,3891.5C 702.538,3871.86 699.372,3852.03 697.5,3832C 697.931,3810.44 703.431,3790.28 714,3771.5C 730.041,3743.92 746.207,3716.42 762.5,3689C 765.703,3687 769.036,3685.5 772.5,3684.5 Z"/></g>
<g><path style="opacity:0.984" fill="#db0c14" d="M 1866.5,3685.5 C 1868.07,3685.94 1869.24,3686.94 1870,3688.5C 1878.05,3704.09 1886.21,3719.59 1894.5,3735C 1876.05,3764.07 1857.71,3793.23 1839.5,3822.5C 1847.91,3824.82 1856.41,3826.82 1865,3828.5C 1885.33,3817.83 1905.67,3807.17 1926,3796.5C 1928.12,3798.03 1929.78,3800.03 1931,3802.5C 1937.3,3814.27 1943.47,3826.1 1949.5,3838C 1887.6,3871.87 1825.43,3905.37 1763,3938.5C 1754.81,3924.46 1747.48,3910.12 1741,3895.5C 1767.75,3880.87 1794.59,3866.37 1821.5,3852C 1785.11,3848.92 1748.78,3845.25 1712.5,3841C 1710.09,3839.38 1708.26,3837.21 1707,3834.5C 1699.21,3819.09 1691.05,3803.93 1682.5,3789C 1719.96,3794.19 1757.29,3800.35 1794.5,3807.5C 1819.03,3767.11 1843.03,3726.44 1866.5,3685.5 Z"/></g>
<g><path style="opacity:0.991" fill="#db0c14" d="M 1193.5,3691.5 C 1214.94,3741.4 1235.61,3791.74 1255.5,3842.5C 1309.88,3838.73 1364.21,3834.39 1418.5,3829.5C 1419.17,3829.83 1419.83,3830.17 1420.5,3830.5C 1381.2,3864.48 1341.54,3897.98 1301.5,3931C 1299.44,3932.72 1297.78,3934.72 1296.5,3937C 1318.01,3987.47 1338.67,4037.97 1358.5,4088.5C 1312.42,4059.71 1266.25,4031.04 1220,4002.5C 1178.33,4038.17 1136.67,4073.83 1095,4109.5C 1107.49,4056.54 1119.82,4003.54 1132,3950.5C 1085.75,3921.62 1039.25,3893.12 992.5,3865C 1046.77,3860.31 1101.1,3855.81 1155.5,3851.5C 1168.48,3798.24 1181.15,3744.9 1193.5,3691.5 Z"/></g>
<g><path style="opacity:0.991" fill="#db0c14" d="M 5053.5,3691.5 C 5054.12,3691.61 5054.62,3691.94 5055,3692.5C 5067.49,3745.11 5079.65,3797.78 5091.5,3850.5C 5146.65,3854.42 5201.65,3858.92 5256.5,3864C 5209.83,3892.33 5163.17,3920.67 5116.5,3949C 5130.23,4002.08 5142.9,4055.24 5154.5,4108.5C 5113.48,4072.98 5072.31,4037.65 5031,4002.5C 4984.58,4031.29 4938.08,4059.96 4891.5,4088.5C 4891.17,4088.17 4890.83,4087.83 4890.5,4087.5C 4911.41,4037.61 4932.41,3987.78 4953.5,3938C 4911.83,3902.33 4870.17,3866.67 4828.5,3831C 4881.36,3834.53 4934.19,3838.7 4987,3843.5C 4988.5,3843.17 4990,3842.83 4991.5,3842.5C 5012.46,3792.26 5033.12,3741.93 5053.5,3691.5 Z"/></g>
<g><path style="opacity:0.977" fill="#db0c14" d="M 3103.5,3721.5 C 3118.21,3725.14 3132.71,3729.47 3147,3734.5C 3146.59,3752.17 3145.76,3769.84 3144.5,3787.5C 3131.43,3785.55 3118.43,3783.22 3105.5,3780.5C 3104.41,3760.86 3103.75,3741.19 3103.5,3721.5 Z"/></g>
<g><path style="opacity:0.989" fill="#db0c14" d="M 5555.5,3728.5 C 5574.44,3727.61 5582.94,3736.61 5581,3755.5C 5574.92,3772.07 5568.25,3788.41 5561,3804.5C 5550.55,3822.92 5536.38,3837.75 5518.5,3849C 5488.99,3864.92 5459.32,3880.59 5429.5,3896C 5411.05,3897.55 5402.55,3889.05 5404,3870.5C 5410.7,3850.44 5419.03,3831.1 5429,3812.5C 5439.21,3797.96 5451.71,3785.79 5466.5,3776C 5496.23,3760.14 5525.89,3744.3 5555.5,3728.5 Z"/></g>
<g><path style="opacity:0.989" fill="#db0c14" d="M 815.5,3847.5 C 826.488,3845.58 834.988,3849.25 841,3858.5C 848.533,3880.96 853.366,3903.96 855.5,3927.5C 855.3,3943 852.467,3958 847,3972.5C 832,4003.17 817,4033.83 802,4064.5C 796.245,4071.04 789.078,4073.2 780.5,4071C 773.427,4068.93 768.594,4064.43 766,4057.5C 762.176,4043.2 758.509,4028.87 755,4014.5C 751.271,3993.52 752.604,3972.85 759,3952.5C 774.121,3919.59 789.788,3886.92 806,3854.5C 808.529,3851.12 811.696,3848.78 815.5,3847.5 Z"/></g>
<g><path style="opacity:0.983" fill="#db0c14" d="M 4292.5,3848.5 C 4350.55,3888.28 4408.72,3927.95 4467,3967.5C 4467.67,3968.5 4467.67,3969.5 4467,3970.5C 4458.36,3983.3 4449.53,3995.97 4440.5,4008.5C 4393.25,3976.62 4346.08,3944.62 4299,3912.5C 4283.5,3935.33 4268,3958.17 4252.5,3981C 4240.64,3974.38 4229.3,3966.71 4218.5,3958C 4242.98,3921.36 4267.65,3884.86 4292.5,3848.5 Z"/></g>
<g><path style="opacity:0.987" fill="#db0c14" d="M 3008.5,3856.5 C 3036.3,3865.7 3064.64,3872.53 3093.5,3877C 3088,3882.86 3087.16,3889.36 3091,3896.5C 3097.68,3903.84 3105.51,3909.68 3114.5,3914C 3130.68,3920.73 3147.01,3927.06 3163.5,3933C 3184.54,3941.43 3202.7,3953.93 3218,3970.5C 3229.37,3985.39 3233.04,4002.06 3229,4020.5C 3217.4,4058.76 3195.07,4089.09 3162,4111.5C 3153.2,4105.04 3145.37,4097.54 3138.5,4089C 3149.55,4076.93 3157.72,4063.1 3163,4047.5C 3167.54,4029.46 3162.38,4014.96 3147.5,4004C 3111.83,3982.84 3076.5,3961.17 3041.5,3939C 3023.69,3925.53 3011.86,3908.03 3006,3886.5C 3003.35,3876.12 3004.18,3866.12 3008.5,3856.5 Z"/></g>
<g><path style="opacity:0.964" fill="#db0c14" d="M 3107.5,3877.5 C 3119.5,3879.5 3131.5,3881.5 3143.5,3883.5C 3143.18,3890.34 3142.02,3897 3140,3903.5C 3129.02,3912.36 3119.36,3911.03 3111,3899.5C 3107.9,3892.51 3106.74,3885.17 3107.5,3877.5 Z"/></g>
<g><path style="opacity:0.985" fill="#db0c14" d="M 1981.5,3891.5 C 1983.02,3891.51 1984.18,3892.18 1985,3893.5C 1994.29,3905.93 2003.46,3918.43 2012.5,3931C 2002.02,3948.13 1990.18,3964.29 1977,3979.5C 1972.42,3985.58 1969.58,3992.41 1968.5,4000C 1970.38,4009.6 1974.55,4018.1 1981,4025.5C 1982.71,4026.88 1984.05,4028.54 1985,4030.5C 2006.41,4013.26 2028.24,3996.59 2050.5,3980.5C 2060.66,3992.83 2070.66,4005.33 2080.5,4018C 2025.31,4060.69 1969.98,4103.19 1914.5,4145.5C 1887.63,4121.42 1865.79,4093.42 1849,4061.5C 1835.78,4026.47 1845.62,4000.3 1878.5,3983C 1892.82,3978.36 1907.15,3978.36 1921.5,3983C 1924.41,3984.37 1927.25,3985.87 1930,3987.5C 1928.57,3974.64 1931.24,3962.64 1938,3951.5C 1948.95,3936.22 1960.28,3921.22 1972,3906.5C 1975.69,3901.78 1978.85,3896.78 1981.5,3891.5 Z M 1915.5,4019.5 C 1900.11,4022.39 1890.77,4031.56 1887.5,4047C 1890.51,4063.18 1898.51,4076.34 1911.5,4086.5C 1926.64,4075.19 1941.64,4063.69 1956.5,4052C 1950.55,4043.45 1943.88,4035.45 1936.5,4028C 1930.38,4022.94 1923.38,4020.11 1915.5,4019.5 Z"/></g>
<g><path style="opacity:0.988" fill="#db0c14" d="M 5507.5,3896.5 C 5524.3,3896.47 5532.47,3904.8 5532,3921.5C 5525.14,3938.22 5517.48,3954.55 5509,3970.5C 5495.41,3992.09 5476.91,4007.92 5453.5,4018C 5426.38,4029.73 5399.38,4041.73 5372.5,4054C 5359.33,4057.16 5350.5,4052.33 5346,4039.5C 5345.19,4034.74 5345.52,4030.08 5347,4025.5C 5353.73,4011.04 5360.73,3996.71 5368,3982.5C 5381.32,3960.42 5399.82,3944.25 5423.5,3934C 5451.71,3921.72 5479.71,3909.22 5507.5,3896.5 Z"/></g>
<g><path style="opacity:0.978" fill="#db0c14" d="M 3047.5,3962.5 C 3067.35,3976.17 3087.35,3989.67 3107.5,4003C 3093.85,4016.57 3090.69,4032.41 3098,4050.5C 3104.98,4066.47 3113.98,4081.14 3125,4094.5C 3160.37,4134.21 3199.21,4170.04 3241.5,4202C 3243.01,4202.84 3243.51,4204 3243,4205.5C 3203.29,4186.41 3165.13,4164.91 3128.5,4141C 3102.29,4123.8 3078.79,4103.3 3058,4079.5C 3042.62,4061.07 3032.28,4040.07 3027,4016.5C 3025.08,4002.02 3028.08,3988.69 3036,3976.5C 3040.05,3971.96 3043.88,3967.29 3047.5,3962.5 Z"/></g>
<g><path style="opacity:0.989" fill="#db0c14" d="M 876.5,4005.5 C 886.845,4005.03 894.345,4009.36 899,4018.5C 904.399,4033.36 909.399,4048.36 914,4063.5C 919.281,4086.44 918.281,4109.11 911,4131.5C 898.61,4162.61 885.943,4193.61 873,4224.5C 864.787,4233.27 855.287,4234.77 844.5,4229C 841.238,4226.41 838.738,4223.24 837,4219.5C 830.796,4202.76 825.462,4185.76 821,4168.5C 817.164,4144.84 819.498,4121.84 828,4099.5C 839.333,4071.5 850.667,4043.5 862,4015.5C 865.635,4010.28 870.468,4006.94 876.5,4005.5 Z"/></g>
<g><path style="opacity:0.982" fill="#db0c14" d="M 4176.5,4006.5 C 4177.55,4006.35 4178.55,4006.52 4179.5,4007C 4232.02,4053.02 4284.69,4098.85 4337.5,4144.5C 4327.73,4157.11 4317.4,4169.27 4306.5,4181C 4304.02,4180.25 4301.69,4178.92 4299.5,4177C 4248.17,4132.33 4196.83,4087.67 4145.5,4043C 4155.72,4030.71 4166.06,4018.54 4176.5,4006.5 Z"/></g>
<g><path style="opacity:0.965" fill="#db0c14" d="M 3115.5,4007.5 C 3135.77,4015.38 3142.61,4029.72 3136,4050.5C 3132.82,4057.83 3128.65,4064.5 3123.5,4070.5C 3114.31,4063.46 3109.31,4054.13 3108.5,4042.5C 3110.68,4030.78 3113.01,4019.11 3115.5,4007.5 Z"/></g>
<g><path style="opacity:0.989" fill="#db0c14" d="M 5445.5,4061.5 C 5462.92,4060.09 5471.42,4068.09 5471,4085.5C 5469.56,4090.39 5467.56,4095.06 5465,4099.5C 5458.67,4110.5 5452.33,4121.5 5446,4132.5C 5432.14,4152.35 5413.97,4166.85 5391.5,4176C 5359.99,4187.67 5328.32,4198.84 5296.5,4209.5C 5280.24,4206.31 5274.07,4196.65 5278,4180.5C 5286.24,4164.34 5295.24,4148.68 5305,4133.5C 5318.3,4116.53 5334.8,4103.69 5354.5,4095C 5385.05,4084.1 5415.38,4072.93 5445.5,4061.5 Z"/></g>
<g><path style="opacity:0.984" fill="#db0c14" d="M 2132.5,4104.5 C 2151.67,4104.28 2169.01,4109.78 2184.5,4121C 2203.72,4134.55 2217.22,4152.38 2225,4174.5C 2228.21,4191.03 2226.54,4207.03 2220,4222.5C 2215.75,4231.33 2210.75,4239.66 2205,4247.5C 2174.8,4281.21 2144.13,4314.55 2113,4347.5C 2100.5,4337 2088.66,4325.83 2077.5,4314C 2105.29,4283.21 2133.45,4252.71 2162,4222.5C 2170.86,4213.12 2176.86,4202.12 2180,4189.5C 2180.88,4171.02 2172.72,4158.19 2155.5,4151C 2149.92,4149.48 2144.25,4149.15 2138.5,4150C 2132.93,4151.78 2127.6,4154.12 2122.5,4157C 2114.07,4163.43 2106.23,4170.6 2099,4178.5C 2073.69,4206.98 2047.86,4234.98 2021.5,4262.5C 2009.08,4251.96 1997.08,4240.96 1985.5,4229.5C 2016.65,4195.85 2047.98,4162.35 2079.5,4129C 2094.72,4115.39 2112.39,4107.22 2132.5,4104.5 Z"/></g>
<g><path style="opacity:0.984" fill="#db0c14" d="M 4088.5,4132.5 C 4113.74,4132.3 4136.08,4140.14 4155.5,4156C 4182.41,4178.81 4197.07,4207.81 4199.5,4243C 4196.84,4278.65 4182.17,4308.31 4155.5,4332C 4139.71,4346.6 4121.71,4357.76 4101.5,4365.5C 4095.17,4353.5 4088.83,4341.5 4082.5,4329.5C 4106.74,4320.75 4126.58,4306.08 4142,4285.5C 4157.78,4258.24 4155.45,4232.57 4135,4208.5C 4098.44,4170.75 4062.44,4171.41 4027,4210.5C 4025.83,4212.33 4024.67,4214.17 4023.5,4216C 4033,4226.83 4042.5,4237.67 4052,4248.5C 4059.72,4240.94 4067.89,4233.94 4076.5,4227.5C 4084.82,4236.79 4093.16,4246.13 4101.5,4255.5C 4081.99,4273.51 4062.16,4291.18 4042,4308.5C 4016.91,4280.58 3992.41,4252.25 3968.5,4223.5C 3988.88,4186.29 4018.21,4158.45 4056.5,4140C 4066.99,4136.14 4077.66,4133.64 4088.5,4132.5 Z"/></g>
<g><path style="opacity:0.971" fill="#db0c14" d="M 3108.5,4142.5 C 3117.8,4146.57 3126.64,4151.57 3135,4157.5C 3136.78,4189.84 3136.78,4222.17 3135,4254.5C 3134.16,4271.05 3131.83,4287.38 3128,4303.5C 3127.31,4306.41 3126.14,4309.07 3124.5,4311.5C 3121.41,4304.46 3119.24,4297.13 3118,4289.5C 3109.94,4240.8 3106.78,4191.8 3108.5,4142.5 Z"/></g>
<g><path style="opacity:0.989" fill="#db0c14" d="M 941.5,4160.5 C 952.488,4158.58 960.988,4162.25 967,4171.5C 973.887,4187.28 980.221,4203.28 986,4219.5C 991.567,4240.08 991.901,4260.75 987,4281.5C 976.868,4313.56 966.535,4345.56 956,4377.5C 952.188,4384.74 946.188,4388.07 938,4387.5C 928.45,4387.62 921.783,4383.29 918,4374.5C 912.333,4360.5 906.667,4346.5 901,4332.5C 894.125,4309.26 893.792,4285.92 900,4262.5C 910,4231.83 920,4201.17 930,4170.5C 932.818,4165.84 936.651,4162.51 941.5,4160.5 Z"/></g>
<g><path style="opacity:0.99" fill="#db0c14" d="M 5372.5,4221.5 C 5385.38,4219.19 5393.88,4224.19 5398,4236.5C 5399.21,4242.89 5398.21,4248.89 5395,4254.5C 5387,4266.5 5379,4278.5 5371,4290.5C 5357.36,4308.07 5340.19,4320.9 5319.5,4329C 5285.31,4339.34 5250.97,4349.18 5216.5,4358.5C 5204.18,4356.68 5197.51,4349.51 5196.5,4337C 5197.16,4333.01 5198.33,4329.18 5200,4325.5C 5209,4312.17 5218,4298.83 5227,4285.5C 5239.92,4270.46 5255.42,4258.96 5273.5,4251C 5306.58,4241.02 5339.58,4231.19 5372.5,4221.5 Z"/></g>
<g><path style="opacity:0.983" fill="#db0c14" d="M 2349.5,4258.5 C 2363.66,4266.75 2377.33,4275.75 2390.5,4285.5C 2359.5,4332.83 2328.5,4380.17 2297.5,4427.5C 2313.16,4437.84 2328.49,4448.51 2343.5,4459.5C 2336.62,4471.22 2329.12,4482.55 2321,4493.5C 2275.92,4463.38 2230.75,4433.38 2185.5,4403.5C 2192.68,4391.78 2200.35,4380.45 2208.5,4369.5C 2224.42,4379.71 2240.25,4390.04 2256,4400.5C 2287.43,4353.31 2318.59,4305.98 2349.5,4258.5 Z"/></g>
<g><path style="opacity:0.983" fill="#db0c14" d="M 3897.5,4258.5 C 3898.68,4258.28 3899.68,4258.61 3900.5,4259.5C 3938.83,4318.17 3977.17,4376.83 4015.5,4435.5C 4002.39,4444.77 3988.89,4453.44 3975,4461.5C 3935.93,4403.03 3897.1,4344.37 3858.5,4285.5C 3871.35,4276.24 3884.35,4267.24 3897.5,4258.5 Z"/></g>
<g><path style="opacity:0.966" fill="#db0c14" d="M 1996.5,4267.5 C 2014.82,4266.66 2023.66,4275.33 2023,4293.5C 2017.42,4309.54 2006.59,4314.71 1990.5,4309C 1979.14,4300.71 1976.64,4290.21 1983,4277.5C 1986.58,4272.73 1991.08,4269.4 1996.5,4267.5 Z"/></g>
<g><path style="opacity:0.989" fill="#db0c14" d="M 1021.5,4309.5 C 1032.12,4307.9 1040.29,4311.56 1046,4320.5C 1053.27,4334.71 1060.27,4349.04 1067,4363.5C 1074.88,4386.04 1076.55,4409.04 1072,4432.5C 1064.33,4463.17 1056.67,4493.83 1049,4524.5C 1043.49,4535.68 1034.66,4539.51 1022.5,4536C 1018.73,4534.7 1015.56,4532.53 1013,4529.5C 1006.92,4517.01 1000.59,4504.68 994,4492.5C 982.663,4467.47 979.663,4441.47 985,4414.5C 992.868,4382.03 1001.2,4349.69 1010,4317.5C 1013.15,4313.69 1016.98,4311.02 1021.5,4309.5 Z"/></g>
<g><path style="opacity:0.972" fill="#db0c14" d="M 2045.5,4311.5 C 2060.58,4311.25 2069.25,4318.58 2071.5,4333.5C 2067.1,4353.37 2055.43,4359.53 2036.5,4352C 2026.7,4343.38 2024.87,4333.21 2031,4321.5C 2034.69,4316.28 2039.52,4312.95 2045.5,4311.5 Z"/></g>
<g><path style="opacity:0.969" fill="#db0c14" d="M 4192.5,4319.5 C 4206.1,4318.39 4217.6,4322.72 4227,4332.5C 4227.67,4333.5 4227.67,4334.5 4227,4335.5C 4220.98,4341.02 4214.81,4346.35 4208.5,4351.5C 4201.66,4346.35 4194.66,4346.19 4187.5,4351C 4178.19,4357.57 4175.86,4365.9 4180.5,4376C 4174.31,4381.69 4167.98,4387.19 4161.5,4392.5C 4148.28,4377.09 4147.11,4360.76 4158,4343.5C 4167.24,4332.07 4178.74,4324.07 4192.5,4319.5 Z"/></g>
<g><path style="opacity:0.989" fill="#db0c14" d="M 5291.5,4375.5 C 5305.93,4375.06 5313.93,4382.06 5315.5,4396.5C 5314.98,4399.91 5314.15,4403.24 5313,4406.5C 5301.3,4423.2 5288.47,4439.04 5274.5,4454C 5260.8,4466.02 5245.13,4474.69 5227.5,4480C 5196.22,4486.92 5164.89,4493.59 5133.5,4500C 5117.72,4502.45 5109.05,4495.79 5107.5,4480C 5107.32,4476.25 5108.16,4472.75 5110,4469.5C 5121.7,4452.8 5134.53,4436.96 5148.5,4422C 5161.85,4410.82 5176.85,4402.49 5193.5,4397C 5226.29,4389.8 5258.96,4382.63 5291.5,4375.5 Z"/></g>
<g><path style="opacity:0.991" fill="#db0c14" d="M 4689.5,4386.5 C 4682.29,4439.76 4673.96,4493.1 4664.5,4546.5C 4664.83,4547.17 4665.17,4547.83 4665.5,4548.5C 4714.32,4573.08 4762.99,4597.91 4811.5,4623C 4757.82,4631.5 4704.15,4640 4650.5,4648.5C 4641.68,4702.57 4632.68,4756.57 4623.5,4810.5C 4599.17,4762.5 4574.83,4714.5 4550.5,4666.5C 4549.5,4666.17 4548.5,4665.83 4547.5,4665.5C 4494.06,4674.52 4440.73,4682.85 4387.5,4690.5C 4426.33,4652.5 4464.67,4614 4502.5,4575C 4478.47,4527.77 4454.3,4480.6 4430,4433.5C 4428.81,4431.96 4428.48,4430.29 4429,4428.5C 4477.33,4453.5 4525.67,4478.5 4574,4503.5C 4612.34,4464.33 4650.84,4425.33 4689.5,4386.5 Z"/></g>
<g><path style="opacity:0.991" fill="#db0c14" d="M 1557.5,4387.5 C 1558.24,4387.37 1558.91,4387.54 1559.5,4388C 1597.01,4426.85 1635.18,4465.01 1674,4502.5C 1721.23,4478.47 1768.4,4454.3 1815.5,4430C 1817.04,4428.81 1818.71,4428.48 1820.5,4429C 1795.5,4477.33 1770.5,4525.67 1745.5,4574C 1784.81,4612.31 1823.81,4650.97 1862.5,4690C 1809.1,4682.27 1755.76,4673.77 1702.5,4664.5C 1701.83,4664.83 1701.17,4665.17 1700.5,4665.5C 1675.92,4714.32 1651.09,4762.99 1626,4811.5C 1617.5,4757.82 1609,4704.15 1600.5,4650.5C 1546.43,4641.68 1492.43,4632.68 1438.5,4623.5C 1486.5,4599.17 1534.5,4574.83 1582.5,4550.5C 1582.83,4549.5 1583.17,4548.5 1583.5,4547.5C 1574.83,4494.15 1566.16,4440.81 1557.5,4387.5 Z"/></g>
<g><path style="opacity:0.989" fill="#db0c14" d="M 1112.5,4452.5 C 1121.23,4451.91 1128.4,4454.91 1134,4461.5C 1143.17,4476.51 1151.84,4491.84 1160,4507.5C 1168.58,4528.78 1171.24,4550.78 1168,4573.5C 1162.56,4603.81 1157.23,4634.15 1152,4664.5C 1150.71,4671.79 1146.55,4676.62 1139.5,4679C 1129.66,4681.57 1121.5,4679.07 1115,4671.5C 1106.41,4657.33 1098.08,4643 1090,4628.5C 1080.7,4607.43 1077.37,4585.43 1080,4562.5C 1085.56,4530.15 1091.23,4497.82 1097,4465.5C 1100.14,4458.69 1105.31,4454.36 1112.5,4452.5 Z"/></g>
<g><path style="opacity:0.989" fill="#db0c14" d="M 5198.5,4523.5 C 5217.83,4525.47 5224.66,4535.8 5219,4554.5C 5207.87,4567.96 5196.37,4581.13 5184.5,4594C 5168.39,4608.39 5149.72,4618.06 5128.5,4623C 5094.86,4627.97 5061.19,4632.81 5027.5,4637.5C 5015.43,4635.76 5008.76,4628.76 5007.5,4616.5C 5007.93,4611.76 5009.43,4607.43 5012,4603.5C 5022.17,4592 5032.33,4580.5 5042.5,4569C 5058.08,4554.78 5076.08,4544.78 5096.5,4539C 5130.64,4533.86 5164.64,4528.7 5198.5,4523.5 Z"/></g>
<g><path style="opacity:0.99" fill="#db0c14" d="M 3117.5,4557.5 C 3145.5,4555.91 3166.34,4567.25 3180,4591.5C 3192.79,4624.46 3184.95,4651.3 3156.5,4672C 3126.03,4686.97 3099.19,4682.14 3076,4657.5C 3064.27,4641.21 3060.61,4623.21 3065,4603.5C 3073.08,4577.24 3090.58,4561.91 3117.5,4557.5 Z"/></g>
<g><path style="opacity:0.99" fill="#db0c14" d="M 1210.5,4589.5 C 1221.79,4588.39 1230.29,4592.73 1236,4602.5C 1245.5,4616.16 1254.5,4630.16 1263,4644.5C 1271.68,4663.58 1275.35,4683.58 1274,4704.5C 1270.73,4736.17 1267.4,4767.84 1264,4799.5C 1261.45,4809.8 1254.78,4815.13 1244,4815.5C 1238.31,4815.16 1233.31,4813.16 1229,4809.5C 1220,4796.5 1211,4783.5 1202,4770.5C 1188.35,4746.58 1183.02,4720.91 1186,4693.5C 1189.26,4663.16 1192.59,4632.82 1196,4602.5C 1198.57,4595.49 1203.4,4591.16 1210.5,4589.5 Z"/></g>
<g><path style="opacity:0.99" fill="#db0c14" d="M 5085.5,4665.5 C 5091.51,4665.33 5097.51,4665.5 5103.5,4666C 5116.12,4672.4 5119.95,4682.23 5115,4695.5C 5100.06,4712.78 5083.56,4728.28 5065.5,4742C 5051.29,4750.63 5035.96,4756.29 5019.5,4759C 4986.01,4761.59 4952.51,4764.09 4919,4766.5C 4903.27,4763.75 4896.94,4754.42 4900,4738.5C 4901.08,4736 4902.41,4733.67 4904,4731.5C 4919.65,4715.18 4936.48,4700.35 4954.5,4687C 4966.71,4680.15 4979.71,4675.48 4993.5,4673C 5024.31,4670.44 5054.98,4667.94 5085.5,4665.5 Z"/></g>
<g><path style="opacity:0.99" fill="#db0c14" d="M 1317.5,4719.5 C 1327.6,4717.47 1335.76,4720.47 1342,4728.5C 1353.1,4741.6 1363.43,4755.27 1373,4769.5C 1384.22,4789.54 1389.39,4811.04 1388.5,4834C 1387.68,4865.51 1386.51,4897.01 1385,4928.5C 1380.74,4939.05 1372.91,4943.55 1361.5,4942C 1358.62,4941.56 1355.96,4940.56 1353.5,4939C 1336.19,4921.21 1321.69,4901.37 1310,4879.5C 1302.85,4862.73 1299.68,4845.23 1300.5,4827C 1301.35,4795.82 1302.51,4764.65 1304,4733.5C 1306.02,4726.32 1310.52,4721.65 1317.5,4719.5 Z"/></g>
<g><path style="opacity:0.986" fill="#db0c14" d="M 4890.5,4798.5 C 4922.17,4798.33 4953.84,4798.5 4985.5,4799C 4996.9,4800.91 5002.9,4807.75 5003.5,4819.5C 5003.26,4823.78 5002.1,4827.78 5000,4831.5C 4988.5,4841.67 4977,4851.83 4965.5,4862C 4946.87,4876.14 4925.87,4884.47 4902.5,4887C 4866.83,4887.67 4831.17,4887.67 4795.5,4887C 4786.17,4883.66 4781.5,4876.99 4781.5,4867C 4781.48,4860.05 4784.14,4854.38 4789.5,4850C 4802.92,4837.91 4816.92,4826.58 4831.5,4816C 4849.95,4805.57 4869.61,4799.74 4890.5,4798.5 Z"/></g>
<g><path style="opacity:0.991" fill="#db0c14" d="M 2417.5,4828.5 C 2418.16,4829.96 2418.49,4831.63 2418.5,4833.5C 2414.19,4884.67 2409.86,4935.84 2405.5,4987C 2405.83,4988.5 2406.17,4990 2406.5,4991.5C 2456.83,5012.33 2507.17,5033.17 2557.5,5054C 2504.73,5067.27 2451.73,5079.77 2398.5,5091.5C 2394.58,5146.65 2390.08,5201.65 2385,5256.5C 2356.67,5209.83 2328.33,5163.17 2300,5116.5C 2246.92,5130.23 2193.76,5142.9 2140.5,5154.5C 2176.02,5113.48 2211.35,5072.31 2246.5,5031C 2217.71,4984.58 2189.04,4938.08 2160.5,4891.5C 2160.83,4891.17 2161.17,4890.83 2161.5,4890.5C 2211.39,4911.41 2261.22,4932.41 2311,4953.5C 2346.71,4911.96 2382.21,4870.29 2417.5,4828.5 Z"/></g>
<g><path style="opacity:0.991" fill="#db0c14" d="M 3829.5,4828.5 C 3864.17,4867.34 3898,4907.01 3931,4947.5C 3932.72,4949.56 3934.72,4951.22 3937,4952.5C 3987.47,4930.99 4037.97,4910.33 4088.5,4890.5C 4059.71,4936.58 4031.04,4982.75 4002.5,5029C 4038.17,5070.67 4073.83,5112.33 4109.5,5154C 4056.54,5141.51 4003.54,5129.18 3950.5,5117C 3921.62,5163.25 3893.12,5209.75 3865,5256.5C 3860.31,5202.23 3855.81,5147.9 3851.5,5093.5C 3798.17,5080.67 3744.84,5067.83 3691.5,5055C 3741.61,5033.95 3791.94,5013.45 3842.5,4993.5C 3838.63,4938.46 3834.29,4883.46 3829.5,4828.5 Z"/></g>
<g><path style="opacity:0.989" fill="#db0c14" d="M 1437.5,4840.5 C 1443.67,4840.06 1449.34,4841.56 1454.5,4845C 1464,4855.17 1473.5,4865.33 1483,4875.5C 1499.87,4895.74 1509.53,4919.08 1512,4945.5C 1513.39,4978.84 1514.39,5012.17 1515,5045.5C 1509.76,5058.7 1500.26,5063.2 1486.5,5059C 1481.41,5055.92 1476.91,5052.08 1473,5047.5C 1462.63,5036.13 1452.63,5024.46 1443,5012.5C 1432.29,4995.7 1425.95,4977.36 1424,4957.5C 1422.4,4923.17 1421.4,4888.84 1421,4854.5C 1423.98,4846.67 1429.48,4842.01 1437.5,4840.5 Z"/></g>
<g><path style="opacity:0.99" fill="#db0c14" d="M 4748.5,4918.5 C 4787.9,4919.29 4827.24,4921.46 4866.5,4925C 4878.94,4930.73 4883.11,4940.23 4879,4953.5C 4877.53,4956.27 4875.7,4958.77 4873.5,4961C 4860.45,4971.05 4847.11,4980.72 4833.5,4990C 4810.23,5003.39 4785.23,5008.72 4758.5,5006C 4728.44,5004.14 4698.44,5001.81 4668.5,4999C 4660.32,4995.46 4655.99,4989.13 4655.5,4980C 4655.88,4975.12 4657.38,4970.62 4660,4966.5C 4675.21,4954.14 4691.05,4942.64 4707.5,4932C 4720.59,4925.36 4734.26,4920.86 4748.5,4918.5 Z"/></g>
<g><path style="opacity:0.989" fill="#db0c14" d="M 1563.5,4953.5 C 1569.3,4953.45 1574.64,4954.95 1579.5,4958C 1590,4967.83 1600.5,4977.67 1611,4987.5C 1628.06,5006.3 1638.73,5028.3 1643,5053.5C 1646.39,5085.85 1649.89,5118.18 1653.5,5150.5C 1650.61,5164.53 1641.95,5170.69 1627.5,5169C 1622.88,5167.69 1618.88,5165.36 1615.5,5162C 1602.67,5150.5 1590.5,5138.33 1579,5125.5C 1566.96,5109.41 1559.29,5091.41 1556,5071.5C 1552.43,5038.84 1548.93,5006.17 1545.5,4973.5C 1546.3,4962.03 1552.3,4955.37 1563.5,4953.5 Z"/></g>
<g><path style="opacity:0.992" fill="#db0c14" d="M 3123.5,4968.5 C 3124.97,4969.35 3125.8,4970.68 3126,4972.5C 3142.01,5022.89 3158.18,5073.22 3174.5,5123.5C 3229.5,5124.33 3284.5,5124.83 3339.5,5125C 3295.4,5156.13 3251.57,5187.63 3208,5219.5C 3208.01,5223.22 3208.68,5226.89 3210,5230.5C 3225.83,5278.67 3241.67,5326.83 3257.5,5375C 3257.17,5375.5 3256.83,5376 3256.5,5376.5C 3212.86,5344.69 3169.36,5312.69 3126,5280.5C 3081.67,5312.83 3037.33,5345.17 2993,5377.5C 2992.33,5376.17 2992.33,5374.83 2993,5373.5C 3010.37,5323.05 3026.71,5272.39 3042,5221.5C 2997.83,5189.33 2953.67,5157.17 2909.5,5125C 2964.17,5125.62 3018.83,5125.45 3073.5,5124.5C 3090.37,5072.55 3107.04,5020.55 3123.5,4968.5 Z"/></g>
<g><path style="opacity:0.989" fill="#db0c14" d="M 4616.5,5027.5 C 4623.51,5027.33 4630.51,5027.5 4637.5,5028C 4670.54,5032.39 4703.54,5037.05 4736.5,5042C 4747.54,5047.59 4751.37,5056.42 4748,5068.5C 4746.71,5072.24 4744.54,5075.41 4741.5,5078C 4730.17,5085.33 4718.83,5092.67 4707.5,5100C 4685.52,5112.74 4661.85,5118.41 4636.5,5117C 4603.12,5112.71 4569.78,5108.04 4536.5,5103C 4528.9,5101.06 4524.4,5096.23 4523,5088.5C 4521.3,5079.28 4524.13,5071.78 4531.5,5066C 4546.5,5056.16 4561.83,5046.83 4577.5,5038C 4590.17,5032.75 4603.17,5029.25 4616.5,5027.5 Z"/></g>
<g><path style="opacity:0.989" fill="#db0c14" d="M 1697.5,5057.5 C 1702.1,5057.72 1706.43,5058.89 1710.5,5061C 1727.18,5073.01 1742.68,5086.51 1757,5101.5C 1768.73,5116.3 1776.73,5132.96 1781,5151.5C 1786.83,5184.01 1792.67,5216.51 1798.5,5249C 1794.76,5265.21 1784.76,5271.21 1768.5,5267C 1751.12,5254.71 1734.96,5240.87 1720,5225.5C 1707.41,5210.31 1699.07,5192.98 1695,5173.5C 1689.31,5141.53 1683.81,5109.53 1678.5,5077.5C 1680.08,5066.26 1686.41,5059.59 1697.5,5057.5 Z"/></g>
<g><path style="opacity:0.989" fill="#db0c14" d="M 4470.5,5127.5 C 4480.87,5127.23 4491.21,5127.73 4501.5,5129C 4534.2,5135.87 4566.87,5142.87 4599.5,5150C 4609.87,5157.16 4612.71,5166.66 4608,5178.5C 4606.21,5181.3 4604.04,5183.8 4601.5,5186C 4587.99,5193.59 4574.33,5200.92 4560.5,5208C 4538.06,5217.82 4514.73,5220.82 4490.5,5217C 4458.81,5210.46 4427.14,5203.79 4395.5,5197C 4383.7,5191.3 4379.87,5182.13 4384,5169.5C 4385.74,5165.76 4388.24,5162.59 4391.5,5160C 4408.82,5149.68 4426.82,5140.68 4445.5,5133C 4453.87,5130.69 4462.21,5128.86 4470.5,5127.5 Z"/></g>
<g><path style="opacity:0.988" fill="#db0c14" d="M 1834.5,5152.5 C 1839.72,5152.13 1844.72,5152.97 1849.5,5155C 1862.17,5164 1874.83,5173 1887.5,5182C 1905.96,5197.79 1918.79,5217.29 1926,5240.5C 1933.67,5271.17 1941.33,5301.83 1949,5332.5C 1950.83,5347.84 1944,5356.17 1928.5,5357.5C 1925.04,5357.18 1921.71,5356.35 1918.5,5355C 1903.48,5344.82 1888.81,5334.16 1874.5,5323C 1860.1,5309.06 1849.6,5292.56 1843,5273.5C 1834.69,5241.58 1826.69,5209.58 1819,5177.5C 1817.08,5164.67 1822.24,5156.34 1834.5,5152.5 Z"/></g>
<g><path style="opacity:0.99" fill="#db0c14" d="M 4329.5,5216.5 C 4337.5,5217.19 4345.5,5218.02 4353.5,5219C 4388.08,5228.23 4422.42,5238.23 4456.5,5249C 4463.14,5255.46 4465.31,5263.29 4463,5272.5C 4461.6,5276.79 4459.1,5280.29 4455.5,5283C 4441.95,5289.61 4428.29,5295.94 4414.5,5302C 4391.75,5310.75 4368.41,5312.75 4344.5,5308C 4311.74,5298.98 4279.08,5289.64 4246.5,5280C 4237.46,5274.24 4234.3,5266.08 4237,5255.5C 4238.34,5251.49 4240.51,5247.99 4243.5,5245C 4259.48,5236.84 4275.81,5229.51 4292.5,5223C 4304.71,5219.3 4317.05,5217.13 4329.5,5216.5 Z"/></g>
<g><path style="opacity:0.989" fill="#db0c14" d="M 1979.5,5237.5 C 1983.51,5237.33 1987.51,5237.5 1991.5,5238C 2005.83,5245.83 2019.83,5254.16 2033.5,5263C 2052.92,5277.08 2067.08,5295.25 2076,5317.5C 2086,5348.17 2096,5378.83 2106,5409.5C 2107.08,5429.75 2097.58,5437.91 2077.5,5434C 2065.83,5427 2054.17,5420 2042.5,5413C 2020.44,5398.6 2004.61,5379.1 1995,5354.5C 1985,5323.83 1975,5293.17 1965,5262.5C 1963.14,5250.21 1967.97,5241.88 1979.5,5237.5 Z"/></g>
<g><path style="opacity:0.988" fill="#db0c14" d="M 4165.5,5295.5 C 4179.05,5295.14 4192.38,5296.64 4205.5,5300C 4239.25,5311.36 4272.59,5323.69 4305.5,5337C 4314.18,5348.85 4313.18,5359.85 4302.5,5370C 4285.54,5377.32 4268.21,5383.65 4250.5,5389C 4230.08,5393.84 4209.75,5393.5 4189.5,5388C 4158.17,5376.67 4126.83,5365.33 4095.5,5354C 4085.62,5348.74 4082.12,5340.57 4085,5329.5C 4086.34,5325.49 4088.51,5321.99 4091.5,5319C 4106.58,5312.46 4121.91,5306.46 4137.5,5301C 4146.83,5298.39 4156.16,5296.56 4165.5,5295.5 Z"/></g>
<g><path style="opacity:0.988" fill="#db0c14" d="M 2131.5,5311.5 C 2136.27,5311.19 2140.93,5311.69 2145.5,5313C 2159.5,5320.33 2173.5,5327.67 2187.5,5335C 2208.43,5348.93 2223.93,5367.43 2234,5390.5C 2245.86,5419.75 2257.53,5449.09 2269,5478.5C 2269.54,5492.97 2262.54,5500.97 2248,5502.5C 2240.37,5500.94 2233.2,5498.1 2226.5,5494C 2213.68,5487.76 2201.35,5480.76 2189.5,5473C 2174.46,5461.06 2162.62,5446.56 2154,5429.5C 2140.32,5397.14 2127.48,5364.47 2115.5,5331.5C 2116.81,5321.53 2122.15,5314.86 2131.5,5311.5 Z"/></g>
<g><path style="opacity:0.989" fill="#db0c14" d="M 3997.5,5363.5 C 4014.85,5362.27 4031.85,5364.1 4048.5,5369C 4081,5382.94 4113.33,5397.28 4145.5,5412C 4156.01,5422.89 4156.01,5433.89 4145.5,5445C 4124.86,5453.44 4103.52,5459.44 4081.5,5463C 4061.85,5464.84 4042.85,5462.17 4024.5,5455C 3993.56,5441.53 3962.9,5427.53 3932.5,5413C 3925.76,5403.11 3925.93,5393.27 3933,5383.5C 3937.03,5380.4 3941.53,5378.24 3946.5,5377C 3963.39,5371.53 3980.39,5367.03 3997.5,5363.5 Z"/></g>
<g><path style="opacity:0.988" fill="#db0c14" d="M 2291.5,5374.5 C 2310.89,5380.02 2329.55,5387.52 2347.5,5397C 2365.33,5408.17 2379.83,5422.67 2391,5440.5C 2405.67,5470.5 2420.33,5500.5 2435,5530.5C 2437.95,5543.56 2433.12,5552.39 2420.5,5557C 2416.83,5557.67 2413.17,5557.67 2409.5,5557C 2396.83,5551.67 2384.17,5546.33 2371.5,5541C 2347.82,5529.32 2329.32,5512.15 2316,5489.5C 2301.39,5459.96 2287.06,5430.29 2273,5400.5C 2271.27,5386.08 2277.44,5377.41 2291.5,5374.5 Z"/></g>
<g><path style="opacity:0.99" fill="#db0c14" d="M 3830.5,5419.5 C 3850.04,5418.03 3869.04,5420.53 3887.5,5427C 3919.12,5442.81 3950.45,5459.14 3981.5,5476C 3989.11,5482.1 3991.61,5489.93 3989,5499.5C 3986.41,5506.43 3981.57,5510.93 3974.5,5513C 3954.18,5518.77 3933.51,5522.27 3912.5,5523.5C 3894.69,5523.96 3877.69,5520.46 3861.5,5513C 3832.66,5497.41 3803.66,5482.08 3774.5,5467C 3763.72,5455.41 3764.06,5444.08 3775.5,5433C 3793.67,5427.37 3812,5422.87 3830.5,5419.5 Z"/></g>
<g><path style="opacity:0.988" fill="#db0c14" d="M 2448.5,5427.5 C 2452.18,5427.33 2455.85,5427.5 2459.5,5428C 2474.58,5433.14 2489.58,5438.47 2504.5,5444C 2525.71,5454.21 2542.87,5469.04 2556,5488.5C 2571.75,5516.33 2587.75,5544 2604,5571.5C 2608.73,5588.45 2602.4,5598.45 2585,5601.5C 2569.99,5597.27 2555.15,5592.44 2540.5,5587C 2515.83,5577.08 2496.33,5560.91 2482,5538.5C 2466,5510.5 2450,5482.5 2434,5454.5C 2430.96,5441.24 2435.8,5432.24 2448.5,5427.5 Z"/></g>
<g><path style="opacity:0.988" fill="#db0c14" d="M 3664.5,5463.5 C 3688.14,5462.39 3710.47,5467.23 3731.5,5478C 3759.83,5495.67 3788.17,5513.33 3816.5,5531C 3823.07,5538.68 3824.24,5547.18 3820,5556.5C 3817.38,5561.12 3813.55,5564.28 3808.5,5566C 3789.64,5569.59 3770.64,5572.09 3751.5,5573.5C 3730.98,5573.37 3711.65,5568.54 3693.5,5559C 3666,5541.42 3638.33,5524.08 3610.5,5507C 3600.82,5497.67 3599.98,5487.5 3608,5476.5C 3612.02,5472.6 3616.85,5470.43 3622.5,5470C 3636.66,5467.92 3650.66,5465.75 3664.5,5463.5 Z"/></g>
<g><path style="opacity:0.989" fill="#db0c14" d="M 2612.5,5468.5 C 2638.74,5471.81 2663.74,5479.31 2687.5,5491C 2701.53,5499.37 2713.37,5510.2 2723,5523.5C 2741,5550.17 2759,5576.83 2777,5603.5C 2781.22,5617.23 2776.72,5626.73 2763.5,5632C 2758.1,5632.77 2752.76,5632.44 2747.5,5631C 2732.64,5627.27 2717.98,5622.94 2703.5,5618C 2682.5,5609.33 2665.34,5595.83 2652,5577.5C 2633.75,5550.67 2615.75,5523.67 2598,5496.5C 2594.64,5482.88 2599.48,5473.54 2612.5,5468.5 Z"/></g>
<g><path style="opacity:0.989" fill="#db0c14" d="M 3499.5,5495.5 C 3524.94,5495.92 3548.27,5503.09 3569.5,5517C 3595.76,5536.04 3621.92,5555.21 3648,5574.5C 3654.53,5586.18 3652.7,5596.34 3642.5,5605C 3639.75,5606.75 3636.75,5607.75 3633.5,5608C 3614.56,5610.33 3595.56,5611.33 3576.5,5611C 3555.85,5608.9 3536.85,5602.23 3519.5,5591C 3494.01,5572.09 3468.34,5553.42 3442.5,5535C 3436.38,5528.17 3434.88,5520.34 3438,5511.5C 3440.17,5506.67 3443.67,5503.17 3448.5,5501C 3465.56,5498.55 3482.56,5496.72 3499.5,5495.5 Z"/></g>
<g><path style="opacity:0.989" fill="#db0c14" d="M 2777.5,5498.5 C 2799.6,5500.29 2821.27,5504.45 2842.5,5511C 2862.65,5518.65 2879.48,5530.82 2893,5547.5C 2912,5571.83 2931,5596.17 2950,5620.5C 2955.9,5632.48 2953.4,5642.31 2942.5,5650C 2939.14,5651.45 2935.64,5652.29 2932,5652.5C 2909.96,5649.49 2888.46,5644.33 2867.5,5637C 2851.62,5629.64 2837.79,5619.48 2826,5606.5C 2806.24,5580.65 2786.24,5554.99 2766,5529.5C 2759.72,5515.4 2763.55,5505.07 2777.5,5498.5 Z"/></g>
<g><path style="opacity:0.989" fill="#db0c14" d="M 2945.5,5516.5 C 2967.46,5517.12 2989.12,5519.95 3010.5,5525C 3033.27,5532.47 3052.44,5545.3 3068,5563.5C 3086.96,5585.46 3106.3,5607.13 3126,5628.5C 3131.43,5641.21 3128.26,5651.04 3116.5,5658C 3113.42,5659.01 3110.26,5659.51 3107,5659.5C 3090.74,5657.99 3074.58,5655.82 3058.5,5653C 3034.47,5647.58 3013.97,5636.08 2997,5618.5C 2975.67,5594.5 2954.33,5570.5 2933,5546.5C 2928.1,5532.64 2932.27,5522.64 2945.5,5516.5 Z"/></g>
<g><path style="opacity:0.99" fill="#db0c14" d="M 3284.5,5516.5 C 3303.5,5516.33 3322.5,5516.5 3341.5,5517C 3364.87,5520.02 3385.53,5529.02 3403.5,5544C 3427.96,5564.12 3452.13,5584.62 3476,5605.5C 3480.43,5615.69 3478.93,5624.85 3471.5,5633C 3468.78,5634.91 3465.78,5636.24 3462.5,5637C 3443.83,5637.67 3425.17,5637.67 3406.5,5637C 3383.31,5634.16 3362.64,5625.5 3344.5,5611C 3320.61,5590.14 3296.45,5569.64 3272,5549.5C 3264.96,5534.25 3269.12,5523.25 3284.5,5516.5 Z"/></g>
<g><path style="opacity:0.989" fill="#db0c14" d="M 3114.5,5522.5 C 3137.01,5522.34 3159.35,5524.18 3181.5,5528C 3199.2,5533.18 3215.2,5541.52 3229.5,5553C 3253.33,5576.17 3277.17,5599.33 3301,5622.5C 3306.69,5633.44 3304.86,5642.94 3295.5,5651C 3293.28,5652.28 3290.95,5653.28 3288.5,5654C 3266.32,5654.62 3244.32,5652.95 3222.5,5649C 3204.48,5644.33 3188.48,5635.99 3174.5,5624C 3150.67,5600.83 3126.83,5577.67 3103,5554.5C 3096.44,5540.02 3100.27,5529.36 3114.5,5522.5 Z"/></g>
</svg>
