<?xml version="1.0" encoding="UTF-8"?>
<!DOCTYPE svg PUBLIC "-//W3C//DTD SVG 1.1//EN" "http://www.w3.org/Graphics/SVG/1.1/DTD/svg11.dtd">
<svg xmlns="http://www.w3.org/2000/svg" version="1.1" width="512px" height="512px" style="shape-rendering:geometricPrecision; text-rendering:geometricPrecision; image-rendering:optimizeQuality; fill-rule:evenodd; clip-rule:evenodd" xmlns:xlink="http://www.w3.org/1999/xlink">
<g><path style="opacity:0.978" fill="#312d3e" d="M 249.5,-0.5 C 256.833,-0.5 264.167,-0.5 271.5,-0.5C 277.319,0.327574 283.319,0.827574 289.5,1C 291.333,1.5 292.5,2.66667 293,4.5C 292.41,23.684 291.243,42.8507 289.5,62C 289.833,62.8333 290.167,63.6667 290.5,64.5C 296.915,61.7507 303.581,59.9174 310.5,59C 337.82,57.578 365.153,57.2447 392.5,58C 393,58.5 393.5,59 394,59.5C 394.936,72.8274 395.27,86.1607 395,99.5C 394.626,100.416 394.126,101.25 393.5,102C 367.918,103.439 342.251,104.439 316.5,105C 309.094,106.199 303.094,109.699 298.5,115.5C 311.778,122.935 323.112,132.768 332.5,145C 361.242,143.12 384.409,153.62 402,176.5C 423.496,208.799 433.662,244.466 432.5,283.5C 432.265,328.443 421.098,370.443 399,409.5C 393.667,416.833 388.333,424.167 383,431.5C 382.667,457.167 382.333,482.833 382,508.5C 381.487,509.527 380.987,510.527 380.5,511.5C 378.167,511.5 375.833,511.5 373.5,511.5C 372.058,510.18 371.392,508.514 371.5,506.5C 371.5,494.833 371.5,483.167 371.5,471.5C 371.666,461.828 371.5,452.161 371,442.5C 362.088,450.736 352.088,457.402 341,462.5C 340.172,477.339 340.339,492.006 341.5,506.5C 341.107,508.284 340.441,509.95 339.5,511.5C 336.833,511.5 334.167,511.5 331.5,511.5C 331.013,510.527 330.513,509.527 330,508.5C 329.5,494.837 329.333,481.171 329.5,467.5C 289.763,476.441 254.596,467.441 224,440.5C 223.667,455.167 223.333,469.833 223,484.5C 220.847,486.444 218.347,486.944 215.5,486C 213.624,485.082 212.624,483.582 212.5,481.5C 212.5,470.833 212.5,460.167 212.5,449.5C 212.666,442.492 212.5,435.492 212,428.5C 200.613,416.062 190.946,402.395 183,387.5C 182.5,400.829 182.333,414.163 182.5,427.5C 182.5,445.5 182.5,463.5 182.5,481.5C 182.703,483.39 182.037,484.89 180.5,486C 177.331,486.978 174.497,486.478 172,484.5C 171.833,450.162 171.333,415.828 170.5,381.5C 137.732,390.966 110.898,382.299 90,355.5C 76.2152,332.245 74.8819,308.245 86,283.5C 101.357,257.404 124.191,245.404 154.5,247.5C 155.647,247.182 156.481,246.516 157,245.5C 158.967,233.13 161.801,220.964 165.5,209C 163.587,192.8 165.254,176.967 170.5,161.5C 170.244,158.729 168.91,156.562 166.5,155C 153.929,148.8 141.762,141.967 130,134.5C 128.65,128.192 131.15,125.525 137.5,126.5C 150.662,133.58 163.662,140.913 176.5,148.5C 179.955,151.915 181.621,156.082 181.5,161C 180.216,167.86 178.716,174.693 177,181.5C 176.333,183.5 176.333,185.5 177,187.5C 190.436,164.056 210.436,150.056 237,145.5C 238.329,136.205 239.162,126.871 239.5,117.5C 231.268,118.022 223.602,120.355 216.5,124.5C 210.554,128.974 203.887,130.807 196.5,130C 179.921,121.876 163.255,114.043 146.5,106.5C 143.032,101.268 144.198,97.6011 150,95.5C 158.462,99.3157 166.962,102.982 175.5,106.5C 172.907,94.9489 171.407,83.2822 171,71.5C 175.307,67.6536 178.807,68.3203 181.5,73.5C 183.804,86.7897 185.97,100.123 188,113.5C 194.527,119.981 201.694,120.981 209.5,116.5C 209.017,100.597 206.684,84.9305 202.5,69.5C 203.293,64.2241 206.293,62.3908 211.5,64C 212.333,64.8333 213.167,65.6667 214,66.5C 216.502,80.8464 219.002,95.1798 221.5,109.5C 227.727,107.694 234.06,106.36 240.5,105.5C 242.542,71.1633 244.709,36.83 247,2.5C 247.698,1.30943 248.531,0.309426 249.5,-0.5 Z"/></g>
<g><path style="opacity:1" fill="#f36584" d="M 269.5,11.5 C 267.61,48.5109 265.444,85.5109 263,122.5C 261.954,136.114 259.62,149.447 256,162.5C 252.369,166.524 248.536,167.191 244.5,164.5C 246.753,151.232 248.586,137.898 250,124.5C 252.579,86.4953 255.079,48.4953 257.5,10.5C 261.702,10.1832 265.702,10.5166 269.5,11.5 Z"/></g>
<g><path style="opacity:1" fill="#f597b6" d="M 269.5,11.5 C 273.167,11.5 276.833,11.5 280.5,11.5C 279.936,30.6858 278.936,49.8524 277.5,69C 277.667,71.5 277.833,74 278,76.5C 279.82,79.2028 282.32,80.0361 285.5,79C 292.951,74.6263 300.951,71.6263 309.5,70C 326.479,68.8054 343.479,68.3054 360.5,68.5C 360.5,76.5 360.5,84.5 360.5,92.5C 344.843,93.1529 329.176,93.6529 313.5,94C 295.952,99.2114 283.785,110.378 277,127.5C 274.934,133.498 273.767,139.665 273.5,146C 274.96,158.222 276.794,170.389 279,182.5C 282.018,187.265 285.351,187.598 289,183.5C 289.326,179.47 289.326,175.47 289,171.5C 307.57,184.399 322.236,200.732 333,220.5C 336.333,224.5 339.667,224.5 343,220.5C 343.667,218.833 343.667,217.167 343,215.5C 337.737,207.297 332.237,199.297 326.5,191.5C 345.026,184.399 359.526,189.399 370,206.5C 377.356,214.97 386.189,216.803 396.5,212C 400.506,209.149 402.84,205.315 403.5,200.5C 422.197,236.099 425.864,273.099 414.5,311.5C 404.36,305.064 395.526,306.73 388,316.5C 382.79,347.368 364.623,360.535 333.5,356C 322.359,353.731 311.692,350.064 301.5,345C 293.615,343.504 286.282,344.67 279.5,348.5C 269.333,338.828 260.833,327.828 254,315.5C 249.414,311.024 245.914,311.691 243.5,317.5C 250.265,330.597 258.598,342.597 268.5,353.5C 257.652,356.168 246.652,357.001 235.5,356C 225.829,354.334 217.829,349.834 211.5,342.5C 221.036,316.188 217.036,292.188 199.5,270.5C 200.059,242.201 206.892,215.534 220,190.5C 223.277,185.586 226.777,180.92 230.5,176.5C 230.78,181.49 233.447,183.324 238.5,182C 239.701,181.097 240.535,179.931 241,178.5C 241.884,173.632 243.05,168.966 244.5,164.5C 248.536,167.191 252.369,166.524 256,162.5C 259.62,149.447 261.954,136.114 263,122.5C 265.444,85.5109 267.61,48.5109 269.5,11.5 Z"/></g>
<g><path style="opacity:1" fill="#f6bfcf" d="M 360.5,68.5 C 368.167,68.5 375.833,68.5 383.5,68.5C 383.5,76.5 383.5,84.5 383.5,92.5C 375.833,92.5 368.167,92.5 360.5,92.5C 360.5,84.5 360.5,76.5 360.5,68.5 Z"/></g>
<g><path style="opacity:0.995" fill="#f35179" d="M 202.5,69.5 C 206.684,84.9305 209.017,100.597 209.5,116.5C 201.694,120.981 194.527,119.981 188,113.5C 185.97,100.123 183.804,86.7897 181.5,73.5C 188.544,72.271 195.544,70.9376 202.5,69.5 Z"/></g>
<g><path style="opacity:0.994" fill="#7acafd" d="M 146.5,106.5 C 163.255,114.043 179.921,121.876 196.5,130C 203.887,130.807 210.554,128.974 216.5,124.5C 213.861,136.641 206.528,144.475 194.5,148C 188.509,148.499 182.509,148.666 176.5,148.5C 163.662,140.913 150.662,133.58 137.5,126.5C 141.052,120.064 144.052,113.397 146.5,106.5 Z"/></g>
<g><path style="opacity:1" fill="#7476cf" d="M 176.5,148.5 C 182.509,148.666 188.509,148.499 194.5,148C 206.528,144.475 213.861,136.641 216.5,124.5C 223.602,120.355 231.268,118.022 239.5,117.5C 239.162,126.871 238.329,136.205 237,145.5C 210.436,150.056 190.436,164.056 177,187.5C 176.333,185.5 176.333,183.5 177,181.5C 178.716,174.693 180.216,167.86 181.5,161C 181.621,156.082 179.955,151.915 176.5,148.5 Z"/></g>
<g><path style="opacity:1" fill="#7475cf" d="M 289.5,124.5 C 301.357,130.173 311.69,138.006 320.5,148C 310.58,151.044 301.413,155.544 293,161.5C 290.966,159.968 288.799,158.635 286.5,157.5C 283.302,146.15 284.302,135.15 289.5,124.5 Z"/></g>
<g><path style="opacity:1" fill="#fdc8dd" d="M 403.5,200.5 C 402.84,205.315 400.506,209.149 396.5,212C 386.189,216.803 377.356,214.97 370,206.5C 359.526,189.399 345.026,184.399 326.5,191.5C 319.032,183.199 311.032,175.366 302.5,168C 339.963,147.226 371.463,154.06 397,188.5C 399.446,192.394 401.612,196.394 403.5,200.5 Z"/></g>
<g><path style="opacity:1" fill="#f56584" d="M 230.5,176.5 C 226.777,180.92 223.277,185.586 220,190.5C 206.892,215.534 200.059,242.201 199.5,270.5C 190.757,261.434 180.423,254.767 168.5,250.5C 169.809,225.408 177.976,202.742 193,182.5C 201.125,172.695 210.958,165.195 222.5,160C 226.313,158.228 230.313,157.395 234.5,157.5C 233.423,163.883 232.09,170.216 230.5,176.5 Z"/></g>
<g><path style="opacity:1" fill="#f1f1f1" d="M 245.5,204.5 C 259.75,202.88 270.917,207.88 279,219.5C 283.58,225.66 287.914,231.993 292,238.5C 296.263,263.607 285.597,276.607 260,277.5C 236.794,274.626 223.961,261.459 221.5,238C 221.803,221.2 229.803,210.034 245.5,204.5 Z"/></g>
<g><path style="opacity:1" fill="#363040" d="M 355.5,246.5 C 358.695,245.961 361.195,246.961 363,249.5C 358.421,270.415 365.921,276.415 385.5,267.5C 392.144,271.177 392.144,275.01 385.5,279C 375.345,284.276 365.678,283.61 356.5,277C 348.898,267.039 348.565,256.872 355.5,246.5 Z"/></g>
<g><path style="opacity:1" fill="#342f3f" d="M 313.5,255.5 C 327.097,257.268 335.43,264.768 338.5,278C 336.979,289.531 330.646,297.031 319.5,300.5C 315.673,299.181 314.173,296.514 315,292.5C 319.034,289.978 322.701,286.978 326,283.5C 328.618,278.054 327.451,273.554 322.5,270C 318.391,268.199 314.558,266.032 311,263.5C 310.018,260.225 310.851,257.559 313.5,255.5 Z"/></g>
<g><path style="opacity:1" fill="#48d092" d="M 135.5,258.5 C 171.692,255.163 194.858,270.83 205,305.5C 208.051,339.919 193.218,362.419 160.5,373C 130.136,377.902 107.97,366.735 94,339.5C 83.675,310.619 90.5084,286.786 114.5,268C 121.095,263.698 128.095,260.531 135.5,258.5 Z"/></g>
<g><path style="opacity:1" fill="#31303f" d="M 177.5,330.5 C 172.167,330.5 166.833,330.5 161.5,330.5C 161.5,335.833 161.5,341.167 161.5,346.5C 161.056,348.113 160.056,349.28 158.5,350C 150.395,350.934 142.395,350.601 134.5,349C 133.874,348.25 133.374,347.416 133,346.5C 132.501,341.177 132.334,335.844 132.5,330.5C 126.771,330.788 121.104,330.454 115.5,329.5C 114.808,328.975 114.308,328.308 114,327.5C 113.333,319.833 113.333,312.167 114,304.5C 114.833,303.667 115.667,302.833 116.5,302C 121.823,301.501 127.156,301.334 132.5,301.5C 132.334,296.156 132.501,290.823 133,285.5C 133.833,284.667 134.667,283.833 135.5,283C 143.5,282.333 151.5,282.333 159.5,283C 160,283.5 160.5,284 161,284.5C 161.499,290.157 161.666,295.824 161.5,301.5C 166.844,301.334 172.177,301.501 177.5,302C 178.931,302.465 180.097,303.299 181,304.5C 181.667,312.167 181.667,319.833 181,327.5C 179.961,328.71 178.794,329.71 177.5,330.5 Z"/></g>
<g><path style="opacity:1" fill="#f9f9fa" d="M 139.5,320.5 C 134.695,319.513 129.695,319.179 124.5,319.5C 124.5,317.167 124.5,314.833 124.5,312.5C 129.844,312.666 135.177,312.499 140.5,312C 141.333,311.167 142.167,310.333 143,309.5C 143.499,303.843 143.666,298.176 143.5,292.5C 146.167,292.5 148.833,292.5 151.5,292.5C 151.334,298.176 151.501,303.843 152,309.5C 152.833,310.333 153.667,311.167 154.5,312C 160.157,312.499 165.824,312.666 171.5,312.5C 171.5,314.833 171.5,317.167 171.5,319.5C 165.824,319.334 160.157,319.501 154.5,320C 153.667,320.833 152.833,321.667 152,322.5C 151.501,328.157 151.334,333.824 151.5,339.5C 148.833,339.5 146.167,339.5 143.5,339.5C 143.666,334.156 143.499,328.823 143,323.5C 142.578,321.574 141.411,320.574 139.5,320.5 Z"/></g>
<g><path style="opacity:1" fill="#342f3f" d="M 347.5,295.5 C 359.55,295.111 368.05,300.445 373,311.5C 374.167,317.667 371.667,320.167 365.5,319C 363.323,314.979 360.656,311.312 357.5,308C 352.354,305.496 347.854,306.329 344,310.5C 341.592,314.058 339.758,317.891 338.5,322C 331.083,324.922 328.25,322.422 330,314.5C 332.955,305.383 338.789,299.05 347.5,295.5 Z"/></g>
<g><path style="opacity:1" fill="#f56584" d="M 414.5,311.5 C 408.997,336.027 396.331,355.861 376.5,371C 357.943,381.587 338.61,383.253 318.5,376C 303.363,369.773 290.363,360.607 279.5,348.5C 286.282,344.67 293.615,343.504 301.5,345C 311.692,350.064 322.359,353.731 333.5,356C 364.623,360.535 382.79,347.368 388,316.5C 395.526,306.73 404.36,305.064 414.5,311.5 Z"/></g>
<g><path style="opacity:1" fill="#a4a3aa" d="M 124.5,312.5 C 124.5,314.833 124.5,317.167 124.5,319.5C 129.695,319.179 134.695,319.513 139.5,320.5C 134.167,320.5 128.833,320.5 123.5,320.5C 123.194,317.615 123.527,314.948 124.5,312.5 Z"/></g>
<g><path style="opacity:1" fill="#3f9071" d="M 177.5,330.5 C 172.695,331.487 167.695,331.821 162.5,331.5C 162.821,336.695 162.487,341.695 161.5,346.5C 161.5,341.167 161.5,335.833 161.5,330.5C 166.833,330.5 172.167,330.5 177.5,330.5 Z"/></g>
<g><path style="opacity:1" fill="#f56584" d="M 211.5,342.5 C 217.829,349.834 225.829,354.334 235.5,356C 246.652,357.001 257.652,356.168 268.5,353.5C 273.497,358.329 278.664,362.996 284,367.5C 284.688,368.332 284.521,368.998 283.5,369.5C 261.747,382.701 239.414,383.867 216.5,373C 210.8,369.146 205.467,364.812 200.5,360C 204.817,354.524 208.483,348.69 211.5,342.5 Z"/></g>
<g><path style="opacity:1" fill="#dc3d5c" d="M 373.5,424.5 C 370.322,421.78 366.655,420.946 362.5,422C 345.312,439.291 324.479,448.457 300,449.5C 294.718,449.554 289.552,448.887 284.5,447.5C 281.403,443.306 279.403,438.639 278.5,433.5C 305.947,440.192 330.114,433.859 351,414.5C 351.711,412.633 351.211,411.133 349.5,410C 330.207,410.533 312.041,406.367 295,397.5C 280.609,404.557 265.443,409.057 249.5,411C 248.643,411.689 247.977,412.522 247.5,413.5C 252.785,418.81 258.785,423.144 265.5,426.5C 266.313,431.181 267.313,435.848 268.5,440.5C 268.631,441.239 268.464,441.906 268,442.5C 259.791,438.646 251.958,434.146 244.5,429C 237.5,422.667 230.5,416.333 223.5,410C 221.833,409.333 220.167,409.333 218.5,410C 216.783,411.559 214.783,412.392 212.5,412.5C 202.676,400.204 194.343,386.871 187.5,372.5C 189.483,371.018 191.316,369.351 193,367.5C 218.731,393.377 248.231,398.544 281.5,383C 285.833,380.5 290.167,378 294.5,375.5C 323.54,394.168 353.207,395.335 383.5,379C 395.474,370.695 404.974,360.195 412,347.5C 405.525,376.45 392.692,402.117 373.5,424.5 Z"/></g>
<g><path style="opacity:1" fill="#7577d1" d="M 212.5,449.5 C 206.381,448.109 200.715,445.609 195.5,442C 190.56,437.568 186.227,432.735 182.5,427.5C 182.333,414.163 182.5,400.829 183,387.5C 190.946,402.395 200.613,416.062 212,428.5C 212.5,435.492 212.666,442.492 212.5,449.5 Z"/></g>
<g><path style="opacity:1" fill="#c92a4e" d="M 278.5,433.5 C 276.857,426.075 276.024,418.409 276,410.5C 273,407.833 270,407.833 267,410.5C 265.661,415.736 265.161,421.07 265.5,426.5C 258.785,423.144 252.785,418.81 247.5,413.5C 247.977,412.522 248.643,411.689 249.5,411C 265.443,409.057 280.609,404.557 295,397.5C 312.041,406.367 330.207,410.533 349.5,410C 351.211,411.133 351.711,412.633 351,414.5C 330.114,433.859 305.947,440.192 278.5,433.5 Z"/></g>
<g><path style="opacity:1" fill="#a5203f" d="M 268.5,440.5 C 270.706,445.901 273.706,450.901 277.5,455.5C 276.833,455.833 276.167,456.167 275.5,456.5C 250.078,448.064 229.078,433.398 212.5,412.5C 214.783,412.392 216.783,411.559 218.5,410C 220.167,409.333 221.833,409.333 223.5,410C 230.5,416.333 237.5,422.667 244.5,429C 251.958,434.146 259.791,438.646 268,442.5C 268.464,441.906 268.631,441.239 268.5,440.5 Z"/></g>
<g><path style="opacity:1" fill="#a5203f" d="M 373.5,424.5 C 357.047,444.229 336.047,455.896 310.5,459.5C 299.993,459.243 291.326,455.243 284.5,447.5C 289.552,448.887 294.718,449.554 300,449.5C 324.479,448.457 345.312,439.291 362.5,422C 366.655,420.946 370.322,421.78 373.5,424.5 Z"/></g>
<g><path style="opacity:0.986" fill="#7bcbfe" d="M 182.5,427.5 C 186.227,432.735 190.56,437.568 195.5,442C 200.715,445.609 206.381,448.109 212.5,449.5C 212.5,460.167 212.5,470.833 212.5,481.5C 202.5,481.5 192.5,481.5 182.5,481.5C 182.5,463.5 182.5,445.5 182.5,427.5 Z"/></g>
<g><path style="opacity:1" fill="#d12b5d" d="M 371.5,471.5 C 363.519,480.386 353.519,484.386 341.5,483.5C 341.5,491.167 341.5,498.833 341.5,506.5C 340.339,492.006 340.172,477.339 341,462.5C 352.088,457.402 362.088,450.736 371,442.5C 371.5,452.161 371.666,461.828 371.5,471.5 Z"/></g>
<g><path style="opacity:0.987" fill="#f6517a" d="M 371.5,471.5 C 371.5,483.167 371.5,494.833 371.5,506.5C 361.5,506.5 351.5,506.5 341.5,506.5C 341.5,498.833 341.5,491.167 341.5,483.5C 353.519,484.386 363.519,480.386 371.5,471.5 Z"/></g>
</svg>
