<?xml version="1.0" encoding="UTF-8"?>
<!DOCTYPE svg PUBLIC "-//W3C//DTD SVG 1.1//EN" "http://www.w3.org/Graphics/SVG/1.1/DTD/svg11.dtd">
<svg xmlns="http://www.w3.org/2000/svg" version="1.1" width="512px" height="512px" style="shape-rendering:geometricPrecision; text-rendering:geometricPrecision; image-rendering:optimizeQuality; fill-rule:evenodd; clip-rule:evenodd" xmlns:xlink="http://www.w3.org/1999/xlink">
<g><path style="opacity:0.996" fill="#322e3e" d="M 294.5,-0.5 C 299.167,-0.5 303.833,-0.5 308.5,-0.5C 313.3,1.16604 317.966,3.33271 322.5,6C 328.646,12.6337 334.313,19.6337 339.5,27C 356.525,27.9852 373.525,28.9852 390.5,30C 391.464,34.0659 391.797,38.2325 391.5,42.5C 418.835,42.3334 446.169,42.5 473.5,43C 474.333,43.8333 475.167,44.6667 476,45.5C 476.667,199.833 476.667,354.167 476,508.5C 475.302,509.691 474.469,510.691 473.5,511.5C 358.5,511.5 243.5,511.5 128.5,511.5C 128.217,510.711 127.717,510.044 127,509.5C 126.333,354.5 126.333,199.5 127,44.5C 127.5,44 128,43.5 128.5,43C 155.831,42.5 183.165,42.3334 210.5,42.5C 210.021,38.0887 210.688,33.922 212.5,30C 228.433,28.7118 244.433,28.0451 260.5,28C 263.102,27.1166 265.269,25.6166 267,23.5C 272.045,10.6129 281.211,2.61288 294.5,-0.5 Z"/></g>
<g><path style="opacity:1" fill="#a7d0fe" d="M 380.5,71.5 C 378.641,72.5942 376.641,73.4275 374.5,74C 325.167,74.6667 275.833,74.6667 226.5,74C 224.804,72.8236 223.138,71.657 221.5,70.5C 221.5,60.5 221.5,50.5 221.5,40.5C 234.504,40.6666 247.504,40.4999 260.5,40C 266.682,38.4833 271.849,35.3166 276,30.5C 283.808,11.5087 296.975,6.34208 315.5,15C 320.526,20.217 324.692,26.0504 328,32.5C 331.081,35.2931 334.581,37.4597 338.5,39C 352.441,40.4285 366.441,40.9285 380.5,40.5C 380.5,50.8333 380.5,61.1667 380.5,71.5 Z"/></g>
<g><path style="opacity:1" fill="#fefeff" d="M 298.5,25.5 C 300.199,25.3398 301.866,25.5065 303.5,26C 315.178,48.0085 333.512,57.6752 358.5,55C 362.5,57.6667 362.5,60.3333 358.5,63C 320.167,63.6667 281.833,63.6667 243.5,63C 240.833,60.3333 240.833,57.6667 243.5,55C 261.63,57.3344 277.13,52.1678 290,39.5C 293.109,34.9393 295.942,30.2727 298.5,25.5 Z"/></g>
<g><path style="opacity:1" fill="#fe9472" d="M 190.5,53.5 C 187.833,57.5 187.833,61.5 190.5,65.5C 177.656,65.1713 164.989,65.5046 152.5,66.5C 151.542,66.9528 150.708,67.6195 150,68.5C 149.333,206.5 149.333,344.5 150,482.5C 150.465,483.931 151.299,485.097 152.5,486C 169.163,486.5 185.83,486.667 202.5,486.5C 199.835,491.161 199.835,495.828 202.5,500.5C 180.833,500.5 159.167,500.5 137.5,500.5C 137.5,351.5 137.5,202.5 137.5,53.5C 155.167,53.5 172.833,53.5 190.5,53.5 Z"/></g>
<g><path style="opacity:1" fill="#ff4655" d="M 190.5,53.5 C 197.167,53.5 203.833,53.5 210.5,53.5C 210.5,57.5 210.5,61.5 210.5,65.5C 203.833,65.5 197.167,65.5 190.5,65.5C 187.833,61.5 187.833,57.5 190.5,53.5 Z"/></g>
<g><path style="opacity:1" fill="#ff4555" d="M 422.5,53.5 C 423.833,57.5 423.833,61.5 422.5,65.5C 412.167,65.5 401.833,65.5 391.5,65.5C 391.5,61.5 391.5,57.5 391.5,53.5C 401.833,53.5 412.167,53.5 422.5,53.5 Z"/></g>
<g><path style="opacity:1" fill="#fa9271" d="M 422.5,53.5 C 436.5,53.5 450.5,53.5 464.5,53.5C 464.5,202.5 464.5,351.5 464.5,500.5C 445.833,500.5 427.167,500.5 408.5,500.5C 409.833,495.833 409.833,491.167 408.5,486.5C 422.171,486.667 435.837,486.5 449.5,486C 450.333,485.167 451.167,484.333 452,483.5C 452.667,345.167 452.667,206.833 452,68.5C 451.167,67.6667 450.333,66.8333 449.5,66C 440.506,65.5002 431.506,65.3336 422.5,65.5C 423.833,61.5 423.833,57.5 422.5,53.5 Z"/></g>
<g><path style="opacity:1" fill="#723d48" d="M 210.5,53.5 C 211.485,57.6344 211.818,61.9677 211.5,66.5C 191.833,66.5 172.167,66.5 152.5,66.5C 164.989,65.5046 177.656,65.1713 190.5,65.5C 197.167,65.5 203.833,65.5 210.5,65.5C 210.5,61.5 210.5,57.5 210.5,53.5 Z"/></g>
<g><path style="opacity:1" fill="#6285d8" d="M 221.5,70.5 C 223.138,71.657 224.804,72.8236 226.5,74C 275.833,74.6667 325.167,74.6667 374.5,74C 376.641,73.4275 378.641,72.5942 380.5,71.5C 382.102,79.2461 379.435,84.7461 372.5,88C 324.833,88.6667 277.167,88.6667 229.5,88C 226.417,87.214 224.251,85.3807 223,82.5C 221.734,78.6049 221.234,74.6049 221.5,70.5 Z"/></g>
<g><path style="opacity:1" fill="#e5e6e7" d="M 160.5,76.5 C 177.5,76.5 194.5,76.5 211.5,76.5C 211.623,87.1154 216.623,94.2821 226.5,98C 275.833,98.6667 325.167,98.6667 374.5,98C 385.544,95.1194 391.21,87.9528 391.5,76.5C 408.167,76.5 424.833,76.5 441.5,76.5C 441.5,209.5 441.5,342.5 441.5,475.5C 347.833,475.5 254.167,475.5 160.5,475.5C 160.5,342.5 160.5,209.5 160.5,76.5 Z"/></g>
<g><path style="opacity:1" fill="#fefefe" d="M 212.5,108.5 C 271.501,108.333 330.501,108.5 389.5,109C 400.737,111.979 407.571,119.146 410,130.5C 410.5,163.832 410.667,197.165 410.5,230.5C 337.833,230.5 265.167,230.5 192.5,230.5C 192.333,196.498 192.5,162.498 193,128.5C 196.351,118.65 202.851,111.983 212.5,108.5 Z"/></g>
<g><path style="opacity:1" fill="#342f3f" d="M 275.5,124.5 C 283.846,124.088 291.346,126.422 298,131.5C 309.054,122.677 320.554,122.177 332.5,130C 343.006,140.896 344.173,152.729 336,165.5C 324.167,177.333 312.333,189.167 300.5,201C 298.833,201.667 297.167,201.667 295.5,201C 283.667,189.167 271.833,177.333 260,165.5C 250.641,146.233 255.808,132.566 275.5,124.5 Z"/></g>
<g><path style="opacity:1" fill="#f54766" d="M 274.5,135.5 C 278.182,135.335 281.848,135.501 285.5,136C 289.664,138.673 293.664,141.507 297.5,144.5C 301.944,141.899 306.278,139.066 310.5,136C 325.866,135.368 331.699,142.535 328,157.5C 318.349,168.318 308.182,178.651 297.5,188.5C 287.514,178.014 277.348,167.681 267,157.5C 263.106,147.785 265.606,140.451 274.5,135.5 Z"/></g>
<g><path style="opacity:0.965" fill="#302d3d" d="M 67.5,148.5 C 90.5987,144.599 100.599,154.265 97.5,177.5C 101.936,177.21 106.27,177.71 110.5,179C 113.676,187.342 110.676,190.842 101.5,189.5C 99.5719,261.984 98.4053,334.65 98,407.5C 92.7518,423.581 86.9185,439.414 80.5,455C 76.4536,457.364 73.2869,456.53 71,452.5C 66.197,438.424 61.197,424.424 56,410.5C 55.6667,366.5 55.3333,322.5 55,278.5C 53.6667,277.833 52.6667,276.833 52,275.5C 51.5,246.835 51.3334,218.169 51.5,189.5C 49.8561,189.286 48.3561,189.62 47,190.5C 46.6667,208.5 46.3333,226.5 46,244.5C 42.3333,248.5 38.6667,248.5 35,244.5C 34.3333,225.833 34.3333,207.167 35,188.5C 36.1045,183.794 38.9378,180.627 43.5,179C 47.4402,177.985 51.4402,177.485 55.5,177.5C 55.2427,171.102 55.7427,164.769 57,158.5C 59.1059,153.557 62.6059,150.224 67.5,148.5 Z"/></g>
<g><path style="opacity:1" fill="#515079" d="M 69.5,159.5 C 73.8461,159.334 78.1794,159.501 82.5,160C 83.4162,160.374 84.2496,160.874 85,161.5C 86.4038,167.044 86.9038,172.71 86.5,178.5C 80.1667,178.5 73.8333,178.5 67.5,178.5C 67.3339,172.824 67.5006,167.157 68,161.5C 68.7172,160.956 69.2172,160.289 69.5,159.5 Z"/></g>
<g><path style="opacity:1" fill="#51517a" d="M 90.5,198.5 C 87.2869,198.19 84.2869,198.523 81.5,199.5C 77.583,200.248 75.083,202.582 74,206.5C 73.3333,220.833 73.3333,235.167 74,249.5C 76.526,256.913 81.6926,259.58 89.5,257.5C 89.8333,257.5 90.1667,257.5 90.5,257.5C 90.5,260.833 90.5,264.167 90.5,267.5C 81.1667,267.5 71.8333,267.5 62.5,267.5C 62.5,241.5 62.5,215.5 62.5,189.5C 71.8333,189.5 81.1667,189.5 90.5,189.5C 90.5,192.5 90.5,195.5 90.5,198.5 Z"/></g>
<g><path style="opacity:1" fill="#6083a7" d="M 81.5,199.5 C 84.1667,199.5 86.8333,199.5 89.5,199.5C 89.5,218.833 89.5,238.167 89.5,257.5C 81.6926,259.58 76.526,256.913 74,249.5C 73.3333,235.167 73.3333,220.833 74,206.5C 75.083,202.582 77.583,200.248 81.5,199.5 Z"/></g>
<g><path style="opacity:1" fill="#516785" d="M 81.5,199.5 C 84.2869,198.523 87.2869,198.19 90.5,198.5C 90.5,218.167 90.5,237.833 90.5,257.5C 90.1667,257.5 89.8333,257.5 89.5,257.5C 89.5,238.167 89.5,218.833 89.5,199.5C 86.8333,199.5 84.1667,199.5 81.5,199.5 Z"/></g>
<g><path style="opacity:1" fill="#302d3d" d="M 411.5,241.5 C 361.167,241.5 310.833,241.5 260.5,241.5C 260.5,258.5 260.5,275.5 260.5,292.5C 310.833,292.5 361.167,292.5 411.5,292.5C 414.05,292.884 415.383,294.384 415.5,297C 415.516,299.305 414.516,300.972 412.5,302C 361.834,302.5 311.168,302.667 260.5,302.5C 260.667,350.501 260.5,398.501 260,446.5C 257,449.167 254,449.167 251,446.5C 250.5,398.501 250.333,350.501 250.5,302.5C 230.164,302.667 209.831,302.5 189.5,302C 185.406,298.242 185.74,295.076 190.5,292.5C 210.5,292.5 230.5,292.5 250.5,292.5C 250.5,275.5 250.5,258.5 250.5,241.5C 230.5,241.5 210.5,241.5 190.5,241.5C 185.696,238.788 185.363,235.622 189.5,232C 264.167,231.333 338.833,231.333 413.5,232C 416.512,236.108 415.845,239.275 411.5,241.5 Z"/></g>
<g><path style="opacity:1" fill="#aaa9b0" d="M 190.5,241.5 C 210.5,241.5 230.5,241.5 250.5,241.5C 250.5,258.5 250.5,275.5 250.5,292.5C 230.5,292.5 210.5,292.5 190.5,292.5C 190.842,291.662 191.508,291.328 192.5,291.5C 211.5,291.5 230.5,291.5 249.5,291.5C 249.5,275.167 249.5,258.833 249.5,242.5C 230.5,242.5 211.5,242.5 192.5,242.5C 191.508,242.672 190.842,242.338 190.5,241.5 Z"/></g>
<g><path style="opacity:1" fill="#a8a7ae" d="M 411.5,241.5 C 411.5,242.167 411.167,242.5 410.5,242.5C 360.833,242.5 311.167,242.5 261.5,242.5C 261.5,258.833 261.5,275.167 261.5,291.5C 311.167,291.5 360.833,291.5 410.5,291.5C 411.167,291.5 411.5,291.833 411.5,292.5C 361.167,292.5 310.833,292.5 260.5,292.5C 260.5,275.5 260.5,258.5 260.5,241.5C 310.833,241.5 361.167,241.5 411.5,241.5 Z"/></g>
<g><path style="opacity:1" fill="#fdfdfd" d="M 192.5,242.5 C 211.5,242.5 230.5,242.5 249.5,242.5C 249.5,258.833 249.5,275.167 249.5,291.5C 230.5,291.5 211.5,291.5 192.5,291.5C 192.5,275.167 192.5,258.833 192.5,242.5 Z"/></g>
<g><path style="opacity:1" fill="#fdfdfd" d="M 410.5,242.5 C 410.5,258.833 410.5,275.167 410.5,291.5C 360.833,291.5 311.167,291.5 261.5,291.5C 261.5,275.167 261.5,258.833 261.5,242.5C 311.167,242.5 360.833,242.5 410.5,242.5 Z"/></g>
<g><path style="opacity:1" fill="#312e3e" d="M 203.5,260.5 C 214.505,260.333 225.505,260.5 236.5,261C 239.167,264 239.167,267 236.5,270C 225.5,270.667 214.5,270.667 203.5,270C 200.914,266.839 200.914,263.672 203.5,260.5 Z"/></g>
<g><path style="opacity:1" fill="#302d3d" d="M 326.5,260.5 C 350.502,260.333 374.502,260.5 398.5,261C 401.167,264 401.167,267 398.5,270C 374.167,270.667 349.833,270.667 325.5,270C 322.69,266.432 323.023,263.266 326.5,260.5 Z"/></g>
<g><path style="opacity:1" fill="#52527b" d="M 86.5,292.5 C 82.2629,292.865 79.0962,294.865 77,298.5C 76.5,332.498 76.3333,366.498 76.5,400.5C 73.1667,400.5 69.8333,400.5 66.5,400.5C 66.5,359.833 66.5,319.167 66.5,278.5C 73.1667,278.5 79.8333,278.5 86.5,278.5C 86.5,283.167 86.5,287.833 86.5,292.5 Z"/></g>
<g><path style="opacity:1" fill="#6083a7" d="M 86.5,292.5 C 86.5,328.5 86.5,364.5 86.5,400.5C 83.1667,400.5 79.8333,400.5 76.5,400.5C 76.3333,366.498 76.5,332.498 77,298.5C 79.0962,294.865 82.2629,292.865 86.5,292.5 Z"/></g>
<g><path style="opacity:1" fill="#fdfdfd" d="M 192.5,303.5 C 211.5,303.5 230.5,303.5 249.5,303.5C 249.5,350.167 249.5,396.833 249.5,443.5C 237.162,443.667 224.829,443.5 212.5,443C 203.822,440.322 197.655,434.822 194,426.5C 192.517,385.561 192.017,344.561 192.5,303.5 Z"/></g>
<g><path style="opacity:1" fill="#fbfbfc" d="M 261.5,303.5 C 311.167,303.5 360.833,303.5 410.5,303.5C 410.667,342.501 410.5,381.501 410,420.5C 408.039,432.46 401.206,439.96 389.5,443C 346.835,443.5 304.168,443.667 261.5,443.5C 261.5,396.833 261.5,350.167 261.5,303.5 Z"/></g>
<g><path style="opacity:1" fill="#333040" d="M 207.5,327.5 C 214.508,327.334 221.508,327.5 228.5,328C 231.167,331 231.167,334 228.5,337C 221.5,337.667 214.5,337.667 207.5,337C 204.914,333.839 204.914,330.672 207.5,327.5 Z"/></g>
<g><path style="opacity:1" fill="#302d3d" d="M 283.5,327.5 C 321.168,327.333 358.835,327.5 396.5,328C 399.059,330.925 399.059,333.925 396.5,337C 358.833,337.667 321.167,337.667 283.5,337C 280.888,333.836 280.888,330.669 283.5,327.5 Z"/></g>
<g><path style="opacity:1" fill="#333040" d="M 207.5,355.5 C 214.508,355.334 221.508,355.5 228.5,356C 231.299,359.339 230.966,362.339 227.5,365C 221.167,365.667 214.833,365.667 208.5,365C 204.968,362.172 204.634,359.005 207.5,355.5 Z"/></g>
<g><path style="opacity:1" fill="#302d3d" d="M 283.5,355.5 C 321.168,355.333 358.835,355.5 396.5,356C 399.299,359.339 398.966,362.339 395.5,365C 358.167,365.667 320.833,365.667 283.5,365C 280.888,361.836 280.888,358.669 283.5,355.5 Z"/></g>
<g><path style="opacity:1" fill="#33303f" d="M 207.5,383.5 C 214.508,383.334 221.508,383.5 228.5,384C 231.299,387.339 230.966,390.339 227.5,393C 221.167,393.667 214.833,393.667 208.5,393C 204.956,390.127 204.623,386.96 207.5,383.5 Z"/></g>
<g><path style="opacity:1" fill="#302d3d" d="M 283.5,383.5 C 321.168,383.333 358.835,383.5 396.5,384C 399.299,387.339 398.966,390.339 395.5,393C 358.167,393.667 320.833,393.667 283.5,393C 280.888,389.836 280.888,386.669 283.5,383.5 Z"/></g>
<g><path style="opacity:1" fill="#373443" d="M 208.5,410.5 C 214.509,410.334 220.509,410.501 226.5,411C 231.395,413.823 231.729,417.157 227.5,421C 221.167,421.667 214.833,421.667 208.5,421C 204.565,417.504 204.565,414.004 208.5,410.5 Z"/></g>
<g><path style="opacity:1" fill="#353242" d="M 284.5,410.5 C 321.168,410.333 357.835,410.5 394.5,411C 399.395,413.823 399.729,417.157 395.5,421C 358.167,421.667 320.833,421.667 283.5,421C 280.64,417.151 280.973,413.651 284.5,410.5 Z"/></g>
<g><path style="opacity:1" fill="#505077" d="M 68.5,411.5 C 73.8746,411.172 79.2079,411.505 84.5,412.5C 82.1056,419.619 79.439,426.619 76.5,433.5C 73.631,426.225 70.9643,418.892 68.5,411.5 Z"/></g>
<g><path style="opacity:1" fill="#ffd09a" d="M 202.5,486.5 C 271.167,486.5 339.833,486.5 408.5,486.5C 409.833,491.167 409.833,495.833 408.5,500.5C 339.833,500.5 271.167,500.5 202.5,500.5C 199.835,495.828 199.835,491.161 202.5,486.5 Z"/></g>
<g><path style="opacity:1" fill="#8b5f57" d="M 464.5,53.5 C 465.5,202.666 465.833,351.999 465.5,501.5C 355.999,501.833 246.665,501.499 137.5,500.5C 159.167,500.5 180.833,500.5 202.5,500.5C 271.167,500.5 339.833,500.5 408.5,500.5C 427.167,500.5 445.833,500.5 464.5,500.5C 464.5,351.5 464.5,202.5 464.5,53.5 Z"/></g>
</svg>
