<?xml version="1.0" encoding="UTF-8"?>
<!DOCTYPE svg PUBLIC "-//W3C//DTD SVG 1.1//EN" "http://www.w3.org/Graphics/SVG/1.1/DTD/svg11.dtd">
<svg xmlns="http://www.w3.org/2000/svg" version="1.1" width="512px" height="512px" style="shape-rendering:geometricPrecision; text-rendering:geometricPrecision; image-rendering:optimizeQuality; fill-rule:evenodd; clip-rule:evenodd" xmlns:xlink="http://www.w3.org/1999/xlink">
<g><path style="opacity:0.996" fill="#4e3d4d" d="M 226.5,-0.5 C 245.833,-0.5 265.167,-0.5 284.5,-0.5C 328.247,6.80263 359.08,30.8026 377,71.5C 384.405,93.0433 387.239,115.21 385.5,138C 385.412,150.847 385.079,163.68 384.5,176.5C 376.634,174.847 368.634,174.013 360.5,174C 355.572,172.073 352.406,168.573 351,163.5C 350.966,149.406 350.299,135.406 349,121.5C 340.279,116.554 331.445,111.721 322.5,107C 314.5,101 306.5,95 298.5,89C 296.167,88.3333 293.833,88.3333 291.5,89C 281.305,100.872 269.639,110.872 256.5,119C 231.619,132.233 205.619,135.066 178.5,127.5C 177.508,127.672 176.842,127.338 176.5,126.5C 177.833,108.846 178.5,90.8459 178.5,72.5C 178.5,54.3302 178.167,36.3302 177.5,18.5C 192.376,8.42985 208.709,2.09652 226.5,-0.5 Z"/></g>
<g><path style="opacity:0.999" fill="#463745" d="M 177.5,18.5 C 178.167,36.3302 178.5,54.3302 178.5,72.5C 178.5,90.8459 177.833,108.846 176.5,126.5C 169.303,123.671 164.136,125.671 161,132.5C 160.667,142.5 160.333,152.5 160,162.5C 158.257,167.91 154.757,171.744 149.5,174C 141.698,174.024 134.032,174.857 126.5,176.5C 125.421,153.513 125.254,130.513 126,107.5C 129.275,69.5942 146.442,39.9275 177.5,18.5 Z"/></g>
<g><path style="opacity:0.998" fill="#fed08c" d="M 384.5,176.5 C 392.957,180.553 397.29,187.387 397.5,197C 397.218,206.575 392.884,213.575 384.5,218C 378.258,219.37 371.925,219.87 365.5,219.5C 362.797,255.932 346.463,284.265 316.5,304.5C 292.013,321.23 265.347,326.064 236.5,319C 205.816,307.321 186.983,285.487 180,253.5C 178.551,211.525 178.051,169.525 178.5,127.5C 205.619,135.066 231.619,132.233 256.5,119C 269.639,110.872 281.305,100.872 291.5,89C 293.833,88.3333 296.167,88.3333 298.5,89C 306.5,95 314.5,101 322.5,107C 331.445,111.721 340.279,116.554 349,121.5C 350.299,135.406 350.966,149.406 351,163.5C 352.406,168.573 355.572,172.073 360.5,174C 368.634,174.013 376.634,174.847 384.5,176.5 Z"/></g>
<g><path style="opacity:1" fill="#e5bb7f" d="M 176.5,126.5 C 176.842,127.338 177.508,127.672 178.5,127.5C 178.051,169.525 178.551,211.525 180,253.5C 186.983,285.487 205.816,307.321 236.5,319C 265.347,326.064 292.013,321.23 316.5,304.5C 316.5,309.5 316.5,314.5 316.5,319.5C 294.126,331.925 270.126,337.092 244.5,335C 234.108,333.303 223.775,331.637 213.5,330C 211.622,331.543 210.122,333.376 209,335.5C 208.501,340.489 208.334,345.489 208.5,350.5C 203.173,348.841 198.507,346.174 194.5,342.5C 194.667,329.829 194.5,317.162 194,304.5C 164.411,284.006 148.244,255.673 145.5,219.5C 120.026,221.534 110.193,210.201 116,185.5C 118.459,181.202 121.959,178.202 126.5,176.5C 134.032,174.857 141.698,174.024 149.5,174C 154.757,171.744 158.257,167.91 160,162.5C 160.333,152.5 160.667,142.5 161,132.5C 164.136,125.671 169.303,123.671 176.5,126.5 Z"/></g>
<g><path style="opacity:1" fill="#4f3e4d" d="M 192.5,146.5 C 201.839,146.334 211.173,146.5 220.5,147C 224.212,149.602 225.378,153.102 224,157.5C 223.167,159.667 221.667,161.167 219.5,162C 210.5,162.667 201.5,162.667 192.5,162C 185.86,156.705 185.86,151.539 192.5,146.5 Z"/></g>
<g><path style="opacity:1" fill="#4f3e4d" d="M 290.5,146.5 C 299.839,146.334 309.173,146.5 318.5,147C 325.311,152.33 324.977,157.33 317.5,162C 308.833,162.667 300.167,162.667 291.5,162C 286.931,159.459 285.431,155.625 287,150.5C 288.376,149.295 289.542,147.962 290.5,146.5 Z"/></g>
<g><path style="opacity:1" fill="#503e4d" d="M 202.5,173.5 C 207.635,172.426 211.468,174.093 214,178.5C 214.87,184.917 214.536,191.251 213,197.5C 207.967,201.779 203.3,201.446 199,196.5C 198.333,190.167 198.333,183.833 199,177.5C 199.69,175.65 200.856,174.316 202.5,173.5 Z"/></g>
<g><path style="opacity:1" fill="#503e4d" d="M 300.5,173.5 C 303.187,173.336 305.854,173.503 308.5,174C 310.333,174.5 311.5,175.667 312,177.5C 312.667,183.833 312.667,190.167 312,196.5C 308.491,200.613 304.324,201.446 299.5,199C 298.107,197.829 297.273,196.329 297,194.5C 296.333,189.167 296.333,183.833 297,178.5C 297.997,176.677 299.164,175.01 300.5,173.5 Z"/></g>
<g><path style="opacity:1" fill="#e29a6c" d="M 221.5,235.5 C 223.527,235.338 225.527,235.505 227.5,236C 237.98,243.606 249.647,246.939 262.5,246C 270.81,243.425 278.644,239.925 286,235.5C 295.391,238.335 296.891,243.502 290.5,251C 265.728,267.108 241.561,266.274 218,248.5C 215.343,243.084 216.51,238.75 221.5,235.5 Z"/></g>
<g><path style="opacity:0.999" fill="#fed08d" d="M 316.5,319.5 C 316.5,327.167 316.5,334.833 316.5,342.5C 296.713,354.566 276.38,365.9 255.5,376.5C 239.61,368.059 223.944,359.392 208.5,350.5C 208.334,345.489 208.501,340.489 209,335.5C 210.122,333.376 211.622,331.543 213.5,330C 223.775,331.637 234.108,333.303 244.5,335C 270.126,337.092 294.126,331.925 316.5,319.5 Z"/></g>
<g><path style="opacity:0.996" fill="#dad7da" d="M 194.5,342.5 C 198.507,346.174 203.173,348.841 208.5,350.5C 223.944,359.392 239.61,368.059 255.5,376.5C 276.38,365.9 296.713,354.566 316.5,342.5C 321.393,340.862 326.06,341.362 330.5,344C 335.573,351.985 340.24,360.152 344.5,368.5C 334.819,383.87 325.153,399.203 315.5,414.5C 315.565,414.062 315.399,413.728 315,413.5C 311.744,415.429 308.244,415.929 304.5,415C 297.316,409.248 289.982,403.748 282.5,398.5C 273.803,391.14 264.803,384.14 255.5,377.5C 245.776,384.359 236.442,391.692 227.5,399.5C 220.064,404.422 212.731,409.589 205.5,415C 201.495,416.098 197.995,415.265 195,412.5C 194.601,412.728 194.435,413.062 194.5,413.5C 187.592,402.073 180.425,390.74 173,379.5C 159.259,384.469 145.426,389.136 131.5,393.5C 131.5,389.167 131.5,384.833 131.5,380.5C 143.293,376.902 154.959,372.902 166.5,368.5C 170.787,360.089 175.454,351.922 180.5,344C 184.94,341.362 189.607,340.862 194.5,342.5 Z"/></g>
<g><path style="opacity:0.998" fill="#ebe9eb" d="M 344.5,368.5 C 353.162,371.498 361.828,374.498 370.5,377.5C 370.5,400.167 370.5,422.833 370.5,445.5C 355.587,450.979 349.754,461.646 353,477.5C 362.127,496.654 375.96,501.154 394.5,491C 405.609,480.291 407.443,468.125 400,454.5C 396.514,449.85 392.014,446.85 386.5,445.5C 386.169,424.66 386.503,403.993 387.5,383.5C 406.488,389.441 425.155,396.274 443.5,404C 453.303,411.099 459.47,420.599 462,432.5C 462.667,454.833 462.667,477.167 462,499.5C 459.955,505.376 456.122,509.376 450.5,511.5C 323.5,511.5 196.5,511.5 69.5,511.5C 68.4058,509.641 67.5725,507.641 67,505.5C 66.3333,482.833 66.3333,460.167 67,437.5C 71.0763,423.169 79.9096,413.002 93.5,407C 100.301,404.121 107.301,401.955 114.5,400.5C 114.832,410.522 114.499,420.522 113.5,430.5C 104.048,434.784 97.548,441.784 94,451.5C 93.3333,464.167 93.3333,476.833 94,489.5C 97.8919,495.259 102.559,495.926 108,491.5C 109.293,479.596 109.96,467.596 110,455.5C 113.529,447.154 119.696,444.321 128.5,447C 132.058,448.892 134.558,451.725 136,455.5C 136.333,466.833 136.667,478.167 137,489.5C 139.072,494.143 142.572,495.643 147.5,494C 149.667,493.167 151.167,491.667 152,489.5C 152.667,476.833 152.667,464.167 152,451.5C 148.396,441.563 141.73,434.563 132,430.5C 131.5,418.171 131.333,405.838 131.5,393.5C 145.426,389.136 159.259,384.469 173,379.5C 180.425,390.74 187.592,402.073 194.5,413.5C 206.534,432.523 218.534,451.523 230.5,470.5C 238.156,483.809 246.322,496.809 255,509.5C 264.023,496.113 272.523,482.446 280.5,468.5C 292.153,450.537 303.82,432.537 315.5,414.5C 325.153,399.203 334.819,383.87 344.5,368.5 Z"/></g>
<g><path style="opacity:0.997" fill="#736572" d="M 387.5,383.5 C 386.503,403.993 386.169,424.66 386.5,445.5C 392.014,446.85 396.514,449.85 400,454.5C 407.443,468.125 405.609,480.291 394.5,491C 375.96,501.154 362.127,496.654 353,477.5C 349.754,461.646 355.587,450.979 370.5,445.5C 370.5,422.833 370.5,400.167 370.5,377.5C 375.247,371.36 380.414,371.027 386,376.5C 386.977,378.74 387.477,381.073 387.5,383.5 Z"/></g>
<g><path style="opacity:0.997" fill="#746673" d="M 131.5,380.5 C 131.5,384.833 131.5,389.167 131.5,393.5C 131.333,405.838 131.5,418.171 132,430.5C 141.73,434.563 148.396,441.563 152,451.5C 152.667,464.167 152.667,476.833 152,489.5C 151.167,491.667 149.667,493.167 147.5,494C 142.572,495.643 139.072,494.143 137,489.5C 136.667,478.167 136.333,466.833 136,455.5C 134.558,451.725 132.058,448.892 128.5,447C 119.696,444.321 113.529,447.154 110,455.5C 109.96,467.596 109.293,479.596 108,491.5C 102.559,495.926 97.8919,495.259 94,489.5C 93.3333,476.833 93.3333,464.167 94,451.5C 97.548,441.784 104.048,434.784 113.5,430.5C 114.499,420.522 114.832,410.522 114.5,400.5C 114.5,395.833 114.5,391.167 114.5,386.5C 113.987,377.847 117.987,374.347 126.5,376C 128.687,377.025 130.354,378.525 131.5,380.5 Z"/></g>
<g><path style="opacity:1" fill="#736572" d="M 282.5,398.5 C 280.559,406.039 279.059,413.706 278,421.5C 276.404,425.031 274.57,428.364 272.5,431.5C 274.935,444.018 277.601,456.351 280.5,468.5C 272.523,482.446 264.023,496.113 255,509.5C 246.322,496.809 238.156,483.809 230.5,470.5C 233.164,457.514 235.831,444.514 238.5,431.5C 236.838,428.985 235.338,426.318 234,423.5C 231.829,415.482 229.662,407.482 227.5,399.5C 236.442,391.692 245.776,384.359 255.5,377.5C 264.803,384.14 273.803,391.14 282.5,398.5 Z"/></g>
<g><path style="opacity:1" fill="#d4d3d4" d="M 114.5,386.5 C 114.5,391.167 114.5,395.833 114.5,400.5C 107.301,401.955 100.301,404.121 93.5,407C 79.9096,413.002 71.0763,423.169 67,437.5C 66.3333,460.167 66.3333,482.833 67,505.5C 67.5725,507.641 68.4058,509.641 69.5,511.5C 66.5,511.5 63.5,511.5 60.5,511.5C 54.8785,509.376 51.0451,505.376 49,499.5C 48.3333,477.167 48.3333,454.833 49,432.5C 52.3611,416.137 61.8611,404.97 77.5,399C 89.8938,394.924 102.227,390.758 114.5,386.5 Z"/></g>
<g><path style="opacity:1" fill="#22acdc" d="M 282.5,398.5 C 289.982,403.748 297.316,409.248 304.5,415C 308.244,415.929 311.744,415.429 315,413.5C 315.399,413.728 315.565,414.062 315.5,414.5C 303.82,432.537 292.153,450.537 280.5,468.5C 277.601,456.351 274.935,444.018 272.5,431.5C 274.57,428.364 276.404,425.031 278,421.5C 279.059,413.706 280.559,406.039 282.5,398.5 Z"/></g>
<g><path style="opacity:1" fill="#22acdc" d="M 227.5,399.5 C 229.662,407.482 231.829,415.482 234,423.5C 235.338,426.318 236.838,428.985 238.5,431.5C 235.831,444.514 233.164,457.514 230.5,470.5C 218.534,451.523 206.534,432.523 194.5,413.5C 194.435,413.062 194.601,412.728 195,412.5C 197.995,415.265 201.495,416.098 205.5,415C 212.731,409.589 220.064,404.422 227.5,399.5 Z"/></g>
<g><path style="opacity:1" fill="#e8e5e8" d="M 374.5,460.5 C 382.452,458.968 387.119,462.135 388.5,470C 387.12,478.027 382.453,481.027 374.5,479C 369.581,476.259 367.748,472.092 369,466.5C 370.36,463.977 372.193,461.977 374.5,460.5 Z"/></g>
</svg>
