<?xml version="1.0" encoding="UTF-8"?>
<!DOCTYPE svg PUBLIC "-//W3C//DTD SVG 1.1//EN" "http://www.w3.org/Graphics/SVG/1.1/DTD/svg11.dtd">
<svg xmlns="http://www.w3.org/2000/svg" version="1.1" width="512px" height="512px" style="shape-rendering:geometricPrecision; text-rendering:geometricPrecision; image-rendering:optimizeQuality; fill-rule:evenodd; clip-rule:evenodd" xmlns:xlink="http://www.w3.org/1999/xlink">
<g><path style="opacity:0.993" fill="#796869" d="M 342.5,38.5 C 280.998,38.8324 219.664,38.4991 158.5,37.5C 164.518,30.3249 171.851,24.8249 180.5,21C 212.048,8.2349 244.715,4.2349 278.5,9C 302.542,13.3828 323.875,23.2161 342.5,38.5 Z"/></g>
<g><path style="opacity:0.997" fill="#736465" d="M 158.5,37.5 C 219.664,38.4991 280.998,38.8324 342.5,38.5C 350.565,44.2305 357.232,51.2305 362.5,59.5C 289.833,59.5 217.167,59.5 144.5,59.5C 146.656,50.5096 151.323,43.1762 158.5,37.5 Z"/></g>
<g><path style="opacity:0.996" fill="#6d5f61" d="M 144.5,59.5 C 217.167,59.5 289.833,59.5 362.5,59.5C 368.394,65.6026 373.06,72.6026 376.5,80.5C 293.167,80.5 209.833,80.5 126.5,80.5C 130.43,73.5678 135.764,67.9012 142.5,63.5C 143.172,62.0508 143.839,60.7175 144.5,59.5 Z"/></g>
<g><path style="opacity:0.997" fill="#665a5c" d="M 126.5,80.5 C 209.833,80.5 293.167,80.5 376.5,80.5C 380.291,88.873 383.291,97.5396 385.5,106.5C 296.402,105.836 207.402,105.169 118.5,104.5C 119.772,96.0184 122.438,88.0184 126.5,80.5 Z"/></g>
<g><path style="opacity:0.999" fill="#5f5556" d="M 118.5,104.5 C 207.402,105.169 296.402,105.836 385.5,106.5C 387.224,116.744 387.89,127.077 387.5,137.5C 378.735,136.185 370.068,136.185 361.5,137.5C 360.698,136.048 360.198,134.382 360,132.5C 359.275,131.941 358.442,131.608 357.5,131.5C 342.196,134.865 326.696,136.198 311,135.5C 258.874,134.807 207.541,128.14 157,115.5C 156.228,115.645 155.561,115.978 155,116.5C 150.058,126.736 146.558,137.403 144.5,148.5C 135.167,148.5 125.833,148.5 116.5,148.5C 116.5,149.833 116.5,151.167 116.5,152.5C 115.34,140.674 115.174,128.674 116,116.5C 116.335,112.264 117.168,108.264 118.5,104.5 Z"/></g>
<g><path style="opacity:0.999" fill="#f5cebd" d="M 361.5,137.5 C 366.463,161.609 369.796,185.943 371.5,210.5C 371.345,223.049 369.679,235.383 366.5,247.5C 358.756,273.675 344.089,295.008 322.5,311.5C 317.059,313.387 312.059,316.053 307.5,319.5C 306.486,320.674 305.153,321.34 303.5,321.5C 271.463,334.692 239.463,334.692 207.5,321.5C 205.833,320.833 204.167,320.167 202.5,319.5C 199.121,316.142 195.121,313.809 190.5,312.5C 167.498,295.869 151.832,273.869 143.5,246.5C 140.951,234.653 139.618,222.653 139.5,210.5C 139.052,189.646 140.719,168.98 144.5,148.5C 146.558,137.403 150.058,126.736 155,116.5C 155.561,115.978 156.228,115.645 157,115.5C 207.541,128.14 258.874,134.807 311,135.5C 326.696,136.198 342.196,134.865 357.5,131.5C 358.442,131.608 359.275,131.941 360,132.5C 360.198,134.382 360.698,136.048 361.5,137.5 Z"/></g>
<g><path style="opacity:0.989" fill="#524b4c" d="M 144.5,148.5 C 140.719,168.98 139.052,189.646 139.5,210.5C 137.549,209.284 136.049,207.618 135,205.5C 131.124,198.406 127.291,191.406 123.5,184.5C 119.903,174.111 117.569,163.444 116.5,152.5C 116.5,151.167 116.5,149.833 116.5,148.5C 125.833,148.5 135.167,148.5 144.5,148.5 Z"/></g>
<g><path style="opacity:0.986" fill="#544c4d" d="M 387.5,137.5 C 387.348,153.41 385.348,169.077 381.5,184.5C 378.366,193.234 375.033,201.901 371.5,210.5C 369.796,185.943 366.463,161.609 361.5,137.5C 370.068,136.185 378.735,136.185 387.5,137.5 Z"/></g>
<g><path style="opacity:1" fill="#464345" d="M 195.5,167.5 C 208.537,166.716 220.371,170.05 231,177.5C 232.141,180.857 230.975,182.857 227.5,183.5C 217.661,177.541 206.995,175.041 195.5,176C 190.554,177.806 185.888,180.139 181.5,183C 175.5,183.333 174.167,181 177.5,176C 183.208,172.31 189.208,169.477 195.5,167.5 Z"/></g>
<g><path style="opacity:1" fill="#464445" d="M 300.5,167.5 C 313.372,166.293 324.872,169.626 335,177.5C 336.141,180.857 334.975,182.857 331.5,183.5C 316.237,173.114 300.903,172.948 285.5,183C 279.5,183.333 278.167,181 281.5,176C 287.667,172.579 294,169.746 300.5,167.5 Z"/></g>
<g><path style="opacity:1" fill="#444244" d="M 199.5,203.5 C 212.018,203.505 216.851,209.505 214,221.5C 206.966,229.413 199.966,229.413 193,221.5C 189.82,213.532 191.987,207.532 199.5,203.5 Z"/></g>
<g><path style="opacity:1" fill="#444244" d="M 303.5,203.5 C 316.018,203.505 320.851,209.505 318,221.5C 310.966,229.413 303.966,229.413 297,221.5C 293.82,213.532 295.987,207.532 303.5,203.5 Z"/></g>
<g><path style="opacity:0.99" fill="#efb8a6" d="M 123.5,184.5 C 127.291,191.406 131.124,198.406 135,205.5C 136.049,207.618 137.549,209.284 139.5,210.5C 139.618,222.653 140.951,234.653 143.5,246.5C 135.6,248.622 128.267,247.456 121.5,243C 106.624,228.76 103.458,212.26 112,193.5C 115.161,189.491 118.994,186.491 123.5,184.5 Z"/></g>
<g><path style="opacity:0.99" fill="#efb8a6" d="M 381.5,184.5 C 390.516,187.35 396.35,193.35 399,202.5C 401.669,218.492 397.169,231.992 385.5,243C 379.807,246.964 373.473,248.464 366.5,247.5C 369.679,235.383 371.345,223.049 371.5,210.5C 375.033,201.901 378.366,193.234 381.5,184.5 Z"/></g>
<g><path style="opacity:1" fill="#edae9a" d="M 245.5,255.5 C 246.873,255.343 248.207,255.51 249.5,256C 251.045,257.94 253.045,259.106 255.5,259.5C 258.412,258.571 261.079,257.238 263.5,255.5C 265.833,255.833 267.167,257.167 267.5,259.5C 264.144,266.009 258.811,268.509 251.5,267C 248.438,265.939 245.938,264.106 244,261.5C 243.252,259.16 243.752,257.16 245.5,255.5 Z"/></g>
<g><path style="opacity:1" fill="#edae9a" d="M 229.5,287.5 C 234.655,289.072 239.655,291.238 244.5,294C 257.114,296.963 268.78,294.796 279.5,287.5C 283.835,289.007 284.502,291.507 281.5,295C 264.106,306.12 246.773,306.12 229.5,295C 226.914,292.506 226.914,290.006 229.5,287.5 Z"/></g>
<g><path style="opacity:0.946" fill="#414042" d="M 322.5,311.5 C 349.48,317.477 366.813,333.81 374.5,360.5C 373.957,360.56 373.624,360.893 373.5,361.5C 374.098,362.795 374.598,364.128 375,365.5C 375.5,382.163 375.667,398.83 375.5,415.5C 372.833,415.5 370.167,415.5 367.5,415.5C 367.667,399.163 367.5,382.83 367,366.5C 366.879,362.958 365.713,359.958 363.5,357.5C 353.316,332.694 334.65,320.027 307.5,319.5C 312.059,316.053 317.059,313.387 322.5,311.5 Z"/></g>
<g><path style="opacity:0.967" fill="#434244" d="M 190.5,312.5 C 195.121,313.809 199.121,316.142 202.5,319.5C 180.631,320.708 167.965,332.041 164.5,353.5C 163.181,360.677 163.181,368.01 164.5,375.5C 188.825,380.157 201.825,394.824 203.5,419.5C 200.833,419.5 198.167,419.5 195.5,419.5C 194.307,401.308 184.973,389.641 167.5,384.5C 147.274,381.698 133.108,389.698 125,408.5C 123.892,412.086 123.392,415.753 123.5,419.5C 120.833,419.5 118.167,419.5 115.5,419.5C 117.305,394.361 130.639,379.694 155.5,375.5C 155.5,368.833 155.5,362.167 155.5,355.5C 155.326,338.676 162.326,325.842 176.5,317C 180.892,314.591 185.558,313.091 190.5,312.5 Z"/></g>
<g><path style="opacity:1" fill="#edaf9b" d="M 207.5,321.5 C 239.463,334.692 271.463,334.692 303.5,321.5C 303.5,326.167 303.5,330.833 303.5,335.5C 302.709,338.115 302.043,340.782 301.5,343.5C 270.833,343.5 240.167,343.5 209.5,343.5C 208.957,340.782 208.291,338.115 207.5,335.5C 207.5,330.833 207.5,326.167 207.5,321.5 Z"/></g>
<g><path style="opacity:0.997" fill="#e4e5e5" d="M 207.5,335.5 C 208.291,338.115 208.957,340.782 209.5,343.5C 209.851,347.684 210.518,351.684 211.5,355.5C 212.955,363.566 214.621,371.566 216.5,379.5C 224.166,420.831 231.833,462.164 239.5,503.5C 239.167,503.5 238.833,503.5 238.5,503.5C 228.628,492.891 218.295,482.724 207.5,473C 205.266,471.25 202.932,469.75 200.5,468.5C 201.801,467.118 202.634,465.452 203,463.5C 203.5,448.837 203.667,434.17 203.5,419.5C 201.825,394.824 188.825,380.157 164.5,375.5C 163.181,368.01 163.181,360.677 164.5,353.5C 171.719,351.362 179.053,349.528 186.5,348C 191.403,340.219 198.403,336.052 207.5,335.5 Z"/></g>
<g><path style="opacity:0.998" fill="#e4e4e5" d="M 303.5,335.5 C 312.862,336.014 319.862,340.348 324.5,348.5C 334.426,368.184 344.759,387.684 355.5,407C 346.476,408.455 337.476,409.955 328.5,411.5C 329.766,422.082 332.1,432.582 335.5,443C 314.425,463.182 293.425,483.349 272.5,503.5C 272.167,503.5 271.833,503.5 271.5,503.5C 279.167,462.164 286.834,420.831 294.5,379.5C 296.535,371.603 298.201,363.603 299.5,355.5C 300.295,351.524 300.962,347.524 301.5,343.5C 302.043,340.782 302.709,338.115 303.5,335.5 Z"/></g>
<g><path style="opacity:0.996" fill="#eeefef" d="M 324.5,348.5 C 337.669,350.867 350.669,353.867 363.5,357.5C 365.713,359.958 366.879,362.958 367,366.5C 367.5,382.83 367.667,399.163 367.5,415.5C 348.264,422.316 343.097,434.982 352,453.5C 364.927,466.784 377.927,466.784 391,453.5C 399.892,434.963 394.725,422.296 375.5,415.5C 375.667,398.83 375.5,382.163 375,365.5C 374.598,364.128 374.098,362.795 373.5,361.5C 373.624,360.893 373.957,360.56 374.5,360.5C 397.064,365.855 418.731,373.688 439.5,384C 441.093,384.949 442.426,386.115 443.5,387.5C 429.957,426.131 416.623,464.798 403.5,503.5C 359.833,503.5 316.167,503.5 272.5,503.5C 293.425,483.349 314.425,463.182 335.5,443C 332.1,432.582 329.766,422.082 328.5,411.5C 337.476,409.955 346.476,408.455 355.5,407C 344.759,387.684 334.426,368.184 324.5,348.5 Z"/></g>
<g><path style="opacity:1" fill="#f1bca9" d="M 209.5,343.5 C 240.167,343.5 270.833,343.5 301.5,343.5C 300.962,347.524 300.295,351.524 299.5,355.5C 298.167,356.5 296.833,357.5 295.5,358.5C 268.833,357.167 242.167,357.167 215.5,358.5C 214.167,357.5 212.833,356.5 211.5,355.5C 210.518,351.684 209.851,347.684 209.5,343.5 Z"/></g>
<g><path style="opacity:0.997" fill="#eeefef" d="M 155.5,355.5 C 155.5,362.167 155.5,368.833 155.5,375.5C 130.639,379.694 117.305,394.361 115.5,419.5C 115.047,435.238 115.547,450.904 117,466.5C 122.226,474.854 129.726,477.854 139.5,475.5C 142.85,475.665 146.183,475.498 149.5,475C 152.167,472.667 152.167,470.333 149.5,468C 146.183,467.502 142.85,467.335 139.5,467.5C 135.818,467.665 132.152,467.499 128.5,467C 127.069,466.535 125.903,465.701 125,464.5C 123.549,449.572 123.049,434.572 123.5,419.5C 123.392,415.753 123.892,412.086 125,408.5C 133.108,389.698 147.274,381.698 167.5,384.5C 163.894,392.211 159.894,399.711 155.5,407C 164.713,409.102 174.046,410.602 183.5,411.5C 181.221,422.115 178.555,432.615 175.5,443C 182.112,449.443 188.445,455.943 194.5,462.5C 193.976,465.188 192.309,466.688 189.5,467C 184.845,467.499 180.179,467.666 175.5,467.5C 172.15,467.335 168.817,467.502 165.5,468C 162.833,470.333 162.833,472.667 165.5,475C 168.817,475.498 172.15,475.665 175.5,475.5C 180.844,475.666 186.177,475.499 191.5,475C 195.24,473.802 198.24,471.635 200.5,468.5C 202.932,469.75 205.266,471.25 207.5,473C 218.295,482.724 228.628,492.891 238.5,503.5C 194.833,503.5 151.167,503.5 107.5,503.5C 94.1741,464.88 80.8408,426.213 67.5,387.5C 76.9355,380.782 87.2688,375.616 98.5,372C 117.203,365.408 136.203,359.908 155.5,355.5 Z"/></g>
<g><path style="opacity:1" fill="#feac6b" d="M 211.5,355.5 C 212.833,356.5 214.167,357.5 215.5,358.5C 242.191,375.792 268.857,375.792 295.5,358.5C 296.833,357.5 298.167,356.5 299.5,355.5C 298.201,363.603 296.535,371.603 294.5,379.5C 268.455,389.971 242.455,389.971 216.5,379.5C 214.621,371.566 212.955,363.566 211.5,355.5 Z"/></g>
<g><path style="opacity:1" fill="#f3c4b2" d="M 215.5,358.5 C 242.167,357.167 268.833,357.167 295.5,358.5C 268.857,375.792 242.191,375.792 215.5,358.5 Z"/></g>
<g><path style="opacity:1" fill="#fecf97" d="M 216.5,379.5 C 242.455,389.971 268.455,389.971 294.5,379.5C 286.834,420.831 279.167,462.164 271.5,503.5C 260.833,503.5 250.167,503.5 239.5,503.5C 231.833,462.164 224.166,420.831 216.5,379.5 Z"/></g>
<g><path style="opacity:1" fill="#e3e4e5" d="M 167.5,384.5 C 184.973,389.641 194.307,401.308 195.5,419.5C 195.829,434.01 195.496,448.343 194.5,462.5C 188.445,455.943 182.112,449.443 175.5,443C 178.555,432.615 181.221,422.115 183.5,411.5C 174.046,410.602 164.713,409.102 155.5,407C 159.894,399.711 163.894,392.211 167.5,384.5 Z"/></g>
<g><path style="opacity:0.992" fill="#e4e5e6" d="M 67.5,387.5 C 80.8408,426.213 94.1741,464.88 107.5,503.5C 74.1667,503.5 40.8333,503.5 7.5,503.5C 16.0273,468.449 30.5273,436.115 51,406.5C 55.9918,399.678 61.4918,393.345 67.5,387.5 Z"/></g>
<g><path style="opacity:0.991" fill="#e4e5e6" d="M 443.5,387.5 C 455.933,400.345 466.433,414.679 475,430.5C 487.863,453.552 497.363,477.886 503.5,503.5C 470.167,503.5 436.833,503.5 403.5,503.5C 416.623,464.798 429.957,426.131 443.5,387.5 Z"/></g>
<g><path style="opacity:1" fill="#aaaeb1" d="M 367.5,415.5 C 370.167,415.5 372.833,415.5 375.5,415.5C 394.725,422.296 399.892,434.963 391,453.5C 377.927,466.784 364.927,466.784 352,453.5C 343.097,434.982 348.264,422.316 367.5,415.5 Z"/></g>
<g><path style="opacity:1" fill="#aaaeb1" d="M 115.5,419.5 C 118.167,419.5 120.833,419.5 123.5,419.5C 123.049,434.572 123.549,449.572 125,464.5C 125.903,465.701 127.069,466.535 128.5,467C 132.152,467.499 135.818,467.665 139.5,467.5C 139.5,470.167 139.5,472.833 139.5,475.5C 129.726,477.854 122.226,474.854 117,466.5C 115.547,450.904 115.047,435.238 115.5,419.5 Z"/></g>
<g><path style="opacity:1" fill="#aaaeb1" d="M 195.5,419.5 C 198.167,419.5 200.833,419.5 203.5,419.5C 203.667,434.17 203.5,448.837 203,463.5C 202.634,465.452 201.801,467.118 200.5,468.5C 198.24,471.635 195.24,473.802 191.5,475C 186.177,475.499 180.844,475.666 175.5,475.5C 175.5,472.833 175.5,470.167 175.5,467.5C 180.179,467.666 184.845,467.499 189.5,467C 192.309,466.688 193.976,465.188 194.5,462.5C 195.496,448.343 195.829,434.01 195.5,419.5 Z"/></g>
<g><path style="opacity:1" fill="#57595c" d="M 366.5,423.5 C 382.667,423.157 389.167,430.824 386,446.5C 380.039,455.283 372.206,457.449 362.5,453C 352.083,441.501 353.416,431.667 366.5,423.5 Z"/></g>
<g><path style="opacity:1" fill="#424244" d="M 139.5,467.5 C 142.85,467.335 146.183,467.502 149.5,468C 152.167,470.333 152.167,472.667 149.5,475C 146.183,475.498 142.85,475.665 139.5,475.5C 139.5,472.833 139.5,470.167 139.5,467.5 Z"/></g>
<g><path style="opacity:1" fill="#424143" d="M 175.5,467.5 C 175.5,470.167 175.5,472.833 175.5,475.5C 172.15,475.665 168.817,475.498 165.5,475C 162.833,472.667 162.833,470.333 165.5,468C 168.817,467.502 172.15,467.335 175.5,467.5 Z"/></g>
</svg>
