<?xml version="1.0" encoding="UTF-8"?>
<!DOCTYPE svg PUBLIC "-//W3C//DTD SVG 1.1//EN" "http://www.w3.org/Graphics/SVG/1.1/DTD/svg11.dtd">
<svg xmlns="http://www.w3.org/2000/svg" version="1.1" width="512px" height="512px" style="shape-rendering:geometricPrecision; text-rendering:geometricPrecision; image-rendering:optimizeQuality; fill-rule:evenodd; clip-rule:evenodd" xmlns:xlink="http://www.w3.org/1999/xlink">
<g><path style="opacity:0.99" fill="#3c332c" d="M 232.5,3.5 C 284.336,-1.72938 327.836,14.604 363,52.5C 386.461,81.3243 395.794,114.324 391,151.5C 390.152,161.103 388.652,170.603 386.5,180C 388.653,182.771 391.32,185.104 394.5,187C 401.284,193.742 404.284,201.909 403.5,211.5C 403.248,228.516 395.915,241.35 381.5,250C 377.605,251.266 373.605,251.766 369.5,251.5C 361.764,276.221 347.764,296.554 327.5,312.5C 350.133,319.3 365.466,333.8 373.5,356C 397.525,361.563 420.525,369.897 442.5,381C 454.169,391.67 464.002,403.837 472,417.5C 488.242,443.985 500.075,472.319 507.5,502.5C 507.449,504.1 507.116,505.6 506.5,507C 339.167,507.667 171.833,507.667 4.5,507C 3.21774,501.74 3.71774,496.574 6,491.5C 17.4628,453.568 35.4628,419.235 60,388.5C 62.5366,385.628 65.3699,383.128 68.5,381C 96.2872,367.635 125.287,357.802 155.5,351.5C 157.777,333.061 167.444,320.228 184.5,313C 163.633,297.111 149.3,276.611 141.5,251.5C 128.363,253.18 118.197,248.513 111,237.5C 103.528,225.362 101.528,212.362 105,198.5C 106.413,195.339 108.08,192.339 110,189.5C 113.339,187.327 116.172,184.66 118.5,181.5C 111.418,157.936 109.585,133.936 113,109.5C 115.143,89.5397 123.81,73.2063 139,60.5C 147.872,37.9623 163.705,22.4623 186.5,14C 201.537,8.57104 216.871,5.07104 232.5,3.5 Z M 191.5,320.5 C 193.527,320.338 195.527,320.505 197.5,321C 199.001,322.252 200.668,323.252 202.5,324C 203.777,326.466 203.777,328.966 202.5,331.5C 194.799,334.034 188.299,338.368 183,344.5C 176.946,346.559 170.779,347.725 164.5,348C 169.018,334.317 178.018,325.15 191.5,320.5 Z M 313.5,320.5 C 335.399,321.778 351.399,332.112 361.5,351.5C 361,351.833 360.5,352.167 360,352.5C 349.371,349.676 338.704,347.009 328,344.5C 322.701,338.368 316.201,334.034 308.5,331.5C 307.353,329.235 307.186,326.902 308,324.5C 310.167,323.512 312,322.179 313.5,320.5 Z"/></g>
<g><path style="opacity:1" fill="#786869" d="M 333.5,37.5 C 277.167,38.8333 220.833,38.8333 164.5,37.5C 182.275,23.3985 202.608,15.2318 225.5,13C 265.015,6.59801 301.015,14.7647 333.5,37.5 Z"/></g>
<g><path style="opacity:1" fill="#736465" d="M 164.5,37.5 C 220.833,38.8333 277.167,38.8333 333.5,37.5C 342.479,43.4794 350.146,50.8127 356.5,59.5C 287.331,59.8325 218.331,59.4992 149.5,58.5C 152.567,50.1025 157.567,43.1025 164.5,37.5 Z"/></g>
<g><path style="opacity:1" fill="#6d5f61" d="M 149.5,58.5 C 218.331,59.4992 287.331,59.8325 356.5,59.5C 362.728,65.4065 367.395,72.4065 370.5,80.5C 291.332,80.8326 212.332,80.4993 133.5,79.5C 136.429,73.4028 140.929,68.7362 147,65.5C 147.39,62.8958 148.224,60.5625 149.5,58.5 Z"/></g>
<g><path style="opacity:1" fill="#665a5c" d="M 133.5,79.5 C 212.332,80.4993 291.332,80.8326 370.5,80.5C 375.447,87.6638 378.447,95.6638 379.5,104.5C 294.335,105.499 209.002,105.833 123.5,105.5C 123.5,104.5 123.5,103.5 123.5,102.5C 124.949,93.943 128.282,86.2763 133.5,79.5 Z"/></g>
<g><path style="opacity:1" fill="#615658" d="M 123.5,102.5 C 123.5,103.5 123.5,104.5 123.5,105.5C 209.002,105.833 294.335,105.499 379.5,104.5C 381.163,106.438 381.829,108.772 381.5,111.5C 381.5,112.833 381.5,114.167 381.5,115.5C 313.5,115.5 245.5,115.5 177.5,115.5C 169.439,114.385 161.439,113.218 153.5,112C 150.226,116.382 147.892,121.215 146.5,126.5C 137.833,126.5 129.167,126.5 120.5,126.5C 120.5,125.167 120.5,123.833 120.5,122.5C 120.069,115.488 121.069,108.822 123.5,102.5 Z"/></g>
<g><path style="opacity:1" fill="#5d5354" d="M 381.5,111.5 C 385.077,138.641 382.577,165.308 374,191.5C 371.291,170.664 367.624,149.997 363,129.5C 362.5,129 362,128.5 361.5,128C 352.241,129.207 342.908,130.207 333.5,131C 280.673,132.814 228.673,127.647 177.5,115.5C 245.5,115.5 313.5,115.5 381.5,115.5C 381.5,114.167 381.5,112.833 381.5,111.5 Z"/></g>
<g><path style="opacity:1" fill="#f5cebd" d="M 157.5,120.5 C 193.853,128.17 230.52,134.003 267.5,138C 297.243,140.245 326.909,139.912 356.5,137C 363.511,165.059 367.011,193.559 367,222.5C 362.027,267.454 339.194,299.621 298.5,319C 248.606,336.985 205.772,326.485 170,287.5C 150.929,262.616 142.095,234.449 143.5,203C 143.432,183.979 145.266,165.145 149,146.5C 150.742,137.44 153.576,128.773 157.5,120.5 Z"/></g>
<g><path style="opacity:1" fill="#564e4f" d="M 120.5,122.5 C 120.5,123.833 120.5,125.167 120.5,126.5C 129.167,126.5 137.833,126.5 146.5,126.5C 139.37,149.568 135.537,173.234 135,197.5C 122.429,173.874 117.596,148.874 120.5,122.5 Z"/></g>
<g><path style="opacity:1" fill="#3f362f" d="M 194.5,167.5 C 207.888,166.554 220.054,169.888 231,177.5C 232.141,180.857 230.975,182.857 227.5,183.5C 217.661,177.541 206.995,175.041 195.5,176C 190.554,177.806 185.888,180.139 181.5,183C 175.5,183.333 174.167,181 177.5,176C 182.98,172.593 188.647,169.76 194.5,167.5 Z"/></g>
<g><path style="opacity:1" fill="#3f362f" d="M 300.5,167.5 C 313.36,166.288 324.86,169.621 335,177.5C 336.141,180.857 334.975,182.857 331.5,183.5C 316.237,173.114 300.903,172.948 285.5,183C 279.5,183.333 278.167,181 281.5,176C 287.667,172.579 294,169.746 300.5,167.5 Z"/></g>
<g><path style="opacity:1" fill="#3d352d" d="M 198.5,199.5 C 214.667,199.157 221.167,206.824 218,222.5C 212.039,231.283 204.206,233.449 194.5,229C 184.083,217.501 185.416,207.667 198.5,199.5 Z"/></g>
<g><path style="opacity:1" fill="#3d352d" d="M 302.5,199.5 C 318.667,199.157 325.167,206.824 322,222.5C 316.039,231.283 308.206,233.449 298.5,229C 288.083,217.501 289.416,207.667 302.5,199.5 Z"/></g>
<g><path style="opacity:1" fill="#ecb6a3" d="M 120.5,191.5 C 121.675,191.281 122.675,191.614 123.5,192.5C 127.081,199.33 130.914,205.997 135,212.5C 135.844,222.945 137.344,233.278 139.5,243.5C 127.378,243.678 119.211,238.012 115,226.5C 110.428,216.78 110.428,207.113 115,197.5C 116.699,195.304 118.533,193.304 120.5,191.5 Z"/></g>
<g><path style="opacity:1" fill="#403f41" d="M 200.5,207.5 C 211.167,208.003 213.833,212.836 208.5,222C 199.395,225.205 195.228,222.038 196,212.5C 197.025,210.313 198.525,208.646 200.5,207.5 Z"/></g>
<g><path style="opacity:1" fill="#403f41" d="M 304.5,207.5 C 315.167,208.003 317.833,212.836 312.5,222C 303.395,225.205 299.228,222.038 300,212.5C 301.025,210.313 302.525,208.646 304.5,207.5 Z"/></g>
<g><path style="opacity:1" fill="#ebb5a3" d="M 383.5,190.5 C 393.797,196.514 397.631,205.514 395,217.5C 392.982,229.161 386.815,237.661 376.5,243C 374.866,243.494 373.199,243.66 371.5,243.5C 373.788,232.625 375.288,221.625 376,210.5C 378.806,203.91 381.306,197.243 383.5,190.5 Z"/></g>
<g><path style="opacity:1" fill="#3f362f" d="M 245.5,255.5 C 246.873,255.343 248.207,255.51 249.5,256C 251.045,257.94 253.045,259.106 255.5,259.5C 258.412,258.571 261.079,257.238 263.5,255.5C 265.833,255.833 267.167,257.167 267.5,259.5C 264.128,265.913 258.795,268.413 251.5,267C 248.438,265.939 245.938,264.106 244,261.5C 243.252,259.16 243.752,257.16 245.5,255.5 Z"/></g>
<g><path style="opacity:1" fill="#3f362f" d="M 229.5,287.5 C 234.655,289.072 239.655,291.238 244.5,294C 257.114,296.963 268.78,294.796 279.5,287.5C 283.835,289.007 284.502,291.507 281.5,295C 264.139,306.292 246.806,306.292 229.5,295C 226.914,292.506 226.914,290.006 229.5,287.5 Z"/></g>
<g><path style="opacity:1" fill="#edb09d" d="M 297.5,343.5 C 269.5,343.5 241.5,343.5 213.5,343.5C 211.693,338.243 211.36,332.91 212.5,327.5C 241.473,338.092 270.473,338.092 299.5,327.5C 299.635,332.95 298.969,338.284 297.5,343.5 Z"/></g>
<g><path style="opacity:1" fill="#e1e1e2" d="M 201.5,340.5 C 203.124,340.36 204.29,341.027 205,342.5C 214.792,392.277 223.959,441.944 232.5,491.5C 223.151,482.317 213.651,473.317 204,464.5C 203.949,445.448 203.283,426.448 202,407.5C 197.721,393.555 188.887,383.722 175.5,378C 181.127,367.913 186.627,357.746 192,347.5C 195.068,344.917 198.235,342.584 201.5,340.5 Z"/></g>
<g><path style="opacity:1" fill="#e1e2e3" d="M 306.5,340.5 C 311.458,341.396 315.624,343.729 319,347.5C 329.04,366.413 339.206,385.246 349.5,404C 342.524,405.146 335.524,406.146 328.5,407C 326.671,407.273 325.171,408.107 324,409.5C 326,420.833 328,432.167 330,443.5C 312.683,459.316 295.516,475.316 278.5,491.5C 287.071,441.231 296.404,390.898 306.5,340.5 Z"/></g>
<g><path style="opacity:1" fill="#f0bba8" d="M 213.5,343.5 C 241.5,343.5 269.5,343.5 297.5,343.5C 298.239,350.851 295.239,355.851 288.5,358.5C 266.833,357.167 245.167,357.167 223.5,358.5C 216.208,356.198 212.875,351.198 213.5,343.5 Z"/></g>
<g><path style="opacity:1" fill="#e8e8e8" d="M 175.5,354.5 C 176.873,354.343 178.207,354.51 179.5,355C 175.707,361.419 172.04,367.919 168.5,374.5C 166.955,375.452 165.288,375.785 163.5,375.5C 163.5,369.5 163.5,363.5 163.5,357.5C 167.761,357.102 171.761,356.102 175.5,354.5 Z"/></g>
<g><path style="opacity:1" fill="#edeeee" d="M 331.5,355.5 C 331.735,354.903 332.235,354.57 333,354.5C 344.076,357.561 355.243,360.227 366.5,362.5C 367.431,380.477 367.765,398.477 367.5,416.5C 358.966,417.847 352.799,422.514 349,430.5C 345.118,449.086 352.451,460.086 371,463.5C 388.613,461.218 396.613,451.218 395,433.5C 391.724,424.053 385.224,418.386 375.5,416.5C 375.167,399.487 375.501,382.487 376.5,365.5C 396.796,370.987 416.462,378.154 435.5,387C 436.728,387.779 437.728,388.779 438.5,390C 425.823,426.348 413.157,462.681 400.5,499C 361.167,499.667 321.833,499.667 282.5,499C 301.031,480.801 319.864,462.968 339,445.5C 337.639,435.047 335.472,424.713 332.5,414.5C 340.915,413.941 349.248,412.774 357.5,411C 358.804,410.196 359.471,409.029 359.5,407.5C 350.664,389.823 341.331,372.49 331.5,355.5 Z"/></g>
<g><path style="opacity:1" fill="#f0c1af" d="M 288.5,358.5 C 266.735,370.354 245.069,370.354 223.5,358.5C 245.167,357.167 266.833,357.167 288.5,358.5 Z"/></g>
<g><path style="opacity:1" fill="#edeeee" d="M 151.5,360.5 C 152.833,360.5 154.167,360.5 155.5,360.5C 155.5,365.5 155.5,370.5 155.5,375.5C 134.688,378.476 121.521,390.142 116,410.5C 115.039,429.232 115.372,447.899 117,466.5C 119.222,470.388 122.388,473.221 126.5,475C 134.167,475.667 141.833,475.667 149.5,475C 152.167,472.667 152.167,470.333 149.5,468C 142.5,467.667 135.5,467.333 128.5,467C 125.898,466.065 124.398,464.232 124,461.5C 123.333,445.833 123.333,430.167 124,414.5C 128.746,393.239 141.913,383.239 163.5,384.5C 159.667,391.5 155.833,398.5 152,405.5C 151.074,409.253 152.574,411.42 156.5,412C 163.793,413.256 171.126,414.09 178.5,414.5C 175.528,424.713 173.361,435.047 172,445.5C 178.972,452.061 185.805,458.727 192.5,465.5C 191.624,466.251 190.624,466.751 189.5,467C 181.5,467.333 173.5,467.667 165.5,468C 162.833,470.333 162.833,472.667 165.5,475C 174.167,475.667 182.833,475.667 191.5,475C 194.267,473.107 197.267,472.107 200.5,472C 209.833,481 219.167,490 228.5,499C 188.929,499.83 149.429,499.663 110,498.5C 97.6395,462.28 85.1395,426.114 72.5,390C 73.2718,388.779 74.2718,387.779 75.5,387C 100.058,375.649 125.391,366.815 151.5,360.5 Z"/></g>
<g><path style="opacity:1" fill="#f6a767" d="M 217.5,364.5 C 242.203,378.701 267.203,379.034 292.5,365.5C 293.282,368.846 292.949,372.179 291.5,375.5C 267.593,385.995 243.593,386.162 219.5,376C 218.136,372.317 217.469,368.484 217.5,364.5 Z"/></g>
<g><path style="opacity:1" fill="#e1e2e2" d="M 170.5,386.5 C 184.438,390.614 192.604,399.947 195,414.5C 195.667,428.5 195.667,442.5 195,456.5C 190.634,451.799 185.967,447.466 181,443.5C 180.833,442.667 180.667,441.833 180.5,441C 183.399,430.583 185.565,420.083 187,409.5C 185.509,407.996 183.676,407.163 181.5,407C 174.794,406.218 168.127,405.218 161.5,404C 165.164,398.505 168.164,392.671 170.5,386.5 Z"/></g>
<g><path style="opacity:1" fill="#fdce96" d="M 221.5,385.5 C 243.769,393.448 266.102,393.448 288.5,385.5C 288.833,386.333 289.167,387.167 289.5,388C 281.919,425.07 274.919,462.237 268.5,499.5C 259.833,499.5 251.167,499.5 242.5,499.5C 235.757,461.45 228.757,423.45 221.5,385.5 Z"/></g>
<g><path style="opacity:1" fill="#e3e3e4" d="M 65.5,395.5 C 78.0718,429.879 90.0718,464.546 101.5,499.5C 71.8258,499.833 42.1592,499.5 12.5,498.5C 23.6306,460.567 41.2973,426.233 65.5,395.5 Z"/></g>
<g><path style="opacity:1" fill="#e3e3e4" d="M 444.5,395.5 C 462.073,415.641 475.907,438.308 486,463.5C 490.462,475.053 494.629,486.719 498.5,498.5C 468.841,499.5 439.174,499.833 409.5,499.5C 421.16,464.844 432.826,430.177 444.5,395.5 Z"/></g>
<g><path style="opacity:1" fill="#55575a" d="M 366.5,423.5 C 382.644,423.137 389.144,430.804 386,446.5C 380.039,455.283 372.206,457.449 362.5,453C 352.083,441.501 353.416,431.667 366.5,423.5 Z"/></g>
</svg>
