<?xml version="1.0" encoding="UTF-8"?>
<!DOCTYPE svg PUBLIC "-//W3C//DTD SVG 1.1//EN" "http://www.w3.org/Graphics/SVG/1.1/DTD/svg11.dtd">
<svg xmlns="http://www.w3.org/2000/svg" version="1.1" width="512px" height="512px" style="shape-rendering:geometricPrecision; text-rendering:geometricPrecision; image-rendering:optimizeQuality; fill-rule:evenodd; clip-rule:evenodd" xmlns:xlink="http://www.w3.org/1999/xlink">
<g><path style="opacity:0.985" fill="#020202" d="M 239.5,-0.5 C 250.167,-0.5 260.833,-0.5 271.5,-0.5C 320.825,7.64619 356.325,34.3129 378,79.5C 383.374,92.6635 386.708,106.33 388,120.5C 388.333,137.167 388.667,153.833 389,170.5C 397.451,178.682 401.285,188.682 400.5,200.5C 401.285,212.318 397.451,222.318 389,230.5C 388.667,258.5 388.333,286.5 388,314.5C 386.049,325.119 379.882,331.952 369.5,335C 362.542,336.064 355.542,336.731 348.5,337C 352.958,338.981 357.458,340.814 362,342.5C 370.533,335.848 376.033,337.848 378.5,348.5C 395.032,354.51 411.365,361.01 427.5,368C 442.818,378.125 451.985,392.292 455,410.5C 455.667,438.5 455.667,466.5 455,494.5C 452.717,502.944 447.55,508.611 439.5,511.5C 421.167,511.5 402.833,511.5 384.5,511.5C 382.295,509.637 380.961,507.303 380.5,504.5C 381.043,501.246 382.71,498.746 385.5,497C 395.494,496.5 405.494,496.334 415.5,496.5C 422.175,496.666 428.842,496.5 435.5,496C 437.726,494.773 439.226,492.939 440,490.5C 440.957,462.793 440.623,435.126 439,407.5C 435.646,396.958 429.479,388.458 420.5,382C 406.674,376.003 392.674,370.503 378.5,365.5C 378.44,364.957 378.107,364.624 377.5,364.5C 376.172,386.663 376.172,408.663 377.5,430.5C 394.074,436.299 400.907,447.966 398,465.5C 392.1,483.031 379.934,490.197 361.5,487C 344.695,480.566 337.862,468.4 341,450.5C 344.534,439.796 351.7,433.129 362.5,430.5C 362.5,406.5 362.5,382.5 362.5,358.5C 353.711,355.736 345.044,352.903 336.5,350C 341.582,357.83 345.582,366.164 348.5,375C 347.652,382.183 343.652,386.516 336.5,388C 339.736,390.868 343.236,393.368 347,395.5C 349.635,398.736 350.635,402.403 350,406.5C 347.936,410.961 345.602,415.294 343,419.5C 326.625,445.085 310.125,470.585 293.5,496C 314.167,496.333 334.833,496.667 355.5,497C 359.046,498.256 361.046,500.756 361.5,504.5C 360.937,507.295 359.604,509.628 357.5,511.5C 262.167,511.5 166.833,511.5 71.5,511.5C 63.4499,508.611 58.2832,502.944 56,494.5C 55.3333,466.5 55.3333,438.5 56,410.5C 59.0149,392.292 68.1816,378.125 83.5,368C 100.184,360.606 117.184,354.106 134.5,348.5C 134.265,340.905 137.932,337.738 145.5,339C 147.333,339.5 148.5,340.667 149,342.5C 153.763,340.537 158.597,338.704 163.5,337C 156.124,336.747 148.791,336.081 141.5,335C 131.118,331.952 124.951,325.119 123,314.5C 122.667,286.5 122.333,258.5 122,230.5C 113.549,222.318 109.715,212.318 110.5,200.5C 109.715,188.682 113.549,178.682 122,170.5C 122.333,153.833 122.667,137.167 123,120.5C 130.559,63.2826 161.392,24.7826 215.5,5C 223.558,2.82553 231.558,0.992197 239.5,-0.5 Z"/></g>
<g><path style="opacity:1" fill="#a34e3d" d="M 259.5,14.5 C 304.979,34.0666 331.813,68.3999 340,117.5C 340.819,123.681 340.653,129.681 339.5,135.5C 327.205,134.072 314.871,132.905 302.5,132C 298.56,130.114 295.06,127.614 292,124.5C 287.167,117.667 282.333,110.833 277.5,104C 273.286,101.731 269.453,102.231 266,105.5C 260.677,113.969 254.51,121.802 247.5,129C 239.983,132.827 231.983,134.493 223.5,134C 220.778,135.272 219.444,137.439 219.5,140.5C 212.5,140.5 205.5,140.5 198.5,140.5C 198.556,137.439 197.222,135.272 194.5,134C 177.556,129.896 165.056,135.396 157,150.5C 156.047,153.432 155.547,156.432 155.5,159.5C 150.12,159.324 144.787,159.658 139.5,160.5C 138.505,148.345 138.171,136.011 138.5,123.5C 143.915,75.1599 168.915,41.3265 213.5,22C 228.327,16.3622 243.66,13.8622 259.5,14.5 Z"/></g>
<g><path style="opacity:1" fill="#863e2d" d="M 259.5,14.5 C 313.306,19.1487 349.473,46.8153 368,97.5C 370.726,105.964 372.226,114.63 372.5,123.5C 372.829,136.011 372.495,148.345 371.5,160.5C 366.228,159.6 360.895,159.267 355.5,159.5C 354.633,148.41 349.3,140.41 339.5,135.5C 340.653,129.681 340.819,123.681 340,117.5C 331.813,68.3999 304.979,34.0666 259.5,14.5 Z"/></g>
<g><path style="opacity:1" fill="#fcccbd" d="M 319.5,148.5 C 319.987,149.473 320.487,150.473 321,151.5C 321.667,175.833 321.667,200.167 321,224.5C 316.357,254.149 301.857,277.483 277.5,294.5C 230.642,303.155 196.809,286.155 176,243.5C 173.704,236.981 172.037,230.314 171,223.5C 170.333,200.833 170.333,178.167 171,155.5C 172.5,152.667 174.667,150.5 177.5,149C 183.61,148.912 189.61,148.245 195.5,147C 197.919,145.491 198.919,143.325 198.5,140.5C 205.5,140.5 212.5,140.5 219.5,140.5C 219.269,143.785 220.603,146.285 223.5,148C 235.363,149.617 246.363,147.283 256.5,141C 262.415,135.59 267.748,129.757 272.5,123.5C 276.905,130.742 282.572,136.909 289.5,142C 298.731,147.64 308.731,149.807 319.5,148.5 Z"/></g>
<g><path style="opacity:1" fill="#3f1d15" d="M 372.5,123.5 C 373.825,136.006 373.825,148.673 372.5,161.5C 371.893,161.376 371.56,161.043 371.5,160.5C 372.495,148.345 372.829,136.011 372.5,123.5 Z"/></g>
<g><path style="opacity:1" fill="#4d251d" d="M 138.5,123.5 C 138.171,136.011 138.505,148.345 139.5,160.5C 139.44,161.043 139.107,161.376 138.5,161.5C 137.175,148.673 137.175,136.006 138.5,123.5 Z"/></g>
<g><path style="opacity:1" fill="#fdaf9d" d="M 319.5,148.5 C 324.599,148.175 329.599,148.675 334.5,150C 337,151.167 338.833,153 340,155.5C 340.667,178.167 340.667,200.833 340,223.5C 335.692,251.782 321.192,272.949 296.5,287C 290.341,289.996 284.008,292.496 277.5,294.5C 301.857,277.483 316.357,254.149 321,224.5C 321.667,200.167 321.667,175.833 321,151.5C 320.487,150.473 319.987,149.473 319.5,148.5 Z"/></g>
<g><path style="opacity:1" fill="#040303" d="M 207.5,173.5 C 211.684,172.704 214.85,174.037 217,177.5C 217.667,185.833 217.667,194.167 217,202.5C 212.585,207.726 208.251,207.726 204,202.5C 203.333,194.167 203.333,185.833 204,177.5C 204.69,175.65 205.856,174.316 207.5,173.5 Z"/></g>
<g><path style="opacity:1" fill="#040303" d="M 297.5,173.5 C 301.684,172.704 304.85,174.037 307,177.5C 307.667,185.833 307.667,194.167 307,202.5C 302.585,207.726 298.251,207.726 294,202.5C 293.333,194.167 293.333,185.833 294,177.5C 294.69,175.65 295.856,174.316 297.5,173.5 Z"/></g>
<g><path style="opacity:1" fill="#fbad9c" d="M 146.5,174.5 C 149.167,174.5 151.833,174.5 154.5,174.5C 154.171,188.677 154.504,202.677 155.5,216.5C 155.724,220.179 156.058,223.846 156.5,227.5C 141.114,228.727 130.948,222.061 126,207.5C 123.239,190.328 130.072,179.328 146.5,174.5 Z"/></g>
<g><path style="opacity:1" fill="#855c52" d="M 146.5,174.5 C 149.287,173.523 152.287,173.19 155.5,173.5C 155.5,187.833 155.5,202.167 155.5,216.5C 154.504,202.677 154.171,188.677 154.5,174.5C 151.833,174.5 149.167,174.5 146.5,174.5 Z"/></g>
<g><path style="opacity:1" fill="#824e43" d="M 363.5,174.5 C 361.167,174.5 358.833,174.5 356.5,174.5C 356.829,188.677 356.496,202.677 355.5,216.5C 355.5,202.167 355.5,187.833 355.5,173.5C 358.385,173.194 361.052,173.527 363.5,174.5 Z"/></g>
<g><path style="opacity:1" fill="#f5937e" d="M 363.5,174.5 C 380.648,178.761 387.815,189.761 385,207.5C 380.091,222.046 369.924,228.712 354.5,227.5C 354.942,223.846 355.276,220.179 355.5,216.5C 356.496,202.677 356.829,188.677 356.5,174.5C 358.833,174.5 361.167,174.5 363.5,174.5 Z"/></g>
<g><path style="opacity:1" fill="#060404" d="M 252.5,187.5 C 262.552,187.932 265.052,192.598 260,201.5C 256.5,205.667 253,209.833 249.5,214C 253.759,217.381 257.926,220.881 262,224.5C 263.515,234.158 259.681,237.325 250.5,234C 244.021,229.519 238.188,224.352 233,218.5C 231.886,213.959 232.886,209.959 236,206.5C 241.528,200.054 247.028,193.721 252.5,187.5 Z"/></g>
<g><path style="opacity:1" fill="#a14d3d" d="M 137.5,240.5 C 145.036,242.258 152.703,242.925 160.5,242.5C 165.893,259.779 175.226,274.613 188.5,287C 193.473,290.31 198.14,293.977 202.5,298C 198.761,305.478 194.761,312.811 190.5,320C 175.5,320.667 160.5,320.667 145.5,320C 141.572,318.407 139.072,315.573 138,311.5C 137.5,287.836 137.333,264.169 137.5,240.5 Z"/></g>
<g><path style="opacity:1" fill="#853d2d" d="M 337.5,320.5 C 338.32,318.188 339.153,315.854 340,313.5C 340.828,297.661 340.661,281.995 339.5,266.5C 344.702,259.238 348.369,251.238 350.5,242.5C 358.247,242.648 365.913,241.981 373.5,240.5C 373.971,265.232 373.471,289.898 372,314.5C 370.52,317.663 368.02,319.496 364.5,320C 355.506,320.5 346.506,320.666 337.5,320.5 Z"/></g>
<g><path style="opacity:1" fill="#050303" d="M 222.5,242.5 C 224.527,242.338 226.527,242.505 228.5,243C 241.034,255.1 255.367,257.767 271.5,251C 275.043,249.392 278.043,247.058 280.5,244C 289.681,240.675 293.515,243.842 292,253.5C 279.246,266.571 263.746,271.738 245.5,269C 235.049,266.527 226.216,261.361 219,253.5C 217.663,248.872 218.83,245.205 222.5,242.5 Z"/></g>
<g><path style="opacity:1" fill="#a24e3d" d="M 339.5,266.5 C 340.661,281.995 340.828,297.661 340,313.5C 339.153,315.854 338.32,318.188 337.5,320.5C 331.824,320.666 326.157,320.499 320.5,320C 316.239,312.811 312.239,305.478 308.5,298C 321.021,289.645 331.355,279.145 339.5,266.5 Z"/></g>
<g><path style="opacity:1" fill="#7c5145" d="M 224.5,307.5 C 222.522,318.451 221.856,329.784 222.5,341.5C 221.505,330.012 221.172,318.345 221.5,306.5C 222.791,306.263 223.791,306.596 224.5,307.5 Z"/></g>
<g><path style="opacity:1" fill="#fea68e" d="M 224.5,307.5 C 241.206,312.852 258.206,313.852 275.5,310.5C 276.659,321.659 276.826,332.992 276,344.5C 271.713,358.647 268.213,372.981 265.5,387.5C 254.833,387.5 244.167,387.5 233.5,387.5C 230.148,372.091 226.481,356.758 222.5,341.5C 221.856,329.784 222.522,318.451 224.5,307.5 Z"/></g>
<g><path style="opacity:1" fill="#f1917d" d="M 287.5,307.5 C 288.495,318.321 288.828,329.321 288.5,340.5C 284.516,356.434 280.85,372.434 277.5,388.5C 262.657,388.829 247.99,388.496 233.5,387.5C 244.167,387.5 254.833,387.5 265.5,387.5C 268.213,372.981 271.713,358.647 276,344.5C 276.826,332.992 276.659,321.659 275.5,310.5C 279.404,309.508 283.404,308.508 287.5,307.5 Z"/></g>
<g><path style="opacity:1" fill="#7b493f" d="M 287.5,307.5 C 287.56,306.957 287.893,306.624 288.5,306.5C 289.824,317.993 289.824,329.326 288.5,340.5C 288.828,329.321 288.495,318.321 287.5,307.5 Z"/></g>
<g><path style="opacity:1" fill="#7a7674" d="M 207.5,342.5 C 206.833,336.167 206.167,329.833 205.5,323.5C 205.783,322.711 206.283,322.044 207,321.5C 207.5,328.492 207.666,335.492 207.5,342.5 Z"/></g>
<g><path style="opacity:1" fill="#78726f" d="M 305.5,323.5 C 304.833,329.833 304.167,336.167 303.5,342.5C 303.334,335.492 303.5,328.492 304,321.5C 304.717,322.044 305.217,322.711 305.5,323.5 Z"/></g>
<g><path style="opacity:1" fill="#efe6e2" d="M 205.5,323.5 C 206.167,329.833 206.833,336.167 207.5,342.5C 220.475,393.733 233.142,445.067 245.5,496.5C 241.774,496.823 238.107,496.489 234.5,495.5C 227.802,485.3 221.302,474.967 215,464.5C 212.106,460.124 208.273,458.79 203.5,460.5C 200.314,454.782 196.648,449.448 192.5,444.5C 195.355,441.408 196.188,437.741 195,433.5C 188.916,424.335 183.083,415.002 177.5,405.5C 185.601,398.609 194.268,392.442 203.5,387C 209.062,381.837 208.729,377.171 202.5,373C 194.812,372.831 187.145,372.331 179.5,371.5C 188.597,355.735 197.264,339.735 205.5,323.5 Z"/></g>
<g><path style="opacity:1" fill="#eee3df" d="M 305.5,323.5 C 313.736,339.735 322.403,355.735 331.5,371.5C 323.855,372.331 316.188,372.831 308.5,373C 302.271,377.171 301.938,381.837 307.5,387C 316.732,392.442 325.399,398.609 333.5,405.5C 314.5,435.5 295.5,465.5 276.5,495.5C 272.893,496.489 269.226,496.823 265.5,496.5C 277.858,445.067 290.525,393.733 303.5,342.5C 304.167,336.167 304.833,329.833 305.5,323.5 Z"/></g>
<g><path style="opacity:1" fill="#f3eeec" d="M 192.5,444.5 C 196.648,449.448 200.314,454.782 203.5,460.5C 200.697,463.204 199.863,466.537 201,470.5C 206.126,479.255 211.626,487.755 217.5,496C 204.838,496.5 192.171,496.667 179.5,496.5C 179.92,483.772 179.42,471.106 178,458.5C 172.747,445.579 163.414,437.246 150,433.5C 149.167,408.493 149.334,383.493 150.5,358.5C 158.357,354.939 166.357,352.105 174.5,350C 169.535,357.761 165.535,365.928 162.5,374.5C 163.123,381.959 167.123,386.459 174.5,388C 171.264,390.868 167.764,393.368 164,395.5C 159.851,400.584 159.518,405.917 163,411.5C 170.042,422.419 177.209,433.252 184.5,444C 187.146,444.497 189.813,444.664 192.5,444.5 Z"/></g>
<g><path style="opacity:1" fill="#f6f0ee" d="M 132.5,364.5 C 134.49,387.476 135.157,410.809 134.5,434.5C 117.751,438.085 107.918,448.419 105,465.5C 104.5,475.828 104.334,486.161 104.5,496.5C 94.8276,496.666 85.1609,496.5 75.5,496C 73.1853,494.891 71.6853,493.057 71,490.5C 70.0433,462.793 70.3766,435.126 72,407.5C 76.2521,393.58 85.0854,383.746 98.5,378C 110.132,373.962 121.465,369.462 132.5,364.5 Z"/></g>
<g><path style="opacity:1" fill="#efe6e2" d="M 378.5,365.5 C 392.674,370.503 406.674,376.003 420.5,382C 429.479,388.458 435.646,396.958 439,407.5C 440.623,435.126 440.957,462.793 440,490.5C 439.226,492.939 437.726,494.773 435.5,496C 428.842,496.5 422.175,496.666 415.5,496.5C 415.667,473.498 415.5,450.498 415,427.5C 410.335,406.668 397.835,393.001 377.5,386.5C 377.175,379.313 377.509,372.313 378.5,365.5 Z"/></g>
<g><path style="opacity:1" fill="#f5efec" d="M 377.5,430.5 C 377.5,415.833 377.5,401.167 377.5,386.5C 397.835,393.001 410.335,406.668 415,427.5C 415.5,450.498 415.667,473.498 415.5,496.5C 405.494,496.334 395.494,496.5 385.5,497C 382.71,498.746 381.043,501.246 380.5,504.5C 374.167,504.5 367.833,504.5 361.5,504.5C 361.046,500.756 359.046,498.256 355.5,497C 334.833,496.667 314.167,496.333 293.5,496C 310.125,470.585 326.625,445.085 343,419.5C 345.602,415.294 347.936,410.961 350,406.5C 350.635,402.403 349.635,398.736 347,395.5C 343.236,393.368 339.736,390.868 336.5,388C 343.652,386.516 347.652,382.183 348.5,375C 345.582,366.164 341.582,357.83 336.5,350C 345.044,352.903 353.711,355.736 362.5,358.5C 362.5,382.5 362.5,406.5 362.5,430.5C 351.7,433.129 344.534,439.796 341,450.5C 337.862,468.4 344.695,480.566 361.5,487C 379.934,490.197 392.1,483.031 398,465.5C 400.907,447.966 394.074,436.299 377.5,430.5 Z"/></g>
<g><path style="opacity:1" fill="#797675" d="M 378.5,365.5 C 377.509,372.313 377.175,379.313 377.5,386.5C 377.5,401.167 377.5,415.833 377.5,430.5C 376.172,408.663 376.172,386.663 377.5,364.5C 378.107,364.624 378.44,364.957 378.5,365.5 Z"/></g>
<g><path style="opacity:1" fill="#2a6067" d="M 272.5,405.5 C 268.971,403.577 264.971,402.911 260.5,403.5C 252.757,402.87 245.424,403.537 238.5,405.5C 237.596,404.791 237.263,403.791 237.5,402.5C 249.5,402.5 261.5,402.5 273.5,402.5C 273.737,403.791 273.404,404.791 272.5,405.5 Z"/></g>
<g><path style="opacity:1" fill="#68d4e2" d="M 260.5,403.5 C 257.005,417.482 253.505,431.482 250,445.5C 249.617,446.056 249.117,446.389 248.5,446.5C 245.009,432.87 241.676,419.204 238.5,405.5C 245.424,403.537 252.757,402.87 260.5,403.5 Z"/></g>
<g><path style="opacity:1" fill="#2ecbdc" d="M 260.5,403.5 C 264.971,402.911 268.971,403.577 272.5,405.5C 267.612,427.385 261.945,449.052 255.5,470.5C 253.155,462.484 250.822,454.484 248.5,446.5C 249.117,446.389 249.617,446.056 250,445.5C 253.505,431.482 257.005,417.482 260.5,403.5 Z"/></g>
<g><path style="opacity:1" fill="#544d55" d="M 364.5,445.5 C 378.533,443.029 384.7,449.029 383,463.5C 379.774,470.532 374.274,473.532 366.5,472.5C 372.368,464.151 372.868,455.484 368,446.5C 366.989,445.663 365.822,445.33 364.5,445.5 Z"/></g>
<g><path style="opacity:1" fill="#665c66" d="M 364.5,445.5 C 365.822,445.33 366.989,445.663 368,446.5C 372.868,455.484 372.368,464.151 366.5,472.5C 359.16,470.817 355.493,466.15 355.5,458.5C 355.314,451.85 358.314,447.517 364.5,445.5 Z"/></g>
<g><path style="opacity:1" fill="#f6f0ef" d="M 135.5,448.5 C 148.916,446.289 158.416,451.289 164,463.5C 164.5,474.495 164.667,485.495 164.5,496.5C 149.5,496.5 134.5,496.5 119.5,496.5C 119.334,486.161 119.5,475.828 120,465.5C 122.623,457.383 127.789,451.716 135.5,448.5 Z"/></g>
</svg>
